%TF.GenerationSoftware,KiCad,Pcbnew,9.0.8*%
%TF.CreationDate,2026-06-26T13:12:10-05:00*%
%TF.ProjectId,pwm_radar_with_antenna,70776d5f-7261-4646-9172-5f776974685f,rev?*%
%TF.SameCoordinates,Original*%
%TF.FileFunction,Copper,L1,Top*%
%TF.FilePolarity,Positive*%
%FSLAX46Y46*%
G04 Gerber Fmt 4.6, Leading zero omitted, Abs format (unit mm)*
G04 Created by KiCad (PCBNEW 9.0.8) date 2026-06-26 13:12:10*
%MOMM*%
%LPD*%
G01*
G04 APERTURE LIST*
G04 Aperture macros list*
%AMRoundRect*
0 Rectangle with rounded corners*
0 $1 Rounding radius*
0 $2 $3 $4 $5 $6 $7 $8 $9 X,Y pos of 4 corners*
0 Add a 4 corners polygon primitive as box body*
4,1,4,$2,$3,$4,$5,$6,$7,$8,$9,$2,$3,0*
0 Add four circle primitives for the rounded corners*
1,1,$1+$1,$2,$3*
1,1,$1+$1,$4,$5*
1,1,$1+$1,$6,$7*
1,1,$1+$1,$8,$9*
0 Add four rect primitives between the rounded corners*
20,1,$1+$1,$2,$3,$4,$5,0*
20,1,$1+$1,$4,$5,$6,$7,0*
20,1,$1+$1,$6,$7,$8,$9,0*
20,1,$1+$1,$8,$9,$2,$3,0*%
G04 Aperture macros list end*
%TA.AperFunction,Conductor*%
%ADD10C,0.000010*%
%TD*%
%TA.AperFunction,Conductor*%
%ADD11C,0.000000*%
%TD*%
%TA.AperFunction,Conductor*%
%ADD12C,0.000100*%
%TD*%
%TA.AperFunction,EtchedComponent*%
%ADD13C,0.000000*%
%TD*%
%TA.AperFunction,ComponentPad*%
%ADD14C,3.600000*%
%TD*%
%TA.AperFunction,ConnectorPad*%
%ADD15C,5.600000*%
%TD*%
%TA.AperFunction,SMDPad,CuDef*%
%ADD16R,0.660400X0.203200*%
%TD*%
%TA.AperFunction,SMDPad,CuDef*%
%ADD17R,0.609600X1.193800*%
%TD*%
%TA.AperFunction,SMDPad,CuDef*%
%ADD18R,1.600000X1.600000*%
%TD*%
%TA.AperFunction,SMDPad,CuDef*%
%ADD19R,0.400000X0.250000*%
%TD*%
%TA.AperFunction,SMDPad,CuDef*%
%ADD20R,0.250000X0.400000*%
%TD*%
%TA.AperFunction,SMDPad,CuDef*%
%ADD21RoundRect,0.160000X0.197500X0.160000X-0.197500X0.160000X-0.197500X-0.160000X0.197500X-0.160000X0*%
%TD*%
%TA.AperFunction,ConnectorPad*%
%ADD22R,5.200000X0.400000*%
%TD*%
%TA.AperFunction,ComponentPad*%
%ADD23R,5.000000X6.000000*%
%TD*%
%TA.AperFunction,ComponentPad*%
%ADD24R,0.850000X0.850000*%
%TD*%
%TA.AperFunction,ConnectorPad*%
%ADD25R,1.000000X1.000000*%
%TD*%
%TA.AperFunction,ViaPad*%
%ADD26C,0.600000*%
%TD*%
%TA.AperFunction,ViaPad*%
%ADD27C,0.700000*%
%TD*%
%TA.AperFunction,Conductor*%
%ADD28C,0.200000*%
%TD*%
%TA.AperFunction,Conductor*%
%ADD29C,1.100000*%
%TD*%
%TA.AperFunction,Conductor*%
%ADD30C,1.000000*%
%TD*%
%TA.AperFunction,Conductor*%
%ADD31C,0.500000*%
%TD*%
%TA.AperFunction,Conductor*%
%ADD32C,0.100000*%
%TD*%
%TA.AperFunction,Conductor*%
%ADD33C,0.150000*%
%TD*%
%TA.AperFunction,Conductor*%
%ADD34C,0.300000*%
%TD*%
G04 APERTURE END LIST*
D10*
%TO.N,Net-(J1-In)*%
X117791398Y-89314472D02*
X117791398Y-89514472D01*
X116501398Y-89924472D01*
X116481398Y-88944472D01*
X117791398Y-89314472D01*
%TA.AperFunction,Conductor*%
G36*
X117791398Y-89314472D02*
G01*
X117791398Y-89514472D01*
X116501398Y-89924472D01*
X116481398Y-88944472D01*
X117791398Y-89314472D01*
G37*
%TD.AperFunction*%
D11*
%TA.AperFunction,Conductor*%
%TO.N,GND*%
G36*
X135991398Y-89144472D02*
G01*
X135591398Y-89144472D01*
X135551398Y-88584472D01*
X136201398Y-88564472D01*
X135991398Y-89144472D01*
G37*
%TD.AperFunction*%
D12*
%TO.N,RF1+*%
X120891398Y-88744472D02*
X120541398Y-88914472D01*
X119261398Y-88854472D01*
X119261398Y-88654472D01*
X120131398Y-88094472D01*
X120891398Y-88744472D01*
%TA.AperFunction,Conductor*%
G36*
X120891398Y-88744472D02*
G01*
X120541398Y-88914472D01*
X119261398Y-88854472D01*
X119261398Y-88654472D01*
X120131398Y-88094472D01*
X120891398Y-88744472D01*
G37*
%TD.AperFunction*%
%TO.N,RF1-*%
X120881398Y-90084472D02*
X120131398Y-90734472D01*
X119261398Y-90174472D01*
X119261398Y-89974472D01*
X120541398Y-89914472D01*
X120881398Y-90084472D01*
%TA.AperFunction,Conductor*%
G36*
X120881398Y-90084472D02*
G01*
X120131398Y-90734472D01*
X119261398Y-90174472D01*
X119261398Y-89974472D01*
X120541398Y-89914472D01*
X120881398Y-90084472D01*
G37*
%TD.AperFunction*%
D11*
%TA.AperFunction,Conductor*%
%TO.N,RF1+*%
G36*
X134981398Y-87164472D02*
G01*
X134631398Y-87964472D01*
X134391398Y-87964472D01*
X134071398Y-87234472D01*
X134021398Y-87074472D01*
X134981398Y-87164472D01*
G37*
%TD.AperFunction*%
%TA.AperFunction,Conductor*%
%TO.N,GND*%
G36*
X135601398Y-88194472D02*
G01*
X135361398Y-88374472D01*
X134791398Y-88324472D01*
X134791398Y-87934472D01*
X135231398Y-87854472D01*
X135601398Y-88194472D01*
G37*
%TD.AperFunction*%
%TA.AperFunction,Conductor*%
G36*
X135501398Y-90544472D02*
G01*
X135161398Y-90904472D01*
X134791398Y-90894472D01*
X134791398Y-90504472D01*
X135311398Y-90454472D01*
X135501398Y-90544472D01*
G37*
%TD.AperFunction*%
%TA.AperFunction,Conductor*%
%TO.N,RF1-*%
G36*
X134954590Y-91624472D02*
G01*
X135004590Y-91784472D01*
X134044590Y-91694472D01*
X134391398Y-90874472D01*
X134634590Y-90874472D01*
X134954590Y-91624472D01*
G37*
%TD.AperFunction*%
%TA.AperFunction,Conductor*%
%TO.N,GND*%
G36*
X136121398Y-90184472D02*
G01*
X135811398Y-90584472D01*
X135581398Y-90344472D01*
X135601398Y-89694472D01*
X136001398Y-89694472D01*
X136121398Y-90184472D01*
G37*
%TD.AperFunction*%
%TA.AperFunction,Conductor*%
%TO.N,Net-(U4-RFC)*%
G36*
X136751398Y-89884472D02*
G01*
X135946270Y-89535898D01*
X135946270Y-89295898D01*
X136676270Y-88975898D01*
X136836270Y-88925898D01*
X136751398Y-89884472D01*
G37*
%TD.AperFunction*%
%TA.AperFunction,Conductor*%
%TO.N,GND*%
G36*
X134211398Y-90504472D02*
G01*
X134221398Y-90894472D01*
X133861398Y-90894472D01*
X133631398Y-90844472D01*
X133631398Y-90464472D01*
X133751398Y-90454472D01*
X134211398Y-90504472D01*
G37*
%TD.AperFunction*%
%TA.AperFunction,Conductor*%
G36*
X134231398Y-87934472D02*
G01*
X134231398Y-88324472D01*
X133651398Y-88374472D01*
X133571398Y-88334472D01*
X133321398Y-88084472D01*
X133601398Y-87674472D01*
X134231398Y-87934472D01*
G37*
%TD.AperFunction*%
D13*
%TA.AperFunction,EtchedComponent*%
%TD*%
%TO.C,U5*%
G36*
X151839625Y-83465586D02*
G01*
X152051398Y-83514472D01*
X152364540Y-83724445D01*
X152551398Y-83914472D01*
X152750435Y-84164467D01*
X151451398Y-84914481D01*
X151451398Y-88914475D01*
X150451398Y-89914475D01*
X146501398Y-89914475D01*
X146501398Y-88914475D01*
X150451398Y-88914475D01*
X150451398Y-84914475D01*
X150487111Y-84728904D01*
X150551398Y-84314472D01*
X150655333Y-83643146D01*
X150701399Y-83615437D01*
X151063171Y-83465586D01*
X151451398Y-83414472D01*
X151839625Y-83465586D01*
G37*
%TD.AperFunction*%
D14*
%TO.P,H4,1,1*%
%TO.N,GND*%
X142190000Y-78120000D03*
D15*
X142190000Y-78120000D03*
%TD*%
D14*
%TO.P,H3,1,1*%
%TO.N,GND*%
X142200000Y-100420000D03*
D15*
X142200000Y-100420000D03*
%TD*%
D14*
%TO.P,H2,1,1*%
%TO.N,GND*%
X111630000Y-100550000D03*
D15*
X111630000Y-100550000D03*
%TD*%
D14*
%TO.P,H1,1,1*%
%TO.N,GND*%
X111630000Y-78270000D03*
D15*
X111630000Y-78270000D03*
%TD*%
D16*
%TO.P,U1,1,GND*%
%TO.N,GND*%
X117555598Y-88754072D03*
%TO.P,U1,2,Primary*%
%TO.N,Net-(J1-In)*%
X117555598Y-89414472D03*
%TO.P,U1,3,GND*%
%TO.N,GND*%
X117555598Y-90074872D03*
%TO.P,U1,4,Secondary*%
%TO.N,RF1-*%
X119511398Y-90074872D03*
%TO.P,U1,5,NC*%
%TO.N,GND*%
X119511398Y-89414472D03*
%TO.P,U1,6,Secondary_Dot*%
%TO.N,RF1+*%
X119511398Y-88754072D03*
D17*
%TO.P,U1,7,GND_PAD*%
%TO.N,GND*%
X118533498Y-89414472D03*
%TD*%
D18*
%TO.P,U2,*%
%TO.N,GND*%
X134511398Y-89414472D03*
D19*
%TO.P,U2,1,GND*%
X135796397Y-90214473D03*
%TO.P,U2,2,GND*%
X135796397Y-89814471D03*
%TO.P,U2,3,RFC*%
%TO.N,Net-(U4-RFC)*%
X135796397Y-89414472D03*
%TO.P,U2,4,GND*%
%TO.N,GND*%
X135796397Y-89014473D03*
%TO.P,U2,5,GND*%
X135796397Y-88614471D03*
D20*
%TO.P,U2,6,GND*%
X135311399Y-88129473D03*
%TO.P,U2,7,GND*%
X134911397Y-88129473D03*
%TO.P,U2,8,RF1*%
%TO.N,RF1+*%
X134511398Y-88129473D03*
%TO.P,U2,9,GND*%
%TO.N,GND*%
X134111399Y-88129473D03*
%TO.P,U2,10,GND*%
X133711397Y-88129473D03*
D19*
%TO.P,U2,11,VDD*%
%TO.N,VDD*%
X133226399Y-88614471D03*
%TO.P,U2,12,CTRL*%
%TO.N,CTRL*%
X133226399Y-89014473D03*
%TO.P,U2,13,GND*%
%TO.N,GND*%
X133226399Y-89414472D03*
%TO.P,U2,14,EN*%
%TO.N,EN*%
X133226399Y-89814471D03*
%TO.P,U2,15,VSS*%
%TO.N,VSS*%
X133226399Y-90214473D03*
D20*
%TO.P,U2,16,GND*%
%TO.N,GND*%
X133711397Y-90699471D03*
%TO.P,U2,17,GND*%
X134111399Y-90699471D03*
%TO.P,U2,18,RF2*%
%TO.N,RF1-*%
X134511398Y-90699471D03*
%TO.P,U2,19,GND*%
%TO.N,GND*%
X134911397Y-90699471D03*
%TO.P,U2,20,GND*%
X135311399Y-90699471D03*
%TD*%
D21*
%TO.P,R2,1*%
%TO.N,EN*%
X131248898Y-90174472D03*
%TO.P,R2,2*%
%TO.N,Net-(J7-Pin_1)*%
X130053898Y-90174472D03*
%TD*%
D22*
%TO.P,J1,1,In*%
%TO.N,Net-(J1-In)*%
X110525000Y-89451972D03*
D23*
%TO.P,J1,2,Ext*%
%TO.N,GND*%
X110525000Y-85426972D03*
X110525000Y-93476972D03*
%TD*%
D21*
%TO.P,R1,1*%
%TO.N,CTRL*%
X128528898Y-89044472D03*
%TO.P,R1,2*%
%TO.N,Net-(J2-Pin_1)*%
X127333898Y-89044472D03*
%TD*%
D24*
%TO.P,J3,1,Pin_1*%
%TO.N,VDD*%
X130401398Y-88044472D03*
%TD*%
D25*
%TO.P,U5,1,Ant_In*%
%TO.N,Net-(U4-RFC)*%
X147001398Y-89414472D03*
%TD*%
D24*
%TO.P,J2,1,Pin_1*%
%TO.N,Net-(J2-Pin_1)*%
X125431398Y-89094472D03*
%TD*%
%TO.P,J8,1,Pin_1*%
%TO.N,VSS*%
X130300000Y-91800000D03*
%TD*%
%TO.P,J7,1,Pin_1*%
%TO.N,Net-(J7-Pin_1)*%
X127911398Y-90774472D03*
%TD*%
D26*
%TO.N,GND*%
X116680000Y-87450000D03*
X117200000Y-88040000D03*
X137640000Y-95520000D03*
X139400000Y-92610000D03*
X138350000Y-93070000D03*
X138800000Y-93860000D03*
X137800000Y-94360000D03*
X139850000Y-93400000D03*
X136710000Y-96840000D03*
X137710000Y-96340000D03*
X137710000Y-97240000D03*
X136710000Y-98575528D03*
X137710000Y-98075528D03*
X136710000Y-97740000D03*
X138550000Y-95060000D03*
X139550000Y-94560000D03*
X139550000Y-95460000D03*
X138550000Y-96795528D03*
X139550000Y-96295528D03*
X138550000Y-95960000D03*
X138010000Y-81280000D03*
X139010000Y-80780000D03*
X139010000Y-81680000D03*
X138010000Y-83015528D03*
X139010000Y-82515528D03*
X138010000Y-82180000D03*
X138140000Y-83894472D03*
X139140000Y-83394472D03*
X140040000Y-83894472D03*
X138140000Y-85630000D03*
X139140000Y-84294472D03*
X138140000Y-84794472D03*
X140040000Y-84730000D03*
X139140000Y-85130000D03*
X140040000Y-82994472D03*
D27*
X124080453Y-81310944D03*
X124080444Y-97517987D03*
X123211398Y-96764472D03*
X123211398Y-81964472D03*
X130511398Y-98914472D03*
X121768141Y-83622194D03*
X133573868Y-98460521D03*
X127450045Y-98913718D03*
X118743631Y-92182239D03*
X134942362Y-81310966D03*
X136837947Y-94705938D03*
X125606977Y-98530382D03*
X131572751Y-79915223D03*
X135614912Y-96845424D03*
X137010643Y-85353118D03*
X136362607Y-95853505D03*
X137010645Y-93475846D03*
X132597120Y-98792296D03*
X137011398Y-91914472D03*
X118743631Y-86646705D03*
X128511398Y-79914472D03*
X117911398Y-91964472D03*
X130511398Y-79914472D03*
X125606978Y-98530382D03*
X127411398Y-79864472D03*
X133573867Y-98460521D03*
X117140000Y-86880000D03*
X126411398Y-98864472D03*
X136837951Y-84123017D03*
X129511398Y-79914472D03*
X121768141Y-95206749D03*
X133950434Y-80563260D03*
X138094731Y-91914472D03*
X124711398Y-98064472D03*
X121012013Y-94450621D03*
X120255886Y-85134449D03*
X128511398Y-98914472D03*
X122524268Y-82866067D03*
X119499758Y-85890577D03*
X136362611Y-82975443D03*
X121012013Y-84378322D03*
X120255886Y-93694494D03*
X137011398Y-86914472D03*
X132802856Y-80087916D03*
X125009015Y-80599401D03*
X135614913Y-81983518D03*
X131572751Y-98913717D03*
X117911398Y-86964472D03*
X119499758Y-92938366D03*
X117110000Y-92220000D03*
X134942351Y-97517986D03*
X134311398Y-98064472D03*
X126079579Y-80127687D03*
X122524268Y-95962876D03*
X129511398Y-98914472D03*
D26*
X116937500Y-91212308D03*
X116460000Y-91690000D03*
X117400000Y-90770000D03*
X127000000Y-93200000D03*
X142900000Y-82600000D03*
X129432500Y-93300000D03*
X144600000Y-94864472D03*
X123911398Y-89964472D03*
X136381398Y-90434472D03*
X143811398Y-93664472D03*
X117761398Y-90184472D03*
X127900000Y-86000000D03*
D27*
X114894731Y-91914472D03*
D26*
X137411398Y-87664472D03*
X127100000Y-85700000D03*
X128600000Y-93300000D03*
X141600000Y-94500000D03*
X142600000Y-95100000D03*
X130400000Y-94000000D03*
X138311398Y-87164472D03*
X139111398Y-86764472D03*
D27*
X113811398Y-91914472D03*
X112578065Y-87014472D03*
D26*
X142900000Y-81700000D03*
X125211398Y-87264472D03*
X142411398Y-84764472D03*
X118611398Y-90500000D03*
X133111398Y-91114472D03*
X118533498Y-87900000D03*
X126500000Y-92600000D03*
X128600000Y-85300000D03*
X141011398Y-85564472D03*
X135011398Y-89914472D03*
X143111398Y-84364472D03*
X133311398Y-87614472D03*
X140600000Y-93100000D03*
X132400000Y-86500000D03*
X134011398Y-88914472D03*
X143800000Y-82300000D03*
X125911398Y-86864472D03*
X139711398Y-86364472D03*
D27*
X115870000Y-92110000D03*
D26*
X141000000Y-83500000D03*
X120200000Y-89414472D03*
D27*
X110411398Y-87014472D03*
D26*
X142000000Y-82100000D03*
X142600000Y-94100000D03*
X131800000Y-93400000D03*
X127900000Y-93100000D03*
X125311398Y-91364472D03*
X143800000Y-81400000D03*
D27*
X108561398Y-91924472D03*
D26*
X123711398Y-88764472D03*
X143600000Y-94800000D03*
X124511398Y-90664472D03*
X132700000Y-92000000D03*
X142900000Y-83435528D03*
X138511398Y-91264472D03*
X131400000Y-85400000D03*
X142000000Y-83835528D03*
X137111398Y-90664472D03*
D27*
X110511398Y-91914472D03*
D26*
X132000000Y-85900000D03*
X132800000Y-87000000D03*
X141411398Y-92464472D03*
D27*
X114894731Y-87014472D03*
X111494731Y-87014472D03*
D26*
X131200000Y-94000000D03*
X122400000Y-89414472D03*
X126700000Y-87100000D03*
D27*
X109591398Y-91914472D03*
D26*
X129600000Y-85300000D03*
D27*
X113811398Y-87014472D03*
D26*
X125911398Y-91964472D03*
X142600000Y-96100000D03*
X140011398Y-91864472D03*
X141600000Y-95500000D03*
X134511398Y-89414472D03*
X143800000Y-83135528D03*
X124511398Y-87964472D03*
X140600000Y-94100000D03*
X144811398Y-82264472D03*
X137811398Y-90964472D03*
X135011398Y-89014472D03*
X126600000Y-86300000D03*
X141000000Y-82600000D03*
X139311398Y-91564472D03*
X128500000Y-94000000D03*
X136511398Y-88314472D03*
X144600000Y-93864472D03*
X119511398Y-89414472D03*
D27*
X112678065Y-91914472D03*
D26*
X125300000Y-90500000D03*
X134111398Y-89914472D03*
X127600000Y-93800000D03*
X120900000Y-89414472D03*
X141600000Y-93500000D03*
X141600000Y-96500000D03*
D27*
X115978065Y-87014472D03*
D26*
X136111398Y-87514472D03*
X142911398Y-93064472D03*
D27*
X108611398Y-86984472D03*
D26*
X125900000Y-87600000D03*
X142211398Y-92764472D03*
X140311398Y-85964472D03*
D27*
X109561398Y-86994472D03*
D26*
X144600000Y-95864472D03*
X131981398Y-89574472D03*
X140600000Y-96100000D03*
X141711398Y-85164472D03*
X118611398Y-89414472D03*
X143600000Y-95800000D03*
X144811398Y-83164472D03*
D27*
X111594731Y-91914472D03*
D26*
X135911398Y-91114472D03*
X144811398Y-81364472D03*
X127432500Y-92300000D03*
X118611398Y-91300000D03*
X121600000Y-89414472D03*
X129400000Y-94000000D03*
X140711398Y-92164472D03*
X141000000Y-84335528D03*
X143811398Y-83964472D03*
X142000000Y-83000000D03*
X123111398Y-89364472D03*
X140600000Y-95100000D03*
X118533498Y-88600000D03*
X117651398Y-88594472D03*
X129100000Y-86000000D03*
X130500000Y-85300000D03*
X132200000Y-92700000D03*
X126100000Y-91200000D03*
X127800000Y-85300000D03*
%TD*%
D28*
%TO.N,GND*%
X117558065Y-88594472D02*
X115978065Y-87014472D01*
X117651398Y-88594472D02*
X117558065Y-88594472D01*
X117708065Y-90184472D02*
X117761398Y-90184472D01*
X115870000Y-92022537D02*
X117708065Y-90184472D01*
X115870000Y-92110000D02*
X115870000Y-92022537D01*
D29*
%TO.N,Net-(J1-In)*%
X110300000Y-89450000D02*
X108600000Y-89450000D01*
X110300000Y-89450000D02*
X113600000Y-89450000D01*
D30*
%TO.N,RF1-*%
X125804291Y-95707365D02*
X120511398Y-90414472D01*
X133218504Y-95707364D02*
X133804291Y-95121578D01*
X127511398Y-96414472D02*
X131511398Y-96414472D01*
X131511398Y-96414472D02*
X131511398Y-96414472D01*
X134511398Y-93414472D02*
X134511398Y-91864472D01*
X133804290Y-95121577D02*
G75*
G03*
X134511381Y-93414472I-1707090J1707077D01*
G01*
X133218504Y-95707364D02*
G75*
G02*
X131511398Y-96414481I-1707104J1707064D01*
G01*
X125804291Y-95707365D02*
G75*
G03*
X127511398Y-96414486I1707109J1707065D01*
G01*
%TO.N,RF1+*%
X131511398Y-82414472D02*
X131511398Y-82414472D01*
X134511396Y-86994470D02*
X134511398Y-86994472D01*
X127511398Y-82414472D02*
X131511398Y-82414472D01*
X134511396Y-85414472D02*
X134511396Y-86994470D01*
X125804291Y-83121578D02*
X120511398Y-88414472D01*
X133804291Y-83707365D02*
X133218504Y-83121578D01*
X133218504Y-83121578D02*
G75*
G03*
X131511398Y-82414478I-1707104J-1707122D01*
G01*
X133804291Y-83707365D02*
G75*
G02*
X134511422Y-85414472I-1707091J-1707135D01*
G01*
X127511398Y-82414472D02*
G75*
G03*
X125804290Y-83121577I2J-2414228D01*
G01*
D31*
%TO.N,GND*%
X136016396Y-90434472D02*
X135796397Y-90214473D01*
D32*
X132821398Y-89394472D02*
X132841398Y-89414472D01*
D31*
X118533498Y-88600000D02*
X118533498Y-87900000D01*
D28*
X118533498Y-86856838D02*
X118743631Y-86646705D01*
D31*
X136096396Y-88314472D02*
X135796397Y-88614471D01*
D32*
X131981398Y-89574472D02*
X132061398Y-89574472D01*
D31*
X136111398Y-87514472D02*
X135926400Y-87514472D01*
X133111398Y-91114472D02*
X133296396Y-91114472D01*
X136511398Y-88314472D02*
X136096396Y-88314472D01*
D32*
X132241398Y-89394472D02*
X132821398Y-89394472D01*
D28*
X120200000Y-89414472D02*
X120900000Y-89414472D01*
X118611398Y-92050006D02*
X118743631Y-92182239D01*
D31*
X135726400Y-91114472D02*
X135311399Y-90699471D01*
X133296396Y-91114472D02*
X133711397Y-90699471D01*
D28*
X123061398Y-89414472D02*
X123111398Y-89364472D01*
D31*
X118611398Y-91300000D02*
X118611398Y-92050006D01*
D28*
X122400000Y-89414472D02*
X123061398Y-89414472D01*
D31*
X118533498Y-89414472D02*
X118533498Y-88600000D01*
X135926400Y-87514472D02*
X135311399Y-88129473D01*
X135911398Y-91114472D02*
X135726400Y-91114472D01*
D28*
X120900000Y-89414472D02*
X121600000Y-89414472D01*
D31*
X133311398Y-87614472D02*
X133311398Y-87729474D01*
X136381398Y-90434472D02*
X136016396Y-90434472D01*
X133311398Y-87729474D02*
X133711397Y-88129473D01*
D32*
X132061398Y-89574472D02*
X132241398Y-89394472D01*
D28*
X119511398Y-89414472D02*
X120200000Y-89414472D01*
D32*
X132841398Y-89414472D02*
X133226399Y-89414472D01*
D31*
X118533498Y-87900000D02*
X118533498Y-86856838D01*
X118611398Y-89414472D02*
X118611398Y-90500000D01*
X118611398Y-90500000D02*
X118611398Y-91300000D01*
D28*
X121600000Y-89414472D02*
X122400000Y-89414472D01*
%TO.N,CTRL*%
X128528898Y-89044472D02*
X128598898Y-88974472D01*
D33*
X133226399Y-89014473D02*
X132514473Y-89014473D01*
X128723370Y-88850000D02*
X128528898Y-89044472D01*
X132350000Y-88850000D02*
X128723370Y-88850000D01*
X132514473Y-89014473D02*
X132350000Y-88850000D01*
%TO.N,EN*%
X132040000Y-90370000D02*
X132595529Y-89814471D01*
X131760000Y-90370000D02*
X132040000Y-90370000D01*
X131248898Y-90174472D02*
X131564472Y-90174472D01*
X131564472Y-90174472D02*
X131760000Y-90370000D01*
X132595529Y-89814471D02*
X133226399Y-89814471D01*
D30*
%TO.N,Net-(U4-RFC)*%
X136891398Y-89414472D02*
X150111398Y-89414472D01*
%TO.N,Net-(J1-In)*%
X110586398Y-89439472D02*
X108536398Y-89439472D01*
X111511398Y-89439472D02*
X116486398Y-89439472D01*
X110586398Y-89439472D02*
X111511398Y-89439472D01*
D34*
%TO.N,VSS*%
X133226399Y-90214473D02*
X132841397Y-90214473D01*
D28*
X131255870Y-91800000D02*
X131731398Y-91324472D01*
D34*
X132841397Y-90214473D02*
X131731398Y-91324472D01*
D28*
X130300000Y-91800000D02*
X131255870Y-91800000D01*
D34*
%TO.N,VDD*%
X133226399Y-88614471D02*
X133071928Y-88460000D01*
X130401398Y-88044472D02*
X132656400Y-88044472D01*
X132656400Y-88044472D02*
X133071928Y-88460000D01*
%TO.N,Net-(J7-Pin_1)*%
X127911398Y-90774472D02*
X129453898Y-90774472D01*
X129453898Y-90774472D02*
X130053898Y-90174472D01*
%TO.N,Net-(J2-Pin_1)*%
X127283898Y-89094472D02*
X127333898Y-89044472D01*
X125431398Y-89094472D02*
X127283898Y-89094472D01*
%TD*%
%TA.AperFunction,Conductor*%
%TO.N,GND*%
G36*
X111048132Y-74966425D02*
G01*
X111048133Y-74966426D01*
X111048134Y-74966426D01*
X145320971Y-74982846D01*
X145388001Y-75002563D01*
X145433731Y-75055389D01*
X145444909Y-75107771D01*
X145381087Y-83665329D01*
X145360903Y-83732220D01*
X145319036Y-83771822D01*
X136862720Y-88648435D01*
X136823129Y-88661147D01*
X136823455Y-88662783D01*
X136672490Y-88692812D01*
X136672484Y-88692814D01*
X136535906Y-88749386D01*
X136535899Y-88749390D01*
X136505529Y-88769683D01*
X136486422Y-88780148D01*
X136282657Y-88869470D01*
X135854112Y-89057326D01*
X135843691Y-89061894D01*
X135843688Y-89061895D01*
X135765603Y-89115232D01*
X135757235Y-89123686D01*
X135755015Y-89121488D01*
X135715915Y-89154167D01*
X135666423Y-89164472D01*
X135431398Y-89164472D01*
X135431398Y-89644472D01*
X135645926Y-89640707D01*
X135713299Y-89659212D01*
X135752283Y-89697443D01*
X135762758Y-89713672D01*
X135844748Y-89770361D01*
X135844754Y-89770364D01*
X135844758Y-89770367D01*
X136337554Y-89983719D01*
X136483252Y-90046798D01*
X136502877Y-90057489D01*
X136535897Y-90079552D01*
X136535903Y-90079556D01*
X136535905Y-90079557D01*
X136535909Y-90079559D01*
X136672480Y-90136128D01*
X136672485Y-90136130D01*
X136672489Y-90136130D01*
X136672490Y-90136131D01*
X136817477Y-90164972D01*
X136817480Y-90164972D01*
X137076264Y-90164972D01*
X137119838Y-90172880D01*
X145228561Y-93216523D01*
X145284406Y-93258509D01*
X145308686Y-93324024D01*
X145308981Y-93333538D01*
X145280629Y-97135133D01*
X145273133Y-97174749D01*
X145273646Y-97174916D01*
X145167355Y-97502032D01*
X145096519Y-97835278D01*
X145060899Y-98174122D01*
X145060898Y-98294643D01*
X145060898Y-101060998D01*
X145060703Y-101067949D01*
X145044004Y-101365372D01*
X145042447Y-101379190D01*
X144993136Y-101669433D01*
X144990042Y-101682990D01*
X144908543Y-101965891D01*
X144903950Y-101979017D01*
X144791288Y-102251011D01*
X144785255Y-102263539D01*
X144642850Y-102521206D01*
X144635452Y-102532981D01*
X144465088Y-102773090D01*
X144456418Y-102783962D01*
X144260242Y-103003483D01*
X144250409Y-103013316D01*
X144030888Y-103209492D01*
X144020016Y-103218162D01*
X143779907Y-103388526D01*
X143768132Y-103395924D01*
X143510465Y-103538329D01*
X143497937Y-103544362D01*
X143225943Y-103657024D01*
X143212817Y-103661617D01*
X142929916Y-103743116D01*
X142916359Y-103746210D01*
X142626116Y-103795521D01*
X142612298Y-103797078D01*
X142314875Y-103813777D01*
X142307924Y-103813972D01*
X111014881Y-103813972D01*
X111007929Y-103813777D01*
X110977106Y-103812045D01*
X110710507Y-103797072D01*
X110696689Y-103795515D01*
X110406446Y-103746198D01*
X110392890Y-103743104D01*
X110110044Y-103661617D01*
X110109984Y-103661599D01*
X110096867Y-103657009D01*
X109824868Y-103544342D01*
X109812346Y-103538311D01*
X109740142Y-103498406D01*
X109554679Y-103395902D01*
X109542906Y-103388505D01*
X109302793Y-103218137D01*
X109291931Y-103209475D01*
X109072405Y-103013293D01*
X109062575Y-103003463D01*
X108866392Y-102783936D01*
X108857732Y-102773076D01*
X108687364Y-102532963D01*
X108679967Y-102521190D01*
X108537566Y-102263539D01*
X108537554Y-102263516D01*
X108531530Y-102251009D01*
X108418856Y-101978991D01*
X108414273Y-101965895D01*
X108332764Y-101682977D01*
X108329671Y-101669423D01*
X108280353Y-101379174D01*
X108278797Y-101365361D01*
X108262093Y-101067941D01*
X108261898Y-101060988D01*
X108261898Y-91538472D01*
X108281583Y-91471433D01*
X108334387Y-91425678D01*
X108385898Y-91414472D01*
X118460036Y-91414472D01*
X118527075Y-91434157D01*
X118547717Y-91450791D01*
X124511397Y-97414471D01*
X124511401Y-97414474D01*
X126511397Y-98414472D01*
X126511398Y-98414472D01*
X131521397Y-98414472D01*
X131521398Y-98414472D01*
X133541398Y-97784472D01*
X135911398Y-95574472D01*
X136341398Y-93374472D01*
X135501772Y-91401385D01*
X135501771Y-91401384D01*
X135019843Y-91075818D01*
X134975311Y-91021980D01*
X134969920Y-91009346D01*
X134931499Y-90919297D01*
X134869593Y-90774204D01*
X134815256Y-90693806D01*
X134813257Y-90692470D01*
X134806504Y-90687957D01*
X134761700Y-90634343D01*
X134751398Y-90584857D01*
X134751398Y-90324472D01*
X134271398Y-90324472D01*
X134275906Y-90581443D01*
X134257400Y-90648817D01*
X134220053Y-90687226D01*
X134212077Y-90692470D01*
X134156081Y-90774943D01*
X134156072Y-90774960D01*
X134049537Y-91026851D01*
X134005294Y-91080928D01*
X134004730Y-91081311D01*
X133511398Y-91414471D01*
X133511396Y-91414473D01*
X131536863Y-94345284D01*
X131483080Y-94389884D01*
X131434025Y-94400000D01*
X127253606Y-94400000D01*
X127186567Y-94380315D01*
X127163276Y-94360950D01*
X123046742Y-89983719D01*
X122594453Y-89502787D01*
X122562866Y-89440467D01*
X122569986Y-89370961D01*
X122597820Y-89329446D01*
X122609667Y-89317791D01*
X123293716Y-88644793D01*
X124755898Y-88644793D01*
X124755898Y-89544150D01*
X124770430Y-89617207D01*
X124770431Y-89617211D01*
X124770432Y-89617212D01*
X124825797Y-89700073D01*
X124908658Y-89755438D01*
X124908662Y-89755439D01*
X124981719Y-89769971D01*
X124981722Y-89769972D01*
X124981724Y-89769972D01*
X125881074Y-89769972D01*
X125881075Y-89769971D01*
X125954138Y-89755438D01*
X126036999Y-89700073D01*
X126092364Y-89617212D01*
X126092365Y-89617207D01*
X126096827Y-89594779D01*
X126129213Y-89532869D01*
X126189929Y-89498295D01*
X126218444Y-89494972D01*
X126795000Y-89494972D01*
X126862039Y-89514657D01*
X126882681Y-89531291D01*
X126892098Y-89540708D01*
X126892102Y-89540711D01*
X126892104Y-89540713D01*
X127007965Y-89599747D01*
X127007967Y-89599747D01*
X127007969Y-89599748D01*
X127037126Y-89604365D01*
X127104091Y-89614972D01*
X127563704Y-89614971D01*
X127563709Y-89614971D01*
X127563709Y-89614970D01*
X127611767Y-89607359D01*
X127659826Y-89599748D01*
X127659827Y-89599748D01*
X127659828Y-89599747D01*
X127659831Y-89599747D01*
X127775692Y-89540713D01*
X127805252Y-89511153D01*
X127843717Y-89472689D01*
X127905040Y-89439204D01*
X127974732Y-89444188D01*
X128019079Y-89472689D01*
X128087098Y-89540708D01*
X128087102Y-89540711D01*
X128087104Y-89540713D01*
X128202965Y-89599747D01*
X128202967Y-89599747D01*
X128202969Y-89599748D01*
X128232126Y-89604365D01*
X128299091Y-89614972D01*
X128758704Y-89614971D01*
X128758709Y-89614971D01*
X128758709Y-89614970D01*
X128806767Y-89607359D01*
X128854826Y-89599748D01*
X128854827Y-89599748D01*
X128854828Y-89599747D01*
X128854831Y-89599747D01*
X128970692Y-89540713D01*
X129062639Y-89448766D01*
X129121673Y-89332905D01*
X129130036Y-89280101D01*
X129159964Y-89216969D01*
X129219275Y-89180037D01*
X129252509Y-89175500D01*
X132163811Y-89175500D01*
X132230850Y-89195185D01*
X132236770Y-89199235D01*
X132244620Y-89204947D01*
X132314611Y-89274938D01*
X132388834Y-89317791D01*
X132406029Y-89322398D01*
X132424649Y-89335947D01*
X132432478Y-89346115D01*
X132443437Y-89352794D01*
X132453385Y-89373269D01*
X132467274Y-89391308D01*
X132468362Y-89404096D01*
X132473971Y-89415639D01*
X132471270Y-89438241D01*
X132473202Y-89460926D01*
X132467204Y-89472272D01*
X132465682Y-89485015D01*
X132451188Y-89502571D01*
X132440551Y-89522697D01*
X132429373Y-89528998D01*
X132421202Y-89538897D01*
X132413693Y-89543597D01*
X132395673Y-89554001D01*
X132395665Y-89554007D01*
X132335062Y-89614611D01*
X132037276Y-89912396D01*
X131975953Y-89945881D01*
X131906261Y-89940897D01*
X131850328Y-89899025D01*
X131839113Y-89881015D01*
X131782639Y-89770178D01*
X131782637Y-89770176D01*
X131782634Y-89770172D01*
X131690697Y-89678235D01*
X131690693Y-89678232D01*
X131690692Y-89678231D01*
X131574831Y-89619197D01*
X131574829Y-89619196D01*
X131574826Y-89619195D01*
X131478705Y-89603972D01*
X131019086Y-89603972D01*
X131019086Y-89603973D01*
X130922969Y-89619195D01*
X130922968Y-89619195D01*
X130807102Y-89678232D01*
X130807098Y-89678235D01*
X130739079Y-89746255D01*
X130677756Y-89779740D01*
X130608064Y-89774756D01*
X130563717Y-89746255D01*
X130495697Y-89678235D01*
X130495693Y-89678232D01*
X130495692Y-89678231D01*
X130379831Y-89619197D01*
X130379829Y-89619196D01*
X130379826Y-89619195D01*
X130283705Y-89603972D01*
X129824086Y-89603972D01*
X129824086Y-89603973D01*
X129727969Y-89619195D01*
X129727968Y-89619195D01*
X129612102Y-89678232D01*
X129612098Y-89678235D01*
X129520161Y-89770172D01*
X129520158Y-89770176D01*
X129461121Y-89886043D01*
X129445898Y-89982164D01*
X129445898Y-90164715D01*
X129437254Y-90194151D01*
X129430731Y-90224141D01*
X129426975Y-90229158D01*
X129426213Y-90231754D01*
X129409580Y-90252396D01*
X129324324Y-90337653D01*
X129263001Y-90371138D01*
X129236642Y-90373972D01*
X128698444Y-90373972D01*
X128631405Y-90354287D01*
X128585650Y-90301483D01*
X128576827Y-90274165D01*
X128572365Y-90251734D01*
X128572364Y-90251732D01*
X128557281Y-90229158D01*
X128516999Y-90168871D01*
X128434138Y-90113506D01*
X128434137Y-90113505D01*
X128434133Y-90113504D01*
X128361075Y-90098972D01*
X128361072Y-90098972D01*
X127461724Y-90098972D01*
X127461721Y-90098972D01*
X127388662Y-90113504D01*
X127388658Y-90113505D01*
X127305797Y-90168871D01*
X127250431Y-90251732D01*
X127250430Y-90251736D01*
X127235898Y-90324793D01*
X127235898Y-91224150D01*
X127250430Y-91297207D01*
X127250431Y-91297211D01*
X127250432Y-91297212D01*
X127305797Y-91380073D01*
X127358443Y-91415249D01*
X127388658Y-91435438D01*
X127388662Y-91435439D01*
X127461719Y-91449971D01*
X127461722Y-91449972D01*
X127461724Y-91449972D01*
X128361074Y-91449972D01*
X128361075Y-91449971D01*
X128434138Y-91435438D01*
X128516999Y-91380073D01*
X128572364Y-91297212D01*
X128572365Y-91297207D01*
X128576827Y-91274779D01*
X128609213Y-91212869D01*
X128669929Y-91178295D01*
X128698444Y-91174972D01*
X129508285Y-91174972D01*
X129575324Y-91194657D01*
X129621079Y-91247461D01*
X129631023Y-91316619D01*
X129629903Y-91323162D01*
X129624500Y-91350326D01*
X129624500Y-92249678D01*
X129639032Y-92322735D01*
X129639033Y-92322739D01*
X129639034Y-92322740D01*
X129694399Y-92405601D01*
X129777260Y-92460966D01*
X129777264Y-92460967D01*
X129850321Y-92475499D01*
X129850324Y-92475500D01*
X129850326Y-92475500D01*
X130749676Y-92475500D01*
X130749677Y-92475499D01*
X130822740Y-92460966D01*
X130905601Y-92405601D01*
X130960966Y-92322740D01*
X130975374Y-92250309D01*
X131007759Y-92188398D01*
X131068474Y-92153824D01*
X131096991Y-92150500D01*
X131302012Y-92150500D01*
X131302014Y-92150500D01*
X131391158Y-92126614D01*
X131471082Y-92080470D01*
X131818625Y-91732925D01*
X131874213Y-91700833D01*
X131885986Y-91697679D01*
X131977311Y-91644952D01*
X132970970Y-90651291D01*
X133032293Y-90617807D01*
X133058651Y-90614973D01*
X133279124Y-90614973D01*
X133279126Y-90614973D01*
X133380986Y-90587680D01*
X133472312Y-90534953D01*
X133546879Y-90460386D01*
X133599606Y-90369060D01*
X133626899Y-90267200D01*
X133626899Y-90161746D01*
X133599606Y-90059886D01*
X133555630Y-89983718D01*
X133539158Y-89915819D01*
X133543241Y-89889634D01*
X133551899Y-89857324D01*
X133551899Y-89771618D01*
X133529717Y-89688833D01*
X133526898Y-89683950D01*
X133526898Y-89679573D01*
X133521068Y-89650258D01*
X133498856Y-89617014D01*
X133469966Y-89597711D01*
X133426261Y-89554006D01*
X133426260Y-89554005D01*
X133426257Y-89554003D01*
X133370580Y-89521858D01*
X133347406Y-89497554D01*
X133323670Y-89473756D01*
X133323363Y-89472339D01*
X133322364Y-89471291D01*
X133316006Y-89438304D01*
X133308908Y-89405464D01*
X133309416Y-89404106D01*
X133309142Y-89402684D01*
X133321625Y-89371501D01*
X133333410Y-89340031D01*
X133334672Y-89338912D01*
X133335110Y-89337819D01*
X133358399Y-89315107D01*
X133364244Y-89310743D01*
X133426261Y-89274938D01*
X133467661Y-89233536D01*
X133474827Y-89228187D01*
X133476172Y-89227687D01*
X133480117Y-89224449D01*
X133498856Y-89211930D01*
X133521068Y-89178686D01*
X133525457Y-89156618D01*
X133528051Y-89148086D01*
X133527611Y-89147969D01*
X133529715Y-89140112D01*
X133529717Y-89140111D01*
X133551899Y-89057326D01*
X133551899Y-88971620D01*
X133543243Y-88939315D01*
X133544906Y-88869470D01*
X133555628Y-88845229D01*
X133599606Y-88769059D01*
X133626899Y-88667198D01*
X133626899Y-88561744D01*
X133599606Y-88459883D01*
X133546879Y-88368558D01*
X133317841Y-88139520D01*
X132902313Y-87723992D01*
X132856650Y-87697628D01*
X132810989Y-87671265D01*
X132760057Y-87657618D01*
X132709127Y-87643972D01*
X132709126Y-87643972D01*
X131188444Y-87643972D01*
X131121405Y-87624287D01*
X131075650Y-87571483D01*
X131066827Y-87544165D01*
X131062365Y-87521734D01*
X131062364Y-87521732D01*
X131006999Y-87438871D01*
X130951633Y-87401877D01*
X130924137Y-87383505D01*
X130924133Y-87383504D01*
X130851075Y-87368972D01*
X130851072Y-87368972D01*
X129951724Y-87368972D01*
X129951721Y-87368972D01*
X129878662Y-87383504D01*
X129878658Y-87383505D01*
X129795797Y-87438871D01*
X129740431Y-87521732D01*
X129740430Y-87521736D01*
X129725898Y-87594793D01*
X129725898Y-88400500D01*
X129706213Y-88467539D01*
X129653409Y-88513294D01*
X129601898Y-88524500D01*
X128953887Y-88524500D01*
X128897592Y-88510985D01*
X128854827Y-88489195D01*
X128758705Y-88473972D01*
X128299086Y-88473972D01*
X128299086Y-88473973D01*
X128202969Y-88489195D01*
X128202968Y-88489195D01*
X128087102Y-88548232D01*
X128087098Y-88548235D01*
X128019079Y-88616255D01*
X127957756Y-88649740D01*
X127888064Y-88644756D01*
X127843717Y-88616255D01*
X127775697Y-88548235D01*
X127775693Y-88548232D01*
X127775692Y-88548231D01*
X127659831Y-88489197D01*
X127659829Y-88489196D01*
X127659826Y-88489195D01*
X127563705Y-88473972D01*
X127104086Y-88473972D01*
X127104086Y-88473973D01*
X127007969Y-88489195D01*
X127007968Y-88489195D01*
X126892102Y-88548232D01*
X126800156Y-88640179D01*
X126798208Y-88642861D01*
X126795006Y-88645329D01*
X126793257Y-88647079D01*
X126793030Y-88646852D01*
X126742876Y-88685525D01*
X126697892Y-88693972D01*
X126218444Y-88693972D01*
X126151405Y-88674287D01*
X126105650Y-88621483D01*
X126096827Y-88594165D01*
X126092365Y-88571734D01*
X126092364Y-88571732D01*
X126060805Y-88524500D01*
X126036999Y-88488871D01*
X125981633Y-88451877D01*
X125954137Y-88433505D01*
X125954133Y-88433504D01*
X125881075Y-88418972D01*
X125881072Y-88418972D01*
X124981724Y-88418972D01*
X124981721Y-88418972D01*
X124908662Y-88433504D01*
X124908658Y-88433505D01*
X124825797Y-88488871D01*
X124770431Y-88571732D01*
X124770430Y-88571736D01*
X124755898Y-88644793D01*
X123293716Y-88644793D01*
X123426177Y-88514472D01*
X124564247Y-87394787D01*
X127063807Y-84935607D01*
X127125400Y-84902623D01*
X127150771Y-84900000D01*
X131636502Y-84900000D01*
X131703541Y-84919685D01*
X131737114Y-84951520D01*
X133484353Y-87376930D01*
X133502774Y-87429227D01*
X134005834Y-87769067D01*
X134049989Y-87822035D01*
X134157391Y-88067045D01*
X134157393Y-88067049D01*
X134210731Y-88145137D01*
X134210732Y-88145138D01*
X134211609Y-88145724D01*
X134212973Y-88147356D01*
X134219185Y-88153505D01*
X134218603Y-88154092D01*
X134256414Y-88199336D01*
X134266699Y-88246651D01*
X134270179Y-88444972D01*
X134271398Y-88514472D01*
X134741398Y-88514472D01*
X134741398Y-88259449D01*
X134761083Y-88192410D01*
X134798553Y-88155009D01*
X134808468Y-88148664D01*
X134865476Y-88066881D01*
X134980359Y-87804288D01*
X135024562Y-87751231D01*
X135506951Y-87425464D01*
X135506949Y-87425464D01*
X135535945Y-87405883D01*
X135558299Y-87367570D01*
X136511398Y-86414472D01*
X136221398Y-83724472D01*
X134451398Y-81644472D01*
X133271397Y-81002812D01*
X132281397Y-80464471D01*
X132281398Y-80464471D01*
X126511397Y-80414471D01*
X124511401Y-81414470D01*
X124511397Y-81414472D01*
X118547717Y-87378153D01*
X118486394Y-87411638D01*
X118460036Y-87414472D01*
X108385898Y-87414472D01*
X108318859Y-87394787D01*
X108273104Y-87341983D01*
X108261898Y-87290472D01*
X108261898Y-77719390D01*
X108262093Y-77712436D01*
X108271469Y-77545508D01*
X108278805Y-77414911D01*
X108280360Y-77401108D01*
X108329705Y-77110765D01*
X108332800Y-77097212D01*
X108414353Y-76814223D01*
X108418940Y-76801118D01*
X108531683Y-76529020D01*
X108537701Y-76516525D01*
X108680214Y-76258762D01*
X108687600Y-76247011D01*
X108858072Y-76006850D01*
X108866732Y-75995995D01*
X109063035Y-75776430D01*
X109072845Y-75766624D01*
X109292521Y-75570411D01*
X109303365Y-75561768D01*
X109543617Y-75391406D01*
X109555374Y-75384024D01*
X109813196Y-75241641D01*
X109825700Y-75235625D01*
X110097850Y-75123012D01*
X110110946Y-75118436D01*
X110393993Y-75037012D01*
X110407521Y-75033930D01*
X110697910Y-74984720D01*
X110711709Y-74983172D01*
X111009257Y-74966602D01*
X111016165Y-74966411D01*
X111048132Y-74966425D01*
G37*
%TD.AperFunction*%
%TD*%
M02*
