%TF.GenerationSoftware,KiCad,Pcbnew,9.0.2*%
%TF.CreationDate,2026-06-25T15:34:29-05:00*%
%TF.ProjectId,pwm_radar_with_antenna,70776d5f-7261-4646-9172-5f776974685f,rev?*%
%TF.SameCoordinates,Original*%
%TF.FileFunction,Legend,Top*%
%TF.FilePolarity,Positive*%
%FSLAX46Y46*%
G04 Gerber Fmt 4.6, Leading zero omitted, Abs format (unit mm)*
G04 Created by KiCad (PCBNEW 9.0.2) date 2026-06-25 15:34:29*
%MOMM*%
%LPD*%
G01*
G04 APERTURE LIST*
%ADD10C,0.150000*%
%ADD11C,0.100000*%
%ADD12C,0.152400*%
%ADD13C,0.000000*%
%ADD14C,0.120000*%
G04 APERTURE END LIST*
D10*
X118221593Y-86629291D02*
X118221593Y-87438814D01*
X118221593Y-87438814D02*
X118269212Y-87534052D01*
X118269212Y-87534052D02*
X118316831Y-87581672D01*
X118316831Y-87581672D02*
X118412069Y-87629291D01*
X118412069Y-87629291D02*
X118602545Y-87629291D01*
X118602545Y-87629291D02*
X118697783Y-87581672D01*
X118697783Y-87581672D02*
X118745402Y-87534052D01*
X118745402Y-87534052D02*
X118793021Y-87438814D01*
X118793021Y-87438814D02*
X118793021Y-86629291D01*
X119793021Y-87629291D02*
X119221593Y-87629291D01*
X119507307Y-87629291D02*
X119507307Y-86629291D01*
X119507307Y-86629291D02*
X119412069Y-86772148D01*
X119412069Y-86772148D02*
X119316831Y-86867386D01*
X119316831Y-86867386D02*
X119221593Y-86915005D01*
X136841397Y-91279652D02*
X136841397Y-91041557D01*
X137079492Y-91136795D02*
X136841397Y-91041557D01*
X136841397Y-91041557D02*
X136603302Y-91136795D01*
X136984254Y-90851081D02*
X136841397Y-91041557D01*
X136841397Y-91041557D02*
X136698540Y-90851081D01*
X137451398Y-90699291D02*
X137451398Y-90937386D01*
X137213303Y-90842148D02*
X137451398Y-90937386D01*
X137451398Y-90937386D02*
X137689493Y-90842148D01*
X137308541Y-91127862D02*
X137451398Y-90937386D01*
X137451398Y-90937386D02*
X137594255Y-91127862D01*
D11*
%TO.C,J1*%
X108025000Y-82451972D02*
X113025000Y-82451972D01*
X113025000Y-96451972D02*
X108025000Y-96451972D01*
D12*
%TO.C,U1*%
X117403198Y-90544772D02*
X119663798Y-90544772D01*
X119663798Y-88284172D02*
X117403198Y-88284172D01*
X116805098Y-88014472D02*
G75*
G02*
X116601898Y-88014472I-101600J0D01*
G01*
X116601898Y-88014472D02*
G75*
G02*
X116805098Y-88014472I101600J0D01*
G01*
%TO.C,U2*%
X132884398Y-87787472D02*
X132884398Y-88188553D01*
X132884398Y-90640391D02*
X132884398Y-91041472D01*
X132884398Y-91041472D02*
X133285479Y-91041472D01*
X133285479Y-87787472D02*
X132884398Y-87787472D01*
X135737317Y-91041472D02*
X136138398Y-91041472D01*
X136138398Y-87787472D02*
X135737317Y-87787472D01*
X136138398Y-88188553D02*
X136138398Y-87787472D01*
X136138398Y-91041472D02*
X136138398Y-90640391D01*
D13*
G36*
X133901897Y-87675471D02*
G01*
X133520897Y-87675471D01*
X133520897Y-87421471D01*
X133901897Y-87421471D01*
X133901897Y-87675471D01*
G37*
G36*
X135501899Y-91407473D02*
G01*
X135120899Y-91407473D01*
X135120899Y-91153473D01*
X135501899Y-91153473D01*
X135501899Y-91407473D01*
G37*
D14*
%TO.C,R2*%
X130819019Y-89794472D02*
X130483777Y-89794472D01*
X130819019Y-90554472D02*
X130483777Y-90554472D01*
%TO.C,R1*%
X128099019Y-88664472D02*
X127763777Y-88664472D01*
X128099019Y-89424472D02*
X127763777Y-89424472D01*
%TD*%
M02*
