%TF.GenerationSoftware,KiCad,Pcbnew,9.0.8*%
%TF.CreationDate,2026-06-26T13:12:10-05:00*%
%TF.ProjectId,pwm_radar_with_antenna,70776d5f-7261-4646-9172-5f776974685f,rev?*%
%TF.SameCoordinates,Original*%
%TF.FileFunction,Legend,Bot*%
%TF.FilePolarity,Positive*%
%FSLAX46Y46*%
G04 Gerber Fmt 4.6, Leading zero omitted, Abs format (unit mm)*
G04 Created by KiCad (PCBNEW 9.0.8) date 2026-06-26 13:12:10*
%MOMM*%
%LPD*%
G01*
G04 APERTURE LIST*
%ADD10C,0.120000*%
G04 APERTURE END LIST*
D10*
%TO.C,C1*%
X130735563Y-86214472D02*
X130967233Y-86214472D01*
X130735563Y-86934472D02*
X130967233Y-86934472D01*
%TO.C,J3*%
X129656398Y-88779472D02*
X129656398Y-88654472D01*
X129715833Y-88779472D02*
X129656398Y-88779472D01*
X131146398Y-87309472D02*
X130401398Y-87309472D01*
X131146398Y-88044472D02*
X131146398Y-87309472D01*
X131146398Y-88779472D02*
X129656398Y-88779472D01*
X131146398Y-88779472D02*
X131086963Y-88779472D01*
X131146398Y-88779472D02*
X131146398Y-88654472D01*
%TO.C,C3*%
X128647233Y-87744472D02*
X128415563Y-87744472D01*
X128647233Y-88464472D02*
X128415563Y-88464472D01*
%TO.C,C2*%
X128637233Y-86654472D02*
X128405563Y-86654472D01*
X128637233Y-87374472D02*
X128405563Y-87374472D01*
%TO.C,J2*%
X124686398Y-89829472D02*
X124686398Y-89704472D01*
X124745833Y-89829472D02*
X124686398Y-89829472D01*
X126176398Y-88359472D02*
X125431398Y-88359472D01*
X126176398Y-89094472D02*
X126176398Y-88359472D01*
X126176398Y-89829472D02*
X124686398Y-89829472D01*
X126176398Y-89829472D02*
X126116963Y-89829472D01*
X126176398Y-89829472D02*
X126176398Y-89704472D01*
%TO.C,J8*%
X129555000Y-92535000D02*
X129555000Y-92410000D01*
X129614435Y-92535000D02*
X129555000Y-92535000D01*
X131045000Y-91065000D02*
X130300000Y-91065000D01*
X131045000Y-91800000D02*
X131045000Y-91065000D01*
X131045000Y-92535000D02*
X129555000Y-92535000D01*
X131045000Y-92535000D02*
X130985565Y-92535000D01*
X131045000Y-92535000D02*
X131045000Y-92410000D01*
%TO.C,J7*%
X127166398Y-91509472D02*
X127166398Y-91384472D01*
X127225833Y-91509472D02*
X127166398Y-91509472D01*
X128656398Y-90039472D02*
X127911398Y-90039472D01*
X128656398Y-90774472D02*
X128656398Y-90039472D01*
X128656398Y-91509472D02*
X127166398Y-91509472D01*
X128656398Y-91509472D02*
X128596963Y-91509472D01*
X128656398Y-91509472D02*
X128656398Y-91384472D01*
%TO.C,C6*%
X130284165Y-89840000D02*
X130515835Y-89840000D01*
X130284165Y-90560000D02*
X130515835Y-90560000D01*
%TO.C,C5*%
X128115835Y-91940000D02*
X127884165Y-91940000D01*
X128115835Y-92660000D02*
X127884165Y-92660000D01*
%TO.C,C4*%
X130115835Y-92940000D02*
X129884165Y-92940000D01*
X130115835Y-93660000D02*
X129884165Y-93660000D01*
%TD*%
M02*
