%TF.GenerationSoftware,KiCad,Pcbnew,9.0.8*%
%TF.CreationDate,2026-06-26T13:12:10-05:00*%
%TF.ProjectId,pwm_radar_with_antenna,70776d5f-7261-4646-9172-5f776974685f,rev?*%
%TF.SameCoordinates,Original*%
%TF.FileFunction,Legend,Top*%
%TF.FilePolarity,Positive*%
%FSLAX46Y46*%
G04 Gerber Fmt 4.6, Leading zero omitted, Abs format (unit mm)*
G04 Created by KiCad (PCBNEW 9.0.8) date 2026-06-26 13:12:10*
%MOMM*%
%LPD*%
G01*
G04 APERTURE LIST*
%ADD10C,0.100000*%
%ADD11C,0.300000*%
%ADD12C,0.150000*%
%ADD13C,0.152400*%
%ADD14C,0.000000*%
%ADD15C,0.120000*%
G04 APERTURE END LIST*
D10*
X129631027Y-78235752D02*
X130011979Y-78235752D01*
X129773884Y-78902419D02*
X129773884Y-78045276D01*
X129773884Y-78045276D02*
X129821503Y-77950038D01*
X129821503Y-77950038D02*
X129916741Y-77902419D01*
X129916741Y-77902419D02*
X130011979Y-77902419D01*
X130773884Y-78902419D02*
X130773884Y-77902419D01*
X130773884Y-78854800D02*
X130678646Y-78902419D01*
X130678646Y-78902419D02*
X130488170Y-78902419D01*
X130488170Y-78902419D02*
X130392932Y-78854800D01*
X130392932Y-78854800D02*
X130345313Y-78807180D01*
X130345313Y-78807180D02*
X130297694Y-78711942D01*
X130297694Y-78711942D02*
X130297694Y-78426228D01*
X130297694Y-78426228D02*
X130345313Y-78330990D01*
X130345313Y-78330990D02*
X130392932Y-78283371D01*
X130392932Y-78283371D02*
X130488170Y-78235752D01*
X130488170Y-78235752D02*
X130678646Y-78235752D01*
X130678646Y-78235752D02*
X130773884Y-78283371D01*
X131250075Y-78902419D02*
X131250075Y-78235752D01*
X131250075Y-78426228D02*
X131297694Y-78330990D01*
X131297694Y-78330990D02*
X131345313Y-78283371D01*
X131345313Y-78283371D02*
X131440551Y-78235752D01*
X131440551Y-78235752D02*
X131535789Y-78235752D01*
X132250075Y-78854800D02*
X132154837Y-78902419D01*
X132154837Y-78902419D02*
X131964361Y-78902419D01*
X131964361Y-78902419D02*
X131869123Y-78854800D01*
X131869123Y-78854800D02*
X131821504Y-78759561D01*
X131821504Y-78759561D02*
X131821504Y-78378609D01*
X131821504Y-78378609D02*
X131869123Y-78283371D01*
X131869123Y-78283371D02*
X131964361Y-78235752D01*
X131964361Y-78235752D02*
X132154837Y-78235752D01*
X132154837Y-78235752D02*
X132250075Y-78283371D01*
X132250075Y-78283371D02*
X132297694Y-78378609D01*
X132297694Y-78378609D02*
X132297694Y-78473847D01*
X132297694Y-78473847D02*
X131821504Y-78569085D01*
X132678647Y-78854800D02*
X132773885Y-78902419D01*
X132773885Y-78902419D02*
X132964361Y-78902419D01*
X132964361Y-78902419D02*
X133059599Y-78854800D01*
X133059599Y-78854800D02*
X133107218Y-78759561D01*
X133107218Y-78759561D02*
X133107218Y-78711942D01*
X133107218Y-78711942D02*
X133059599Y-78616704D01*
X133059599Y-78616704D02*
X132964361Y-78569085D01*
X132964361Y-78569085D02*
X132821504Y-78569085D01*
X132821504Y-78569085D02*
X132726266Y-78521466D01*
X132726266Y-78521466D02*
X132678647Y-78426228D01*
X132678647Y-78426228D02*
X132678647Y-78378609D01*
X132678647Y-78378609D02*
X132726266Y-78283371D01*
X132726266Y-78283371D02*
X132821504Y-78235752D01*
X132821504Y-78235752D02*
X132964361Y-78235752D01*
X132964361Y-78235752D02*
X133059599Y-78283371D01*
X133535790Y-78902419D02*
X133535790Y-77902419D01*
X133964361Y-78902419D02*
X133964361Y-78378609D01*
X133964361Y-78378609D02*
X133916742Y-78283371D01*
X133916742Y-78283371D02*
X133821504Y-78235752D01*
X133821504Y-78235752D02*
X133678647Y-78235752D01*
X133678647Y-78235752D02*
X133583409Y-78283371D01*
X133583409Y-78283371D02*
X133535790Y-78330990D01*
X134869123Y-78902419D02*
X134869123Y-78378609D01*
X134869123Y-78378609D02*
X134821504Y-78283371D01*
X134821504Y-78283371D02*
X134726266Y-78235752D01*
X134726266Y-78235752D02*
X134535790Y-78235752D01*
X134535790Y-78235752D02*
X134440552Y-78283371D01*
X134869123Y-78854800D02*
X134773885Y-78902419D01*
X134773885Y-78902419D02*
X134535790Y-78902419D01*
X134535790Y-78902419D02*
X134440552Y-78854800D01*
X134440552Y-78854800D02*
X134392933Y-78759561D01*
X134392933Y-78759561D02*
X134392933Y-78664323D01*
X134392933Y-78664323D02*
X134440552Y-78569085D01*
X134440552Y-78569085D02*
X134535790Y-78521466D01*
X134535790Y-78521466D02*
X134773885Y-78521466D01*
X134773885Y-78521466D02*
X134869123Y-78473847D01*
X135345314Y-78235752D02*
X135345314Y-79092895D01*
X135345314Y-79092895D02*
X135297695Y-79188133D01*
X135297695Y-79188133D02*
X135202457Y-79235752D01*
X135202457Y-79235752D02*
X135154838Y-79235752D01*
X135345314Y-77902419D02*
X135297695Y-77950038D01*
X135297695Y-77950038D02*
X135345314Y-77997657D01*
X135345314Y-77997657D02*
X135392933Y-77950038D01*
X135392933Y-77950038D02*
X135345314Y-77902419D01*
X135345314Y-77902419D02*
X135345314Y-77997657D01*
X136535790Y-77997657D02*
X136583409Y-77950038D01*
X136583409Y-77950038D02*
X136678647Y-77902419D01*
X136678647Y-77902419D02*
X136916742Y-77902419D01*
X136916742Y-77902419D02*
X137011980Y-77950038D01*
X137011980Y-77950038D02*
X137059599Y-77997657D01*
X137059599Y-77997657D02*
X137107218Y-78092895D01*
X137107218Y-78092895D02*
X137107218Y-78188133D01*
X137107218Y-78188133D02*
X137059599Y-78330990D01*
X137059599Y-78330990D02*
X136488171Y-78902419D01*
X136488171Y-78902419D02*
X137107218Y-78902419D01*
X137964361Y-77902419D02*
X137773885Y-77902419D01*
X137773885Y-77902419D02*
X137678647Y-77950038D01*
X137678647Y-77950038D02*
X137631028Y-77997657D01*
X137631028Y-77997657D02*
X137535790Y-78140514D01*
X137535790Y-78140514D02*
X137488171Y-78330990D01*
X137488171Y-78330990D02*
X137488171Y-78711942D01*
X137488171Y-78711942D02*
X137535790Y-78807180D01*
X137535790Y-78807180D02*
X137583409Y-78854800D01*
X137583409Y-78854800D02*
X137678647Y-78902419D01*
X137678647Y-78902419D02*
X137869123Y-78902419D01*
X137869123Y-78902419D02*
X137964361Y-78854800D01*
X137964361Y-78854800D02*
X138011980Y-78807180D01*
X138011980Y-78807180D02*
X138059599Y-78711942D01*
X138059599Y-78711942D02*
X138059599Y-78473847D01*
X138059599Y-78473847D02*
X138011980Y-78378609D01*
X138011980Y-78378609D02*
X137964361Y-78330990D01*
X137964361Y-78330990D02*
X137869123Y-78283371D01*
X137869123Y-78283371D02*
X137678647Y-78283371D01*
X137678647Y-78283371D02*
X137583409Y-78330990D01*
X137583409Y-78330990D02*
X137535790Y-78378609D01*
X137535790Y-78378609D02*
X137488171Y-78473847D01*
D11*
X115584510Y-76845912D02*
X115584510Y-75345912D01*
X115584510Y-75345912D02*
X116155939Y-75345912D01*
X116155939Y-75345912D02*
X116298796Y-75417341D01*
X116298796Y-75417341D02*
X116370225Y-75488769D01*
X116370225Y-75488769D02*
X116441653Y-75631626D01*
X116441653Y-75631626D02*
X116441653Y-75845912D01*
X116441653Y-75845912D02*
X116370225Y-75988769D01*
X116370225Y-75988769D02*
X116298796Y-76060198D01*
X116298796Y-76060198D02*
X116155939Y-76131626D01*
X116155939Y-76131626D02*
X115584510Y-76131626D01*
X116941653Y-75345912D02*
X117298796Y-76845912D01*
X117298796Y-76845912D02*
X117584510Y-75774484D01*
X117584510Y-75774484D02*
X117870225Y-76845912D01*
X117870225Y-76845912D02*
X118227368Y-75345912D01*
X118798796Y-76845912D02*
X118798796Y-75345912D01*
X118798796Y-75345912D02*
X119298796Y-76417341D01*
X119298796Y-76417341D02*
X119798796Y-75345912D01*
X119798796Y-75345912D02*
X119798796Y-76845912D01*
X122513082Y-76845912D02*
X122013082Y-76131626D01*
X121655939Y-76845912D02*
X121655939Y-75345912D01*
X121655939Y-75345912D02*
X122227368Y-75345912D01*
X122227368Y-75345912D02*
X122370225Y-75417341D01*
X122370225Y-75417341D02*
X122441654Y-75488769D01*
X122441654Y-75488769D02*
X122513082Y-75631626D01*
X122513082Y-75631626D02*
X122513082Y-75845912D01*
X122513082Y-75845912D02*
X122441654Y-75988769D01*
X122441654Y-75988769D02*
X122370225Y-76060198D01*
X122370225Y-76060198D02*
X122227368Y-76131626D01*
X122227368Y-76131626D02*
X121655939Y-76131626D01*
X123798797Y-76845912D02*
X123798797Y-76060198D01*
X123798797Y-76060198D02*
X123727368Y-75917341D01*
X123727368Y-75917341D02*
X123584511Y-75845912D01*
X123584511Y-75845912D02*
X123298797Y-75845912D01*
X123298797Y-75845912D02*
X123155939Y-75917341D01*
X123798797Y-76774484D02*
X123655939Y-76845912D01*
X123655939Y-76845912D02*
X123298797Y-76845912D01*
X123298797Y-76845912D02*
X123155939Y-76774484D01*
X123155939Y-76774484D02*
X123084511Y-76631626D01*
X123084511Y-76631626D02*
X123084511Y-76488769D01*
X123084511Y-76488769D02*
X123155939Y-76345912D01*
X123155939Y-76345912D02*
X123298797Y-76274484D01*
X123298797Y-76274484D02*
X123655939Y-76274484D01*
X123655939Y-76274484D02*
X123798797Y-76203055D01*
X125155940Y-76845912D02*
X125155940Y-75345912D01*
X125155940Y-76774484D02*
X125013082Y-76845912D01*
X125013082Y-76845912D02*
X124727368Y-76845912D01*
X124727368Y-76845912D02*
X124584511Y-76774484D01*
X124584511Y-76774484D02*
X124513082Y-76703055D01*
X124513082Y-76703055D02*
X124441654Y-76560198D01*
X124441654Y-76560198D02*
X124441654Y-76131626D01*
X124441654Y-76131626D02*
X124513082Y-75988769D01*
X124513082Y-75988769D02*
X124584511Y-75917341D01*
X124584511Y-75917341D02*
X124727368Y-75845912D01*
X124727368Y-75845912D02*
X125013082Y-75845912D01*
X125013082Y-75845912D02*
X125155940Y-75917341D01*
X126513083Y-76845912D02*
X126513083Y-76060198D01*
X126513083Y-76060198D02*
X126441654Y-75917341D01*
X126441654Y-75917341D02*
X126298797Y-75845912D01*
X126298797Y-75845912D02*
X126013083Y-75845912D01*
X126013083Y-75845912D02*
X125870225Y-75917341D01*
X126513083Y-76774484D02*
X126370225Y-76845912D01*
X126370225Y-76845912D02*
X126013083Y-76845912D01*
X126013083Y-76845912D02*
X125870225Y-76774484D01*
X125870225Y-76774484D02*
X125798797Y-76631626D01*
X125798797Y-76631626D02*
X125798797Y-76488769D01*
X125798797Y-76488769D02*
X125870225Y-76345912D01*
X125870225Y-76345912D02*
X126013083Y-76274484D01*
X126013083Y-76274484D02*
X126370225Y-76274484D01*
X126370225Y-76274484D02*
X126513083Y-76203055D01*
X127227368Y-76845912D02*
X127227368Y-75845912D01*
X127227368Y-76131626D02*
X127298797Y-75988769D01*
X127298797Y-75988769D02*
X127370226Y-75917341D01*
X127370226Y-75917341D02*
X127513083Y-75845912D01*
X127513083Y-75845912D02*
X127655940Y-75845912D01*
X129084511Y-75345912D02*
X129584511Y-76845912D01*
X129584511Y-76845912D02*
X130084511Y-75345912D01*
X131370225Y-76845912D02*
X130513082Y-76845912D01*
X130941653Y-76845912D02*
X130941653Y-75345912D01*
X130941653Y-75345912D02*
X130798796Y-75560198D01*
X130798796Y-75560198D02*
X130655939Y-75703055D01*
X130655939Y-75703055D02*
X130513082Y-75774484D01*
X116441653Y-79117971D02*
X116370225Y-79189400D01*
X116370225Y-79189400D02*
X116155939Y-79260828D01*
X116155939Y-79260828D02*
X116013082Y-79260828D01*
X116013082Y-79260828D02*
X115798796Y-79189400D01*
X115798796Y-79189400D02*
X115655939Y-79046542D01*
X115655939Y-79046542D02*
X115584510Y-78903685D01*
X115584510Y-78903685D02*
X115513082Y-78617971D01*
X115513082Y-78617971D02*
X115513082Y-78403685D01*
X115513082Y-78403685D02*
X115584510Y-78117971D01*
X115584510Y-78117971D02*
X115655939Y-77975114D01*
X115655939Y-77975114D02*
X115798796Y-77832257D01*
X115798796Y-77832257D02*
X116013082Y-77760828D01*
X116013082Y-77760828D02*
X116155939Y-77760828D01*
X116155939Y-77760828D02*
X116370225Y-77832257D01*
X116370225Y-77832257D02*
X116441653Y-77903685D01*
X117084510Y-79260828D02*
X117084510Y-77760828D01*
X117084510Y-77760828D02*
X117941653Y-79260828D01*
X117941653Y-79260828D02*
X117941653Y-77760828D01*
X118655939Y-79260828D02*
X118655939Y-77760828D01*
X118655939Y-77760828D02*
X119013082Y-77760828D01*
X119013082Y-77760828D02*
X119227368Y-77832257D01*
X119227368Y-77832257D02*
X119370225Y-77975114D01*
X119370225Y-77975114D02*
X119441654Y-78117971D01*
X119441654Y-78117971D02*
X119513082Y-78403685D01*
X119513082Y-78403685D02*
X119513082Y-78617971D01*
X119513082Y-78617971D02*
X119441654Y-78903685D01*
X119441654Y-78903685D02*
X119370225Y-79046542D01*
X119370225Y-79046542D02*
X119227368Y-79189400D01*
X119227368Y-79189400D02*
X119013082Y-79260828D01*
X119013082Y-79260828D02*
X118655939Y-79260828D01*
X120155939Y-78475114D02*
X120655939Y-78475114D01*
X120870225Y-79260828D02*
X120155939Y-79260828D01*
X120155939Y-79260828D02*
X120155939Y-77760828D01*
X120155939Y-77760828D02*
X120870225Y-77760828D01*
X122584511Y-78832257D02*
X123298797Y-78832257D01*
X122441654Y-79260828D02*
X122941654Y-77760828D01*
X122941654Y-77760828D02*
X123441654Y-79260828D01*
X123941653Y-79260828D02*
X123941653Y-77760828D01*
X123941653Y-77760828D02*
X124441653Y-78832257D01*
X124441653Y-78832257D02*
X124941653Y-77760828D01*
X124941653Y-77760828D02*
X124941653Y-79260828D01*
X125655939Y-79260828D02*
X125655939Y-77760828D01*
X125655939Y-77760828D02*
X126513082Y-79260828D01*
X126513082Y-79260828D02*
X126513082Y-77760828D01*
X127013083Y-77760828D02*
X127870226Y-77760828D01*
X127441654Y-79260828D02*
X127441654Y-77760828D01*
X129084511Y-79260828D02*
X128370225Y-79260828D01*
X128370225Y-79260828D02*
X128370225Y-77760828D01*
D12*
X136841397Y-91279652D02*
X136841397Y-91041557D01*
X137079492Y-91136795D02*
X136841397Y-91041557D01*
X136841397Y-91041557D02*
X136603302Y-91136795D01*
X136984254Y-90851081D02*
X136841397Y-91041557D01*
X136841397Y-91041557D02*
X136698540Y-90851081D01*
X137451398Y-90699291D02*
X137451398Y-90937386D01*
X137213303Y-90842148D02*
X137451398Y-90937386D01*
X137451398Y-90937386D02*
X137689493Y-90842148D01*
X137308541Y-91127862D02*
X137451398Y-90937386D01*
X137451398Y-90937386D02*
X137594255Y-91127862D01*
D13*
%TO.C,U1*%
X117403198Y-90544772D02*
X119663798Y-90544772D01*
X119663798Y-88284172D02*
X117403198Y-88284172D01*
X116805098Y-88014472D02*
G75*
G02*
X116601898Y-88014472I-101600J0D01*
G01*
X116601898Y-88014472D02*
G75*
G02*
X116805098Y-88014472I101600J0D01*
G01*
%TO.C,U2*%
X132884398Y-87787472D02*
X132884398Y-88188553D01*
X132884398Y-90640391D02*
X132884398Y-91041472D01*
X132884398Y-91041472D02*
X133285479Y-91041472D01*
X133285479Y-87787472D02*
X132884398Y-87787472D01*
X135737317Y-91041472D02*
X136138398Y-91041472D01*
X136138398Y-87787472D02*
X135737317Y-87787472D01*
X136138398Y-88188553D02*
X136138398Y-87787472D01*
X136138398Y-91041472D02*
X136138398Y-90640391D01*
D14*
G36*
X133901897Y-87675471D02*
G01*
X133520897Y-87675471D01*
X133520897Y-87421471D01*
X133901897Y-87421471D01*
X133901897Y-87675471D01*
G37*
G36*
X135501899Y-91407473D02*
G01*
X135120899Y-91407473D01*
X135120899Y-91153473D01*
X135501899Y-91153473D01*
X135501899Y-91407473D01*
G37*
D15*
%TO.C,R2*%
X130819019Y-89794472D02*
X130483777Y-89794472D01*
X130819019Y-90554472D02*
X130483777Y-90554472D01*
D10*
%TO.C,J1*%
X108025000Y-82451972D02*
X113025000Y-82451972D01*
X113025000Y-96451972D02*
X108025000Y-96451972D01*
D15*
%TO.C,R1*%
X128099019Y-88664472D02*
X127763777Y-88664472D01*
X128099019Y-89424472D02*
X127763777Y-89424472D01*
%TD*%
M02*
