M48
; DRILL file {KiCad 9.0.8} date 2026-06-26T13:12:16-0500
; FORMAT={-:-/ absolute / metric / decimal}
; #@! TF.CreationDate,2026-06-26T13:12:16-05:00
; #@! TF.GenerationSoftware,Kicad,Pcbnew,9.0.8
; #@! TF.FileFunction,Plated,1,2,PTH
FMAT,2
METRIC
; #@! TA.AperFunction,Plated,PTH,ViaDrill
T1C0.260
; #@! TA.AperFunction,Plated,PTH,ViaDrill
T2C0.300
; #@! TA.AperFunction,Plated,PTH,ComponentDrill
T3C0.500
; #@! TA.AperFunction,Plated,PTH,ComponentDrill
T4C2.500
; #@! TA.AperFunction,Plated,PTH,ComponentDrill
T5C3.200
%
G90
G05
T1
X108.561Y-91.924
X108.611Y-86.984
X109.561Y-86.994
X109.591Y-91.914
X110.411Y-87.014
X110.511Y-91.914
X111.495Y-87.014
X111.595Y-91.914
X112.578Y-87.014
X112.678Y-91.914
X113.811Y-87.014
X113.811Y-91.914
X114.895Y-87.014
X114.895Y-91.914
X115.87Y-92.11
X115.978Y-87.014
X117.11Y-92.22
X117.14Y-86.88
X117.911Y-86.964
X117.911Y-91.964
X118.744Y-86.647
X118.744Y-92.182
X119.5Y-85.891
X119.5Y-92.938
X120.256Y-85.134
X120.256Y-93.694
X121.012Y-84.378
X121.012Y-94.451
X121.768Y-83.622
X121.768Y-95.207
X122.524Y-82.866
X122.524Y-95.963
X123.211Y-81.964
X123.211Y-96.764
X124.08Y-97.518
X124.08Y-81.311
X124.711Y-98.064
X125.009Y-80.599
X125.607Y-98.53
X125.607Y-98.53
X126.08Y-80.128
X126.411Y-98.864
X127.411Y-79.864
X127.45Y-98.914
X128.511Y-79.914
X128.511Y-98.914
X129.511Y-79.914
X129.511Y-98.914
X130.511Y-79.914
X130.511Y-98.914
X131.573Y-79.915
X131.573Y-98.914
X132.597Y-98.792
X132.803Y-80.088
X133.574Y-98.461
X133.574Y-98.461
X133.95Y-80.563
X134.311Y-98.064
X134.942Y-97.518
X134.942Y-81.311
X135.615Y-96.845
X135.615Y-81.984
X136.363Y-95.854
X136.363Y-82.975
X136.838Y-94.706
X136.838Y-84.123
X137.011Y-85.353
X137.011Y-93.476
X137.011Y-86.914
X137.011Y-91.914
X138.095Y-91.914
T2
X116.46Y-91.69
X116.68Y-87.45
X116.938Y-91.212
X117.2Y-88.04
X117.4Y-90.77
X117.651Y-88.594
X117.761Y-90.184
X118.533Y-87.9
X118.533Y-88.6
X118.611Y-89.414
X118.611Y-90.5
X118.611Y-91.3
X119.511Y-89.414
X120.2Y-89.414
X120.9Y-89.414
X121.6Y-89.414
X122.4Y-89.414
X123.111Y-89.364
X123.711Y-88.764
X123.911Y-89.964
X124.511Y-87.964
X124.511Y-90.664
X125.211Y-87.264
X125.3Y-90.5
X125.311Y-91.364
X125.9Y-87.6
X125.911Y-86.864
X125.911Y-91.964
X126.1Y-91.2
X126.5Y-92.6
X126.6Y-86.3
X126.7Y-87.1
X127.0Y-93.2
X127.1Y-85.7
X127.432Y-92.3
X127.6Y-93.8
X127.8Y-85.3
X127.9Y-86.0
X127.9Y-93.1
X128.5Y-94.0
X128.6Y-85.3
X128.6Y-93.3
X129.1Y-86.0
X129.4Y-94.0
X129.433Y-93.3
X129.6Y-85.3
X130.4Y-94.0
X130.5Y-85.3
X131.2Y-94.0
X131.4Y-85.4
X131.8Y-93.4
X131.981Y-89.574
X132.0Y-85.9
X132.2Y-92.7
X132.4Y-86.5
X132.7Y-92.0
X132.8Y-87.0
X133.111Y-91.114
X133.311Y-87.614
X134.011Y-88.914
X134.111Y-89.914
X134.511Y-89.414
X135.011Y-89.014
X135.011Y-89.914
X135.911Y-91.114
X136.111Y-87.514
X136.381Y-90.434
X136.511Y-88.314
X136.71Y-96.84
X136.71Y-97.74
X136.71Y-98.576
X137.111Y-90.664
X137.411Y-87.664
X137.64Y-95.52
X137.71Y-96.34
X137.71Y-97.24
X137.71Y-98.076
X137.8Y-94.36
X137.811Y-90.964
X138.01Y-81.28
X138.01Y-82.18
X138.01Y-83.016
X138.14Y-83.894
X138.14Y-84.794
X138.14Y-85.63
X138.311Y-87.164
X138.35Y-93.07
X138.511Y-91.264
X138.55Y-95.06
X138.55Y-95.96
X138.55Y-96.796
X138.8Y-93.86
X139.01Y-80.78
X139.01Y-81.68
X139.01Y-82.516
X139.111Y-86.764
X139.14Y-83.394
X139.14Y-84.294
X139.14Y-85.13
X139.311Y-91.564
X139.4Y-92.61
X139.55Y-94.56
X139.55Y-95.46
X139.55Y-96.296
X139.711Y-86.364
X139.85Y-93.4
X140.011Y-91.864
X140.04Y-82.994
X140.04Y-83.894
X140.04Y-84.73
X140.311Y-85.964
X140.6Y-93.1
X140.6Y-94.1
X140.6Y-95.1
X140.6Y-96.1
X140.711Y-92.164
X141.0Y-82.6
X141.0Y-83.5
X141.0Y-84.336
X141.011Y-85.564
X141.411Y-92.464
X141.6Y-93.5
X141.6Y-94.5
X141.6Y-95.5
X141.6Y-96.5
X141.711Y-85.164
X142.0Y-82.1
X142.0Y-83.0
X142.0Y-83.836
X142.211Y-92.764
X142.411Y-84.764
X142.6Y-94.1
X142.6Y-95.1
X142.6Y-96.1
X142.9Y-81.7
X142.9Y-82.6
X142.9Y-83.436
X142.911Y-93.064
X143.111Y-84.364
X143.6Y-94.8
X143.6Y-95.8
X143.8Y-81.4
X143.8Y-82.3
X143.8Y-83.136
X143.811Y-83.964
X143.811Y-93.664
X144.6Y-93.864
X144.6Y-94.864
X144.6Y-95.864
X144.811Y-81.364
X144.811Y-82.264
X144.811Y-83.164
T3
X125.431Y-89.094
X127.911Y-90.774
X130.3Y-91.8
X130.401Y-88.044
T4
X110.825Y-84.752
X110.825Y-94.152
T5
X111.63Y-78.27
X111.63Y-100.55
X142.19Y-78.12
X142.2Y-100.42
M30
