%TF.GenerationSoftware,KiCad,Pcbnew,9.0.8*%
%TF.CreationDate,2026-06-26T13:12:10-05:00*%
%TF.ProjectId,pwm_radar_with_antenna,70776d5f-7261-4646-9172-5f776974685f,rev?*%
%TF.SameCoordinates,Original*%
%TF.FileFunction,Soldermask,Bot*%
%TF.FilePolarity,Negative*%
%FSLAX46Y46*%
G04 Gerber Fmt 4.6, Leading zero omitted, Abs format (unit mm)*
G04 Created by KiCad (PCBNEW 9.0.8) date 2026-06-26 13:12:10*
%MOMM*%
%LPD*%
G01*
G04 APERTURE LIST*
G04 Aperture macros list*
%AMRoundRect*
0 Rectangle with rounded corners*
0 $1 Rounding radius*
0 $2 $3 $4 $5 $6 $7 $8 $9 X,Y pos of 4 corners*
0 Add a 4 corners polygon primitive as box body*
4,1,4,$2,$3,$4,$5,$6,$7,$8,$9,$2,$3,0*
0 Add four circle primitives for the rounded corners*
1,1,$1+$1,$2,$3*
1,1,$1+$1,$4,$5*
1,1,$1+$1,$6,$7*
1,1,$1+$1,$8,$9*
0 Add four rect primitives between the rounded corners*
20,1,$1+$1,$2,$3,$4,$5,0*
20,1,$1+$1,$4,$5,$6,$7,0*
20,1,$1+$1,$6,$7,$8,$9,0*
20,1,$1+$1,$8,$9,$2,$3,0*%
G04 Aperture macros list end*
%ADD10C,0.100000*%
%ADD11C,3.600000*%
%ADD12C,5.600000*%
%ADD13R,5.000000X6.000000*%
%ADD14R,5.000000X14.000000*%
%ADD15RoundRect,0.155000X-0.212500X-0.155000X0.212500X-0.155000X0.212500X0.155000X-0.212500X0.155000X0*%
%ADD16R,0.850000X0.850000*%
%ADD17RoundRect,0.155000X0.212500X0.155000X-0.212500X0.155000X-0.212500X-0.155000X0.212500X-0.155000X0*%
%ADD18RoundRect,1.000000X-0.498706X-10.000000X0.498706X-10.000000X0.498706X10.000000X-0.498706X10.000000X0*%
%ADD19RoundRect,1.000000X-12.570000X-0.435000X12.570000X-0.435000X12.570000X0.435000X-12.570000X0.435000X0*%
%ADD20RoundRect,1.000000X-12.570000X-0.630275X12.570000X-0.630275X12.570000X0.630275X-12.570000X0.630275X0*%
G04 APERTURE END LIST*
D10*
X139951398Y-97714472D02*
X145600000Y-97714472D01*
X145600000Y-104350000D01*
X139951398Y-104350000D01*
X139951398Y-97714472D01*
G36*
X139951398Y-97714472D02*
G01*
X145600000Y-97714472D01*
X145600000Y-104350000D01*
X139951398Y-104350000D01*
X139951398Y-97714472D01*
G37*
%TO.C,U5*%
X139951398Y-97714472D02*
X176051398Y-97714472D01*
X176051398Y-68914472D01*
X139951398Y-68914472D01*
X139951398Y-97714472D01*
G36*
X139951398Y-97714472D02*
G01*
X176051398Y-97714472D01*
X176051398Y-68914472D01*
X139951398Y-68914472D01*
X139951398Y-97714472D01*
G37*
%TD*%
D11*
%TO.C,H4*%
X142190000Y-78120000D03*
D12*
X142190000Y-78120000D03*
%TD*%
D11*
%TO.C,H3*%
X142200000Y-100420000D03*
D12*
X142200000Y-100420000D03*
%TD*%
D11*
%TO.C,H2*%
X111630000Y-100550000D03*
D12*
X111630000Y-100550000D03*
%TD*%
D11*
%TO.C,H1*%
X111630000Y-78270000D03*
D12*
X111630000Y-78270000D03*
%TD*%
D13*
%TO.C,J1*%
X110525000Y-85426972D03*
D14*
X110525000Y-89476972D03*
D13*
X110525000Y-93476972D03*
%TD*%
D15*
%TO.C,C1*%
X130283898Y-86574472D03*
X131418898Y-86574472D03*
%TD*%
D16*
%TO.C,J3*%
X130401398Y-88044472D03*
%TD*%
D17*
%TO.C,C3*%
X129098898Y-88104472D03*
X127963898Y-88104472D03*
%TD*%
%TO.C,C2*%
X129088898Y-87014472D03*
X127953898Y-87014472D03*
%TD*%
D18*
%TO.C,U5*%
X145990104Y-84873369D03*
D19*
X158061398Y-75179472D03*
D20*
X158061398Y-94704747D03*
%TD*%
D16*
%TO.C,J2*%
X125431398Y-89094472D03*
%TD*%
%TO.C,J8*%
X130300000Y-91800000D03*
%TD*%
%TO.C,J7*%
X127911398Y-90774472D03*
%TD*%
D15*
%TO.C,C6*%
X129832500Y-90200000D03*
X130967500Y-90200000D03*
%TD*%
D17*
%TO.C,C5*%
X128567500Y-92300000D03*
X127432500Y-92300000D03*
%TD*%
%TO.C,C4*%
X130567500Y-93300000D03*
X129432500Y-93300000D03*
%TD*%
M02*
