%TF.GenerationSoftware,KiCad,Pcbnew,9.0.2*%
%TF.CreationDate,2026-06-25T15:34:29-05:00*%
%TF.ProjectId,pwm_radar_with_antenna,70776d5f-7261-4646-9172-5f776974685f,rev?*%
%TF.SameCoordinates,Original*%
%TF.FileFunction,Copper,L2,Bot*%
%TF.FilePolarity,Positive*%
%FSLAX46Y46*%
G04 Gerber Fmt 4.6, Leading zero omitted, Abs format (unit mm)*
G04 Created by KiCad (PCBNEW 9.0.2) date 2026-06-25 15:34:29*
%MOMM*%
%LPD*%
G01*
G04 APERTURE LIST*
G04 Aperture macros list*
%AMRoundRect*
0 Rectangle with rounded corners*
0 $1 Rounding radius*
0 $2 $3 $4 $5 $6 $7 $8 $9 X,Y pos of 4 corners*
0 Add a 4 corners polygon primitive as box body*
4,1,4,$2,$3,$4,$5,$6,$7,$8,$9,$2,$3,0*
0 Add four circle primitives for the rounded corners*
1,1,$1+$1,$2,$3*
1,1,$1+$1,$4,$5*
1,1,$1+$1,$6,$7*
1,1,$1+$1,$8,$9*
0 Add four rect primitives between the rounded corners*
20,1,$1+$1,$2,$3,$4,$5,0*
20,1,$1+$1,$4,$5,$6,$7,0*
20,1,$1+$1,$6,$7,$8,$9,0*
20,1,$1+$1,$8,$9,$2,$3,0*%
G04 Aperture macros list end*
%TA.AperFunction,EtchedComponent*%
%ADD10C,0.000000*%
%TD*%
%TA.AperFunction,ComponentPad*%
%ADD11R,5.000000X6.000000*%
%TD*%
%TA.AperFunction,ConnectorPad*%
%ADD12R,5.000000X14.000000*%
%TD*%
%TA.AperFunction,SMDPad,CuDef*%
%ADD13RoundRect,0.155000X-0.212500X-0.155000X0.212500X-0.155000X0.212500X0.155000X-0.212500X0.155000X0*%
%TD*%
%TA.AperFunction,ComponentPad*%
%ADD14R,0.850000X0.850000*%
%TD*%
%TA.AperFunction,SMDPad,CuDef*%
%ADD15RoundRect,0.155000X0.212500X0.155000X-0.212500X0.155000X-0.212500X-0.155000X0.212500X-0.155000X0*%
%TD*%
%TA.AperFunction,ConnectorPad*%
%ADD16R,0.997413X20.000000*%
%TD*%
%TA.AperFunction,ConnectorPad*%
%ADD17R,25.140000X0.870000*%
%TD*%
%TA.AperFunction,ConnectorPad*%
%ADD18R,25.140000X1.260550*%
%TD*%
%TA.AperFunction,ViaPad*%
%ADD19C,0.700000*%
%TD*%
%TA.AperFunction,ViaPad*%
%ADD20C,0.600000*%
%TD*%
%TA.AperFunction,Conductor*%
%ADD21C,0.300000*%
%TD*%
%TA.AperFunction,Conductor*%
%ADD22C,0.200000*%
%TD*%
%TA.AperFunction,Conductor*%
%ADD23C,0.477000*%
%TD*%
G04 APERTURE END LIST*
D10*
%TA.AperFunction,EtchedComponent*%
%TO.C,U5*%
G36*
X170631768Y-79873369D02*
G01*
X170114141Y-80339234D01*
X169571398Y-80764472D01*
X169061398Y-81131038D01*
X168551398Y-81514472D01*
X167921896Y-81831930D01*
X167511214Y-82014976D01*
X167117807Y-82237432D01*
X166666872Y-82445670D01*
X166258637Y-82597700D01*
X165841568Y-82781891D01*
X165424498Y-82914966D01*
X165000361Y-83076287D01*
X164292472Y-83285047D01*
X163716886Y-83454472D01*
X163282966Y-83549190D01*
X162310290Y-83781136D01*
X161661398Y-83897162D01*
X160726525Y-84040895D01*
X159691398Y-84177277D01*
X158571398Y-84268039D01*
X157651398Y-84357453D01*
X156751398Y-84433758D01*
X155771342Y-84528792D01*
X154434544Y-84601612D01*
X153231398Y-84623369D01*
X151467830Y-84623369D01*
X151371398Y-84284472D01*
X151221398Y-83984472D01*
X150911398Y-83674472D01*
X150521398Y-83464472D01*
X150291398Y-83394472D01*
X150114232Y-83378623D01*
X149721398Y-83378623D01*
X149481398Y-83474472D01*
X149221398Y-83604472D01*
X148891398Y-83854472D01*
X148681398Y-84164472D01*
X148509787Y-84623369D01*
X148488811Y-85084472D01*
X148661398Y-85584472D01*
X148861398Y-85854472D01*
X149071398Y-86064472D01*
X149391398Y-86254472D01*
X149751398Y-86354472D01*
X150114304Y-86368115D01*
X150591398Y-86254472D01*
X150851398Y-86094472D01*
X151091398Y-85894472D01*
X151251398Y-85674472D01*
X151391398Y-85394472D01*
X151471398Y-85124472D01*
X153988811Y-85123369D01*
X154871398Y-85157705D01*
X155728509Y-85207176D01*
X157172412Y-85294747D01*
X158061398Y-85373198D01*
X158851398Y-85468173D01*
X160271398Y-85624393D01*
X161501398Y-85818762D01*
X161870516Y-85893473D01*
X163561398Y-86269822D01*
X164832199Y-86614472D01*
X166331398Y-87082888D01*
X166961398Y-87434432D01*
X167714544Y-87804472D01*
X168489418Y-88273503D01*
X168941398Y-88517997D01*
X169261398Y-88762490D01*
X169938312Y-89249258D01*
X170631768Y-89873369D01*
X170631768Y-94873369D01*
X146488811Y-94873369D01*
X146488811Y-74873369D01*
X170631768Y-74873369D01*
X170631768Y-79873369D01*
G37*
%TD.AperFunction*%
%TD*%
D11*
%TO.P,J1,2,Ext*%
%TO.N,GND*%
X110525000Y-85426972D03*
D12*
X110525000Y-89476972D03*
D11*
X110525000Y-93476972D03*
%TD*%
D13*
%TO.P,C1,1*%
%TO.N,VDD*%
X130283898Y-86574472D03*
%TO.P,C1,2*%
%TO.N,GND*%
X131418898Y-86574472D03*
%TD*%
D14*
%TO.P,J3,1,Pin_1*%
%TO.N,VDD*%
X130401398Y-88044472D03*
%TD*%
D15*
%TO.P,C3,1*%
%TO.N,VDD*%
X129098898Y-88104472D03*
%TO.P,C3,2*%
%TO.N,GND*%
X127963898Y-88104472D03*
%TD*%
%TO.P,C2,1*%
%TO.N,VDD*%
X129088898Y-87014472D03*
%TO.P,C2,2*%
%TO.N,GND*%
X127953898Y-87014472D03*
%TD*%
D16*
%TO.P,U5,2*%
%TO.N,GND*%
X145990104Y-84873369D03*
D17*
X158061398Y-75179472D03*
D18*
X158061398Y-94704747D03*
%TD*%
D14*
%TO.P,J2,1,Pin_1*%
%TO.N,Net-(J2-Pin_1)*%
X125431398Y-89094472D03*
%TD*%
%TO.P,J8,1,Pin_1*%
%TO.N,VSS*%
X130321398Y-92434472D03*
%TD*%
%TO.P,J7,1,Pin_1*%
%TO.N,Net-(J7-Pin_1)*%
X127911398Y-90774472D03*
%TD*%
D13*
%TO.P,C6,1*%
%TO.N,VSS*%
X129803898Y-93934472D03*
%TO.P,C6,2*%
%TO.N,GND*%
X130938898Y-93934472D03*
%TD*%
D15*
%TO.P,C5,1*%
%TO.N,VSS*%
X128548898Y-93594472D03*
%TO.P,C5,2*%
%TO.N,GND*%
X127413898Y-93594472D03*
%TD*%
%TO.P,C4,1*%
%TO.N,VSS*%
X128508898Y-92434472D03*
%TO.P,C4,2*%
%TO.N,GND*%
X127373898Y-92434472D03*
%TD*%
D19*
%TO.N,GND*%
X123211398Y-81964472D03*
X133573868Y-98460521D03*
X127450045Y-98913718D03*
D20*
X144811398Y-96864472D03*
X144811398Y-77364472D03*
D19*
X124080444Y-97517987D03*
D20*
X144811398Y-94864472D03*
X123911398Y-89964472D03*
X144811398Y-76364472D03*
D19*
X136837947Y-94705938D03*
X118743631Y-92182239D03*
D20*
X136381398Y-90434472D03*
X143811398Y-93664472D03*
X117761398Y-90184472D03*
D19*
X114894731Y-91914472D03*
D20*
X137411398Y-87664472D03*
X138311398Y-87164472D03*
X139111398Y-86764472D03*
D19*
X113811398Y-91914472D03*
X112578065Y-87014472D03*
D20*
X125211398Y-87264472D03*
D19*
X125606977Y-98530382D03*
X124080453Y-81310944D03*
D20*
X142411398Y-84764472D03*
D19*
X135614912Y-96845424D03*
X136362607Y-95853505D03*
X132597120Y-98792296D03*
X137011398Y-91914472D03*
X128511398Y-79914472D03*
X130511398Y-79914472D03*
D20*
X133111398Y-91114472D03*
X141011398Y-85564472D03*
D19*
X121768141Y-83622194D03*
D20*
X135011398Y-89914472D03*
X143111398Y-84364472D03*
X133311398Y-87614472D03*
X134011398Y-88914472D03*
D19*
X125606978Y-98530382D03*
D20*
X144811398Y-98864472D03*
X125911398Y-86864472D03*
D19*
X127411398Y-79864472D03*
D20*
X139711398Y-86364472D03*
D19*
X115978065Y-91914472D03*
X110411398Y-87014472D03*
X117011398Y-86964472D03*
X126411398Y-98864472D03*
X129511398Y-79914472D03*
D20*
X125311398Y-91364472D03*
D19*
X108561398Y-91924472D03*
D20*
X123711398Y-88764472D03*
X144811398Y-100764472D03*
X124511398Y-90664472D03*
D19*
X121768141Y-95206749D03*
X131572751Y-79915223D03*
D20*
X144811398Y-79364472D03*
X138511398Y-91264472D03*
X137111398Y-90664472D03*
D19*
X110511398Y-91914472D03*
D20*
X141411398Y-92464472D03*
D19*
X114894731Y-87014472D03*
X111494731Y-87014472D03*
D20*
X144811398Y-102164472D03*
D19*
X133950434Y-80563260D03*
X124711398Y-98064472D03*
X121012013Y-94450621D03*
X120255886Y-85134449D03*
X109591398Y-91914472D03*
X128511398Y-98914472D03*
X133573867Y-98460521D03*
D20*
X144811398Y-99864472D03*
D19*
X113811398Y-87014472D03*
X122524268Y-82866067D03*
D20*
X125911398Y-91964472D03*
X140011398Y-91864472D03*
X134511398Y-89414472D03*
X124511398Y-87964472D03*
X144811398Y-82264472D03*
X137811398Y-90964472D03*
X135011398Y-89014472D03*
D19*
X136362611Y-82975443D03*
D20*
X139311398Y-91564472D03*
D19*
X138094731Y-91914472D03*
D20*
X136511398Y-88314472D03*
X144811398Y-75364472D03*
X144811398Y-93864472D03*
X119511398Y-89414472D03*
D19*
X112678065Y-91914472D03*
X121012013Y-84378322D03*
X137011398Y-86914472D03*
X125009015Y-80599401D03*
X120255886Y-93694494D03*
D20*
X134111398Y-89914472D03*
D19*
X135614913Y-81983518D03*
X137010645Y-93475846D03*
X131572751Y-98913717D03*
X130511398Y-98914472D03*
X119499758Y-85890577D03*
X115978065Y-87014472D03*
D20*
X136111398Y-87514472D03*
X142911398Y-93064472D03*
D19*
X134942362Y-81310966D03*
X108611398Y-86984472D03*
X117911398Y-86964472D03*
X119499758Y-92938366D03*
D20*
X142211398Y-92764472D03*
X140311398Y-85964472D03*
D19*
X109561398Y-86994472D03*
D20*
X144811398Y-95864472D03*
D19*
X117011398Y-91964472D03*
X117911398Y-91964472D03*
D20*
X131981398Y-89574472D03*
D19*
X136837951Y-84123017D03*
D20*
X144811398Y-78364472D03*
D19*
X134942351Y-97517986D03*
D20*
X141711398Y-85164472D03*
D19*
X137010643Y-85353118D03*
D20*
X118611398Y-89414472D03*
D19*
X134311398Y-98064472D03*
D20*
X144811398Y-83164472D03*
D19*
X111594731Y-91914472D03*
D20*
X135911398Y-91114472D03*
X144811398Y-81364472D03*
D19*
X126079579Y-80127687D03*
X122524268Y-95962876D03*
X123211398Y-96764472D03*
D20*
X140711398Y-92164472D03*
D19*
X132802856Y-80087916D03*
D20*
X143811398Y-83964472D03*
X144811398Y-97864472D03*
D19*
X118743631Y-86646705D03*
D20*
X123111398Y-89364472D03*
D19*
X129511398Y-98914472D03*
D20*
X117651398Y-88594472D03*
X144811398Y-80364472D03*
X144811398Y-101664472D03*
%TD*%
D21*
%TO.N,VSS*%
X130321398Y-92434472D02*
X128508898Y-92434472D01*
D22*
X129463898Y-93594472D02*
X129803898Y-93934472D01*
D21*
X128508898Y-93554472D02*
X128548898Y-93594472D01*
D22*
X128548898Y-93594472D02*
X129463898Y-93594472D01*
D21*
X128508898Y-92434472D02*
X128508898Y-93554472D01*
D22*
%TO.N,VDD*%
X129088898Y-88094472D02*
X129098898Y-88104472D01*
D23*
X129098898Y-88104472D02*
X130341398Y-88104472D01*
D22*
X129088898Y-87014472D02*
X129088898Y-88094472D01*
X129843898Y-87014472D02*
X130283898Y-86574472D01*
X129088898Y-87014472D02*
X129843898Y-87014472D01*
D23*
X130341398Y-88104472D02*
X130401398Y-88044472D01*
%TD*%
%TA.AperFunction,Conductor*%
%TO.N,GND*%
G36*
X146160404Y-74733247D02*
G01*
X146227431Y-74752964D01*
X146273161Y-74805790D01*
X146282813Y-74866405D01*
X146283311Y-74866405D01*
X146283311Y-74869530D01*
X146283564Y-74871119D01*
X146283311Y-74873366D01*
X146283311Y-94873373D01*
X146288462Y-94919097D01*
X146328144Y-95001495D01*
X146328145Y-95001496D01*
X146399648Y-95058518D01*
X146475014Y-95075720D01*
X146488806Y-95078868D01*
X146488811Y-95078869D01*
X170480428Y-95078869D01*
X170489157Y-95081432D01*
X170498161Y-95080144D01*
X170522152Y-95091120D01*
X170547467Y-95098554D01*
X170553423Y-95105428D01*
X170561696Y-95109213D01*
X170575946Y-95131420D01*
X170593222Y-95151358D01*
X170595515Y-95161917D01*
X170599430Y-95168018D01*
X170604428Y-95202956D01*
X170604416Y-95220059D01*
X170584684Y-95287085D01*
X170531848Y-95332802D01*
X170480416Y-95343972D01*
X145311190Y-95343972D01*
X145310898Y-95344264D01*
X145310898Y-103939972D01*
X145291213Y-104007011D01*
X145238409Y-104052766D01*
X145186898Y-104063972D01*
X108135898Y-104063972D01*
X108068859Y-104044287D01*
X108023104Y-103991483D01*
X108011898Y-103939972D01*
X108011898Y-92245730D01*
X127940898Y-92245730D01*
X127940898Y-92623214D01*
X127948448Y-92675037D01*
X127950965Y-92692314D01*
X128003074Y-92798902D01*
X128086965Y-92882793D01*
X128086966Y-92882793D01*
X128086969Y-92882796D01*
X128088855Y-92883718D01*
X128090983Y-92885662D01*
X128095328Y-92888764D01*
X128094953Y-92889288D01*
X128100835Y-92894662D01*
X128115601Y-92901406D01*
X128126100Y-92917743D01*
X128140437Y-92930841D01*
X128144990Y-92947137D01*
X128153375Y-92960184D01*
X128158398Y-92995119D01*
X128158398Y-93063356D01*
X128138713Y-93130395D01*
X128122079Y-93151037D01*
X128043076Y-93230040D01*
X128043074Y-93230041D01*
X127990965Y-93336629D01*
X127988433Y-93354012D01*
X127980898Y-93405730D01*
X127980898Y-93783214D01*
X127988448Y-93835037D01*
X127990965Y-93852314D01*
X128043074Y-93958902D01*
X128126967Y-94042795D01*
X128233555Y-94094904D01*
X128233556Y-94094904D01*
X128233558Y-94094905D01*
X128302656Y-94104972D01*
X128302662Y-94104972D01*
X128795134Y-94104972D01*
X128795140Y-94104972D01*
X128864238Y-94094905D01*
X128970827Y-94042796D01*
X128970828Y-94042795D01*
X128970830Y-94042794D01*
X129024217Y-93989407D01*
X129085540Y-93955922D01*
X129155232Y-93960906D01*
X129211165Y-94002778D01*
X129235582Y-94068242D01*
X129235898Y-94077088D01*
X129235898Y-94123214D01*
X129243448Y-94175037D01*
X129245965Y-94192314D01*
X129298074Y-94298902D01*
X129381967Y-94382795D01*
X129488555Y-94434904D01*
X129488556Y-94434904D01*
X129488558Y-94434905D01*
X129557656Y-94444972D01*
X129557662Y-94444972D01*
X130050134Y-94444972D01*
X130050140Y-94444972D01*
X130119238Y-94434905D01*
X130225827Y-94382796D01*
X130225828Y-94382795D01*
X130225830Y-94382794D01*
X130309720Y-94298904D01*
X130309721Y-94298902D01*
X130309722Y-94298901D01*
X130361831Y-94192312D01*
X130371898Y-94123214D01*
X130371898Y-93745730D01*
X130361831Y-93676632D01*
X130309722Y-93570043D01*
X130309721Y-93570042D01*
X130309721Y-93570041D01*
X130225828Y-93486148D01*
X130119240Y-93434039D01*
X130101963Y-93431522D01*
X130050140Y-93423972D01*
X130050134Y-93423972D01*
X129769731Y-93423972D01*
X129702692Y-93404287D01*
X129682050Y-93387653D01*
X129648410Y-93354013D01*
X129648402Y-93354007D01*
X129579893Y-93314454D01*
X129579888Y-93314451D01*
X129554411Y-93307624D01*
X129503460Y-93293972D01*
X129503458Y-93293972D01*
X129163380Y-93293972D01*
X129096341Y-93274287D01*
X129082252Y-93263750D01*
X129063100Y-93247182D01*
X129054722Y-93230043D01*
X128970827Y-93146148D01*
X128914456Y-93118589D01*
X128902270Y-93108047D01*
X128891729Y-93091674D01*
X128877355Y-93078541D01*
X128872816Y-93062296D01*
X128864449Y-93049299D01*
X128864435Y-93032298D01*
X128859398Y-93014269D01*
X128859398Y-92995119D01*
X128879083Y-92928080D01*
X128922779Y-92889200D01*
X128922468Y-92888764D01*
X128926524Y-92885867D01*
X128928940Y-92883718D01*
X128930827Y-92882796D01*
X128992333Y-92821289D01*
X129053654Y-92787806D01*
X129080013Y-92784972D01*
X129575386Y-92784972D01*
X129642425Y-92804657D01*
X129688180Y-92857461D01*
X129697003Y-92884780D01*
X129707530Y-92937701D01*
X129707530Y-92937702D01*
X129751845Y-93004024D01*
X129818167Y-93048339D01*
X129818168Y-93048340D01*
X129876645Y-93059971D01*
X129876648Y-93059972D01*
X129876650Y-93059972D01*
X130766148Y-93059972D01*
X130766149Y-93059971D01*
X130780966Y-93057024D01*
X130824627Y-93048340D01*
X130824627Y-93048339D01*
X130824629Y-93048339D01*
X130890950Y-93004024D01*
X130935265Y-92937703D01*
X130935265Y-92937701D01*
X130935266Y-92937701D01*
X130945576Y-92885867D01*
X130946898Y-92879220D01*
X130946898Y-91989724D01*
X130946898Y-91989721D01*
X130946897Y-91989719D01*
X130935266Y-91931242D01*
X130935265Y-91931241D01*
X130890950Y-91864919D01*
X130824628Y-91820604D01*
X130824627Y-91820603D01*
X130766150Y-91808972D01*
X130766146Y-91808972D01*
X129876650Y-91808972D01*
X129876645Y-91808972D01*
X129818168Y-91820603D01*
X129818167Y-91820604D01*
X129751845Y-91864919D01*
X129707530Y-91931241D01*
X129707530Y-91931242D01*
X129697003Y-91984164D01*
X129664618Y-92046075D01*
X129603902Y-92080649D01*
X129575386Y-92083972D01*
X129080013Y-92083972D01*
X129012974Y-92064287D01*
X128992336Y-92047657D01*
X128930827Y-91986148D01*
X128926769Y-91984164D01*
X128824240Y-91934039D01*
X128805033Y-91931241D01*
X128755140Y-91923972D01*
X128262656Y-91923972D01*
X128216590Y-91930683D01*
X128193555Y-91934039D01*
X128086967Y-91986148D01*
X128086966Y-91986150D01*
X128003076Y-92070040D01*
X128003074Y-92070041D01*
X127950965Y-92176629D01*
X127950965Y-92176632D01*
X127940898Y-92245730D01*
X108011898Y-92245730D01*
X108011898Y-90329719D01*
X127285898Y-90329719D01*
X127285898Y-91219224D01*
X127297529Y-91277701D01*
X127297530Y-91277702D01*
X127341845Y-91344024D01*
X127408167Y-91388339D01*
X127408168Y-91388340D01*
X127466645Y-91399971D01*
X127466648Y-91399972D01*
X127466650Y-91399972D01*
X128356148Y-91399972D01*
X128356149Y-91399971D01*
X128370966Y-91397024D01*
X128414627Y-91388340D01*
X128414627Y-91388339D01*
X128414629Y-91388339D01*
X128480950Y-91344024D01*
X128525265Y-91277703D01*
X128525265Y-91277701D01*
X128525266Y-91277701D01*
X128536897Y-91219224D01*
X128536898Y-91219222D01*
X128536898Y-90329721D01*
X128536897Y-90329719D01*
X128525266Y-90271242D01*
X128525265Y-90271241D01*
X128480950Y-90204919D01*
X128414628Y-90160604D01*
X128414627Y-90160603D01*
X128356150Y-90148972D01*
X128356146Y-90148972D01*
X127466650Y-90148972D01*
X127466645Y-90148972D01*
X127408168Y-90160603D01*
X127408167Y-90160604D01*
X127341845Y-90204919D01*
X127297530Y-90271241D01*
X127297529Y-90271242D01*
X127285898Y-90329719D01*
X108011898Y-90329719D01*
X108011898Y-88649719D01*
X124805898Y-88649719D01*
X124805898Y-89539224D01*
X124817529Y-89597701D01*
X124817530Y-89597702D01*
X124861845Y-89664024D01*
X124928167Y-89708339D01*
X124928168Y-89708340D01*
X124986645Y-89719971D01*
X124986648Y-89719972D01*
X124986650Y-89719972D01*
X125876148Y-89719972D01*
X125876149Y-89719971D01*
X125890966Y-89717024D01*
X125934627Y-89708340D01*
X125934627Y-89708339D01*
X125934629Y-89708339D01*
X126000950Y-89664024D01*
X126045265Y-89597703D01*
X126045265Y-89597701D01*
X126045266Y-89597701D01*
X126056897Y-89539224D01*
X126056898Y-89539222D01*
X126056898Y-88649721D01*
X126056897Y-88649719D01*
X126045266Y-88591242D01*
X126045265Y-88591241D01*
X126000950Y-88524919D01*
X125934628Y-88480604D01*
X125934627Y-88480603D01*
X125876150Y-88468972D01*
X125876146Y-88468972D01*
X124986650Y-88468972D01*
X124986645Y-88468972D01*
X124928168Y-88480603D01*
X124928167Y-88480604D01*
X124861845Y-88524919D01*
X124817530Y-88591241D01*
X124817529Y-88591242D01*
X124805898Y-88649719D01*
X108011898Y-88649719D01*
X108011898Y-86825730D01*
X128520898Y-86825730D01*
X128520898Y-87203214D01*
X128528433Y-87254932D01*
X128530965Y-87272314D01*
X128583074Y-87378902D01*
X128674234Y-87470062D01*
X128673229Y-87471066D01*
X128709576Y-87517394D01*
X128716137Y-87586955D01*
X128684050Y-87649021D01*
X128682087Y-87651029D01*
X128593074Y-87740042D01*
X128540965Y-87846629D01*
X128540965Y-87846632D01*
X128530898Y-87915730D01*
X128530898Y-88293214D01*
X128538448Y-88345037D01*
X128540965Y-88362314D01*
X128593074Y-88468902D01*
X128676967Y-88552795D01*
X128783555Y-88604904D01*
X128783556Y-88604904D01*
X128783558Y-88604905D01*
X128852656Y-88614972D01*
X128852662Y-88614972D01*
X129345134Y-88614972D01*
X129345140Y-88614972D01*
X129414238Y-88604905D01*
X129514126Y-88556072D01*
X129526213Y-88553275D01*
X129533652Y-88548495D01*
X129568587Y-88543472D01*
X129718425Y-88543472D01*
X129785464Y-88563157D01*
X129821527Y-88598581D01*
X129831845Y-88614024D01*
X129898167Y-88658339D01*
X129898168Y-88658340D01*
X129956645Y-88669971D01*
X129956648Y-88669972D01*
X129956650Y-88669972D01*
X130846148Y-88669972D01*
X130846149Y-88669971D01*
X130860966Y-88667024D01*
X130904627Y-88658340D01*
X130904627Y-88658339D01*
X130904629Y-88658339D01*
X130970950Y-88614024D01*
X131015265Y-88547703D01*
X131015265Y-88547701D01*
X131015266Y-88547701D01*
X131026897Y-88489224D01*
X131026898Y-88489222D01*
X131026898Y-87599721D01*
X131026897Y-87599719D01*
X131015266Y-87541242D01*
X131015265Y-87541241D01*
X130970950Y-87474919D01*
X130904628Y-87430604D01*
X130904627Y-87430603D01*
X130846150Y-87418972D01*
X130846146Y-87418972D01*
X130163731Y-87418972D01*
X130142485Y-87412733D01*
X130120397Y-87411154D01*
X130109613Y-87403081D01*
X130096692Y-87399287D01*
X130082192Y-87382553D01*
X130064464Y-87369282D01*
X130059756Y-87356661D01*
X130050937Y-87346483D01*
X130047785Y-87324565D01*
X130040047Y-87303818D01*
X130042909Y-87290657D01*
X130040993Y-87277325D01*
X130050192Y-87257181D01*
X130054899Y-87235545D01*
X130068167Y-87217819D01*
X130070018Y-87213769D01*
X130076050Y-87207291D01*
X130162050Y-87121291D01*
X130223373Y-87087806D01*
X130249731Y-87084972D01*
X130530134Y-87084972D01*
X130530140Y-87084972D01*
X130599238Y-87074905D01*
X130705827Y-87022796D01*
X130705828Y-87022795D01*
X130705830Y-87022794D01*
X130789720Y-86938904D01*
X130789721Y-86938902D01*
X130789722Y-86938901D01*
X130841831Y-86832312D01*
X130851898Y-86763214D01*
X130851898Y-86385730D01*
X130841831Y-86316632D01*
X130789722Y-86210043D01*
X130789721Y-86210042D01*
X130789721Y-86210041D01*
X130705828Y-86126148D01*
X130599240Y-86074039D01*
X130581963Y-86071522D01*
X130530140Y-86063972D01*
X130037656Y-86063972D01*
X129991590Y-86070683D01*
X129968555Y-86074039D01*
X129861967Y-86126148D01*
X129861966Y-86126150D01*
X129778076Y-86210040D01*
X129778074Y-86210041D01*
X129725965Y-86316629D01*
X129725965Y-86316632D01*
X129715898Y-86385730D01*
X129715898Y-86385735D01*
X129715898Y-86471856D01*
X129696213Y-86538895D01*
X129643409Y-86584650D01*
X129574251Y-86594594D01*
X129520629Y-86570106D01*
X129519192Y-86572120D01*
X129510828Y-86566148D01*
X129404240Y-86514039D01*
X129386963Y-86511522D01*
X129335140Y-86503972D01*
X128842656Y-86503972D01*
X128796590Y-86510683D01*
X128773555Y-86514039D01*
X128666967Y-86566148D01*
X128666966Y-86566150D01*
X128583076Y-86650040D01*
X128583074Y-86650041D01*
X128530965Y-86756629D01*
X128530965Y-86756632D01*
X128520898Y-86825730D01*
X108011898Y-86825730D01*
X108011898Y-74839031D01*
X108031583Y-74771992D01*
X108084387Y-74726237D01*
X108135955Y-74715031D01*
X146160404Y-74733247D01*
G37*
%TD.AperFunction*%
%TD*%
M02*
