%TF.GenerationSoftware,KiCad,Pcbnew,9.0.8*%
%TF.CreationDate,2026-10-05T18:38:18-05:00*%
%TF.ProjectId,pwm_radar,70776d5f-7261-4646-9172-2e6b69636164,rev?*%
%TF.SameCoordinates,Original*%
%TF.FileFunction,Copper,L1,Top*%
%TF.FilePolarity,Positive*%
%FSLAX46Y46*%
G04 Gerber Fmt 4.6, Leading zero omitted, Abs format (unit mm)*
G04 Created by KiCad (PCBNEW 9.0.8) date 2026-10-05 18:38:18*
%MOMM*%
%LPD*%
G01*
G04 APERTURE LIST*
G04 Aperture macros list*
%AMRoundRect*
0 Rectangle with rounded corners*
0 $1 Rounding radius*
0 $2 $3 $4 $5 $6 $7 $8 $9 X,Y pos of 4 corners*
0 Add a 4 corners polygon primitive as box body*
4,1,4,$2,$3,$4,$5,$6,$7,$8,$9,$2,$3,0*
0 Add four circle primitives for the rounded corners*
1,1,$1+$1,$2,$3*
1,1,$1+$1,$4,$5*
1,1,$1+$1,$6,$7*
1,1,$1+$1,$8,$9*
0 Add four rect primitives between the rounded corners*
20,1,$1+$1,$2,$3,$4,$5,0*
20,1,$1+$1,$4,$5,$6,$7,0*
20,1,$1+$1,$6,$7,$8,$9,0*
20,1,$1+$1,$8,$9,$2,$3,0*%
G04 Aperture macros list end*
%TA.AperFunction,Conductor*%
%ADD10C,0.000000*%
%TD*%
%TA.AperFunction,SMDPad,CuDef*%
%ADD11R,0.660400X0.203200*%
%TD*%
%TA.AperFunction,SMDPad,CuDef*%
%ADD12R,0.609600X1.193800*%
%TD*%
%TA.AperFunction,SMDPad,CuDef*%
%ADD13RoundRect,0.155000X0.155000X-0.212500X0.155000X0.212500X-0.155000X0.212500X-0.155000X-0.212500X0*%
%TD*%
%TA.AperFunction,ComponentPad*%
%ADD14R,1.700000X1.700000*%
%TD*%
%TA.AperFunction,SMDPad,CuDef*%
%ADD15RoundRect,0.155000X-0.155000X0.212500X-0.155000X-0.212500X0.155000X-0.212500X0.155000X0.212500X0*%
%TD*%
%TA.AperFunction,SMDPad,CuDef*%
%ADD16RoundRect,0.160000X-0.160000X0.197500X-0.160000X-0.197500X0.160000X-0.197500X0.160000X0.197500X0*%
%TD*%
%TA.AperFunction,SMDPad,CuDef*%
%ADD17R,0.915001X0.250000*%
%TD*%
%TA.AperFunction,SMDPad,CuDef*%
%ADD18R,0.911225X0.250000*%
%TD*%
%TA.AperFunction,SMDPad,CuDef*%
%ADD19R,0.915001X0.225001*%
%TD*%
%TA.AperFunction,SMDPad,CuDef*%
%ADD20R,0.250000X0.915001*%
%TD*%
%TA.AperFunction,SMDPad,CuDef*%
%ADD21R,0.250000X0.918306*%
%TD*%
%TA.AperFunction,SMDPad,CuDef*%
%ADD22R,1.600000X1.600000*%
%TD*%
%TA.AperFunction,ConnectorPad*%
%ADD23R,5.200000X0.400000*%
%TD*%
%TA.AperFunction,ComponentPad*%
%ADD24R,5.000000X6.000000*%
%TD*%
%TA.AperFunction,SMDPad,CuDef*%
%ADD25RoundRect,0.160000X0.160000X-0.197500X0.160000X0.197500X-0.160000X0.197500X-0.160000X-0.197500X0*%
%TD*%
%TA.AperFunction,ViaPad*%
%ADD26C,0.600000*%
%TD*%
%TA.AperFunction,ViaPad*%
%ADD27C,0.700000*%
%TD*%
%TA.AperFunction,ViaPad*%
%ADD28C,3.600000*%
%TD*%
%TA.AperFunction,Conductor*%
%ADD29C,0.100000*%
%TD*%
%TA.AperFunction,Conductor*%
%ADD30C,0.250000*%
%TD*%
%TA.AperFunction,Conductor*%
%ADD31C,0.200000*%
%TD*%
%TA.AperFunction,Conductor*%
%ADD32C,0.381000*%
%TD*%
G04 APERTURE END LIST*
D10*
%TA.AperFunction,Conductor*%
%TO.N,RF1+*%
G36*
X114125000Y-55050000D02*
G01*
X113875000Y-55050000D01*
X113875000Y-53875000D01*
X114125000Y-53875000D01*
X114125000Y-55050000D01*
G37*
%TD.AperFunction*%
%TA.AperFunction,Conductor*%
%TO.N,RF1-*%
G36*
X113875000Y-58900000D02*
G01*
X114125000Y-58900000D01*
X114125000Y-60075000D01*
X113875000Y-60075000D01*
X113875000Y-58900000D01*
G37*
%TD.AperFunction*%
%TD*%
D11*
%TO.P,U1,1,GND*%
%TO.N,GND*%
X97100000Y-56359600D03*
%TO.P,U1,2,Primary*%
%TO.N,Net-(J1-In)*%
X97100000Y-57020000D03*
%TO.P,U1,3,GND*%
%TO.N,GND*%
X97100000Y-57680400D03*
%TO.P,U1,4,Secondary*%
%TO.N,RF1-*%
X99055800Y-57680400D03*
%TO.P,U1,5,NC*%
%TO.N,GND*%
X99055800Y-57020000D03*
%TO.P,U1,6,Secondary_Dot*%
%TO.N,RF1+*%
X99055800Y-56359600D03*
D12*
%TO.P,U1,7,GND_PAD*%
%TO.N,GND*%
X98077900Y-57020000D03*
%TD*%
D13*
%TO.P,C2,1*%
%TO.N,VDD*%
X108593765Y-55000000D03*
%TO.P,C2,2*%
%TO.N,GND*%
X108593765Y-53865000D03*
%TD*%
D14*
%TO.P,J7,1,Pin_1*%
%TO.N,Net-(J7-Pin_1)*%
X103000000Y-67000000D03*
%TD*%
D15*
%TO.P,C4,1*%
%TO.N,VSS*%
X107500000Y-58932500D03*
%TO.P,C4,2*%
%TO.N,GND*%
X107500000Y-60067500D03*
%TD*%
D13*
%TO.P,C3,1*%
%TO.N,VDD*%
X109593765Y-55000000D03*
%TO.P,C3,2*%
%TO.N,GND*%
X109593765Y-53865000D03*
%TD*%
D15*
%TO.P,C6,1*%
%TO.N,VSS*%
X108500000Y-58932500D03*
%TO.P,C6,2*%
%TO.N,GND*%
X108500000Y-60067500D03*
%TD*%
D16*
%TO.P,R2,1*%
%TO.N,EN*%
X106000000Y-65805000D03*
%TO.P,R2,2*%
%TO.N,Net-(J7-Pin_1)*%
X106000000Y-67000000D03*
%TD*%
D17*
%TO.P,U2,1,GND*%
%TO.N,GND*%
X115542499Y-57838001D03*
%TO.P,U2,2,GND*%
X115542499Y-57437999D03*
D18*
%TO.P,U2,3,RFC*%
%TO.N,Net-(J6-In)*%
X115544387Y-57038015D03*
D19*
%TO.P,U2,4,GND*%
%TO.N,GND*%
X115542499Y-56650501D03*
D17*
%TO.P,U2,5,GND*%
X115542499Y-56237999D03*
D20*
%TO.P,U2,6,GND*%
X114800001Y-55495501D03*
D21*
%TO.P,U2,7,GND*%
X114401438Y-55497153D03*
D20*
%TO.P,U2,8,RF1*%
%TO.N,RF1+*%
X114000000Y-55495501D03*
%TO.P,U2,9,GND*%
%TO.N,GND*%
X113600001Y-55495501D03*
%TO.P,U2,10,GND*%
X113199999Y-55495501D03*
D17*
%TO.P,U2,11,VDD*%
%TO.N,VDD*%
X112457501Y-56237999D03*
%TO.P,U2,12,CTRL*%
%TO.N,CTRL*%
X112457501Y-56638001D03*
%TO.P,U2,13,GND*%
%TO.N,GND*%
X112457501Y-57038000D03*
%TO.P,U2,14,EN*%
%TO.N,EN*%
X112457501Y-57437999D03*
%TO.P,U2,15,VSS*%
%TO.N,VSS*%
X112457501Y-57838001D03*
D20*
%TO.P,U2,16,GND*%
%TO.N,GND*%
X113199999Y-58580499D03*
%TO.P,U2,17,GND*%
X113600001Y-58580499D03*
%TO.P,U2,18,RF2*%
%TO.N,RF1-*%
X114000000Y-58580499D03*
%TO.P,U2,19,GND*%
%TO.N,GND*%
X114399999Y-58580499D03*
%TO.P,U2,20,GND*%
X114800001Y-58580499D03*
D22*
%TO.P,U2,21*%
X114000000Y-57038000D03*
%TD*%
D23*
%TO.P,J1,1,In*%
%TO.N,Net-(J1-In)*%
X90000000Y-57025000D03*
D24*
%TO.P,J1,2,Ext*%
%TO.N,GND*%
X90000000Y-53000000D03*
X90000000Y-61050000D03*
%TD*%
D13*
%TO.P,C1,1*%
%TO.N,VDD*%
X107593765Y-55000000D03*
%TO.P,C1,2*%
%TO.N,GND*%
X107593765Y-53865000D03*
%TD*%
D23*
%TO.P,J6,1,In*%
%TO.N,Net-(J6-In)*%
X123000000Y-57025000D03*
D24*
%TO.P,J6,2,Ext*%
%TO.N,GND*%
X123000000Y-61050000D03*
X123000000Y-53000000D03*
%TD*%
D14*
%TO.P,J2,1,Pin_1*%
%TO.N,Net-(J2-Pin_1)*%
X103000000Y-46000000D03*
%TD*%
%TO.P,J8,1,Pin_1*%
%TO.N,VSS*%
X112000000Y-67000000D03*
%TD*%
D15*
%TO.P,C5,1*%
%TO.N,VSS*%
X109500000Y-58932500D03*
%TO.P,C5,2*%
%TO.N,GND*%
X109500000Y-60067500D03*
%TD*%
D25*
%TO.P,R1,1*%
%TO.N,CTRL*%
X106000000Y-46597500D03*
%TO.P,R1,2*%
%TO.N,Net-(J2-Pin_1)*%
X106000000Y-45402500D03*
%TD*%
D14*
%TO.P,J3,1,Pin_1*%
%TO.N,VDD*%
X112000000Y-46000000D03*
%TD*%
D26*
%TO.N,GND*%
X118000000Y-66000000D03*
X99000000Y-54000000D03*
X116400000Y-57800000D03*
X110000000Y-48000000D03*
X119000000Y-55900000D03*
X117000000Y-51000000D03*
X118000000Y-55900000D03*
X98000000Y-63000000D03*
X106000000Y-64000000D03*
X98100000Y-56000000D03*
X118200000Y-59800000D03*
X101000000Y-52000000D03*
X107000000Y-64000000D03*
X116000000Y-54000000D03*
X117500000Y-54800000D03*
X118000000Y-51000000D03*
D27*
X120900000Y-59500000D03*
D26*
X114000000Y-57000000D03*
D27*
X89040000Y-54570000D03*
D26*
X109800000Y-62700000D03*
X117000000Y-49000000D03*
X118900000Y-59800000D03*
X116000000Y-48000000D03*
X104400000Y-59000000D03*
X114000000Y-50000000D03*
X115000000Y-61200000D03*
X100000000Y-52000000D03*
X116000000Y-52000000D03*
X102000000Y-48000000D03*
X112000000Y-49000000D03*
X104800000Y-59400000D03*
X98900000Y-55300000D03*
X116100000Y-54800000D03*
X113400000Y-51300000D03*
X114700000Y-55000000D03*
X89600000Y-55600000D03*
X94100000Y-55300000D03*
X109200000Y-62700000D03*
X117000000Y-61000000D03*
X108000000Y-51300000D03*
X116000000Y-66000000D03*
X94000000Y-68000000D03*
X108900000Y-60500000D03*
X116000000Y-60000000D03*
D27*
X89000000Y-63000000D03*
D26*
X115000000Y-64000000D03*
X116900000Y-54800000D03*
X100100000Y-58800000D03*
X113900000Y-51500000D03*
X118600000Y-59200000D03*
X100000000Y-65000000D03*
X114000000Y-66000000D03*
X108600000Y-51300000D03*
X97100000Y-55800000D03*
X117000000Y-66000000D03*
X100000000Y-62000000D03*
X97000000Y-51000000D03*
D27*
X120800000Y-54500000D03*
D26*
X118300000Y-58600000D03*
X106700000Y-60400000D03*
X114700000Y-61700000D03*
X119000000Y-55300000D03*
X109000000Y-68000000D03*
X119000000Y-50000000D03*
X119500000Y-58600000D03*
X109500000Y-60500000D03*
D27*
X124000000Y-54000000D03*
D26*
X102000000Y-50000000D03*
X96000000Y-63000000D03*
X106800000Y-53700000D03*
X101000000Y-48000000D03*
X114000000Y-48000000D03*
X104000000Y-63000000D03*
X112000000Y-65000000D03*
X113000000Y-65000000D03*
X108000000Y-46000000D03*
X97000000Y-50000000D03*
X120000000Y-66000000D03*
X119000000Y-62000000D03*
X92100000Y-55600000D03*
X107000000Y-49000000D03*
X96000000Y-51000000D03*
X117300000Y-59200000D03*
X106200000Y-62700000D03*
X98000000Y-60000000D03*
X115000000Y-51000000D03*
X101000000Y-49000000D03*
X99000000Y-60000000D03*
X104000000Y-65000000D03*
X116000000Y-64000000D03*
X113100000Y-53900000D03*
X112000000Y-60500000D03*
D27*
X89200000Y-59500000D03*
D26*
X115000000Y-48000000D03*
X98000000Y-62000000D03*
X118900000Y-58000000D03*
X96500000Y-58700000D03*
X116000000Y-45000000D03*
X89100000Y-55600000D03*
X109000000Y-49000000D03*
X115100000Y-59400000D03*
X95000000Y-45000000D03*
D28*
X98000000Y-66000000D03*
D26*
X105100000Y-51700000D03*
X109770000Y-48980000D03*
X94000000Y-47000000D03*
X119300000Y-54800000D03*
X97000000Y-52000000D03*
X95300000Y-58700000D03*
X101700000Y-54700000D03*
X108000000Y-45000000D03*
X100000000Y-50000000D03*
X94700000Y-55300000D03*
D27*
X90500000Y-46000000D03*
D26*
X118000000Y-49000000D03*
X108000000Y-62700000D03*
X108000000Y-64000000D03*
X98000000Y-68000000D03*
X118000000Y-61000000D03*
X117000000Y-65000000D03*
X118000000Y-54000000D03*
X101000000Y-60000000D03*
X117500000Y-55900000D03*
X97100000Y-58700000D03*
X111500000Y-60500000D03*
X102900000Y-53500000D03*
X94000000Y-49000000D03*
D27*
X89000000Y-60000000D03*
D26*
X121500000Y-55100000D03*
X96000000Y-49000000D03*
X104500000Y-55100000D03*
X109800000Y-51300000D03*
X97700000Y-55300000D03*
X119000000Y-63000000D03*
X107400000Y-62700000D03*
X104000000Y-58600000D03*
X112800000Y-51300000D03*
X102500000Y-53900000D03*
X115000000Y-66000000D03*
X112000000Y-64000000D03*
X123300000Y-55100000D03*
X97700000Y-58700000D03*
X118500000Y-55900000D03*
X99000000Y-63000000D03*
X101000000Y-53000000D03*
D27*
X122500000Y-46000000D03*
D26*
X105000000Y-50000000D03*
X107000000Y-65000000D03*
X113400000Y-62700000D03*
X90000000Y-58400000D03*
X119000000Y-61000000D03*
X96000000Y-62000000D03*
X93500000Y-55300000D03*
X114000000Y-64000000D03*
X118000000Y-52000000D03*
X98077900Y-57020000D03*
X117600000Y-59800000D03*
X120000000Y-55900000D03*
X94000000Y-62000000D03*
X117000000Y-54000000D03*
D27*
X89000000Y-48000000D03*
D26*
X102000000Y-65000000D03*
X98300000Y-55300000D03*
X101200000Y-59100000D03*
D27*
X91083333Y-59500000D03*
D26*
X107000000Y-68000000D03*
X95000000Y-47000000D03*
X111000000Y-65000000D03*
X110600000Y-57038000D03*
X119000000Y-51000000D03*
X102300000Y-56700000D03*
X109000000Y-50000000D03*
X122100000Y-55100000D03*
X117000000Y-68000000D03*
X119900000Y-58000000D03*
X92000000Y-45000000D03*
X107000000Y-47000000D03*
X96000000Y-50000000D03*
X116000000Y-68000000D03*
X94000000Y-48000000D03*
X102100000Y-54300000D03*
X97000000Y-61000000D03*
X101000000Y-68000000D03*
X98100000Y-58100000D03*
X107000000Y-50000000D03*
D27*
X89900000Y-54600000D03*
D26*
X113000000Y-64000000D03*
X104000000Y-48000000D03*
X117800000Y-55300000D03*
X122700000Y-58500000D03*
X92500000Y-59100000D03*
X103300000Y-56300000D03*
D27*
X89500000Y-66000000D03*
X121883333Y-54500000D03*
D26*
X95000000Y-53000000D03*
X107300000Y-53600000D03*
X113000000Y-49000000D03*
X112700000Y-59000000D03*
X119000000Y-52000000D03*
D27*
X89000000Y-50000000D03*
D26*
X104600000Y-52000000D03*
X118400000Y-58000000D03*
X98000000Y-45000000D03*
X122100000Y-58500000D03*
X100000000Y-60000000D03*
X101000000Y-62000000D03*
X116000000Y-58400000D03*
X112000000Y-50000000D03*
X100000000Y-45000000D03*
X100000000Y-49000000D03*
X109600000Y-53600000D03*
X102500000Y-60100000D03*
X97000000Y-53000000D03*
X95900000Y-58700000D03*
X97000000Y-60000000D03*
X104900000Y-54700000D03*
X123300000Y-58500000D03*
X109000000Y-48000000D03*
X108000000Y-68000000D03*
X100700000Y-58900000D03*
X108000000Y-65000000D03*
X124000000Y-48000000D03*
X117000000Y-52000000D03*
X107200000Y-60500000D03*
X97100000Y-55300000D03*
X93000000Y-68000000D03*
X98000000Y-53000000D03*
X103000000Y-48000000D03*
X114300000Y-62100000D03*
X98000000Y-49000000D03*
X113000000Y-48000000D03*
X108400000Y-53600000D03*
X98900000Y-58700000D03*
X111130000Y-62720000D03*
X117000000Y-50000000D03*
X116000000Y-65000000D03*
X107000000Y-45000000D03*
X92100000Y-58400000D03*
X120000000Y-68000000D03*
X119000000Y-68000000D03*
X102000000Y-62000000D03*
X116900000Y-58000000D03*
X116000000Y-53000000D03*
X98077900Y-56500000D03*
X95000000Y-49000000D03*
X103000000Y-63000000D03*
X114000000Y-65000000D03*
X98077900Y-57500000D03*
D27*
X90000000Y-59500000D03*
D26*
X112500000Y-60500000D03*
X104100000Y-61700000D03*
X120000000Y-49000000D03*
X115000000Y-65000000D03*
D27*
X91500000Y-67500000D03*
D26*
X117900000Y-58000000D03*
X108000000Y-47000000D03*
X102000000Y-49000000D03*
X109000000Y-45000000D03*
X102800000Y-56600000D03*
X95000000Y-48000000D03*
X114500000Y-56600000D03*
X91400000Y-58400000D03*
X120800000Y-55100000D03*
X123800000Y-58500000D03*
X102000000Y-51000000D03*
X97000000Y-45000000D03*
X100700000Y-55100000D03*
X108000000Y-50000000D03*
X116000000Y-49000000D03*
X101000000Y-65000000D03*
X117000000Y-53000000D03*
X119000000Y-48000000D03*
X124000000Y-49000000D03*
X102000000Y-63000000D03*
X102700000Y-57500000D03*
X96000000Y-45000000D03*
X99000000Y-61000000D03*
X112800000Y-62700000D03*
X109000000Y-64000000D03*
X99000000Y-52000000D03*
X92400000Y-55000000D03*
X119500000Y-55300000D03*
X119000000Y-53000000D03*
X94000000Y-50000000D03*
X115542499Y-57700000D03*
X113900000Y-62500000D03*
X105200000Y-59700000D03*
X100000000Y-54000000D03*
X95000000Y-64000000D03*
X96000000Y-53000000D03*
X99000000Y-68000000D03*
X116200000Y-55900000D03*
X118000000Y-50000000D03*
X102200000Y-57200000D03*
X96500000Y-55300000D03*
X115000000Y-68000000D03*
X120000000Y-48000000D03*
X116900000Y-55900000D03*
X101000000Y-64000000D03*
X99000000Y-45000000D03*
X90800000Y-55600000D03*
X115100000Y-60600000D03*
X89000000Y-65000000D03*
X115000000Y-49000000D03*
X114500000Y-57500000D03*
D27*
X122966667Y-54500000D03*
D26*
X120900000Y-58500000D03*
X118100000Y-54800000D03*
X118000000Y-53000000D03*
X116700000Y-59200000D03*
X90200000Y-55600000D03*
X119000000Y-45000000D03*
X98000000Y-54000000D03*
D27*
X90500000Y-67000000D03*
D26*
X113000000Y-60200000D03*
X103600000Y-58200000D03*
X115000000Y-63000000D03*
X103300000Y-60900000D03*
X96000000Y-48000000D03*
X98000000Y-51000000D03*
X119200000Y-59200000D03*
X95000000Y-51000000D03*
D27*
X124000000Y-63500000D03*
D26*
X93000000Y-45000000D03*
X107400000Y-51300000D03*
X109000000Y-47000000D03*
X99500000Y-58700000D03*
X94000000Y-64000000D03*
X96000000Y-54000000D03*
X116000000Y-51000000D03*
X98000000Y-50000000D03*
X117000000Y-63000000D03*
X115100000Y-53400000D03*
X109000000Y-53600000D03*
D27*
X123500000Y-47000000D03*
D26*
X95300000Y-55300000D03*
X124000000Y-65000000D03*
X117900000Y-59200000D03*
X95000000Y-50000000D03*
X103700000Y-61300000D03*
X111600000Y-53600000D03*
X104000000Y-50000000D03*
X102000000Y-64000000D03*
X115000000Y-45000000D03*
X99000000Y-48000000D03*
X95000000Y-63000000D03*
X106000000Y-68000000D03*
X103000000Y-50000000D03*
X98000000Y-61000000D03*
X113500000Y-56500000D03*
X103200000Y-57800000D03*
X101700000Y-59300000D03*
X115000000Y-52800000D03*
X100100000Y-55200000D03*
X100000000Y-61000000D03*
D27*
X124000000Y-50000000D03*
D26*
X117000000Y-45000000D03*
X121500000Y-58500000D03*
X96000000Y-61000000D03*
X96000000Y-68000000D03*
X116000000Y-61000000D03*
X97000000Y-63000000D03*
X119400000Y-58000000D03*
X94000000Y-52000000D03*
X89000000Y-49000000D03*
D27*
X123990000Y-59530000D03*
X92166667Y-59500000D03*
X124000000Y-55000000D03*
D26*
X111100000Y-60530000D03*
X118700000Y-54800000D03*
X98000000Y-48000000D03*
X104000000Y-64000000D03*
D27*
X124000000Y-51000000D03*
D26*
X117200000Y-55300000D03*
X101200000Y-54900000D03*
X120000000Y-45000000D03*
X103000000Y-65000000D03*
X112600000Y-53600000D03*
X102900000Y-60500000D03*
X99500000Y-55300000D03*
X113300000Y-58580499D03*
X116500000Y-56300000D03*
X95000000Y-68000000D03*
X101000000Y-51000000D03*
X111330000Y-50030000D03*
X105300000Y-54400000D03*
X100000000Y-64000000D03*
X112200000Y-62700000D03*
X102000000Y-61000000D03*
X99000000Y-50000000D03*
X93000000Y-47000000D03*
X103000000Y-51000000D03*
X96000000Y-52000000D03*
X121000000Y-68000000D03*
X94000000Y-54000000D03*
X117100000Y-58600000D03*
X118000000Y-62000000D03*
X101000000Y-45000000D03*
X90700000Y-58400000D03*
X112100000Y-53600000D03*
X100000000Y-51000000D03*
X93500000Y-58700000D03*
X114700000Y-52300000D03*
X109200000Y-51300000D03*
X118000000Y-68000000D03*
X116000000Y-62000000D03*
X98300000Y-58700000D03*
X100000000Y-63000000D03*
D27*
X92066667Y-54600000D03*
X122000000Y-67500000D03*
D26*
X104100000Y-52300000D03*
X111600000Y-62700000D03*
X100000000Y-48000000D03*
X116000000Y-50000000D03*
X97000000Y-68000000D03*
X118000000Y-48000000D03*
X91400000Y-55600000D03*
X106800000Y-51300000D03*
X115100000Y-54000000D03*
X99000000Y-53000000D03*
X103000000Y-64000000D03*
X120300000Y-58400000D03*
X97100000Y-58100000D03*
X106800000Y-62700000D03*
X95900000Y-55300000D03*
X119000000Y-65000000D03*
X108000000Y-49000000D03*
X108600000Y-62700000D03*
X97000000Y-62000000D03*
X119000000Y-49000000D03*
X114000000Y-45000000D03*
X118000000Y-65000000D03*
X109000000Y-46000000D03*
X112200000Y-51300000D03*
X119000000Y-64000000D03*
X113000000Y-59600000D03*
X96000000Y-60000000D03*
X94000000Y-45000000D03*
X107800000Y-53600000D03*
D27*
X89000000Y-51000000D03*
D26*
X97000000Y-54000000D03*
D27*
X89000000Y-53500000D03*
D26*
X95000000Y-52000000D03*
X110000000Y-68000000D03*
X101000000Y-50000000D03*
D27*
X89000000Y-58500000D03*
D26*
X103000000Y-49000000D03*
X117000000Y-59800000D03*
X118000000Y-63000000D03*
X113100000Y-54500000D03*
X95000000Y-62000000D03*
X118900000Y-58600000D03*
X101000000Y-61000000D03*
X99000000Y-62000000D03*
X114000000Y-68000000D03*
X121000000Y-45000000D03*
X97000000Y-48000000D03*
X103300000Y-53100000D03*
X107700000Y-60500000D03*
X103000000Y-62000000D03*
X103700000Y-52700000D03*
X122700000Y-55100000D03*
X117400000Y-58000000D03*
X114300000Y-51900000D03*
X120400000Y-55600000D03*
X99000000Y-49000000D03*
X117700000Y-58600000D03*
X96000000Y-64000000D03*
X117000000Y-62000000D03*
X102100000Y-59700000D03*
X95000000Y-54000000D03*
X117000000Y-48000000D03*
X101000000Y-63000000D03*
X92900000Y-55300000D03*
X94700000Y-58700000D03*
X115100000Y-60000000D03*
X95000000Y-61000000D03*
X117000000Y-64000000D03*
X119500000Y-55900000D03*
X115000000Y-50000000D03*
X114000000Y-49000000D03*
X93000000Y-49000000D03*
X103700000Y-55900000D03*
X113199999Y-55200000D03*
X92900000Y-58700000D03*
X102000000Y-52000000D03*
X105600000Y-62600000D03*
D27*
X124000000Y-60500000D03*
D26*
X122700000Y-61725000D03*
D27*
X123000000Y-66500000D03*
D26*
X118000000Y-45000000D03*
X118400000Y-55300000D03*
X119000000Y-66000000D03*
X115100000Y-54600000D03*
D27*
X123066667Y-59500000D03*
D26*
X105000000Y-68000000D03*
D27*
X89500000Y-47000000D03*
D26*
X97000000Y-49000000D03*
X113600000Y-57500000D03*
X113000000Y-50000000D03*
X116600000Y-55300000D03*
X108300000Y-60500000D03*
X94000000Y-60000000D03*
X116000000Y-63000000D03*
X104100000Y-55500000D03*
X110000000Y-45000000D03*
X99000000Y-51000000D03*
X111600000Y-51300000D03*
X100000000Y-68000000D03*
X98000000Y-52000000D03*
X115300000Y-58800000D03*
X118000000Y-64000000D03*
X109760000Y-50060000D03*
D27*
X90983333Y-54600000D03*
D26*
X119000000Y-54000000D03*
D27*
X121983333Y-59500000D03*
D26*
X100000000Y-53000000D03*
X95000000Y-60000000D03*
X108000000Y-48000000D03*
X94100000Y-58700000D03*
X114700000Y-58580499D03*
%TO.N,VDD*%
X108000000Y-55000000D03*
X109000000Y-55000000D03*
%TO.N,VSS*%
X108000000Y-59000000D03*
X109000000Y-59000000D03*
%TO.N,CTRL*%
X106000000Y-48000000D03*
X110500000Y-56000000D03*
%TO.N,EN*%
X110500000Y-58000000D03*
X108700000Y-65800000D03*
%TD*%
D29*
%TO.N,GND*%
X109593765Y-53865000D02*
X107593765Y-53865000D01*
D30*
X98100000Y-58100000D02*
X98100000Y-58500000D01*
X98077900Y-55522100D02*
X98300000Y-55300000D01*
X98077900Y-58077900D02*
X98100000Y-58100000D01*
X113199999Y-55200000D02*
X113199999Y-55000000D01*
X113199999Y-55495501D02*
X113199999Y-55200000D01*
D29*
X108500000Y-60067500D02*
X107500000Y-60067500D01*
D30*
X97100000Y-56359600D02*
X97100000Y-55800000D01*
X115080499Y-58580499D02*
X115300000Y-58800000D01*
X98077900Y-56500000D02*
X98077900Y-55522100D01*
X114800001Y-54899999D02*
X115100000Y-54600000D01*
X99055800Y-57020000D02*
X100500000Y-57020000D01*
X113199999Y-58580499D02*
X113119501Y-58580499D01*
D29*
X108500000Y-60067500D02*
X109500000Y-60067500D01*
D30*
X113199999Y-55000000D02*
X113199999Y-54599999D01*
X113600001Y-55400002D02*
X113199999Y-55000000D01*
D29*
X115542499Y-56650501D02*
X116149499Y-56650501D01*
D30*
X98077900Y-57500000D02*
X98077900Y-58077900D01*
X114401438Y-55298562D02*
X114700000Y-55000000D01*
X114700000Y-58580499D02*
X115080499Y-58580499D01*
D31*
X115862001Y-56237999D02*
X116200000Y-55900000D01*
D30*
X114700000Y-55000000D02*
X114800001Y-54899999D01*
X114800001Y-58580499D02*
X115080499Y-58580499D01*
X115542499Y-57942499D02*
X116000000Y-58400000D01*
X97100000Y-55800000D02*
X97100000Y-55300000D01*
X114401438Y-55497153D02*
X114401438Y-55298562D01*
X115542499Y-57838001D02*
X115542499Y-57942499D01*
X97100000Y-57680400D02*
X97100000Y-58100000D01*
X100500000Y-57020000D02*
X101100000Y-57020000D01*
D31*
X115542499Y-56237999D02*
X115862001Y-56237999D01*
D30*
X101680000Y-57020000D02*
X101700000Y-57000000D01*
X114800001Y-55495501D02*
X114800001Y-54899999D01*
X115542499Y-57700000D02*
X115542499Y-57488015D01*
D29*
X109500000Y-60067500D02*
X109500000Y-60500000D01*
D30*
X113300000Y-58580499D02*
X113119501Y-58580499D01*
X98077900Y-57020000D02*
X99055800Y-57020000D01*
D29*
X116500000Y-56300000D02*
X116900000Y-55900000D01*
D30*
X97100000Y-58100000D02*
X97100000Y-58700000D01*
D29*
X115542499Y-57437999D02*
X115542499Y-57700000D01*
D30*
X98100000Y-58500000D02*
X98300000Y-58700000D01*
X113119501Y-58580499D02*
X112700000Y-59000000D01*
X101100000Y-57020000D02*
X101680000Y-57020000D01*
X98077900Y-57020000D02*
X98077900Y-57500000D01*
X113600001Y-55495501D02*
X113600001Y-55400002D01*
X114399999Y-58580499D02*
X114700000Y-58580499D01*
D29*
X116149499Y-56650501D02*
X116500000Y-56300000D01*
D30*
X113600001Y-58580499D02*
X113300000Y-58580499D01*
X113199999Y-54599999D02*
X113100000Y-54500000D01*
X115542499Y-57838001D02*
X115542499Y-57700000D01*
D31*
X110600000Y-57038000D02*
X112457501Y-57038000D01*
D30*
X98077900Y-57020000D02*
X98077900Y-56500000D01*
D31*
%TO.N,VDD*%
X112457501Y-56237999D02*
X111737999Y-56237999D01*
X110500000Y-55000000D02*
X109593765Y-55000000D01*
X109593765Y-55000000D02*
X107593765Y-55000000D01*
X111737999Y-56237999D02*
X110500000Y-55000000D01*
X109661265Y-54932500D02*
X109593765Y-55000000D01*
%TO.N,VSS*%
X110567500Y-58932500D02*
X109500000Y-58932500D01*
X112457501Y-57838001D02*
X111661999Y-57838001D01*
X111661999Y-57838001D02*
X110567500Y-58932500D01*
D29*
X107500000Y-58932500D02*
X109500000Y-58932500D01*
D31*
X109555501Y-58988001D02*
X109500000Y-58932500D01*
D32*
%TO.N,Net-(J2-Pin_1)*%
X103000000Y-46000000D02*
X104000000Y-46000000D01*
X104597500Y-45402500D02*
X106000000Y-45402500D01*
X104000000Y-46000000D02*
X104597500Y-45402500D01*
D30*
%TO.N,Net-(J7-Pin_1)*%
X106000000Y-67000000D02*
X103000000Y-67000000D01*
D32*
%TO.N,CTRL*%
X106000000Y-46597500D02*
X106000000Y-48000000D01*
D31*
X112457501Y-56638001D02*
X111138001Y-56638001D01*
X111138001Y-56638001D02*
X110500000Y-56000000D01*
%TO.N,EN*%
X106005000Y-65800000D02*
X106000000Y-65805000D01*
X110500000Y-58000000D02*
X110575000Y-58000000D01*
X110575000Y-58000000D02*
X111137001Y-57437999D01*
X111137001Y-57437999D02*
X112457501Y-57437999D01*
X108700000Y-65800000D02*
X106005000Y-65800000D01*
D32*
%TO.N,Net-(J1-In)*%
X90005000Y-57020000D02*
X90000000Y-57025000D01*
X97100000Y-57020000D02*
X90005000Y-57020000D01*
%TO.N,Net-(J6-In)*%
X116653015Y-57025000D02*
X123000000Y-57025000D01*
D30*
X116640000Y-57038015D02*
X116653015Y-57025000D01*
X115544387Y-57038015D02*
X116640000Y-57038015D01*
D32*
%TO.N,RF1-*%
X99640400Y-57688151D02*
X99055800Y-57688151D01*
X114000000Y-60750000D02*
X114000000Y-59487500D01*
X113999997Y-60750000D02*
X114000000Y-60750000D01*
X104085786Y-60133537D02*
X103054613Y-59102364D01*
X113202246Y-61547751D02*
X113999997Y-60750000D01*
X107500000Y-61547751D02*
X113202246Y-61547751D01*
X103054613Y-59102364D02*
G75*
G03*
X99640400Y-57688157I-3414213J-3414236D01*
G01*
X104085786Y-60133537D02*
G75*
G03*
X107500000Y-61547744I3414214J3414237D01*
G01*
%TO.N,RF1+*%
X114000000Y-53200000D02*
X114000000Y-54462500D01*
X99640400Y-56359600D02*
X99055800Y-56359600D01*
X104085786Y-53914213D02*
X103054613Y-54945386D01*
X107500000Y-52500000D02*
X113300000Y-52500000D01*
X113300000Y-52500000D02*
X114000000Y-53200000D01*
X104085786Y-53914213D02*
G75*
G02*
X107500000Y-52499991I3414214J-3414187D01*
G01*
X103054613Y-54945386D02*
G75*
G02*
X99640400Y-56359607I-3414213J3414186D01*
G01*
%TD*%
%TA.AperFunction,Conductor*%
%TO.N,GND*%
G36*
X120002702Y-44250618D02*
G01*
X120015967Y-44251197D01*
X120408558Y-44268337D01*
X120419293Y-44269277D01*
X120819386Y-44321950D01*
X120830010Y-44323823D01*
X121223993Y-44411167D01*
X121234405Y-44413956D01*
X121619279Y-44535307D01*
X121629414Y-44538996D01*
X122002232Y-44693423D01*
X122012024Y-44697989D01*
X122324785Y-44860802D01*
X122369942Y-44884309D01*
X122379309Y-44889716D01*
X122564460Y-45007671D01*
X122719638Y-45106530D01*
X122728499Y-45112735D01*
X123048627Y-45358378D01*
X123056914Y-45365332D01*
X123354412Y-45637938D01*
X123362061Y-45645587D01*
X123634667Y-45943085D01*
X123641621Y-45951372D01*
X123887264Y-46271500D01*
X123893469Y-46280361D01*
X124110282Y-46620689D01*
X124115690Y-46630057D01*
X124302007Y-46987969D01*
X124306579Y-46997773D01*
X124460997Y-47370570D01*
X124464696Y-47380733D01*
X124555340Y-47668219D01*
X124586037Y-47765575D01*
X124588836Y-47776022D01*
X124596426Y-47810256D01*
X124676173Y-48169977D01*
X124678051Y-48180629D01*
X124730720Y-48580683D01*
X124731663Y-48591460D01*
X124747324Y-48950172D01*
X124749382Y-48997297D01*
X124749500Y-49002706D01*
X124749500Y-55876000D01*
X124729815Y-55943039D01*
X124677011Y-55988794D01*
X124625500Y-56000000D01*
X120499999Y-56000000D01*
X120236178Y-56136459D01*
X120180529Y-56150313D01*
X117389995Y-56180000D01*
X117070003Y-56279998D01*
X116859997Y-56380001D01*
X116786717Y-56449793D01*
X116724596Y-56481773D01*
X116701200Y-56484000D01*
X116581791Y-56484000D01*
X116502401Y-56505273D01*
X116444196Y-56520869D01*
X116400836Y-56545903D01*
X116338837Y-56562515D01*
X115481786Y-56562515D01*
X115401162Y-56584118D01*
X115360850Y-56594920D01*
X115252424Y-56657518D01*
X115183746Y-56726197D01*
X115122422Y-56759681D01*
X115096065Y-56762515D01*
X115073952Y-56762515D01*
X115030056Y-56771246D01*
X115030049Y-56771249D01*
X114980270Y-56804510D01*
X114980269Y-56804511D01*
X114947008Y-56854290D01*
X114947005Y-56854297D01*
X114938274Y-56898192D01*
X114938274Y-56898195D01*
X114938274Y-57177835D01*
X114938274Y-57177837D01*
X114938273Y-57177837D01*
X114947005Y-57221732D01*
X114947008Y-57221739D01*
X114980269Y-57271518D01*
X114980270Y-57271519D01*
X115030052Y-57304782D01*
X115030055Y-57304782D01*
X115030056Y-57304783D01*
X115073951Y-57313515D01*
X115073954Y-57313515D01*
X115096065Y-57313515D01*
X115163104Y-57333200D01*
X115183746Y-57349833D01*
X115252424Y-57418511D01*
X115274893Y-57431483D01*
X115360851Y-57481110D01*
X115481786Y-57513515D01*
X116383924Y-57513515D01*
X116436078Y-57527490D01*
X116436687Y-57526020D01*
X116444195Y-57529130D01*
X116444197Y-57529131D01*
X116581791Y-57566000D01*
X116697434Y-57566000D01*
X116760303Y-57583119D01*
X116840000Y-57630000D01*
X117030000Y-57660000D01*
X117238894Y-57660000D01*
X117241116Y-57660020D01*
X119991081Y-57709302D01*
X120057756Y-57730185D01*
X120061537Y-57732814D01*
X120500000Y-58050000D01*
X124625500Y-58050000D01*
X124692539Y-58069685D01*
X124738294Y-58122489D01*
X124749500Y-58174000D01*
X124749500Y-63997293D01*
X124749382Y-64002702D01*
X124731663Y-64408539D01*
X124730720Y-64419316D01*
X124678051Y-64819370D01*
X124676173Y-64830022D01*
X124588837Y-65223974D01*
X124586037Y-65234424D01*
X124464697Y-65619264D01*
X124460997Y-65629429D01*
X124306579Y-66002226D01*
X124302007Y-66012030D01*
X124115690Y-66369942D01*
X124110282Y-66379310D01*
X123893469Y-66719638D01*
X123887264Y-66728499D01*
X123641621Y-67048627D01*
X123634667Y-67056914D01*
X123362061Y-67354412D01*
X123354412Y-67362061D01*
X123056914Y-67634667D01*
X123048627Y-67641621D01*
X122728499Y-67887264D01*
X122719638Y-67893469D01*
X122379310Y-68110282D01*
X122369942Y-68115690D01*
X122012030Y-68302007D01*
X122002226Y-68306579D01*
X121629429Y-68460997D01*
X121619264Y-68464697D01*
X121234424Y-68586037D01*
X121223974Y-68588837D01*
X120830022Y-68676173D01*
X120819370Y-68678051D01*
X120419316Y-68730720D01*
X120408539Y-68731663D01*
X120002703Y-68749382D01*
X119997294Y-68749500D01*
X93002706Y-68749500D01*
X92997297Y-68749382D01*
X92591460Y-68731663D01*
X92580685Y-68730720D01*
X92380656Y-68704385D01*
X92180629Y-68678051D01*
X92169977Y-68676173D01*
X91915393Y-68619733D01*
X91776022Y-68588836D01*
X91765579Y-68586038D01*
X91380733Y-68464696D01*
X91370570Y-68460997D01*
X90997773Y-68306579D01*
X90987969Y-68302007D01*
X90630057Y-68115690D01*
X90620689Y-68110282D01*
X90280361Y-67893469D01*
X90271500Y-67887264D01*
X89951372Y-67641621D01*
X89943085Y-67634667D01*
X89645587Y-67362061D01*
X89637938Y-67354412D01*
X89365332Y-67056914D01*
X89358378Y-67048627D01*
X89112735Y-66728499D01*
X89106530Y-66719638D01*
X88915530Y-66419829D01*
X88889716Y-66379309D01*
X88884309Y-66369942D01*
X88882876Y-66367190D01*
X88752500Y-66116739D01*
X101799500Y-66116739D01*
X101799500Y-67883260D01*
X101809426Y-67951391D01*
X101860803Y-68056485D01*
X101943514Y-68139196D01*
X101943515Y-68139196D01*
X101943517Y-68139198D01*
X102048607Y-68190573D01*
X102082673Y-68195536D01*
X102116739Y-68200500D01*
X102116740Y-68200500D01*
X103883261Y-68200500D01*
X103905971Y-68197191D01*
X103951393Y-68190573D01*
X104056483Y-68139198D01*
X104139198Y-68056483D01*
X104190573Y-67951393D01*
X104200500Y-67883260D01*
X104200500Y-67599500D01*
X104220185Y-67532461D01*
X104272989Y-67486706D01*
X104324500Y-67475500D01*
X105348344Y-67475500D01*
X105415383Y-67495185D01*
X105447610Y-67525188D01*
X105475309Y-67562189D01*
X105592827Y-67650163D01*
X105592829Y-67650164D01*
X105638674Y-67667263D01*
X105730369Y-67701463D01*
X105791170Y-67708000D01*
X105791180Y-67708000D01*
X106208820Y-67708000D01*
X106208830Y-67708000D01*
X106269631Y-67701463D01*
X106407173Y-67650163D01*
X106524690Y-67562190D01*
X106612663Y-67444673D01*
X106663963Y-67307131D01*
X106670500Y-67246330D01*
X106670500Y-66753670D01*
X106663963Y-66692869D01*
X106612663Y-66555327D01*
X106553885Y-66476810D01*
X106544649Y-66452047D01*
X106531987Y-66428857D01*
X106532632Y-66419829D01*
X106529469Y-66411347D01*
X106535086Y-66385523D01*
X106536972Y-66359165D01*
X106543368Y-66347450D01*
X106544321Y-66343074D01*
X106553887Y-66328189D01*
X106574848Y-66300189D01*
X106630782Y-66258318D01*
X106674114Y-66250500D01*
X108179192Y-66250500D01*
X108246231Y-66270185D01*
X108266873Y-66286819D01*
X108285327Y-66305273D01*
X108285331Y-66305276D01*
X108391866Y-66376461D01*
X108391872Y-66376464D01*
X108391873Y-66376465D01*
X108510256Y-66425501D01*
X108510260Y-66425501D01*
X108510261Y-66425502D01*
X108635928Y-66450500D01*
X108635931Y-66450500D01*
X108764071Y-66450500D01*
X108848615Y-66433682D01*
X108889744Y-66425501D01*
X109008127Y-66376465D01*
X109114669Y-66305276D01*
X109205276Y-66214669D01*
X109270711Y-66116739D01*
X110799500Y-66116739D01*
X110799500Y-67883260D01*
X110809426Y-67951391D01*
X110860803Y-68056485D01*
X110943514Y-68139196D01*
X110943515Y-68139196D01*
X110943517Y-68139198D01*
X111048607Y-68190573D01*
X111082673Y-68195536D01*
X111116739Y-68200500D01*
X111116740Y-68200500D01*
X112883261Y-68200500D01*
X112905971Y-68197191D01*
X112951393Y-68190573D01*
X113056483Y-68139198D01*
X113139198Y-68056483D01*
X113190573Y-67951393D01*
X113200500Y-67883260D01*
X113200500Y-66116740D01*
X113199828Y-66112131D01*
X113190573Y-66048608D01*
X113190573Y-66048607D01*
X113139198Y-65943517D01*
X113139196Y-65943515D01*
X113139196Y-65943514D01*
X113056485Y-65860803D01*
X112951391Y-65809426D01*
X112883261Y-65799500D01*
X112883260Y-65799500D01*
X111116740Y-65799500D01*
X111116739Y-65799500D01*
X111048608Y-65809426D01*
X110943514Y-65860803D01*
X110860803Y-65943514D01*
X110809426Y-66048608D01*
X110799500Y-66116739D01*
X109270711Y-66116739D01*
X109276465Y-66108127D01*
X109325501Y-65989744D01*
X109350500Y-65864069D01*
X109350500Y-65735931D01*
X109350500Y-65735928D01*
X109325502Y-65610261D01*
X109325501Y-65610260D01*
X109325501Y-65610256D01*
X109276465Y-65491873D01*
X109276464Y-65491872D01*
X109276461Y-65491866D01*
X109205276Y-65385331D01*
X109205273Y-65385327D01*
X109114672Y-65294726D01*
X109114668Y-65294723D01*
X109008133Y-65223538D01*
X109008124Y-65223533D01*
X108889744Y-65174499D01*
X108889738Y-65174497D01*
X108764071Y-65149500D01*
X108764069Y-65149500D01*
X108635931Y-65149500D01*
X108635929Y-65149500D01*
X108510261Y-65174497D01*
X108510255Y-65174499D01*
X108391875Y-65223533D01*
X108391866Y-65223538D01*
X108285331Y-65294723D01*
X108285327Y-65294726D01*
X108266873Y-65313181D01*
X108205550Y-65346666D01*
X108179192Y-65349500D01*
X106666628Y-65349500D01*
X106599589Y-65329815D01*
X106567362Y-65299812D01*
X106524690Y-65242810D01*
X106407172Y-65154836D01*
X106407170Y-65154835D01*
X106269634Y-65103538D01*
X106269633Y-65103537D01*
X106269631Y-65103537D01*
X106208830Y-65097000D01*
X105791170Y-65097000D01*
X105730369Y-65103537D01*
X105730366Y-65103537D01*
X105730365Y-65103538D01*
X105592829Y-65154835D01*
X105592827Y-65154836D01*
X105475310Y-65242810D01*
X105387336Y-65360327D01*
X105387335Y-65360329D01*
X105336038Y-65497865D01*
X105336037Y-65497869D01*
X105329500Y-65558670D01*
X105329500Y-66051330D01*
X105336037Y-66112131D01*
X105336037Y-66112133D01*
X105336038Y-66112134D01*
X105387335Y-66249670D01*
X105387336Y-66249672D01*
X105444617Y-66326189D01*
X105469034Y-66391653D01*
X105454183Y-66459926D01*
X105404778Y-66509332D01*
X105345350Y-66524500D01*
X104324500Y-66524500D01*
X104257461Y-66504815D01*
X104211706Y-66452011D01*
X104200500Y-66400500D01*
X104200500Y-66116739D01*
X104190573Y-66048608D01*
X104190573Y-66048607D01*
X104139198Y-65943517D01*
X104139196Y-65943515D01*
X104139196Y-65943514D01*
X104056485Y-65860803D01*
X103951391Y-65809426D01*
X103883261Y-65799500D01*
X103883260Y-65799500D01*
X102116740Y-65799500D01*
X102116739Y-65799500D01*
X102048608Y-65809426D01*
X101943514Y-65860803D01*
X101860803Y-65943514D01*
X101809426Y-66048608D01*
X101799500Y-66116739D01*
X88752500Y-66116739D01*
X88697989Y-66012024D01*
X88693420Y-66002226D01*
X88538996Y-65629414D01*
X88535307Y-65619279D01*
X88413956Y-65234405D01*
X88411167Y-65223993D01*
X88323823Y-64830010D01*
X88321950Y-64819386D01*
X88269277Y-64419293D01*
X88268337Y-64408558D01*
X88250618Y-64002701D01*
X88250500Y-63997293D01*
X88250500Y-58174000D01*
X88270185Y-58106961D01*
X88322989Y-58061206D01*
X88374500Y-58050000D01*
X92520408Y-58050000D01*
X92536775Y-58041063D01*
X92563133Y-58038229D01*
X98313635Y-58038229D01*
X98380674Y-58057914D01*
X98419963Y-58098431D01*
X98423766Y-58104769D01*
X98529646Y-58281237D01*
X98533842Y-58288229D01*
X98763842Y-58428229D01*
X99203842Y-58468229D01*
X100026542Y-58488053D01*
X100041066Y-58489261D01*
X100447055Y-58547259D01*
X100460489Y-58549944D01*
X100757045Y-58626475D01*
X100770396Y-58630739D01*
X101227315Y-58805729D01*
X101240036Y-58811441D01*
X102005265Y-59208226D01*
X102028356Y-59220199D01*
X102056512Y-59240220D01*
X102112268Y-59292989D01*
X102602954Y-59757389D01*
X102604717Y-59759091D01*
X103253813Y-60398201D01*
X103853838Y-60988226D01*
X103853841Y-60988228D01*
X103853842Y-60988229D01*
X104483842Y-61448229D01*
X105253842Y-61868229D01*
X105745833Y-62036226D01*
X106073829Y-62148225D01*
X106073834Y-62148226D01*
X106073842Y-62148229D01*
X106073851Y-62148230D01*
X106073852Y-62148231D01*
X106733828Y-62278227D01*
X106733836Y-62278227D01*
X106733842Y-62278229D01*
X107523842Y-62338229D01*
X109323122Y-62318237D01*
X109324500Y-62318229D01*
X113001921Y-62318229D01*
X113005794Y-62318290D01*
X113323824Y-62328229D01*
X113323828Y-62328228D01*
X113323842Y-62328229D01*
X113463842Y-62318229D01*
X113753842Y-62198229D01*
X114683842Y-61258229D01*
X114743842Y-61158229D01*
X114773842Y-61028229D01*
X114783842Y-60918229D01*
X114793842Y-59058229D01*
X114503842Y-58038229D01*
X114306640Y-58038229D01*
X114239601Y-58018544D01*
X114237749Y-58017331D01*
X114233504Y-58014495D01*
X114233504Y-58014494D01*
X114183722Y-57981231D01*
X114183720Y-57981230D01*
X114183717Y-57981229D01*
X114139822Y-57972498D01*
X114139820Y-57972498D01*
X113860180Y-57972498D01*
X113860178Y-57972498D01*
X113816282Y-57981229D01*
X113816278Y-57981231D01*
X113766496Y-58014494D01*
X113766495Y-58014495D01*
X113762251Y-58017331D01*
X113695573Y-58038209D01*
X113693360Y-58038229D01*
X113523842Y-58038229D01*
X113333842Y-59208226D01*
X113333842Y-59208228D01*
X113371918Y-60293421D01*
X113354596Y-60361109D01*
X113334586Y-60386526D01*
X113000054Y-60712899D01*
X112938322Y-60745624D01*
X112913250Y-60748142D01*
X107115438Y-60738248D01*
X107092448Y-60736058D01*
X106484899Y-60620335D01*
X106463338Y-60614163D01*
X105558884Y-60264051D01*
X105530795Y-60248756D01*
X104821751Y-59733971D01*
X104806922Y-59721309D01*
X103873851Y-58788237D01*
X103873845Y-58788232D01*
X103873842Y-58788229D01*
X103731808Y-58671634D01*
X106839500Y-58671634D01*
X106839500Y-59193345D01*
X106839501Y-59193351D01*
X106845972Y-59253555D01*
X106896772Y-59389753D01*
X106928914Y-59432689D01*
X106983882Y-59506118D01*
X107100249Y-59593229D01*
X107100248Y-59593229D01*
X107236434Y-59644024D01*
X107236437Y-59644024D01*
X107236443Y-59644027D01*
X107296651Y-59650500D01*
X107703348Y-59650499D01*
X107763557Y-59644027D01*
X107779201Y-59638191D01*
X107846725Y-59632755D01*
X107916462Y-59646627D01*
X107935930Y-59650500D01*
X107935931Y-59650500D01*
X108064069Y-59650500D01*
X108153273Y-59632755D01*
X108220795Y-59638190D01*
X108236443Y-59644027D01*
X108296651Y-59650500D01*
X108703348Y-59650499D01*
X108763557Y-59644027D01*
X108779201Y-59638191D01*
X108846725Y-59632755D01*
X108916462Y-59646627D01*
X108935930Y-59650500D01*
X108935931Y-59650500D01*
X109064069Y-59650500D01*
X109153273Y-59632755D01*
X109220795Y-59638190D01*
X109236443Y-59644027D01*
X109296651Y-59650500D01*
X109703348Y-59650499D01*
X109763557Y-59644027D01*
X109899751Y-59593229D01*
X110016118Y-59506118D01*
X110071086Y-59432688D01*
X110127020Y-59390818D01*
X110170353Y-59383000D01*
X110626808Y-59383000D01*
X110626809Y-59383000D01*
X110717173Y-59358786D01*
X110741387Y-59352299D01*
X110844114Y-59292989D01*
X111812283Y-58324820D01*
X111873606Y-58291335D01*
X111899964Y-58288501D01*
X112516807Y-58288501D01*
X112516810Y-58288501D01*
X112631387Y-58257800D01*
X112734114Y-58198490D01*
X112782784Y-58149820D01*
X112844107Y-58116335D01*
X112870465Y-58113501D01*
X112929824Y-58113501D01*
X112973719Y-58104769D01*
X112973719Y-58104768D01*
X112973724Y-58104768D01*
X113023506Y-58071505D01*
X113056769Y-58021723D01*
X113065502Y-57977821D01*
X113065502Y-57698181D01*
X113058343Y-57662191D01*
X113058343Y-57613806D01*
X113064008Y-57585331D01*
X113065502Y-57577819D01*
X113065502Y-57298179D01*
X113065502Y-57298176D01*
X113056770Y-57254281D01*
X113056769Y-57254280D01*
X113056769Y-57254277D01*
X113023506Y-57204495D01*
X113023505Y-57204494D01*
X112973726Y-57171233D01*
X112973719Y-57171230D01*
X112929824Y-57162499D01*
X112929822Y-57162499D01*
X112870465Y-57162499D01*
X112841024Y-57153854D01*
X112811038Y-57147331D01*
X112806022Y-57143576D01*
X112803426Y-57142814D01*
X112782784Y-57126180D01*
X112782285Y-57125681D01*
X112748800Y-57064358D01*
X112753784Y-56994666D01*
X112782285Y-56950319D01*
X112782784Y-56949820D01*
X112790517Y-56945597D01*
X112795656Y-56938733D01*
X112819106Y-56929986D01*
X112844107Y-56916335D01*
X112860405Y-56914582D01*
X112861120Y-56914316D01*
X112861703Y-56914442D01*
X112870465Y-56913501D01*
X112929824Y-56913501D01*
X112973719Y-56904769D01*
X112973719Y-56904768D01*
X112973724Y-56904768D01*
X113023506Y-56871505D01*
X113056769Y-56821723D01*
X113060193Y-56804510D01*
X113065502Y-56777823D01*
X113065502Y-56498181D01*
X113058343Y-56462194D01*
X113058343Y-56413806D01*
X113065502Y-56377818D01*
X113065502Y-56098176D01*
X113056770Y-56054281D01*
X113056769Y-56054280D01*
X113056769Y-56054277D01*
X113023506Y-56004495D01*
X113016779Y-56000000D01*
X112973726Y-55971233D01*
X112973719Y-55971230D01*
X112929824Y-55962499D01*
X112929822Y-55962499D01*
X112870465Y-55962499D01*
X112803426Y-55942814D01*
X112782784Y-55926180D01*
X112734116Y-55877512D01*
X112734114Y-55877510D01*
X112631387Y-55818200D01*
X112516810Y-55787499D01*
X112516807Y-55787499D01*
X111975964Y-55787499D01*
X111908925Y-55767814D01*
X111888283Y-55751180D01*
X110776616Y-54639513D01*
X110776614Y-54639511D01*
X110725250Y-54609856D01*
X110673888Y-54580201D01*
X110661780Y-54576957D01*
X110649673Y-54573713D01*
X110649670Y-54573712D01*
X110611478Y-54563478D01*
X110559309Y-54549500D01*
X110559308Y-54549500D01*
X110264118Y-54549500D01*
X110197079Y-54529815D01*
X110164851Y-54499811D01*
X110109883Y-54426382D01*
X109993516Y-54339271D01*
X109993514Y-54339270D01*
X109993516Y-54339270D01*
X109857330Y-54288475D01*
X109857319Y-54288472D01*
X109797122Y-54282000D01*
X109390420Y-54282000D01*
X109390412Y-54282001D01*
X109330209Y-54288472D01*
X109194012Y-54339271D01*
X109186234Y-54343519D01*
X109184575Y-54340481D01*
X109172741Y-54344884D01*
X109146467Y-54357650D01*
X109138733Y-54357535D01*
X109134635Y-54359060D01*
X109111182Y-54358492D01*
X109106403Y-54357920D01*
X109064069Y-54349500D01*
X109035931Y-54349500D01*
X109028600Y-54348624D01*
X109021421Y-54345550D01*
X108999979Y-54341682D01*
X108993517Y-54339271D01*
X108993516Y-54339271D01*
X108915038Y-54310000D01*
X108857323Y-54288473D01*
X108857319Y-54288472D01*
X108797122Y-54282000D01*
X108390420Y-54282000D01*
X108390412Y-54282001D01*
X108330209Y-54288472D01*
X108194012Y-54339271D01*
X108186234Y-54343519D01*
X108184575Y-54340481D01*
X108172741Y-54344884D01*
X108146467Y-54357650D01*
X108138733Y-54357535D01*
X108134635Y-54359060D01*
X108111182Y-54358492D01*
X108106403Y-54357920D01*
X108064069Y-54349500D01*
X108035931Y-54349500D01*
X108028600Y-54348624D01*
X108021421Y-54345550D01*
X107999979Y-54341682D01*
X107993517Y-54339271D01*
X107993516Y-54339271D01*
X107915038Y-54310000D01*
X107857323Y-54288473D01*
X107857319Y-54288472D01*
X107797122Y-54282000D01*
X107390420Y-54282000D01*
X107390412Y-54282001D01*
X107330209Y-54288472D01*
X107194011Y-54339272D01*
X107077647Y-54426382D01*
X106990535Y-54542749D01*
X106939740Y-54678934D01*
X106939737Y-54678945D01*
X106933265Y-54739134D01*
X106933265Y-55260845D01*
X106933266Y-55260851D01*
X106939737Y-55321055D01*
X106990537Y-55457253D01*
X107015778Y-55490970D01*
X107077647Y-55573618D01*
X107194014Y-55660729D01*
X107194013Y-55660729D01*
X107330199Y-55711524D01*
X107330202Y-55711524D01*
X107330208Y-55711527D01*
X107390416Y-55718000D01*
X107797113Y-55717999D01*
X107857322Y-55711527D01*
X107993516Y-55660729D01*
X107993517Y-55660728D01*
X107999979Y-55658318D01*
X108028599Y-55651376D01*
X108035929Y-55650500D01*
X108064069Y-55650500D01*
X108106412Y-55642076D01*
X108111180Y-55641507D01*
X108141081Y-55646537D01*
X108171292Y-55649240D01*
X108177405Y-55652647D01*
X108180081Y-55653098D01*
X108183041Y-55655789D01*
X108185770Y-55657311D01*
X108186226Y-55656477D01*
X108194013Y-55660729D01*
X108330199Y-55711524D01*
X108330202Y-55711524D01*
X108330208Y-55711527D01*
X108390416Y-55718000D01*
X108797113Y-55717999D01*
X108857322Y-55711527D01*
X108993516Y-55660729D01*
X108993517Y-55660728D01*
X108999979Y-55658318D01*
X109028599Y-55651376D01*
X109035929Y-55650500D01*
X109064069Y-55650500D01*
X109106412Y-55642076D01*
X109111180Y-55641507D01*
X109141081Y-55646537D01*
X109171292Y-55649240D01*
X109177405Y-55652647D01*
X109180081Y-55653098D01*
X109183041Y-55655789D01*
X109185770Y-55657311D01*
X109186226Y-55656477D01*
X109194013Y-55660729D01*
X109330199Y-55711524D01*
X109330202Y-55711524D01*
X109330208Y-55711527D01*
X109390416Y-55718000D01*
X109741755Y-55717999D01*
X109808794Y-55737683D01*
X109854549Y-55790487D01*
X109864493Y-55859646D01*
X109863372Y-55866191D01*
X109849500Y-55935928D01*
X109849500Y-55935931D01*
X109849500Y-56064069D01*
X109849500Y-56064071D01*
X109849499Y-56064071D01*
X109874497Y-56189738D01*
X109874499Y-56189744D01*
X109923533Y-56308124D01*
X109923538Y-56308133D01*
X109994723Y-56414668D01*
X109994726Y-56414672D01*
X110085327Y-56505273D01*
X110085331Y-56505276D01*
X110191866Y-56576461D01*
X110191872Y-56576464D01*
X110191873Y-56576465D01*
X110310256Y-56625501D01*
X110310260Y-56625501D01*
X110310261Y-56625502D01*
X110435928Y-56650500D01*
X110435931Y-56650500D01*
X110462034Y-56650500D01*
X110529073Y-56670185D01*
X110549715Y-56686819D01*
X110812715Y-56949819D01*
X110846200Y-57011142D01*
X110841216Y-57080834D01*
X110812715Y-57125181D01*
X110624715Y-57313181D01*
X110563392Y-57346666D01*
X110537034Y-57349500D01*
X110435929Y-57349500D01*
X110310261Y-57374497D01*
X110310255Y-57374499D01*
X110191875Y-57423533D01*
X110191866Y-57423538D01*
X110085331Y-57494723D01*
X110085327Y-57494726D01*
X109994726Y-57585327D01*
X109994723Y-57585331D01*
X109923538Y-57691866D01*
X109923533Y-57691875D01*
X109874499Y-57810255D01*
X109874497Y-57810261D01*
X109849500Y-57935928D01*
X109849500Y-57935931D01*
X109849500Y-58064069D01*
X109849500Y-58064071D01*
X109849499Y-58064071D01*
X109850346Y-58068325D01*
X109844117Y-58137916D01*
X109801252Y-58193093D01*
X109735362Y-58216335D01*
X109715477Y-58215803D01*
X109703353Y-58214500D01*
X109296655Y-58214500D01*
X109296647Y-58214501D01*
X109236444Y-58220972D01*
X109100246Y-58271772D01*
X109074311Y-58291188D01*
X109008846Y-58315605D01*
X108940573Y-58300753D01*
X108925689Y-58291188D01*
X108899750Y-58271770D01*
X108899751Y-58271770D01*
X108763565Y-58220975D01*
X108763554Y-58220972D01*
X108703357Y-58214500D01*
X108296655Y-58214500D01*
X108296647Y-58214501D01*
X108236444Y-58220972D01*
X108100246Y-58271772D01*
X108074311Y-58291188D01*
X108008846Y-58315605D01*
X107940573Y-58300753D01*
X107925689Y-58291188D01*
X107899750Y-58271770D01*
X107899751Y-58271770D01*
X107763565Y-58220975D01*
X107763554Y-58220972D01*
X107703357Y-58214500D01*
X107296655Y-58214500D01*
X107296647Y-58214501D01*
X107236444Y-58220972D01*
X107100246Y-58271772D01*
X106983882Y-58358882D01*
X106896770Y-58475249D01*
X106845975Y-58611434D01*
X106845972Y-58611445D01*
X106839500Y-58671634D01*
X103731808Y-58671634D01*
X103583570Y-58549946D01*
X102533844Y-57688230D01*
X102430934Y-57638000D01*
X101693842Y-57278229D01*
X101693840Y-57278228D01*
X101693839Y-57278228D01*
X100609988Y-57232952D01*
X100608382Y-57232406D01*
X100595766Y-57231533D01*
X100271998Y-57180254D01*
X99855715Y-57147492D01*
X99790427Y-57122608D01*
X99748956Y-57066377D01*
X99744469Y-56996651D01*
X99778391Y-56935569D01*
X99839952Y-56902523D01*
X99855705Y-56900257D01*
X100271995Y-56867495D01*
X100675202Y-56803632D01*
X100689411Y-56802214D01*
X101700000Y-56760000D01*
X102540000Y-56350000D01*
X103880000Y-55250000D01*
X104813086Y-54316913D01*
X104827902Y-54304262D01*
X105536955Y-53789470D01*
X105565040Y-53774178D01*
X106469506Y-53424061D01*
X106491047Y-53417895D01*
X107098609Y-53302169D01*
X107121593Y-53299980D01*
X112919409Y-53290086D01*
X112986481Y-53309656D01*
X113006212Y-53325329D01*
X113340744Y-53651702D01*
X113374984Y-53712607D01*
X113378076Y-53744807D01*
X113345300Y-54678943D01*
X113340000Y-54830000D01*
X113530000Y-56000000D01*
X113659120Y-56000000D01*
X113726159Y-56019685D01*
X113762221Y-56055108D01*
X113766496Y-56061506D01*
X113816278Y-56094769D01*
X113816281Y-56094769D01*
X113816282Y-56094770D01*
X113860177Y-56103502D01*
X113860180Y-56103502D01*
X114139822Y-56103502D01*
X114183717Y-56094770D01*
X114183717Y-56094769D01*
X114183722Y-56094769D01*
X114233504Y-56061506D01*
X114237778Y-56055108D01*
X114291390Y-56010304D01*
X114340880Y-56000000D01*
X114509999Y-56000000D01*
X114510000Y-56000000D01*
X114800000Y-54980000D01*
X114790000Y-53120000D01*
X114780000Y-53010000D01*
X114779998Y-53009994D01*
X114779998Y-53009989D01*
X114750001Y-52880003D01*
X114749999Y-52879998D01*
X114690002Y-52780003D01*
X114689999Y-52779999D01*
X113759999Y-51839999D01*
X113470004Y-51720001D01*
X113470001Y-51720000D01*
X113470000Y-51720000D01*
X113330000Y-51710000D01*
X113329995Y-51710000D01*
X113329993Y-51710000D01*
X113329982Y-51709999D01*
X113011952Y-51719939D01*
X113008079Y-51720000D01*
X109330658Y-51720000D01*
X109329280Y-51719992D01*
X107530001Y-51699999D01*
X106739995Y-51760000D01*
X106739986Y-51760001D01*
X106080010Y-51889997D01*
X106079987Y-51890003D01*
X105259999Y-52170000D01*
X104490002Y-52589998D01*
X103859996Y-53050002D01*
X103260028Y-53639970D01*
X103260029Y-53639971D01*
X102610875Y-54279137D01*
X102609112Y-54280839D01*
X102062671Y-54798007D01*
X102034514Y-54818029D01*
X101246199Y-55226785D01*
X101233468Y-55232501D01*
X100776560Y-55407487D01*
X100763197Y-55411755D01*
X100466655Y-55488282D01*
X100453206Y-55490970D01*
X100047236Y-55548966D01*
X100032687Y-55550176D01*
X99209994Y-55570000D01*
X98769999Y-55610000D01*
X98540002Y-55749998D01*
X98539999Y-55750000D01*
X98499079Y-55818201D01*
X98428442Y-55935931D01*
X98426122Y-55939797D01*
X98374751Y-55987156D01*
X98319793Y-56000000D01*
X88374500Y-56000000D01*
X88307461Y-55980315D01*
X88261706Y-55927511D01*
X88250500Y-55876000D01*
X88250500Y-49002706D01*
X88250618Y-48997298D01*
X88251170Y-48984636D01*
X88268337Y-48591439D01*
X88269276Y-48580708D01*
X88321951Y-48180609D01*
X88323823Y-48169993D01*
X88411168Y-47776000D01*
X88413955Y-47765600D01*
X88535309Y-47380713D01*
X88538993Y-47370592D01*
X88693426Y-46997758D01*
X88697984Y-46987984D01*
X88884315Y-46630045D01*
X88889710Y-46620700D01*
X89106537Y-46280350D01*
X89112727Y-46271511D01*
X89358385Y-45951363D01*
X89365323Y-45943094D01*
X89637949Y-45645575D01*
X89645575Y-45637949D01*
X89943094Y-45365323D01*
X89951363Y-45358385D01*
X90266282Y-45116739D01*
X101799500Y-45116739D01*
X101799500Y-46883260D01*
X101809426Y-46951391D01*
X101860803Y-47056485D01*
X101943514Y-47139196D01*
X101943515Y-47139196D01*
X101943517Y-47139198D01*
X102048607Y-47190573D01*
X102082673Y-47195536D01*
X102116739Y-47200500D01*
X102116740Y-47200500D01*
X103883261Y-47200500D01*
X103905971Y-47197191D01*
X103951393Y-47190573D01*
X104056483Y-47139198D01*
X104139198Y-47056483D01*
X104190573Y-46951393D01*
X104200500Y-46883260D01*
X104200500Y-46580525D01*
X104220185Y-46513486D01*
X104262499Y-46473138D01*
X104332182Y-46432908D01*
X104785271Y-45979819D01*
X104846594Y-45946334D01*
X104872952Y-45943500D01*
X105296317Y-45943500D01*
X105363356Y-45963185D01*
X105409111Y-46015989D01*
X105419055Y-46085147D01*
X105395583Y-46141812D01*
X105387337Y-46152826D01*
X105387335Y-46152829D01*
X105336038Y-46290365D01*
X105336037Y-46290369D01*
X105329500Y-46351170D01*
X105329500Y-46843830D01*
X105336037Y-46904631D01*
X105336037Y-46904633D01*
X105336038Y-46904634D01*
X105387335Y-47042170D01*
X105387336Y-47042172D01*
X105434267Y-47104863D01*
X105458684Y-47170327D01*
X105459000Y-47179174D01*
X105459000Y-47601180D01*
X105439315Y-47668219D01*
X105438103Y-47670069D01*
X105423535Y-47691871D01*
X105374499Y-47810255D01*
X105374497Y-47810261D01*
X105349500Y-47935928D01*
X105349500Y-47935931D01*
X105349500Y-48064069D01*
X105349500Y-48064071D01*
X105349499Y-48064071D01*
X105374497Y-48189738D01*
X105374499Y-48189744D01*
X105423533Y-48308124D01*
X105423538Y-48308133D01*
X105494723Y-48414668D01*
X105494726Y-48414672D01*
X105585327Y-48505273D01*
X105585331Y-48505276D01*
X105691866Y-48576461D01*
X105691872Y-48576464D01*
X105691873Y-48576465D01*
X105810256Y-48625501D01*
X105810260Y-48625501D01*
X105810261Y-48625502D01*
X105935928Y-48650500D01*
X105935931Y-48650500D01*
X106064071Y-48650500D01*
X106148615Y-48633682D01*
X106189744Y-48625501D01*
X106308127Y-48576465D01*
X106414669Y-48505276D01*
X106505276Y-48414669D01*
X106576465Y-48308127D01*
X106625501Y-48189744D01*
X106650500Y-48064069D01*
X106650500Y-47935931D01*
X106650500Y-47935928D01*
X106625502Y-47810261D01*
X106625501Y-47810260D01*
X106625501Y-47810256D01*
X106576465Y-47691873D01*
X106576464Y-47691871D01*
X106561897Y-47670069D01*
X106541020Y-47603391D01*
X106541000Y-47601180D01*
X106541000Y-47179174D01*
X106560685Y-47112135D01*
X106565733Y-47104863D01*
X106577032Y-47089770D01*
X106612663Y-47042173D01*
X106663963Y-46904631D01*
X106670500Y-46843830D01*
X106670500Y-46351170D01*
X106663963Y-46290369D01*
X106612663Y-46152827D01*
X106553885Y-46074310D01*
X106529469Y-46008847D01*
X106544321Y-45940574D01*
X106553886Y-45925689D01*
X106612663Y-45847173D01*
X106663963Y-45709631D01*
X106670500Y-45648830D01*
X106670500Y-45156170D01*
X106666261Y-45116739D01*
X110799500Y-45116739D01*
X110799500Y-46883260D01*
X110809426Y-46951391D01*
X110860803Y-47056485D01*
X110943514Y-47139196D01*
X110943515Y-47139196D01*
X110943517Y-47139198D01*
X111048607Y-47190573D01*
X111082673Y-47195536D01*
X111116739Y-47200500D01*
X111116740Y-47200500D01*
X112883261Y-47200500D01*
X112905971Y-47197191D01*
X112951393Y-47190573D01*
X113056483Y-47139198D01*
X113139198Y-47056483D01*
X113190573Y-46951393D01*
X113200500Y-46883260D01*
X113200500Y-45116740D01*
X113199916Y-45112735D01*
X113190573Y-45048608D01*
X113190573Y-45048607D01*
X113139198Y-44943517D01*
X113139196Y-44943515D01*
X113139196Y-44943514D01*
X113056485Y-44860803D01*
X112951391Y-44809426D01*
X112883261Y-44799500D01*
X112883260Y-44799500D01*
X111116740Y-44799500D01*
X111116739Y-44799500D01*
X111048608Y-44809426D01*
X110943514Y-44860803D01*
X110860803Y-44943514D01*
X110809426Y-45048608D01*
X110799500Y-45116739D01*
X106666261Y-45116739D01*
X106663963Y-45095369D01*
X106646522Y-45048608D01*
X106612664Y-44957829D01*
X106612663Y-44957827D01*
X106608492Y-44952255D01*
X106524690Y-44840310D01*
X106407173Y-44752337D01*
X106407172Y-44752336D01*
X106407170Y-44752335D01*
X106269634Y-44701038D01*
X106269633Y-44701037D01*
X106269631Y-44701037D01*
X106208830Y-44694500D01*
X105791170Y-44694500D01*
X105730369Y-44701037D01*
X105730366Y-44701037D01*
X105730365Y-44701038D01*
X105592829Y-44752335D01*
X105592822Y-44752339D01*
X105480044Y-44836766D01*
X105414580Y-44861184D01*
X105405733Y-44861500D01*
X104676336Y-44861500D01*
X104676320Y-44861499D01*
X104668724Y-44861499D01*
X104526276Y-44861499D01*
X104526273Y-44861499D01*
X104388688Y-44898366D01*
X104388681Y-44898369D01*
X104284292Y-44958637D01*
X104216391Y-44975108D01*
X104150365Y-44952255D01*
X104134612Y-44938930D01*
X104056485Y-44860803D01*
X103951391Y-44809426D01*
X103883261Y-44799500D01*
X103883260Y-44799500D01*
X102116740Y-44799500D01*
X102116739Y-44799500D01*
X102048608Y-44809426D01*
X101943514Y-44860803D01*
X101860803Y-44943514D01*
X101809426Y-45048608D01*
X101799500Y-45116739D01*
X90266282Y-45116739D01*
X90271511Y-45112727D01*
X90280350Y-45106537D01*
X90543441Y-44938930D01*
X90620689Y-44889718D01*
X90630045Y-44884315D01*
X90987984Y-44697984D01*
X90997758Y-44693426D01*
X91370592Y-44538993D01*
X91380713Y-44535309D01*
X91765600Y-44413955D01*
X91776000Y-44411168D01*
X92169993Y-44323823D01*
X92180609Y-44321951D01*
X92580708Y-44269276D01*
X92591439Y-44268337D01*
X92984636Y-44251170D01*
X92997298Y-44250618D01*
X93002706Y-44250500D01*
X93044170Y-44250500D01*
X119955830Y-44250500D01*
X119997294Y-44250500D01*
X120002702Y-44250618D01*
G37*
%TD.AperFunction*%
%TA.AperFunction,Conductor*%
G36*
X98915173Y-56882002D02*
G01*
X98984576Y-56900600D01*
X98984586Y-56900600D01*
X98987127Y-56900935D01*
X98989125Y-56901819D01*
X98992428Y-56902704D01*
X98992290Y-56903218D01*
X98998757Y-56906079D01*
X99011460Y-56906680D01*
X99030102Y-56919944D01*
X99051025Y-56929200D01*
X99058027Y-56939815D01*
X99068389Y-56947188D01*
X99076899Y-56968424D01*
X99089498Y-56987523D01*
X99089649Y-57000239D01*
X99094380Y-57012043D01*
X99090058Y-57034507D01*
X99090332Y-57057388D01*
X99083583Y-57068168D01*
X99081182Y-57080655D01*
X99065399Y-57097218D01*
X99053261Y-57116612D01*
X99040618Y-57123228D01*
X99032985Y-57131240D01*
X99011114Y-57138669D01*
X99000224Y-57144369D01*
X98988775Y-57147151D01*
X98984576Y-57147151D01*
X98943699Y-57158103D01*
X98942273Y-57158450D01*
X98939689Y-57158327D01*
X98907820Y-57161848D01*
X98489362Y-57144369D01*
X98459818Y-57143134D01*
X98393659Y-57120670D01*
X98350148Y-57066002D01*
X98343100Y-56996489D01*
X98374752Y-56934200D01*
X98435055Y-56898912D01*
X98459816Y-56895351D01*
X98877909Y-56877885D01*
X98915173Y-56882002D01*
G37*
%TD.AperFunction*%
%TD*%
%TA.AperFunction,Conductor*%
%TO.N,VSS*%
G36*
X109443039Y-58702185D02*
G01*
X109488794Y-58754989D01*
X109500000Y-58806500D01*
X109500000Y-59058500D01*
X109480315Y-59125539D01*
X109427511Y-59171294D01*
X109376000Y-59182500D01*
X107624000Y-59182500D01*
X107556961Y-59162815D01*
X107511206Y-59110011D01*
X107500000Y-59058500D01*
X107500000Y-58806500D01*
X107519685Y-58739461D01*
X107572489Y-58693706D01*
X107624000Y-58682500D01*
X109376000Y-58682500D01*
X109443039Y-58702185D01*
G37*
%TD.AperFunction*%
%TD*%
%TA.AperFunction,Conductor*%
%TO.N,VDD*%
G36*
X109536804Y-54769685D02*
G01*
X109582559Y-54822489D01*
X109593765Y-54874000D01*
X109593765Y-55126000D01*
X109574080Y-55193039D01*
X109521276Y-55238794D01*
X109469765Y-55250000D01*
X107717765Y-55250000D01*
X107650726Y-55230315D01*
X107604971Y-55177511D01*
X107593765Y-55126000D01*
X107593765Y-54874000D01*
X107613450Y-54806961D01*
X107666254Y-54761206D01*
X107717765Y-54750000D01*
X109469765Y-54750000D01*
X109536804Y-54769685D01*
G37*
%TD.AperFunction*%
%TD*%
M02*
