M48
; DRILL file {KiCad 9.0.8} date 2026-10-05T18:38:20-0500
; FORMAT={-:-/ absolute / metric / decimal}
; #@! TF.CreationDate,2026-10-05T18:38:20-05:00
; #@! TF.GenerationSoftware,Kicad,Pcbnew,9.0.8
; #@! TF.FileFunction,Plated,1,4,PTH
FMAT,2
METRIC
; #@! TA.AperFunction,Plated,PTH,ViaDrill
T1C0.260
; #@! TA.AperFunction,Plated,PTH,ViaDrill
T2C0.300
; #@! TA.AperFunction,Plated,PTH,ComponentDrill
T3C1.000
; #@! TA.AperFunction,Plated,PTH,ComponentDrill
T4C2.500
; #@! TA.AperFunction,Plated,PTH,ViaDrill
T5C3.000
%
G90
G05
T1
X89.0Y-48.0
X89.0Y-50.0
X89.0Y-51.0
X89.0Y-53.5
X89.0Y-58.5
X89.0Y-60.0
X89.0Y-63.0
X89.04Y-54.57
X89.2Y-59.5
X89.5Y-47.0
X89.5Y-66.0
X89.9Y-54.6
X90.0Y-59.5
X90.5Y-46.0
X90.5Y-67.0
X90.983Y-54.6
X91.083Y-59.5
X91.5Y-67.5
X92.067Y-54.6
X92.167Y-59.5
X120.8Y-54.5
X120.9Y-59.5
X121.883Y-54.5
X121.983Y-59.5
X122.0Y-67.5
X122.5Y-46.0
X122.967Y-54.5
X123.0Y-66.5
X123.067Y-59.5
X123.5Y-47.0
X123.99Y-59.53
X124.0Y-50.0
X124.0Y-51.0
X124.0Y-54.0
X124.0Y-55.0
X124.0Y-60.5
X124.0Y-63.5
T2
X89.0Y-49.0
X89.0Y-65.0
X89.1Y-55.6
X89.6Y-55.6
X90.0Y-58.4
X90.2Y-55.6
X90.7Y-58.4
X90.8Y-55.6
X91.4Y-55.6
X91.4Y-58.4
X92.0Y-45.0
X92.1Y-55.6
X92.1Y-58.4
X92.4Y-55.0
X92.5Y-59.1
X92.9Y-55.3
X92.9Y-58.7
X93.0Y-45.0
X93.0Y-47.0
X93.0Y-49.0
X93.0Y-68.0
X93.5Y-55.3
X93.5Y-58.7
X94.0Y-45.0
X94.0Y-47.0
X94.0Y-48.0
X94.0Y-49.0
X94.0Y-50.0
X94.0Y-52.0
X94.0Y-54.0
X94.0Y-60.0
X94.0Y-62.0
X94.0Y-64.0
X94.0Y-68.0
X94.1Y-55.3
X94.1Y-58.7
X94.7Y-55.3
X94.7Y-58.7
X95.0Y-45.0
X95.0Y-47.0
X95.0Y-48.0
X95.0Y-49.0
X95.0Y-50.0
X95.0Y-51.0
X95.0Y-52.0
X95.0Y-53.0
X95.0Y-54.0
X95.0Y-60.0
X95.0Y-61.0
X95.0Y-62.0
X95.0Y-63.0
X95.0Y-64.0
X95.0Y-68.0
X95.3Y-55.3
X95.3Y-58.7
X95.9Y-55.3
X95.9Y-58.7
X96.0Y-45.0
X96.0Y-48.0
X96.0Y-49.0
X96.0Y-50.0
X96.0Y-51.0
X96.0Y-52.0
X96.0Y-53.0
X96.0Y-54.0
X96.0Y-60.0
X96.0Y-61.0
X96.0Y-62.0
X96.0Y-63.0
X96.0Y-64.0
X96.0Y-68.0
X96.5Y-55.3
X96.5Y-58.7
X97.0Y-45.0
X97.0Y-48.0
X97.0Y-49.0
X97.0Y-50.0
X97.0Y-51.0
X97.0Y-52.0
X97.0Y-53.0
X97.0Y-54.0
X97.0Y-60.0
X97.0Y-61.0
X97.0Y-62.0
X97.0Y-63.0
X97.0Y-68.0
X97.1Y-55.3
X97.1Y-55.8
X97.1Y-58.1
X97.1Y-58.7
X97.7Y-55.3
X97.7Y-58.7
X98.0Y-45.0
X98.0Y-48.0
X98.0Y-49.0
X98.0Y-50.0
X98.0Y-51.0
X98.0Y-52.0
X98.0Y-53.0
X98.0Y-54.0
X98.0Y-60.0
X98.0Y-61.0
X98.0Y-62.0
X98.0Y-63.0
X98.0Y-68.0
X98.078Y-56.5
X98.078Y-57.02
X98.078Y-57.5
X98.1Y-56.0
X98.1Y-58.1
X98.3Y-55.3
X98.3Y-58.7
X98.9Y-55.3
X98.9Y-58.7
X99.0Y-45.0
X99.0Y-48.0
X99.0Y-49.0
X99.0Y-50.0
X99.0Y-51.0
X99.0Y-52.0
X99.0Y-53.0
X99.0Y-54.0
X99.0Y-60.0
X99.0Y-61.0
X99.0Y-62.0
X99.0Y-63.0
X99.0Y-68.0
X99.5Y-55.3
X99.5Y-58.7
X100.0Y-45.0
X100.0Y-48.0
X100.0Y-49.0
X100.0Y-50.0
X100.0Y-51.0
X100.0Y-52.0
X100.0Y-53.0
X100.0Y-54.0
X100.0Y-60.0
X100.0Y-61.0
X100.0Y-62.0
X100.0Y-63.0
X100.0Y-64.0
X100.0Y-65.0
X100.0Y-68.0
X100.1Y-55.2
X100.1Y-58.8
X100.7Y-55.1
X100.7Y-58.9
X101.0Y-45.0
X101.0Y-48.0
X101.0Y-49.0
X101.0Y-50.0
X101.0Y-51.0
X101.0Y-52.0
X101.0Y-53.0
X101.0Y-60.0
X101.0Y-61.0
X101.0Y-62.0
X101.0Y-63.0
X101.0Y-64.0
X101.0Y-65.0
X101.0Y-68.0
X101.2Y-54.9
X101.2Y-59.1
X101.7Y-54.7
X101.7Y-59.3
X102.0Y-48.0
X102.0Y-49.0
X102.0Y-50.0
X102.0Y-51.0
X102.0Y-52.0
X102.0Y-61.0
X102.0Y-62.0
X102.0Y-63.0
X102.0Y-64.0
X102.0Y-65.0
X102.1Y-54.3
X102.1Y-59.7
X102.2Y-57.2
X102.3Y-56.7
X102.5Y-53.9
X102.5Y-60.1
X102.7Y-57.5
X102.8Y-56.6
X102.9Y-53.5
X102.9Y-60.5
X103.0Y-48.0
X103.0Y-49.0
X103.0Y-50.0
X103.0Y-51.0
X103.0Y-62.0
X103.0Y-63.0
X103.0Y-64.0
X103.0Y-65.0
X103.2Y-57.8
X103.3Y-53.1
X103.3Y-56.3
X103.3Y-60.9
X103.6Y-58.2
X103.7Y-52.7
X103.7Y-55.9
X103.7Y-61.3
X104.0Y-48.0
X104.0Y-50.0
X104.0Y-58.6
X104.0Y-63.0
X104.0Y-64.0
X104.0Y-65.0
X104.1Y-52.3
X104.1Y-55.5
X104.1Y-61.7
X104.4Y-59.0
X104.5Y-55.1
X104.6Y-52.0
X104.8Y-59.4
X104.9Y-54.7
X105.0Y-50.0
X105.0Y-68.0
X105.1Y-51.7
X105.2Y-59.7
X105.3Y-54.4
X105.6Y-62.6
X106.0Y-48.0
X106.0Y-64.0
X106.0Y-68.0
X106.2Y-62.7
X106.7Y-60.4
X106.8Y-51.3
X106.8Y-53.7
X106.8Y-62.7
X107.0Y-45.0
X107.0Y-47.0
X107.0Y-49.0
X107.0Y-50.0
X107.0Y-64.0
X107.0Y-65.0
X107.0Y-68.0
X107.2Y-60.5
X107.3Y-53.6
X107.4Y-51.3
X107.4Y-62.7
X107.7Y-60.5
X107.8Y-53.6
X108.0Y-45.0
X108.0Y-46.0
X108.0Y-47.0
X108.0Y-48.0
X108.0Y-49.0
X108.0Y-50.0
X108.0Y-51.3
X108.0Y-55.0
X108.0Y-59.0
X108.0Y-62.7
X108.0Y-64.0
X108.0Y-65.0
X108.0Y-68.0
X108.3Y-60.5
X108.4Y-53.6
X108.6Y-51.3
X108.6Y-62.7
X108.7Y-65.8
X108.9Y-60.5
X109.0Y-45.0
X109.0Y-46.0
X109.0Y-47.0
X109.0Y-48.0
X109.0Y-49.0
X109.0Y-50.0
X109.0Y-53.6
X109.0Y-55.0
X109.0Y-59.0
X109.0Y-64.0
X109.0Y-68.0
X109.2Y-51.3
X109.2Y-62.7
X109.5Y-60.5
X109.6Y-53.6
X109.76Y-50.06
X109.77Y-48.98
X109.8Y-51.3
X109.8Y-62.7
X110.0Y-45.0
X110.0Y-48.0
X110.0Y-68.0
X110.5Y-56.0
X110.5Y-58.0
X110.6Y-57.038
X111.0Y-65.0
X111.1Y-60.53
X111.13Y-62.72
X111.33Y-50.03
X111.5Y-60.5
X111.6Y-51.3
X111.6Y-53.6
X111.6Y-62.7
X112.0Y-49.0
X112.0Y-50.0
X112.0Y-60.5
X112.0Y-64.0
X112.0Y-65.0
X112.1Y-53.6
X112.2Y-51.3
X112.2Y-62.7
X112.5Y-60.5
X112.6Y-53.6
X112.7Y-59.0
X112.8Y-51.3
X112.8Y-62.7
X113.0Y-48.0
X113.0Y-49.0
X113.0Y-50.0
X113.0Y-59.6
X113.0Y-60.2
X113.0Y-64.0
X113.0Y-65.0
X113.1Y-53.9
X113.1Y-54.5
X113.2Y-55.2
X113.3Y-58.58
X113.4Y-51.3
X113.4Y-62.7
X113.5Y-56.5
X113.6Y-57.5
X113.9Y-51.5
X113.9Y-62.5
X114.0Y-45.0
X114.0Y-48.0
X114.0Y-49.0
X114.0Y-50.0
X114.0Y-57.0
X114.0Y-64.0
X114.0Y-65.0
X114.0Y-66.0
X114.0Y-68.0
X114.3Y-51.9
X114.3Y-62.1
X114.5Y-56.6
X114.5Y-57.5
X114.7Y-52.3
X114.7Y-55.0
X114.7Y-58.58
X114.7Y-61.7
X115.0Y-45.0
X115.0Y-48.0
X115.0Y-49.0
X115.0Y-50.0
X115.0Y-51.0
X115.0Y-52.8
X115.0Y-61.2
X115.0Y-63.0
X115.0Y-64.0
X115.0Y-65.0
X115.0Y-66.0
X115.0Y-68.0
X115.1Y-53.4
X115.1Y-54.0
X115.1Y-54.6
X115.1Y-59.4
X115.1Y-60.0
X115.1Y-60.6
X115.3Y-58.8
X115.542Y-57.7
X116.0Y-45.0
X116.0Y-48.0
X116.0Y-49.0
X116.0Y-50.0
X116.0Y-51.0
X116.0Y-52.0
X116.0Y-53.0
X116.0Y-54.0
X116.0Y-58.4
X116.0Y-60.0
X116.0Y-61.0
X116.0Y-62.0
X116.0Y-63.0
X116.0Y-64.0
X116.0Y-65.0
X116.0Y-66.0
X116.0Y-68.0
X116.1Y-54.8
X116.2Y-55.9
X116.4Y-57.8
X116.5Y-56.3
X116.6Y-55.3
X116.7Y-59.2
X116.9Y-54.8
X116.9Y-55.9
X116.9Y-58.0
X117.0Y-45.0
X117.0Y-48.0
X117.0Y-49.0
X117.0Y-50.0
X117.0Y-51.0
X117.0Y-52.0
X117.0Y-53.0
X117.0Y-54.0
X117.0Y-59.8
X117.0Y-61.0
X117.0Y-62.0
X117.0Y-63.0
X117.0Y-64.0
X117.0Y-65.0
X117.0Y-66.0
X117.0Y-68.0
X117.1Y-58.6
X117.2Y-55.3
X117.3Y-59.2
X117.4Y-58.0
X117.5Y-54.8
X117.5Y-55.9
X117.6Y-59.8
X117.7Y-58.6
X117.8Y-55.3
X117.9Y-58.0
X117.9Y-59.2
X118.0Y-45.0
X118.0Y-48.0
X118.0Y-49.0
X118.0Y-50.0
X118.0Y-51.0
X118.0Y-52.0
X118.0Y-53.0
X118.0Y-54.0
X118.0Y-55.9
X118.0Y-61.0
X118.0Y-62.0
X118.0Y-63.0
X118.0Y-64.0
X118.0Y-65.0
X118.0Y-66.0
X118.0Y-68.0
X118.1Y-54.8
X118.2Y-59.8
X118.3Y-58.6
X118.4Y-55.3
X118.4Y-58.0
X118.5Y-55.9
X118.6Y-59.2
X118.7Y-54.8
X118.9Y-58.0
X118.9Y-58.6
X118.9Y-59.8
X119.0Y-45.0
X119.0Y-48.0
X119.0Y-49.0
X119.0Y-50.0
X119.0Y-51.0
X119.0Y-52.0
X119.0Y-53.0
X119.0Y-54.0
X119.0Y-55.3
X119.0Y-55.9
X119.0Y-61.0
X119.0Y-62.0
X119.0Y-63.0
X119.0Y-64.0
X119.0Y-65.0
X119.0Y-66.0
X119.0Y-68.0
X119.2Y-59.2
X119.3Y-54.8
X119.4Y-58.0
X119.5Y-55.3
X119.5Y-55.9
X119.5Y-58.6
X119.9Y-58.0
X120.0Y-45.0
X120.0Y-48.0
X120.0Y-49.0
X120.0Y-55.9
X120.0Y-66.0
X120.0Y-68.0
X120.3Y-58.4
X120.4Y-55.6
X120.8Y-55.1
X120.9Y-58.5
X121.0Y-45.0
X121.0Y-68.0
X121.5Y-55.1
X121.5Y-58.5
X122.1Y-55.1
X122.1Y-58.5
X122.7Y-55.1
X122.7Y-58.5
X122.7Y-61.725
X123.3Y-55.1
X123.3Y-58.5
X123.8Y-58.5
X124.0Y-48.0
X124.0Y-49.0
X124.0Y-65.0
T3
X103.0Y-46.0
X103.0Y-67.0
X112.0Y-46.0
X112.0Y-67.0
T4
X90.3Y-52.325
X90.3Y-61.725
X122.7Y-52.325
X122.7Y-61.725
T5
X98.0Y-66.0
M30
