%TF.GenerationSoftware,KiCad,Pcbnew,9.0.2*%
%TF.CreationDate,2026-06-25T15:34:41-05:00*%
%TF.ProjectId,pwm_radar,70776d5f-7261-4646-9172-2e6b69636164,rev?*%
%TF.SameCoordinates,Original*%
%TF.FileFunction,Copper,L2,Bot*%
%TF.FilePolarity,Positive*%
%FSLAX46Y46*%
G04 Gerber Fmt 4.6, Leading zero omitted, Abs format (unit mm)*
G04 Created by KiCad (PCBNEW 9.0.2) date 2026-06-25 15:34:41*
%MOMM*%
%LPD*%
G01*
G04 APERTURE LIST*
G04 Aperture macros list*
%AMRoundRect*
0 Rectangle with rounded corners*
0 $1 Rounding radius*
0 $2 $3 $4 $5 $6 $7 $8 $9 X,Y pos of 4 corners*
0 Add a 4 corners polygon primitive as box body*
4,1,4,$2,$3,$4,$5,$6,$7,$8,$9,$2,$3,0*
0 Add four circle primitives for the rounded corners*
1,1,$1+$1,$2,$3*
1,1,$1+$1,$4,$5*
1,1,$1+$1,$6,$7*
1,1,$1+$1,$8,$9*
0 Add four rect primitives between the rounded corners*
20,1,$1+$1,$2,$3,$4,$5,0*
20,1,$1+$1,$4,$5,$6,$7,0*
20,1,$1+$1,$6,$7,$8,$9,0*
20,1,$1+$1,$8,$9,$2,$3,0*%
G04 Aperture macros list end*
%TA.AperFunction,ComponentPad*%
%ADD10R,5.000000X6.000000*%
%TD*%
%TA.AperFunction,ConnectorPad*%
%ADD11R,5.000000X14.000000*%
%TD*%
%TA.AperFunction,ComponentPad*%
%ADD12R,0.850000X0.850000*%
%TD*%
%TA.AperFunction,SMDPad,CuDef*%
%ADD13RoundRect,0.155000X0.212500X0.155000X-0.212500X0.155000X-0.212500X-0.155000X0.212500X-0.155000X0*%
%TD*%
%TA.AperFunction,SMDPad,CuDef*%
%ADD14RoundRect,0.155000X-0.212500X-0.155000X0.212500X-0.155000X0.212500X0.155000X-0.212500X0.155000X0*%
%TD*%
%TA.AperFunction,ViaPad*%
%ADD15C,0.700000*%
%TD*%
%TA.AperFunction,ViaPad*%
%ADD16C,0.600000*%
%TD*%
%TA.AperFunction,Conductor*%
%ADD17C,0.477000*%
%TD*%
%TA.AperFunction,Conductor*%
%ADD18C,0.200000*%
%TD*%
%TA.AperFunction,Conductor*%
%ADD19C,0.300000*%
%TD*%
G04 APERTURE END LIST*
D10*
%TO.P,J4,2,Ext*%
%TO.N,GND*%
X123500000Y-80025000D03*
D11*
X123500000Y-75975000D03*
D10*
X123500000Y-71975000D03*
%TD*%
%TO.P,J6,2,Ext*%
%TO.N,GND*%
X123000000Y-61025000D03*
D11*
X123000000Y-56975000D03*
D10*
X123000000Y-52975000D03*
%TD*%
%TO.P,J1,2,Ext*%
%TO.N,GND*%
X90000000Y-53000000D03*
D11*
X90000000Y-57050000D03*
D10*
X90000000Y-61050000D03*
%TD*%
%TO.P,J5,2,Ext*%
%TO.N,GND*%
X89500000Y-71975000D03*
D11*
X89500000Y-76025000D03*
D10*
X89500000Y-80025000D03*
%TD*%
D12*
%TO.P,J8,1,Pin_1*%
%TO.N,VSS*%
X109810000Y-60020000D03*
%TD*%
D13*
%TO.P,C3,1*%
%TO.N,VDD*%
X108587500Y-55690000D03*
%TO.P,C3,2*%
%TO.N,GND*%
X107452500Y-55690000D03*
%TD*%
D12*
%TO.P,J2,1,Pin_1*%
%TO.N,Net-(J2-Pin_1)*%
X104920000Y-56680000D03*
%TD*%
%TO.P,J3,1,Pin_1*%
%TO.N,VDD*%
X109890000Y-55630000D03*
%TD*%
D13*
%TO.P,C2,1*%
%TO.N,VDD*%
X108577500Y-54600000D03*
%TO.P,C2,2*%
%TO.N,GND*%
X107442500Y-54600000D03*
%TD*%
%TO.P,C5,1*%
%TO.N,VSS*%
X108037500Y-61180000D03*
%TO.P,C5,2*%
%TO.N,GND*%
X106902500Y-61180000D03*
%TD*%
D14*
%TO.P,C1,1*%
%TO.N,VDD*%
X109772500Y-54160000D03*
%TO.P,C1,2*%
%TO.N,GND*%
X110907500Y-54160000D03*
%TD*%
D13*
%TO.P,C4,1*%
%TO.N,VSS*%
X107997500Y-60020000D03*
%TO.P,C4,2*%
%TO.N,GND*%
X106862500Y-60020000D03*
%TD*%
D12*
%TO.P,J7,1,Pin_1*%
%TO.N,Net-(J7-Pin_1)*%
X107400000Y-58360000D03*
%TD*%
D14*
%TO.P,C6,1*%
%TO.N,VSS*%
X109292500Y-61520000D03*
%TO.P,C6,2*%
%TO.N,GND*%
X110427500Y-61520000D03*
%TD*%
D15*
%TO.N,GND*%
X112000000Y-69000000D03*
X102000000Y-71000000D03*
X94383333Y-59500000D03*
X97000000Y-71000000D03*
X113062470Y-66046049D03*
X116000000Y-79000000D03*
X118000000Y-83000000D03*
X120900000Y-59500000D03*
D16*
X97140000Y-56180000D03*
X114000000Y-57000000D03*
D15*
X89300000Y-78500000D03*
X112085722Y-66377824D03*
X112291458Y-47673444D03*
X110000000Y-79000000D03*
D16*
X97250000Y-57770000D03*
D15*
X104000000Y-81000000D03*
X89040000Y-54570000D03*
X108000000Y-66500000D03*
X110000000Y-81000000D03*
X124020000Y-54500000D03*
X96000000Y-79000000D03*
X98232233Y-59767767D03*
X99000000Y-73000000D03*
X115000000Y-71000000D03*
X108000000Y-47500000D03*
D16*
X116060000Y-58910000D03*
D15*
X111000000Y-83000000D03*
X106000000Y-66400000D03*
X116499247Y-61061374D03*
X109000000Y-73000000D03*
X102000000Y-73000000D03*
X88070000Y-54570000D03*
X95000000Y-81000000D03*
X110000000Y-47500000D03*
X120800000Y-54500000D03*
X104000000Y-73000000D03*
X112000000Y-79000000D03*
X119200000Y-79000000D03*
X93300000Y-59500000D03*
X105000000Y-69000000D03*
X118000000Y-79000000D03*
X98000000Y-71000000D03*
D16*
X115870000Y-58020000D03*
D15*
X99000000Y-81000000D03*
X108000000Y-69000000D03*
X111061353Y-66499245D03*
X93600000Y-73400000D03*
X103000000Y-73000000D03*
X105095579Y-66115910D03*
X120300000Y-73500000D03*
X103000000Y-83000000D03*
D16*
X115600000Y-55100000D03*
D15*
X96000000Y-73000000D03*
X89200000Y-59500000D03*
X94000000Y-81000000D03*
X105000000Y-71000000D03*
X111000000Y-73000000D03*
X113800000Y-65600000D03*
X103569055Y-48896472D03*
X117000000Y-83000000D03*
X106000000Y-83000000D03*
X101256743Y-51207722D03*
X109000000Y-71000000D03*
X97000000Y-79000000D03*
X92600000Y-73400000D03*
X101000000Y-81000000D03*
X125340000Y-78630000D03*
X106000000Y-81000000D03*
D16*
X112200000Y-54800000D03*
D15*
X111000000Y-79000000D03*
X119400000Y-73300000D03*
X117000000Y-73000000D03*
X107000000Y-69000000D03*
X116499245Y-52938646D03*
X102000000Y-83000000D03*
X102012870Y-50451595D03*
X98000000Y-73000000D03*
X106938647Y-66499246D03*
X98988360Y-53476105D03*
X110000000Y-66500000D03*
X103569046Y-65103515D03*
X113439036Y-48148788D03*
X114000000Y-71000000D03*
X105000000Y-79000000D03*
X97000000Y-73000000D03*
X100000000Y-81000000D03*
D16*
X112100000Y-59300000D03*
D15*
X88240000Y-59500000D03*
X100500615Y-51963850D03*
X118000000Y-73000000D03*
D16*
X104840000Y-54910000D03*
D15*
X124700000Y-73410000D03*
D16*
X98100000Y-57000000D03*
D15*
X96000000Y-81000000D03*
X107000000Y-73000000D03*
X100000000Y-79000000D03*
X91083333Y-59500000D03*
X97000000Y-81000000D03*
X95000000Y-71000000D03*
X96000000Y-83000000D03*
X99000000Y-69000000D03*
X120400000Y-78433333D03*
X114000000Y-79000000D03*
X119750000Y-59500000D03*
X100000000Y-73000000D03*
X89900000Y-54600000D03*
X121883333Y-54500000D03*
X123566667Y-78600000D03*
X109000000Y-83000000D03*
X113000000Y-81000000D03*
X102700000Y-49700000D03*
X121400000Y-78600000D03*
X113000000Y-71000000D03*
X98000000Y-69000000D03*
X112000000Y-83000000D03*
X106800000Y-47600000D03*
X115851209Y-63439033D03*
X109000000Y-81000000D03*
X99000000Y-71000000D03*
X116000000Y-83000000D03*
X113000000Y-83000000D03*
X95466667Y-59500000D03*
X108000000Y-83000000D03*
X102000000Y-69000000D03*
X116000000Y-69000000D03*
D16*
X104940000Y-59010000D03*
D15*
X115000000Y-83000000D03*
X92600000Y-78533333D03*
X124920000Y-59530000D03*
X93300000Y-54600000D03*
X88350000Y-78490000D03*
D16*
X116600000Y-58400000D03*
X112600000Y-58700000D03*
D15*
X94000000Y-71000000D03*
X99000000Y-83000000D03*
X106000000Y-73000000D03*
X105000000Y-83000000D03*
X90000000Y-59500000D03*
X97000000Y-83000000D03*
X113000000Y-69000000D03*
X88400000Y-73420000D03*
X111000000Y-71000000D03*
X102000000Y-81000000D03*
X100500615Y-62036149D03*
X109000000Y-66500000D03*
X113000000Y-73000000D03*
D16*
X114500000Y-56600000D03*
D15*
X100000000Y-71000000D03*
X110000000Y-69000000D03*
X104000000Y-79000000D03*
X111000000Y-69000000D03*
X115000000Y-73000000D03*
X95466667Y-54600000D03*
X107000000Y-81000000D03*
X100000000Y-69000000D03*
X96000000Y-71000000D03*
X112000000Y-71000000D03*
X98988360Y-60523894D03*
X116000000Y-71000000D03*
X93700000Y-79000000D03*
D16*
X102740000Y-57010000D03*
D15*
X87540000Y-73430000D03*
X114000000Y-73000000D03*
X108000000Y-81000000D03*
D16*
X111470000Y-57160000D03*
X115400000Y-58700000D03*
D15*
X103000000Y-71000000D03*
X115000000Y-81000000D03*
X94800000Y-79000000D03*
D16*
X99000000Y-57000000D03*
D15*
X105095580Y-66115910D03*
X122683333Y-73400000D03*
X101000000Y-79000000D03*
D16*
X116800000Y-55600000D03*
D15*
X91466667Y-78500000D03*
X115103515Y-49569046D03*
X116326549Y-62291466D03*
D16*
X114500000Y-57500000D03*
D15*
X122966667Y-54500000D03*
X125500000Y-73420000D03*
X111061353Y-47500751D03*
X117000000Y-79000000D03*
X115103514Y-64430952D03*
X98000000Y-83000000D03*
X107000000Y-79000000D03*
X115000000Y-79000000D03*
X116000000Y-73000000D03*
X105000000Y-81000000D03*
X102700000Y-64400000D03*
D16*
X112800000Y-55200000D03*
D15*
X91366667Y-73400000D03*
X123766667Y-73400000D03*
X117000000Y-69000000D03*
X122483333Y-78600000D03*
D16*
X113500000Y-56500000D03*
D15*
X98000000Y-79000000D03*
X114430964Y-48896494D03*
X94600000Y-73400000D03*
X104300000Y-65700000D03*
X123990000Y-59530000D03*
X92166667Y-59500000D03*
X124940000Y-54520000D03*
X90383333Y-78500000D03*
X109000000Y-69000000D03*
X116000000Y-81000000D03*
X90283333Y-73400000D03*
X108000000Y-71000000D03*
X119750000Y-54500000D03*
X108000000Y-73000000D03*
X109000000Y-47500000D03*
X109000000Y-79000000D03*
X111000000Y-81000000D03*
D16*
X103340000Y-56410000D03*
D15*
X99000000Y-79000000D03*
X104000000Y-83000000D03*
X107000000Y-83000000D03*
D16*
X104140000Y-58310000D03*
D15*
X103000000Y-69000000D03*
X104497617Y-48184929D03*
D16*
X103540000Y-57610000D03*
D15*
X104000000Y-71000000D03*
X101000000Y-83000000D03*
X114000000Y-83000000D03*
X102000000Y-79000000D03*
X92066667Y-54600000D03*
X112000000Y-81000000D03*
X124390000Y-78610000D03*
X112000000Y-73000000D03*
X117583333Y-54500000D03*
X110000000Y-71000000D03*
X116500000Y-59500000D03*
X115000000Y-69000000D03*
X118666666Y-59500000D03*
X100000000Y-83000000D03*
X113062469Y-66046049D03*
X114000000Y-81000000D03*
X107000000Y-71000000D03*
X110000000Y-73000000D03*
X117583333Y-59500000D03*
D16*
X105540000Y-54510000D03*
D15*
X113000000Y-79000000D03*
X118000000Y-69000000D03*
X94383333Y-54600000D03*
X99744488Y-52719977D03*
X116500000Y-54500000D03*
X99744488Y-61280022D03*
X114430953Y-65103514D03*
D16*
X105540000Y-59610000D03*
D15*
X121600000Y-73400000D03*
X89200000Y-73400000D03*
X105568181Y-47713215D03*
X110000000Y-83000000D03*
X98000000Y-81000000D03*
D16*
X104140000Y-55610000D03*
D15*
X106000000Y-69000000D03*
X101000000Y-69000000D03*
X98232233Y-54232233D03*
X102012870Y-63548404D03*
X103000000Y-79000000D03*
X116326553Y-51708545D03*
X115851213Y-50560971D03*
X123066667Y-59500000D03*
X118666666Y-54500000D03*
X101000000Y-73000000D03*
X106000000Y-71000000D03*
D16*
X113600000Y-57500000D03*
D15*
X87410000Y-78490000D03*
X114000000Y-69000000D03*
X101256743Y-62792277D03*
X104000000Y-69000000D03*
X90983333Y-54600000D03*
D16*
X116000000Y-55900000D03*
D15*
X106000000Y-79000000D03*
X103000000Y-81000000D03*
X101000000Y-71000000D03*
X121983333Y-59500000D03*
X96000000Y-69000000D03*
X108000000Y-79000000D03*
X105000000Y-73000000D03*
X97000000Y-69000000D03*
%TD*%
D17*
%TO.N,VDD*%
X108587500Y-55690000D02*
X109830000Y-55690000D01*
X109830000Y-55690000D02*
X109890000Y-55630000D01*
D18*
X108577500Y-54600000D02*
X108577500Y-55680000D01*
X109332500Y-54600000D02*
X109772500Y-54160000D01*
X108577500Y-54600000D02*
X109332500Y-54600000D01*
X108577500Y-55680000D02*
X108587500Y-55690000D01*
D19*
%TO.N,VSS*%
X107997500Y-60020000D02*
X107997500Y-61140000D01*
X109810000Y-60020000D02*
X107997500Y-60020000D01*
D18*
X108952500Y-61180000D02*
X109292500Y-61520000D01*
X108037500Y-61180000D02*
X108952500Y-61180000D01*
D19*
X107997500Y-61140000D02*
X108037500Y-61180000D01*
%TD*%
%TA.AperFunction,Conductor*%
%TO.N,GND*%
G36*
X125006922Y-46001280D02*
G01*
X125093326Y-46011015D01*
X125111523Y-46014458D01*
X125122954Y-46017521D01*
X125131804Y-46020251D01*
X125203540Y-46045352D01*
X125228549Y-46057395D01*
X125299606Y-46102043D01*
X125321313Y-46119355D01*
X125380644Y-46178686D01*
X125397957Y-46200395D01*
X125442599Y-46271443D01*
X125442601Y-46271445D01*
X125454648Y-46296463D01*
X125454649Y-46296465D01*
X125479746Y-46368193D01*
X125482478Y-46377049D01*
X125485538Y-46388468D01*
X125488984Y-46406679D01*
X125498720Y-46493077D01*
X125499500Y-46506960D01*
X125499500Y-47499793D01*
X125499500Y-66499793D01*
X125499500Y-68399500D01*
X125499500Y-68400000D01*
X125499500Y-68426929D01*
X125503180Y-68433303D01*
X125503806Y-68439845D01*
X125511261Y-68447300D01*
X125520445Y-68463207D01*
X125520464Y-68463242D01*
X125526427Y-68473569D01*
X125526428Y-68473569D01*
X125526429Y-68473571D01*
X125552699Y-68488738D01*
X125560155Y-68496194D01*
X125566694Y-68496818D01*
X125573071Y-68500500D01*
X125599793Y-68500500D01*
X125875500Y-68500500D01*
X125942539Y-68520185D01*
X125988294Y-68572989D01*
X125999500Y-68624500D01*
X125999500Y-84493037D01*
X125998720Y-84506921D01*
X125998720Y-84506923D01*
X125988984Y-84593320D01*
X125985538Y-84611530D01*
X125982478Y-84622949D01*
X125979746Y-84631806D01*
X125954648Y-84703536D01*
X125942600Y-84728555D01*
X125897958Y-84799603D01*
X125880645Y-84821312D01*
X125821312Y-84880645D01*
X125799604Y-84897957D01*
X125799603Y-84897958D01*
X125728555Y-84942600D01*
X125703536Y-84954648D01*
X125631806Y-84979746D01*
X125622949Y-84982478D01*
X125611530Y-84985538D01*
X125593320Y-84988984D01*
X125512726Y-84998065D01*
X125506921Y-84998720D01*
X125493037Y-84999500D01*
X87506963Y-84999500D01*
X87493078Y-84998720D01*
X87406679Y-84988984D01*
X87388468Y-84985538D01*
X87377049Y-84982478D01*
X87368193Y-84979746D01*
X87296465Y-84954649D01*
X87271445Y-84942601D01*
X87271443Y-84942600D01*
X87200395Y-84897957D01*
X87178686Y-84880644D01*
X87119354Y-84821312D01*
X87102042Y-84799604D01*
X87057395Y-84728549D01*
X87045352Y-84703540D01*
X87020251Y-84631804D01*
X87017520Y-84622949D01*
X87014458Y-84611523D01*
X87011015Y-84593320D01*
X87001280Y-84506921D01*
X87000500Y-84493038D01*
X87000500Y-68624500D01*
X87020185Y-68557461D01*
X87072989Y-68511706D01*
X87124500Y-68500500D01*
X87423971Y-68500500D01*
X87426929Y-68500500D01*
X87433305Y-68496818D01*
X87439845Y-68496194D01*
X87447298Y-68488739D01*
X87473571Y-68473571D01*
X87488739Y-68447298D01*
X87496194Y-68439845D01*
X87496818Y-68433306D01*
X87500500Y-68426929D01*
X87500500Y-68400000D01*
X87500500Y-68399500D01*
X87500500Y-67499793D01*
X87500500Y-59831258D01*
X107429500Y-59831258D01*
X107429500Y-60208742D01*
X107437050Y-60260565D01*
X107439567Y-60277842D01*
X107491676Y-60384430D01*
X107575567Y-60468321D01*
X107575568Y-60468321D01*
X107575571Y-60468324D01*
X107577457Y-60469246D01*
X107579585Y-60471190D01*
X107583930Y-60474292D01*
X107583555Y-60474816D01*
X107589437Y-60480190D01*
X107604203Y-60486934D01*
X107614702Y-60503271D01*
X107629039Y-60516369D01*
X107633592Y-60532665D01*
X107641977Y-60545712D01*
X107647000Y-60580647D01*
X107647000Y-60648884D01*
X107627315Y-60715923D01*
X107610681Y-60736565D01*
X107531678Y-60815568D01*
X107531676Y-60815569D01*
X107479567Y-60922157D01*
X107477035Y-60939540D01*
X107469500Y-60991258D01*
X107469500Y-61368742D01*
X107477050Y-61420565D01*
X107479567Y-61437842D01*
X107531676Y-61544430D01*
X107615569Y-61628323D01*
X107722157Y-61680432D01*
X107722158Y-61680432D01*
X107722160Y-61680433D01*
X107791258Y-61690500D01*
X107791264Y-61690500D01*
X108283736Y-61690500D01*
X108283742Y-61690500D01*
X108352840Y-61680433D01*
X108459429Y-61628324D01*
X108459430Y-61628323D01*
X108459432Y-61628322D01*
X108512819Y-61574935D01*
X108574142Y-61541450D01*
X108643834Y-61546434D01*
X108699767Y-61588306D01*
X108724184Y-61653770D01*
X108724500Y-61662616D01*
X108724500Y-61708742D01*
X108732050Y-61760565D01*
X108734567Y-61777842D01*
X108786676Y-61884430D01*
X108870569Y-61968323D01*
X108977157Y-62020432D01*
X108977158Y-62020432D01*
X108977160Y-62020433D01*
X109046258Y-62030500D01*
X109046264Y-62030500D01*
X109538736Y-62030500D01*
X109538742Y-62030500D01*
X109607840Y-62020433D01*
X109714429Y-61968324D01*
X109714430Y-61968323D01*
X109714432Y-61968322D01*
X109798322Y-61884432D01*
X109798323Y-61884430D01*
X109798324Y-61884429D01*
X109850433Y-61777840D01*
X109860500Y-61708742D01*
X109860500Y-61331258D01*
X109850433Y-61262160D01*
X109798324Y-61155571D01*
X109798323Y-61155570D01*
X109798323Y-61155569D01*
X109714430Y-61071676D01*
X109607842Y-61019567D01*
X109590565Y-61017050D01*
X109538742Y-61009500D01*
X109538736Y-61009500D01*
X109258333Y-61009500D01*
X109191294Y-60989815D01*
X109170652Y-60973181D01*
X109137012Y-60939541D01*
X109137004Y-60939535D01*
X109068495Y-60899982D01*
X109068490Y-60899979D01*
X109043013Y-60893152D01*
X108992062Y-60879500D01*
X108992060Y-60879500D01*
X108651982Y-60879500D01*
X108584943Y-60859815D01*
X108570854Y-60849278D01*
X108551702Y-60832710D01*
X108543324Y-60815571D01*
X108459429Y-60731676D01*
X108403058Y-60704117D01*
X108390872Y-60693575D01*
X108380331Y-60677202D01*
X108365957Y-60664069D01*
X108361418Y-60647824D01*
X108353051Y-60634827D01*
X108353037Y-60617826D01*
X108348000Y-60599797D01*
X108348000Y-60580647D01*
X108367685Y-60513608D01*
X108411381Y-60474728D01*
X108411070Y-60474292D01*
X108415126Y-60471395D01*
X108417542Y-60469246D01*
X108419429Y-60468324D01*
X108480935Y-60406817D01*
X108542256Y-60373334D01*
X108568615Y-60370500D01*
X109063988Y-60370500D01*
X109131027Y-60390185D01*
X109176782Y-60442989D01*
X109185605Y-60470308D01*
X109196132Y-60523229D01*
X109196132Y-60523230D01*
X109240447Y-60589552D01*
X109306769Y-60633867D01*
X109306770Y-60633868D01*
X109365247Y-60645499D01*
X109365250Y-60645500D01*
X109365252Y-60645500D01*
X110254750Y-60645500D01*
X110254751Y-60645499D01*
X110269568Y-60642552D01*
X110313229Y-60633868D01*
X110313229Y-60633867D01*
X110313231Y-60633867D01*
X110379552Y-60589552D01*
X110423867Y-60523231D01*
X110423867Y-60523229D01*
X110423868Y-60523229D01*
X110434178Y-60471395D01*
X110435500Y-60464748D01*
X110435500Y-59575252D01*
X110435500Y-59575249D01*
X110435499Y-59575247D01*
X110423868Y-59516770D01*
X110423867Y-59516769D01*
X110379552Y-59450447D01*
X110313230Y-59406132D01*
X110313229Y-59406131D01*
X110254752Y-59394500D01*
X110254748Y-59394500D01*
X109365252Y-59394500D01*
X109365247Y-59394500D01*
X109306770Y-59406131D01*
X109306769Y-59406132D01*
X109240447Y-59450447D01*
X109196132Y-59516769D01*
X109196132Y-59516770D01*
X109185605Y-59569692D01*
X109153220Y-59631603D01*
X109092504Y-59666177D01*
X109063988Y-59669500D01*
X108568615Y-59669500D01*
X108501576Y-59649815D01*
X108480938Y-59633185D01*
X108419429Y-59571676D01*
X108415371Y-59569692D01*
X108312842Y-59519567D01*
X108293635Y-59516769D01*
X108243742Y-59509500D01*
X107751258Y-59509500D01*
X107705192Y-59516211D01*
X107682157Y-59519567D01*
X107575569Y-59571676D01*
X107575568Y-59571678D01*
X107491678Y-59655568D01*
X107491676Y-59655569D01*
X107439567Y-59762157D01*
X107439567Y-59762160D01*
X107429500Y-59831258D01*
X87500500Y-59831258D01*
X87500500Y-57915247D01*
X106774500Y-57915247D01*
X106774500Y-58804752D01*
X106786131Y-58863229D01*
X106786132Y-58863230D01*
X106830447Y-58929552D01*
X106896769Y-58973867D01*
X106896770Y-58973868D01*
X106955247Y-58985499D01*
X106955250Y-58985500D01*
X106955252Y-58985500D01*
X107844750Y-58985500D01*
X107844751Y-58985499D01*
X107859568Y-58982552D01*
X107903229Y-58973868D01*
X107903229Y-58973867D01*
X107903231Y-58973867D01*
X107969552Y-58929552D01*
X108013867Y-58863231D01*
X108013867Y-58863229D01*
X108013868Y-58863229D01*
X108025499Y-58804752D01*
X108025500Y-58804750D01*
X108025500Y-57915249D01*
X108025499Y-57915247D01*
X108013868Y-57856770D01*
X108013867Y-57856769D01*
X107969552Y-57790447D01*
X107903230Y-57746132D01*
X107903229Y-57746131D01*
X107844752Y-57734500D01*
X107844748Y-57734500D01*
X106955252Y-57734500D01*
X106955247Y-57734500D01*
X106896770Y-57746131D01*
X106896769Y-57746132D01*
X106830447Y-57790447D01*
X106786132Y-57856769D01*
X106786131Y-57856770D01*
X106774500Y-57915247D01*
X87500500Y-57915247D01*
X87500500Y-56235247D01*
X104294500Y-56235247D01*
X104294500Y-57124752D01*
X104306131Y-57183229D01*
X104306132Y-57183230D01*
X104350447Y-57249552D01*
X104416769Y-57293867D01*
X104416770Y-57293868D01*
X104475247Y-57305499D01*
X104475250Y-57305500D01*
X104475252Y-57305500D01*
X105364750Y-57305500D01*
X105364751Y-57305499D01*
X105379568Y-57302552D01*
X105423229Y-57293868D01*
X105423229Y-57293867D01*
X105423231Y-57293867D01*
X105489552Y-57249552D01*
X105533867Y-57183231D01*
X105533867Y-57183229D01*
X105533868Y-57183229D01*
X105545499Y-57124752D01*
X105545500Y-57124750D01*
X105545500Y-56235249D01*
X105545499Y-56235247D01*
X105533868Y-56176770D01*
X105533867Y-56176769D01*
X105489552Y-56110447D01*
X105423230Y-56066132D01*
X105423229Y-56066131D01*
X105364752Y-56054500D01*
X105364748Y-56054500D01*
X104475252Y-56054500D01*
X104475247Y-56054500D01*
X104416770Y-56066131D01*
X104416769Y-56066132D01*
X104350447Y-56110447D01*
X104306132Y-56176769D01*
X104306131Y-56176770D01*
X104294500Y-56235247D01*
X87500500Y-56235247D01*
X87500500Y-54411258D01*
X108009500Y-54411258D01*
X108009500Y-54788742D01*
X108017035Y-54840460D01*
X108019567Y-54857842D01*
X108071676Y-54964430D01*
X108162836Y-55055590D01*
X108161831Y-55056594D01*
X108198178Y-55102922D01*
X108204739Y-55172483D01*
X108172652Y-55234549D01*
X108170689Y-55236557D01*
X108081676Y-55325570D01*
X108029567Y-55432157D01*
X108029567Y-55432160D01*
X108019500Y-55501258D01*
X108019500Y-55878742D01*
X108027050Y-55930565D01*
X108029567Y-55947842D01*
X108081676Y-56054430D01*
X108165569Y-56138323D01*
X108272157Y-56190432D01*
X108272158Y-56190432D01*
X108272160Y-56190433D01*
X108341258Y-56200500D01*
X108341264Y-56200500D01*
X108833736Y-56200500D01*
X108833742Y-56200500D01*
X108902840Y-56190433D01*
X109002728Y-56141600D01*
X109014815Y-56138803D01*
X109022254Y-56134023D01*
X109057189Y-56129000D01*
X109207027Y-56129000D01*
X109274066Y-56148685D01*
X109310129Y-56184109D01*
X109320447Y-56199552D01*
X109386769Y-56243867D01*
X109386770Y-56243868D01*
X109445247Y-56255499D01*
X109445250Y-56255500D01*
X109445252Y-56255500D01*
X110334750Y-56255500D01*
X110334751Y-56255499D01*
X110349568Y-56252552D01*
X110393229Y-56243868D01*
X110393229Y-56243867D01*
X110393231Y-56243867D01*
X110459552Y-56199552D01*
X110503867Y-56133231D01*
X110503867Y-56133229D01*
X110503868Y-56133229D01*
X110515499Y-56074752D01*
X110515500Y-56074750D01*
X110515500Y-55185249D01*
X110515499Y-55185247D01*
X110503868Y-55126770D01*
X110503867Y-55126769D01*
X110459552Y-55060447D01*
X110393230Y-55016132D01*
X110393229Y-55016131D01*
X110334752Y-55004500D01*
X110334748Y-55004500D01*
X109652333Y-55004500D01*
X109631087Y-54998261D01*
X109608999Y-54996682D01*
X109598215Y-54988609D01*
X109585294Y-54984815D01*
X109570794Y-54968081D01*
X109553066Y-54954810D01*
X109548358Y-54942189D01*
X109539539Y-54932011D01*
X109536387Y-54910093D01*
X109528649Y-54889346D01*
X109531511Y-54876185D01*
X109529595Y-54862853D01*
X109538794Y-54842709D01*
X109543501Y-54821073D01*
X109556769Y-54803347D01*
X109558620Y-54799297D01*
X109564652Y-54792819D01*
X109650652Y-54706819D01*
X109711975Y-54673334D01*
X109738333Y-54670500D01*
X110018736Y-54670500D01*
X110018742Y-54670500D01*
X110087840Y-54660433D01*
X110194429Y-54608324D01*
X110194430Y-54608323D01*
X110194432Y-54608322D01*
X110278322Y-54524432D01*
X110278323Y-54524430D01*
X110278324Y-54524429D01*
X110330433Y-54417840D01*
X110340500Y-54348742D01*
X110340500Y-53971258D01*
X110330433Y-53902160D01*
X110278324Y-53795571D01*
X110278323Y-53795570D01*
X110278323Y-53795569D01*
X110194430Y-53711676D01*
X110087842Y-53659567D01*
X110070565Y-53657050D01*
X110018742Y-53649500D01*
X109526258Y-53649500D01*
X109480192Y-53656211D01*
X109457157Y-53659567D01*
X109350569Y-53711676D01*
X109350568Y-53711678D01*
X109266678Y-53795568D01*
X109266676Y-53795569D01*
X109214567Y-53902157D01*
X109214567Y-53902160D01*
X109204500Y-53971258D01*
X109204500Y-53971263D01*
X109204500Y-54057384D01*
X109184815Y-54124423D01*
X109132011Y-54170178D01*
X109062853Y-54180122D01*
X109009231Y-54155634D01*
X109007794Y-54157648D01*
X108999430Y-54151676D01*
X108892842Y-54099567D01*
X108875565Y-54097050D01*
X108823742Y-54089500D01*
X108331258Y-54089500D01*
X108285192Y-54096211D01*
X108262157Y-54099567D01*
X108155569Y-54151676D01*
X108155568Y-54151678D01*
X108071678Y-54235568D01*
X108071676Y-54235569D01*
X108019567Y-54342157D01*
X108019567Y-54342160D01*
X108009500Y-54411258D01*
X87500500Y-54411258D01*
X87500500Y-47499793D01*
X87500500Y-46506960D01*
X87501280Y-46493077D01*
X87506854Y-46443607D01*
X87511015Y-46406676D01*
X87514455Y-46388487D01*
X87517528Y-46377020D01*
X87520252Y-46368193D01*
X87545355Y-46296452D01*
X87557393Y-46271453D01*
X87602046Y-46200389D01*
X87619350Y-46178691D01*
X87678691Y-46119350D01*
X87700389Y-46102046D01*
X87771453Y-46057393D01*
X87796452Y-46045355D01*
X87868210Y-46020246D01*
X87877020Y-46017528D01*
X87888487Y-46014455D01*
X87906670Y-46011016D01*
X87993078Y-46001279D01*
X88006960Y-46000500D01*
X124993039Y-46000500D01*
X125006922Y-46001280D01*
G37*
%TD.AperFunction*%
%TD*%
M02*
