%TF.GenerationSoftware,KiCad,Pcbnew,9.0.2*%
%TF.CreationDate,2026-06-25T15:34:41-05:00*%
%TF.ProjectId,pwm_radar,70776d5f-7261-4646-9172-2e6b69636164,rev?*%
%TF.SameCoordinates,Original*%
%TF.FileFunction,Copper,L1,Top*%
%TF.FilePolarity,Positive*%
%FSLAX46Y46*%
G04 Gerber Fmt 4.6, Leading zero omitted, Abs format (unit mm)*
G04 Created by KiCad (PCBNEW 9.0.2) date 2026-06-25 15:34:41*
%MOMM*%
%LPD*%
G01*
G04 APERTURE LIST*
G04 Aperture macros list*
%AMRoundRect*
0 Rectangle with rounded corners*
0 $1 Rounding radius*
0 $2 $3 $4 $5 $6 $7 $8 $9 X,Y pos of 4 corners*
0 Add a 4 corners polygon primitive as box body*
4,1,4,$2,$3,$4,$5,$6,$7,$8,$9,$2,$3,0*
0 Add four circle primitives for the rounded corners*
1,1,$1+$1,$2,$3*
1,1,$1+$1,$4,$5*
1,1,$1+$1,$6,$7*
1,1,$1+$1,$8,$9*
0 Add four rect primitives between the rounded corners*
20,1,$1+$1,$2,$3,$4,$5,0*
20,1,$1+$1,$4,$5,$6,$7,0*
20,1,$1+$1,$6,$7,$8,$9,0*
20,1,$1+$1,$8,$9,$2,$3,0*%
G04 Aperture macros list end*
%TA.AperFunction,Conductor*%
%ADD10C,0.000010*%
%TD*%
%TA.AperFunction,Conductor*%
%ADD11C,0.000000*%
%TD*%
%TA.AperFunction,Conductor*%
%ADD12C,0.000100*%
%TD*%
%TA.AperFunction,ConnectorPad*%
%ADD13R,5.200000X0.400000*%
%TD*%
%TA.AperFunction,ComponentPad*%
%ADD14R,5.000000X6.000000*%
%TD*%
%TA.AperFunction,SMDPad,CuDef*%
%ADD15R,0.660400X0.203200*%
%TD*%
%TA.AperFunction,SMDPad,CuDef*%
%ADD16R,0.609600X1.193800*%
%TD*%
%TA.AperFunction,SMDPad,CuDef*%
%ADD17RoundRect,0.160000X0.197500X0.160000X-0.197500X0.160000X-0.197500X-0.160000X0.197500X-0.160000X0*%
%TD*%
%TA.AperFunction,SMDPad,CuDef*%
%ADD18R,0.400000X0.250000*%
%TD*%
%TA.AperFunction,SMDPad,CuDef*%
%ADD19R,0.250000X0.400000*%
%TD*%
%TA.AperFunction,SMDPad,CuDef*%
%ADD20R,1.600000X1.600000*%
%TD*%
%TA.AperFunction,ComponentPad*%
%ADD21R,0.850000X0.850000*%
%TD*%
%TA.AperFunction,ViaPad*%
%ADD22C,0.700000*%
%TD*%
%TA.AperFunction,ViaPad*%
%ADD23C,0.600000*%
%TD*%
%TA.AperFunction,Conductor*%
%ADD24C,0.500000*%
%TD*%
%TA.AperFunction,Conductor*%
%ADD25C,0.100000*%
%TD*%
%TA.AperFunction,Conductor*%
%ADD26C,0.300000*%
%TD*%
%TA.AperFunction,Conductor*%
%ADD27C,0.200000*%
%TD*%
%TA.AperFunction,Conductor*%
%ADD28C,1.000000*%
%TD*%
G04 APERTURE END LIST*
D10*
%TO.N,Net-(J1-In)*%
X97280000Y-56900000D02*
X97280000Y-57100000D01*
X95990000Y-57510000D01*
X95970000Y-56530000D01*
X97280000Y-56900000D01*
%TA.AperFunction,Conductor*%
G36*
X97280000Y-56900000D02*
G01*
X97280000Y-57100000D01*
X95990000Y-57510000D01*
X95970000Y-56530000D01*
X97280000Y-56900000D01*
G37*
%TD.AperFunction*%
D11*
%TA.AperFunction,Conductor*%
%TO.N,GND*%
G36*
X115480000Y-56730000D02*
G01*
X115080000Y-56730000D01*
X115040000Y-56170000D01*
X115690000Y-56150000D01*
X115480000Y-56730000D01*
G37*
%TD.AperFunction*%
D12*
%TO.N,RF1+*%
X100380000Y-56330000D02*
X100030000Y-56500000D01*
X98750000Y-56440000D01*
X98750000Y-56240000D01*
X99620000Y-55680000D01*
X100380000Y-56330000D01*
%TA.AperFunction,Conductor*%
G36*
X100380000Y-56330000D02*
G01*
X100030000Y-56500000D01*
X98750000Y-56440000D01*
X98750000Y-56240000D01*
X99620000Y-55680000D01*
X100380000Y-56330000D01*
G37*
%TD.AperFunction*%
%TO.N,RF1-*%
X100370000Y-57670000D02*
X99620000Y-58320000D01*
X98750000Y-57760000D01*
X98750000Y-57560000D01*
X100030000Y-57500000D01*
X100370000Y-57670000D01*
%TA.AperFunction,Conductor*%
G36*
X100370000Y-57670000D02*
G01*
X99620000Y-58320000D01*
X98750000Y-57760000D01*
X98750000Y-57560000D01*
X100030000Y-57500000D01*
X100370000Y-57670000D01*
G37*
%TD.AperFunction*%
D11*
%TA.AperFunction,Conductor*%
%TO.N,RF1+*%
G36*
X114470000Y-54730000D02*
G01*
X114121426Y-55535128D01*
X113881426Y-55535128D01*
X113561426Y-54805128D01*
X113511426Y-54645128D01*
X114470000Y-54730000D01*
G37*
%TD.AperFunction*%
%TA.AperFunction,Conductor*%
%TO.N,GND*%
G36*
X115090000Y-55780000D02*
G01*
X114850000Y-55960000D01*
X114280000Y-55910000D01*
X114280000Y-55520000D01*
X114720000Y-55440000D01*
X115090000Y-55780000D01*
G37*
%TD.AperFunction*%
%TA.AperFunction,Conductor*%
G36*
X114990000Y-58130000D02*
G01*
X114650000Y-58490000D01*
X114280000Y-58480000D01*
X114280000Y-58090000D01*
X114800000Y-58040000D01*
X114990000Y-58130000D01*
G37*
%TD.AperFunction*%
%TA.AperFunction,Conductor*%
%TO.N,RF1-*%
G36*
X114440000Y-59200000D02*
G01*
X114490000Y-59360000D01*
X113530000Y-59270000D01*
X113880000Y-58470000D01*
X114120000Y-58470000D01*
X114440000Y-59200000D01*
G37*
%TD.AperFunction*%
%TA.AperFunction,Conductor*%
%TO.N,GND*%
G36*
X115610000Y-57770000D02*
G01*
X115300000Y-58170000D01*
X115070000Y-57930000D01*
X115090000Y-57280000D01*
X115490000Y-57280000D01*
X115610000Y-57770000D01*
G37*
%TD.AperFunction*%
%TA.AperFunction,Conductor*%
%TO.N,Net-(J6-In)*%
G36*
X116275128Y-57468574D02*
G01*
X115470000Y-57120000D01*
X115470000Y-56880000D01*
X116200000Y-56560000D01*
X116360000Y-56510000D01*
X116275128Y-57468574D01*
G37*
%TD.AperFunction*%
%TA.AperFunction,Conductor*%
%TO.N,GND*%
G36*
X113700000Y-58090000D02*
G01*
X113710000Y-58480000D01*
X113350000Y-58480000D01*
X113120000Y-58430000D01*
X113120000Y-58050000D01*
X113240000Y-58040000D01*
X113700000Y-58090000D01*
G37*
%TD.AperFunction*%
%TA.AperFunction,Conductor*%
G36*
X113720000Y-55520000D02*
G01*
X113720000Y-55910000D01*
X113140000Y-55960000D01*
X113060000Y-55920000D01*
X112810000Y-55670000D01*
X113090000Y-55260000D01*
X113720000Y-55520000D01*
G37*
%TD.AperFunction*%
%TD*%
D13*
%TO.P,J4,1,In*%
%TO.N,Net-(J4-In)*%
X123500000Y-76000000D03*
D14*
%TO.P,J4,2,Ext*%
%TO.N,GND*%
X123500000Y-80025000D03*
X123500000Y-71975000D03*
%TD*%
D13*
%TO.P,J6,1,In*%
%TO.N,Net-(J6-In)*%
X123000000Y-57000000D03*
D14*
%TO.P,J6,2,Ext*%
%TO.N,GND*%
X123000000Y-61025000D03*
X123000000Y-52975000D03*
%TD*%
D13*
%TO.P,J1,1,In*%
%TO.N,Net-(J1-In)*%
X90000000Y-57025000D03*
D14*
%TO.P,J1,2,Ext*%
%TO.N,GND*%
X90000000Y-53000000D03*
X90000000Y-61050000D03*
%TD*%
D13*
%TO.P,J5,1,In*%
%TO.N,Net-(J4-In)*%
X89500000Y-76000000D03*
D14*
%TO.P,J5,2,Ext*%
%TO.N,GND*%
X89500000Y-71975000D03*
X89500000Y-80025000D03*
%TD*%
D15*
%TO.P,U1,1,GND*%
%TO.N,GND*%
X97044200Y-56339600D03*
%TO.P,U1,2,Primary*%
%TO.N,Net-(J1-In)*%
X97044200Y-57000000D03*
%TO.P,U1,3,GND*%
%TO.N,GND*%
X97044200Y-57660400D03*
%TO.P,U1,4,Secondary*%
%TO.N,RF1-*%
X99000000Y-57660400D03*
%TO.P,U1,5,NC*%
%TO.N,GND*%
X99000000Y-57000000D03*
%TO.P,U1,6,Secondary_Dot*%
%TO.N,RF1+*%
X99000000Y-56339600D03*
D16*
%TO.P,U1,7,GND_PAD*%
%TO.N,GND*%
X98022100Y-57000000D03*
%TD*%
D17*
%TO.P,R2,1*%
%TO.N,EN*%
X110737500Y-57760000D03*
%TO.P,R2,2*%
%TO.N,Net-(J7-Pin_1)*%
X109542500Y-57760000D03*
%TD*%
D18*
%TO.P,U2,1,GND*%
%TO.N,GND*%
X115284999Y-57800001D03*
%TO.P,U2,2,GND*%
X115284999Y-57399999D03*
%TO.P,U2,3,RFC*%
%TO.N,Net-(J6-In)*%
X115284999Y-57000000D03*
%TO.P,U2,4,GND*%
%TO.N,GND*%
X115284999Y-56600001D03*
%TO.P,U2,5,GND*%
X115284999Y-56199999D03*
D19*
%TO.P,U2,6,GND*%
X114800001Y-55715001D03*
%TO.P,U2,7,GND*%
X114399999Y-55715001D03*
%TO.P,U2,8,RF1*%
%TO.N,RF1+*%
X114000000Y-55715001D03*
%TO.P,U2,9,GND*%
%TO.N,GND*%
X113600001Y-55715001D03*
%TO.P,U2,10,GND*%
X113199999Y-55715001D03*
D18*
%TO.P,U2,11,VDD*%
%TO.N,VDD*%
X112715001Y-56199999D03*
%TO.P,U2,12,CTRL*%
%TO.N,CTRL*%
X112715001Y-56600001D03*
%TO.P,U2,13,GND*%
%TO.N,GND*%
X112715001Y-57000000D03*
%TO.P,U2,14,EN*%
%TO.N,EN*%
X112715001Y-57399999D03*
%TO.P,U2,15,VSS*%
%TO.N,VSS*%
X112715001Y-57800001D03*
D19*
%TO.P,U2,16,GND*%
%TO.N,GND*%
X113199999Y-58284999D03*
%TO.P,U2,17,GND*%
X113600001Y-58284999D03*
%TO.P,U2,18,RF2*%
%TO.N,RF1-*%
X114000000Y-58284999D03*
%TO.P,U2,19,GND*%
%TO.N,GND*%
X114399999Y-58284999D03*
%TO.P,U2,20,GND*%
X114800001Y-58284999D03*
D20*
%TO.P,U2,21*%
%TO.N,N/C*%
X114000000Y-57000000D03*
%TD*%
D17*
%TO.P,R1,1*%
%TO.N,CTRL*%
X108017500Y-56630000D03*
%TO.P,R1,2*%
%TO.N,Net-(J2-Pin_1)*%
X106822500Y-56630000D03*
%TD*%
D21*
%TO.P,J8,1,Pin_1*%
%TO.N,VSS*%
X109810000Y-60020000D03*
%TD*%
%TO.P,J2,1,Pin_1*%
%TO.N,Net-(J2-Pin_1)*%
X104920000Y-56680000D03*
%TD*%
%TO.P,J3,1,Pin_1*%
%TO.N,VDD*%
X109890000Y-55630000D03*
%TD*%
%TO.P,J7,1,Pin_1*%
%TO.N,Net-(J7-Pin_1)*%
X107400000Y-58360000D03*
%TD*%
D22*
%TO.N,GND*%
X112000000Y-69000000D03*
X102000000Y-71000000D03*
X94383333Y-59500000D03*
X97000000Y-71000000D03*
X113062470Y-66046049D03*
X116000000Y-79000000D03*
X118000000Y-83000000D03*
X120900000Y-59500000D03*
D23*
X97140000Y-56180000D03*
X114000000Y-57000000D03*
D22*
X89300000Y-78500000D03*
X112085722Y-66377824D03*
X112291458Y-47673444D03*
X110000000Y-79000000D03*
D23*
X97250000Y-57770000D03*
D22*
X104000000Y-81000000D03*
X89040000Y-54570000D03*
X108000000Y-66500000D03*
X110000000Y-81000000D03*
X124020000Y-54500000D03*
X96000000Y-79000000D03*
X98232233Y-59767767D03*
X99000000Y-73000000D03*
X115000000Y-71000000D03*
X108000000Y-47500000D03*
D23*
X116060000Y-58910000D03*
D22*
X111000000Y-83000000D03*
X106000000Y-66400000D03*
X116499247Y-61061374D03*
X109000000Y-73000000D03*
X102000000Y-73000000D03*
X88070000Y-54570000D03*
X95000000Y-81000000D03*
X110000000Y-47500000D03*
X120800000Y-54500000D03*
X104000000Y-73000000D03*
X112000000Y-79000000D03*
X119200000Y-79000000D03*
X93300000Y-59500000D03*
X105000000Y-69000000D03*
X118000000Y-79000000D03*
X98000000Y-71000000D03*
D23*
X115870000Y-58020000D03*
D22*
X99000000Y-81000000D03*
X108000000Y-69000000D03*
X111061353Y-66499245D03*
X93600000Y-73400000D03*
X103000000Y-73000000D03*
X105095579Y-66115910D03*
X120300000Y-73500000D03*
X103000000Y-83000000D03*
D23*
X115600000Y-55100000D03*
D22*
X96000000Y-73000000D03*
X89200000Y-59500000D03*
X94000000Y-81000000D03*
X105000000Y-71000000D03*
X111000000Y-73000000D03*
X113800000Y-65600000D03*
X103569055Y-48896472D03*
X117000000Y-83000000D03*
X106000000Y-83000000D03*
X101256743Y-51207722D03*
X109000000Y-71000000D03*
X97000000Y-79000000D03*
X92600000Y-73400000D03*
X101000000Y-81000000D03*
X125340000Y-78630000D03*
X106000000Y-81000000D03*
D23*
X112200000Y-54800000D03*
D22*
X111000000Y-79000000D03*
X119400000Y-73300000D03*
X117000000Y-73000000D03*
X107000000Y-69000000D03*
X116499245Y-52938646D03*
X102000000Y-83000000D03*
X102012870Y-50451595D03*
X98000000Y-73000000D03*
X106938647Y-66499246D03*
X98988360Y-53476105D03*
X110000000Y-66500000D03*
X103569046Y-65103515D03*
X113439036Y-48148788D03*
X114000000Y-71000000D03*
X105000000Y-79000000D03*
X97000000Y-73000000D03*
X100000000Y-81000000D03*
D23*
X112100000Y-59300000D03*
D22*
X88240000Y-59500000D03*
X100500615Y-51963850D03*
X118000000Y-73000000D03*
D23*
X104840000Y-54910000D03*
D22*
X124700000Y-73410000D03*
D23*
X98100000Y-57000000D03*
D22*
X96000000Y-81000000D03*
X107000000Y-73000000D03*
X100000000Y-79000000D03*
X91083333Y-59500000D03*
X97000000Y-81000000D03*
X95000000Y-71000000D03*
X96000000Y-83000000D03*
X99000000Y-69000000D03*
X120400000Y-78433333D03*
X114000000Y-79000000D03*
X119750000Y-59500000D03*
X100000000Y-73000000D03*
X89900000Y-54600000D03*
X121883333Y-54500000D03*
X123566667Y-78600000D03*
X109000000Y-83000000D03*
X113000000Y-81000000D03*
X102700000Y-49700000D03*
X121400000Y-78600000D03*
X113000000Y-71000000D03*
X98000000Y-69000000D03*
X112000000Y-83000000D03*
X106800000Y-47600000D03*
X115851209Y-63439033D03*
X109000000Y-81000000D03*
X99000000Y-71000000D03*
X116000000Y-83000000D03*
X113000000Y-83000000D03*
X95466667Y-59500000D03*
X108000000Y-83000000D03*
X102000000Y-69000000D03*
X116000000Y-69000000D03*
D23*
X104940000Y-59010000D03*
D22*
X115000000Y-83000000D03*
X92600000Y-78533333D03*
X124920000Y-59530000D03*
X93300000Y-54600000D03*
X88350000Y-78490000D03*
D23*
X116600000Y-58400000D03*
X112600000Y-58700000D03*
D22*
X94000000Y-71000000D03*
X99000000Y-83000000D03*
X106000000Y-73000000D03*
X105000000Y-83000000D03*
X90000000Y-59500000D03*
X97000000Y-83000000D03*
X113000000Y-69000000D03*
X88400000Y-73420000D03*
X111000000Y-71000000D03*
X102000000Y-81000000D03*
X100500615Y-62036149D03*
X109000000Y-66500000D03*
X113000000Y-73000000D03*
D23*
X114500000Y-56600000D03*
D22*
X100000000Y-71000000D03*
X110000000Y-69000000D03*
X104000000Y-79000000D03*
X111000000Y-69000000D03*
X115000000Y-73000000D03*
X95466667Y-54600000D03*
X107000000Y-81000000D03*
X100000000Y-69000000D03*
X96000000Y-71000000D03*
X112000000Y-71000000D03*
X98988360Y-60523894D03*
X116000000Y-71000000D03*
X93700000Y-79000000D03*
D23*
X102740000Y-57010000D03*
D22*
X87540000Y-73430000D03*
X114000000Y-73000000D03*
X108000000Y-81000000D03*
D23*
X111470000Y-57160000D03*
X115400000Y-58700000D03*
D22*
X103000000Y-71000000D03*
X115000000Y-81000000D03*
X94800000Y-79000000D03*
D23*
X99000000Y-57000000D03*
D22*
X105095580Y-66115910D03*
X122683333Y-73400000D03*
X101000000Y-79000000D03*
D23*
X116800000Y-55600000D03*
D22*
X91466667Y-78500000D03*
X115103515Y-49569046D03*
X116326549Y-62291466D03*
D23*
X114500000Y-57500000D03*
D22*
X122966667Y-54500000D03*
X125500000Y-73420000D03*
X111061353Y-47500751D03*
X117000000Y-79000000D03*
X115103514Y-64430952D03*
X98000000Y-83000000D03*
X107000000Y-79000000D03*
X115000000Y-79000000D03*
X116000000Y-73000000D03*
X105000000Y-81000000D03*
X102700000Y-64400000D03*
D23*
X112800000Y-55200000D03*
D22*
X91366667Y-73400000D03*
X123766667Y-73400000D03*
X117000000Y-69000000D03*
X122483333Y-78600000D03*
D23*
X113500000Y-56500000D03*
D22*
X98000000Y-79000000D03*
X114430964Y-48896494D03*
X94600000Y-73400000D03*
X104300000Y-65700000D03*
X123990000Y-59530000D03*
X92166667Y-59500000D03*
X124940000Y-54520000D03*
X90383333Y-78500000D03*
X109000000Y-69000000D03*
X116000000Y-81000000D03*
X90283333Y-73400000D03*
X108000000Y-71000000D03*
X119750000Y-54500000D03*
X108000000Y-73000000D03*
X109000000Y-47500000D03*
X109000000Y-79000000D03*
X111000000Y-81000000D03*
D23*
X103340000Y-56410000D03*
D22*
X99000000Y-79000000D03*
X104000000Y-83000000D03*
X107000000Y-83000000D03*
D23*
X104140000Y-58310000D03*
D22*
X103000000Y-69000000D03*
X104497617Y-48184929D03*
D23*
X103540000Y-57610000D03*
D22*
X104000000Y-71000000D03*
X101000000Y-83000000D03*
X114000000Y-83000000D03*
X102000000Y-79000000D03*
X92066667Y-54600000D03*
X112000000Y-81000000D03*
X124390000Y-78610000D03*
X112000000Y-73000000D03*
X117583333Y-54500000D03*
X110000000Y-71000000D03*
X116500000Y-59500000D03*
X115000000Y-69000000D03*
X118666666Y-59500000D03*
X100000000Y-83000000D03*
X113062469Y-66046049D03*
X114000000Y-81000000D03*
X107000000Y-71000000D03*
X110000000Y-73000000D03*
X117583333Y-59500000D03*
D23*
X105540000Y-54510000D03*
D22*
X113000000Y-79000000D03*
X118000000Y-69000000D03*
X94383333Y-54600000D03*
X99744488Y-52719977D03*
X116500000Y-54500000D03*
X99744488Y-61280022D03*
X114430953Y-65103514D03*
D23*
X105540000Y-59610000D03*
D22*
X121600000Y-73400000D03*
X89200000Y-73400000D03*
X105568181Y-47713215D03*
X110000000Y-83000000D03*
X98000000Y-81000000D03*
D23*
X104140000Y-55610000D03*
D22*
X106000000Y-69000000D03*
X101000000Y-69000000D03*
X98232233Y-54232233D03*
X102012870Y-63548404D03*
X103000000Y-79000000D03*
X116326553Y-51708545D03*
X115851213Y-50560971D03*
X123066667Y-59500000D03*
X118666666Y-54500000D03*
X101000000Y-73000000D03*
X106000000Y-71000000D03*
D23*
X113600000Y-57500000D03*
D22*
X87410000Y-78490000D03*
X114000000Y-69000000D03*
X101256743Y-62792277D03*
X104000000Y-69000000D03*
X90983333Y-54600000D03*
D23*
X116000000Y-55900000D03*
D22*
X106000000Y-79000000D03*
X103000000Y-81000000D03*
X101000000Y-71000000D03*
X121983333Y-59500000D03*
X96000000Y-69000000D03*
X108000000Y-79000000D03*
X105000000Y-73000000D03*
X97000000Y-69000000D03*
%TD*%
D24*
%TO.N,GND*%
X115600000Y-55100000D02*
X115415002Y-55100000D01*
X115415002Y-55100000D02*
X114800001Y-55715001D01*
X115584998Y-55900000D02*
X115284999Y-56199999D01*
X115215002Y-58700000D02*
X114800001Y-58284999D01*
X112800000Y-55315002D02*
X113199999Y-55715001D01*
X115400000Y-58700000D02*
X115215002Y-58700000D01*
D25*
X111550000Y-57160000D02*
X111730000Y-56980000D01*
X111470000Y-57160000D02*
X111550000Y-57160000D01*
D24*
X115504998Y-58020000D02*
X115284999Y-57800001D01*
X116000000Y-55900000D02*
X115584998Y-55900000D01*
X115870000Y-58020000D02*
X115504998Y-58020000D01*
D25*
X111730000Y-56980000D02*
X112310000Y-56980000D01*
D24*
X112600000Y-58700000D02*
X112784998Y-58700000D01*
D25*
X112310000Y-56980000D02*
X112330000Y-57000000D01*
D24*
X112784998Y-58700000D02*
X113199999Y-58284999D01*
X112800000Y-55200000D02*
X112800000Y-55315002D01*
D25*
X112330000Y-57000000D02*
X112715001Y-57000000D01*
D26*
%TO.N,VDD*%
X109890000Y-55630000D02*
X112235001Y-55630000D01*
X112235001Y-55630000D02*
X112715001Y-56110000D01*
%TO.N,VSS*%
X111210000Y-59630000D02*
X110820000Y-60020000D01*
X112329999Y-57800001D02*
X111220000Y-58910000D01*
X112715001Y-57800001D02*
X112329999Y-57800001D01*
X111220000Y-58910000D02*
X111220000Y-59630000D01*
X110820000Y-60020000D02*
X109810000Y-60020000D01*
X111220000Y-59630000D02*
X111210000Y-59630000D01*
%TO.N,Net-(J2-Pin_1)*%
X106772500Y-56680000D02*
X106822500Y-56630000D01*
X104920000Y-56680000D02*
X106772500Y-56680000D01*
%TO.N,Net-(J7-Pin_1)*%
X108942500Y-58360000D02*
X109542500Y-57760000D01*
X107400000Y-58360000D02*
X108942500Y-58360000D01*
D25*
%TO.N,CTRL*%
X109640000Y-56510000D02*
X112625000Y-56510000D01*
X108017500Y-56630000D02*
X108098500Y-56549000D01*
X112625000Y-56510000D02*
X112715001Y-56600001D01*
X109520000Y-56630000D02*
X109640000Y-56510000D01*
X108017500Y-56630000D02*
X109520000Y-56630000D01*
D27*
%TO.N,EN*%
X110737500Y-57760000D02*
X111718529Y-57760000D01*
X111718529Y-57760000D02*
X112128528Y-57350001D01*
X112128528Y-57350001D02*
X112715001Y-57350001D01*
D28*
%TO.N,Net-(J1-In)*%
X91000000Y-57025000D02*
X95975000Y-57025000D01*
X90075000Y-57025000D02*
X91000000Y-57025000D01*
X90075000Y-57025000D02*
X88025000Y-57025000D01*
%TO.N,Net-(J4-In)*%
X89500000Y-76000000D02*
X87501000Y-76000000D01*
X123500000Y-76000000D02*
X125499000Y-76000000D01*
X89500000Y-76000000D02*
X123500000Y-76000000D01*
%TO.N,Net-(J6-In)*%
X123000000Y-57000000D02*
X125000000Y-57000000D01*
X123000000Y-57000000D02*
X116420000Y-57000000D01*
%TO.N,RF1-*%
X114000000Y-61000000D02*
X114000000Y-59440000D01*
X107000000Y-64000000D02*
X111000000Y-64000000D01*
X105292893Y-63292893D02*
X100000000Y-58000000D01*
X112707106Y-63292892D02*
X113292893Y-62707106D01*
X111000000Y-64000000D02*
X111000000Y-64000000D01*
X105292893Y-63292893D02*
G75*
G03*
X107000000Y-64000004I1707107J1707093D01*
G01*
X113292892Y-62707105D02*
G75*
G03*
X114000002Y-61000000I-1707092J1707105D01*
G01*
X112707106Y-63292892D02*
G75*
G02*
X111000000Y-64000003I-1707106J1707092D01*
G01*
%TO.N,RF1+*%
X111000000Y-50000000D02*
X111000000Y-50000000D01*
X107000000Y-50000000D02*
X111000000Y-50000000D01*
X113999998Y-54559998D02*
X114000000Y-54560000D01*
X113999998Y-53000000D02*
X113999998Y-54559998D01*
X113292893Y-51292893D02*
X112707106Y-50707106D01*
X105292893Y-50707106D02*
X100000000Y-56000000D01*
X112707106Y-50707106D02*
G75*
G03*
X111000000Y-49999996I-1707106J-1707094D01*
G01*
X107000000Y-50000000D02*
G75*
G03*
X105292896Y-50707109I0J-2414200D01*
G01*
X113292893Y-51292893D02*
G75*
G02*
X114000004Y-53000000I-1707093J-1707107D01*
G01*
%TD*%
%TA.AperFunction,Conductor*%
%TO.N,GND*%
G36*
X125942539Y-78019685D02*
G01*
X125988294Y-78072489D01*
X125999500Y-78124000D01*
X125999500Y-84493037D01*
X125998720Y-84506923D01*
X125988984Y-84593320D01*
X125985538Y-84611530D01*
X125982478Y-84622949D01*
X125979746Y-84631806D01*
X125954648Y-84703536D01*
X125942600Y-84728555D01*
X125897958Y-84799603D01*
X125880645Y-84821312D01*
X125821312Y-84880645D01*
X125799604Y-84897957D01*
X125799603Y-84897958D01*
X125728555Y-84942600D01*
X125703536Y-84954648D01*
X125631806Y-84979746D01*
X125622949Y-84982478D01*
X125611530Y-84985538D01*
X125593320Y-84988984D01*
X125512726Y-84998065D01*
X125506921Y-84998720D01*
X125493037Y-84999500D01*
X87506963Y-84999500D01*
X87493078Y-84998720D01*
X87406679Y-84988984D01*
X87388468Y-84985538D01*
X87377049Y-84982478D01*
X87368193Y-84979746D01*
X87296465Y-84954649D01*
X87271445Y-84942601D01*
X87271443Y-84942600D01*
X87200395Y-84897957D01*
X87178686Y-84880644D01*
X87119354Y-84821312D01*
X87102042Y-84799604D01*
X87057395Y-84728549D01*
X87045352Y-84703540D01*
X87020251Y-84631804D01*
X87017520Y-84622949D01*
X87014458Y-84611523D01*
X87011015Y-84593320D01*
X87001280Y-84506921D01*
X87000500Y-84493038D01*
X87000500Y-78124000D01*
X87020185Y-78056961D01*
X87072989Y-78011206D01*
X87124500Y-78000000D01*
X125875500Y-78000000D01*
X125942539Y-78019685D01*
G37*
%TD.AperFunction*%
%TA.AperFunction,Conductor*%
G36*
X115311448Y-57252643D02*
G01*
X115319598Y-57258140D01*
X115388354Y-57308585D01*
X115415073Y-57320153D01*
X115416880Y-57321006D01*
X115441548Y-57342937D01*
X115466904Y-57364042D01*
X115467548Y-57366051D01*
X115469098Y-57367429D01*
X115476650Y-57394417D01*
X115487882Y-57429418D01*
X115489999Y-57500000D01*
X117753668Y-58153335D01*
X120410000Y-58920000D01*
X125380134Y-59105798D01*
X125446390Y-59127973D01*
X125490140Y-59182449D01*
X125499500Y-59229711D01*
X125499500Y-66499793D01*
X125499500Y-68399500D01*
X125499500Y-68400000D01*
X125499500Y-68426929D01*
X125503180Y-68433303D01*
X125503806Y-68439845D01*
X125511261Y-68447300D01*
X125520445Y-68463207D01*
X125520464Y-68463242D01*
X125526427Y-68473569D01*
X125526428Y-68473569D01*
X125526429Y-68473571D01*
X125552699Y-68488738D01*
X125560155Y-68496194D01*
X125566694Y-68496818D01*
X125573071Y-68500500D01*
X125599793Y-68500500D01*
X125875500Y-68500500D01*
X125942539Y-68520185D01*
X125988294Y-68572989D01*
X125999500Y-68624500D01*
X125999500Y-73876000D01*
X125979815Y-73943039D01*
X125927011Y-73988794D01*
X125875500Y-74000000D01*
X87124500Y-74000000D01*
X87057461Y-73980315D01*
X87011706Y-73927511D01*
X87000500Y-73876000D01*
X87000500Y-68624500D01*
X87020185Y-68557461D01*
X87072989Y-68511706D01*
X87124500Y-68500500D01*
X87423971Y-68500500D01*
X87426929Y-68500500D01*
X87433305Y-68496818D01*
X87439845Y-68496194D01*
X87447298Y-68488739D01*
X87473571Y-68473571D01*
X87488739Y-68447298D01*
X87496194Y-68439845D01*
X87496818Y-68433306D01*
X87500500Y-68426929D01*
X87500500Y-68400000D01*
X87500500Y-68399500D01*
X87500500Y-67499793D01*
X87500500Y-59124000D01*
X87520185Y-59056961D01*
X87572989Y-59011206D01*
X87624500Y-59000000D01*
X97948638Y-59000000D01*
X98015677Y-59019685D01*
X98036319Y-59036319D01*
X104000000Y-65000000D01*
X106000000Y-66000000D01*
X112540000Y-65670000D01*
X113980000Y-64740000D01*
X116000000Y-62000000D01*
X116000000Y-60000000D01*
X115022379Y-59022379D01*
X114993076Y-58968716D01*
X114411793Y-58576032D01*
X114367638Y-58523064D01*
X114308215Y-58387504D01*
X114308209Y-58387492D01*
X114280665Y-58341872D01*
X114280663Y-58341870D01*
X114276686Y-58338698D01*
X114236546Y-58281509D01*
X114230000Y-58241752D01*
X114230000Y-57925500D01*
X114249685Y-57858461D01*
X114302489Y-57812706D01*
X114354000Y-57801500D01*
X114800141Y-57801500D01*
X114800146Y-57801500D01*
X114800585Y-57801413D01*
X114801081Y-57801081D01*
X114801413Y-57800585D01*
X114801500Y-57800146D01*
X114801500Y-57363747D01*
X114821185Y-57296708D01*
X114873989Y-57250953D01*
X114923323Y-57239766D01*
X115244077Y-57234138D01*
X115311448Y-57252643D01*
G37*
%TD.AperFunction*%
%TA.AperFunction,Conductor*%
G36*
X112015677Y-54019685D02*
G01*
X112036319Y-54036319D01*
X112962413Y-54962413D01*
X112976274Y-54987797D01*
X113572850Y-55390812D01*
X113617005Y-55443780D01*
X113693210Y-55617623D01*
X113693216Y-55617635D01*
X113720760Y-55663255D01*
X113728027Y-55671534D01*
X113726227Y-55673113D01*
X113757601Y-55717813D01*
X113764129Y-55755396D01*
X113769690Y-56072325D01*
X113751185Y-56139699D01*
X113699191Y-56186373D01*
X113645709Y-56198500D01*
X113193784Y-56198500D01*
X113193784Y-56196841D01*
X113132962Y-56185280D01*
X113082272Y-56137194D01*
X113065501Y-56074920D01*
X113065501Y-56063859D01*
X113065501Y-56063857D01*
X113041615Y-55974712D01*
X112995471Y-55894788D01*
X112450213Y-55349530D01*
X112450212Y-55349529D01*
X112450209Y-55349527D01*
X112370291Y-55303387D01*
X112370290Y-55303386D01*
X112370289Y-55303386D01*
X112281145Y-55279500D01*
X112281144Y-55279500D01*
X110636012Y-55279500D01*
X110568973Y-55259815D01*
X110523218Y-55207011D01*
X110514395Y-55179692D01*
X110503867Y-55126770D01*
X110503867Y-55126769D01*
X110459552Y-55060447D01*
X110393230Y-55016132D01*
X110393229Y-55016131D01*
X110334752Y-55004500D01*
X110334748Y-55004500D01*
X109445252Y-55004500D01*
X109445247Y-55004500D01*
X109386770Y-55016131D01*
X109386769Y-55016132D01*
X109320447Y-55060447D01*
X109276132Y-55126769D01*
X109276131Y-55126770D01*
X109264500Y-55185247D01*
X109264500Y-56074752D01*
X109276131Y-56133229D01*
X109276132Y-56133230D01*
X109311799Y-56186609D01*
X109332677Y-56253286D01*
X109314193Y-56320667D01*
X109262214Y-56367357D01*
X109208697Y-56379500D01*
X108649435Y-56379500D01*
X108582396Y-56359815D01*
X108538034Y-56309960D01*
X108522160Y-56277490D01*
X108512449Y-56257625D01*
X108512448Y-56257624D01*
X108512448Y-56257623D01*
X108427375Y-56172550D01*
X108427372Y-56172548D01*
X108319289Y-56119710D01*
X108319287Y-56119709D01*
X108319286Y-56119709D01*
X108249215Y-56109500D01*
X108249209Y-56109500D01*
X107785786Y-56109500D01*
X107736342Y-56116703D01*
X107715714Y-56119709D01*
X107715712Y-56119709D01*
X107715710Y-56119710D01*
X107715708Y-56119710D01*
X107607627Y-56172548D01*
X107607624Y-56172550D01*
X107522549Y-56257625D01*
X107520914Y-56259916D01*
X107517877Y-56262297D01*
X107515285Y-56264890D01*
X107514971Y-56264576D01*
X107465936Y-56303035D01*
X107396375Y-56309587D01*
X107334314Y-56277490D01*
X107319086Y-56259916D01*
X107317450Y-56257625D01*
X107232375Y-56172550D01*
X107232372Y-56172548D01*
X107124289Y-56119710D01*
X107124287Y-56119709D01*
X107124286Y-56119709D01*
X107054215Y-56109500D01*
X107054209Y-56109500D01*
X106590786Y-56109500D01*
X106541342Y-56116703D01*
X106520714Y-56119709D01*
X106520712Y-56119709D01*
X106520710Y-56119710D01*
X106520708Y-56119710D01*
X106412627Y-56172548D01*
X106412624Y-56172550D01*
X106327551Y-56257623D01*
X106326408Y-56259962D01*
X106323999Y-56262598D01*
X106321579Y-56265988D01*
X106321169Y-56265695D01*
X106279279Y-56311544D01*
X106215008Y-56329500D01*
X105666012Y-56329500D01*
X105598973Y-56309815D01*
X105553218Y-56257011D01*
X105544395Y-56229692D01*
X105533867Y-56176770D01*
X105533867Y-56176769D01*
X105489552Y-56110447D01*
X105423230Y-56066132D01*
X105423229Y-56066131D01*
X105364752Y-56054500D01*
X105364748Y-56054500D01*
X104475252Y-56054500D01*
X104475247Y-56054500D01*
X104416770Y-56066131D01*
X104416769Y-56066132D01*
X104350447Y-56110447D01*
X104306132Y-56176769D01*
X104306131Y-56176770D01*
X104294500Y-56235247D01*
X104294500Y-57124752D01*
X104306131Y-57183229D01*
X104306132Y-57183230D01*
X104350447Y-57249552D01*
X104416769Y-57293867D01*
X104416770Y-57293868D01*
X104475247Y-57305499D01*
X104475250Y-57305500D01*
X104475252Y-57305500D01*
X105364750Y-57305500D01*
X105364751Y-57305499D01*
X105379589Y-57302548D01*
X105423229Y-57293868D01*
X105423229Y-57293867D01*
X105423231Y-57293867D01*
X105489552Y-57249552D01*
X105533867Y-57183231D01*
X105540378Y-57150499D01*
X105544395Y-57130308D01*
X105576780Y-57068397D01*
X105637496Y-57033823D01*
X105666012Y-57030500D01*
X106304313Y-57030500D01*
X106371352Y-57050185D01*
X106391994Y-57066819D01*
X106412624Y-57087449D01*
X106412627Y-57087451D01*
X106516201Y-57138084D01*
X106520714Y-57140291D01*
X106590785Y-57150500D01*
X107054214Y-57150499D01*
X107124286Y-57140291D01*
X107124290Y-57140289D01*
X107124291Y-57140289D01*
X107232372Y-57087451D01*
X107232375Y-57087449D01*
X107317447Y-57002377D01*
X107317448Y-57002376D01*
X107317449Y-57002375D01*
X107317450Y-57002372D01*
X107319083Y-57000087D01*
X107322120Y-56997704D01*
X107324715Y-56995110D01*
X107325028Y-56995423D01*
X107374058Y-56956966D01*
X107443620Y-56950411D01*
X107505682Y-56982505D01*
X107520917Y-57000087D01*
X107522552Y-57002377D01*
X107607624Y-57087449D01*
X107607627Y-57087451D01*
X107711201Y-57138084D01*
X107715714Y-57140291D01*
X107785785Y-57150500D01*
X108249214Y-57150499D01*
X108319286Y-57140291D01*
X108319290Y-57140289D01*
X108319291Y-57140289D01*
X108427372Y-57087451D01*
X108427375Y-57087449D01*
X108512448Y-57002376D01*
X108512449Y-57002375D01*
X108538034Y-56950039D01*
X108585162Y-56898458D01*
X108649435Y-56880500D01*
X109569826Y-56880500D01*
X109569828Y-56880500D01*
X109661897Y-56842364D01*
X109707442Y-56796819D01*
X109768765Y-56763334D01*
X109795123Y-56760500D01*
X112469877Y-56760500D01*
X112492389Y-56767110D01*
X112515751Y-56769298D01*
X112528563Y-56777732D01*
X112536916Y-56780185D01*
X112546349Y-56786888D01*
X112552254Y-56791514D01*
X112573105Y-56812365D01*
X112585334Y-56817430D01*
X112598684Y-56827889D01*
X112609537Y-56843070D01*
X112624067Y-56854780D01*
X112629433Y-56870903D01*
X112639317Y-56884729D01*
X112640239Y-56903367D01*
X112646133Y-56921074D01*
X112641930Y-56937540D01*
X112642770Y-56954513D01*
X112633468Y-56970691D01*
X112628854Y-56988773D01*
X112616417Y-57000352D01*
X112607947Y-57015086D01*
X112591375Y-57023667D01*
X112577718Y-57036384D01*
X112557675Y-57041120D01*
X112545903Y-57047217D01*
X112535857Y-57046276D01*
X112522212Y-57049501D01*
X112088966Y-57049501D01*
X112038014Y-57063153D01*
X112012538Y-57069980D01*
X111982284Y-57087448D01*
X111982283Y-57087448D01*
X111944020Y-57109538D01*
X111944015Y-57109542D01*
X111630377Y-57423181D01*
X111603449Y-57437884D01*
X111577631Y-57454477D01*
X111571430Y-57455368D01*
X111569054Y-57456666D01*
X111542696Y-57459500D01*
X111344992Y-57459500D01*
X111277953Y-57439815D01*
X111238747Y-57395755D01*
X111238421Y-57395988D01*
X111236256Y-57392955D01*
X111233592Y-57389962D01*
X111232448Y-57387623D01*
X111147375Y-57302550D01*
X111147372Y-57302548D01*
X111039289Y-57249710D01*
X111039287Y-57249709D01*
X111039286Y-57249709D01*
X110969215Y-57239500D01*
X110969209Y-57239500D01*
X110505786Y-57239500D01*
X110456342Y-57246703D01*
X110435714Y-57249709D01*
X110435712Y-57249709D01*
X110435710Y-57249710D01*
X110435708Y-57249710D01*
X110327627Y-57302548D01*
X110327624Y-57302550D01*
X110242549Y-57387625D01*
X110240914Y-57389916D01*
X110237877Y-57392297D01*
X110235285Y-57394890D01*
X110234971Y-57394576D01*
X110185936Y-57433035D01*
X110116375Y-57439587D01*
X110054314Y-57407490D01*
X110039086Y-57389916D01*
X110037450Y-57387625D01*
X109952375Y-57302550D01*
X109952372Y-57302548D01*
X109844289Y-57249710D01*
X109844287Y-57249709D01*
X109844286Y-57249709D01*
X109774215Y-57239500D01*
X109774209Y-57239500D01*
X109310786Y-57239500D01*
X109261342Y-57246703D01*
X109240714Y-57249709D01*
X109240712Y-57249709D01*
X109240710Y-57249710D01*
X109240708Y-57249710D01*
X109132627Y-57302548D01*
X109132624Y-57302550D01*
X109047550Y-57387624D01*
X109047548Y-57387627D01*
X108994710Y-57495710D01*
X108994709Y-57495712D01*
X108994709Y-57495714D01*
X108984500Y-57565785D01*
X108984500Y-57565790D01*
X108984500Y-57770955D01*
X108975854Y-57800398D01*
X108969332Y-57830381D01*
X108965577Y-57835396D01*
X108964815Y-57837994D01*
X108948185Y-57858631D01*
X108833635Y-57973182D01*
X108772315Y-58006666D01*
X108745956Y-58009500D01*
X108146012Y-58009500D01*
X108078973Y-57989815D01*
X108033218Y-57937011D01*
X108024395Y-57909692D01*
X108014238Y-57858636D01*
X108013867Y-57856769D01*
X107990847Y-57822317D01*
X107969552Y-57790447D01*
X107903230Y-57746132D01*
X107903229Y-57746131D01*
X107844752Y-57734500D01*
X107844748Y-57734500D01*
X106955252Y-57734500D01*
X106955247Y-57734500D01*
X106896770Y-57746131D01*
X106896769Y-57746132D01*
X106830447Y-57790447D01*
X106786132Y-57856769D01*
X106786131Y-57856770D01*
X106774500Y-57915247D01*
X106774500Y-58804752D01*
X106786131Y-58863229D01*
X106786132Y-58863230D01*
X106830447Y-58929552D01*
X106896769Y-58973867D01*
X106896770Y-58973868D01*
X106955247Y-58985499D01*
X106955250Y-58985500D01*
X106955252Y-58985500D01*
X107844750Y-58985500D01*
X107844751Y-58985499D01*
X107859568Y-58982552D01*
X107903229Y-58973868D01*
X107903229Y-58973867D01*
X107903231Y-58973867D01*
X107969552Y-58929552D01*
X108013867Y-58863231D01*
X108016966Y-58847649D01*
X108024395Y-58810308D01*
X108056780Y-58748397D01*
X108117496Y-58713823D01*
X108146012Y-58710500D01*
X108988642Y-58710500D01*
X108988644Y-58710500D01*
X109077788Y-58686614D01*
X109157712Y-58640470D01*
X109481363Y-58316817D01*
X109542686Y-58283333D01*
X109569044Y-58280499D01*
X109774214Y-58280499D01*
X109844286Y-58270291D01*
X109844290Y-58270289D01*
X109844291Y-58270289D01*
X109952372Y-58217451D01*
X109952375Y-58217449D01*
X110037447Y-58132377D01*
X110037449Y-58132375D01*
X110037450Y-58132372D01*
X110039083Y-58130087D01*
X110042120Y-58127704D01*
X110044715Y-58125110D01*
X110045028Y-58125423D01*
X110094058Y-58086966D01*
X110163620Y-58080411D01*
X110225682Y-58112505D01*
X110240917Y-58130087D01*
X110242552Y-58132377D01*
X110327624Y-58217449D01*
X110327627Y-58217451D01*
X110431201Y-58268084D01*
X110435714Y-58270291D01*
X110505785Y-58280500D01*
X110969214Y-58280499D01*
X111039286Y-58270291D01*
X111039288Y-58270289D01*
X111048815Y-58268902D01*
X111049352Y-58272589D01*
X111100845Y-58271841D01*
X111160166Y-58308758D01*
X111190111Y-58371885D01*
X111181173Y-58441181D01*
X111155323Y-58478994D01*
X110939530Y-58694787D01*
X110930964Y-58709625D01*
X110928541Y-58713823D01*
X110924693Y-58720488D01*
X110924691Y-58720490D01*
X110893388Y-58774706D01*
X110893387Y-58774709D01*
X110869500Y-58863856D01*
X110869500Y-59423456D01*
X110860855Y-59452896D01*
X110854332Y-59482883D01*
X110850577Y-59487898D01*
X110849815Y-59490495D01*
X110833181Y-59511137D01*
X110711137Y-59633181D01*
X110649814Y-59666666D01*
X110623456Y-59669500D01*
X110556012Y-59669500D01*
X110488973Y-59649815D01*
X110443218Y-59597011D01*
X110434395Y-59569692D01*
X110423867Y-59516770D01*
X110423867Y-59516769D01*
X110379552Y-59450447D01*
X110313230Y-59406132D01*
X110313229Y-59406131D01*
X110254752Y-59394500D01*
X110254748Y-59394500D01*
X109365252Y-59394500D01*
X109365247Y-59394500D01*
X109306770Y-59406131D01*
X109306769Y-59406132D01*
X109240447Y-59450447D01*
X109196132Y-59516769D01*
X109196131Y-59516770D01*
X109184500Y-59575247D01*
X109184500Y-59876000D01*
X109164815Y-59943039D01*
X109112011Y-59988794D01*
X109060500Y-60000000D01*
X105051362Y-60000000D01*
X104984323Y-59980315D01*
X104963681Y-59963681D01*
X102087681Y-57087681D01*
X102054196Y-57026358D01*
X102059180Y-56956666D01*
X102087681Y-56912319D01*
X104963681Y-54036319D01*
X105025004Y-54002834D01*
X105051362Y-54000000D01*
X111948638Y-54000000D01*
X112015677Y-54019685D01*
G37*
%TD.AperFunction*%
%TA.AperFunction,Conductor*%
G36*
X113193811Y-57800974D02*
G01*
X113193818Y-57800907D01*
X113194630Y-57800986D01*
X113197473Y-57801028D01*
X113199414Y-57801412D01*
X113199415Y-57801413D01*
X113199854Y-57801500D01*
X113199859Y-57801500D01*
X113626428Y-57801500D01*
X113693467Y-57821185D01*
X113739222Y-57873989D01*
X113750409Y-57923325D01*
X113756267Y-58257297D01*
X113752581Y-58272417D01*
X113753558Y-58285339D01*
X113744570Y-58305277D01*
X113741358Y-58318458D01*
X113737188Y-58326167D01*
X113691730Y-58387632D01*
X113639973Y-58505930D01*
X113637515Y-58510477D01*
X113617506Y-58530648D01*
X113597841Y-58554253D01*
X112973398Y-58975956D01*
X112973803Y-59003497D01*
X112942007Y-59057992D01*
X112036319Y-59963681D01*
X111974996Y-59997166D01*
X111948638Y-60000000D01*
X111625877Y-60000000D01*
X111558838Y-59980315D01*
X111513083Y-59927511D01*
X111503139Y-59858353D01*
X111518490Y-59813999D01*
X111546614Y-59765288D01*
X111570500Y-59676144D01*
X111570500Y-59106544D01*
X111590185Y-59039505D01*
X111606819Y-59018863D01*
X112438862Y-58186820D01*
X112500185Y-58153335D01*
X112526543Y-58150501D01*
X112761143Y-58150501D01*
X112761145Y-58150501D01*
X112850289Y-58126615D01*
X112930213Y-58080470D01*
X112995470Y-58015213D01*
X113041615Y-57935289D01*
X113053597Y-57890569D01*
X113089959Y-57830911D01*
X113152806Y-57800380D01*
X113193811Y-57800974D01*
G37*
%TD.AperFunction*%
%TA.AperFunction,Conductor*%
G36*
X113137774Y-56604071D02*
G01*
X113185384Y-56655208D01*
X113198500Y-56710712D01*
X113198500Y-57123671D01*
X113178815Y-57190710D01*
X113126011Y-57236465D01*
X113056853Y-57246409D01*
X112993297Y-57217384D01*
X112967113Y-57185671D01*
X112955463Y-57165493D01*
X112955459Y-57165488D01*
X112899513Y-57109542D01*
X112899505Y-57109536D01*
X112830996Y-57069983D01*
X112830993Y-57069981D01*
X112830990Y-57069980D01*
X112830986Y-57069979D01*
X112830984Y-57069978D01*
X112821917Y-57067548D01*
X112762258Y-57031181D01*
X112731732Y-56968332D01*
X112740030Y-56898957D01*
X112784518Y-56845081D01*
X112806560Y-56833215D01*
X112856898Y-56812365D01*
X112927365Y-56741898D01*
X112959939Y-56663259D01*
X113003781Y-56608855D01*
X113070075Y-56586791D01*
X113137774Y-56604071D01*
G37*
%TD.AperFunction*%
%TA.AperFunction,Conductor*%
G36*
X125006922Y-46001280D02*
G01*
X125093326Y-46011015D01*
X125111523Y-46014458D01*
X125122954Y-46017521D01*
X125131804Y-46020251D01*
X125203540Y-46045352D01*
X125228549Y-46057395D01*
X125299606Y-46102043D01*
X125321313Y-46119355D01*
X125380644Y-46178686D01*
X125397957Y-46200395D01*
X125442599Y-46271443D01*
X125442601Y-46271445D01*
X125454648Y-46296463D01*
X125454649Y-46296465D01*
X125479746Y-46368193D01*
X125482478Y-46377049D01*
X125485538Y-46388468D01*
X125488984Y-46406679D01*
X125498720Y-46493077D01*
X125499500Y-46506962D01*
X125499500Y-54876000D01*
X125479815Y-54943039D01*
X125427011Y-54988794D01*
X125375500Y-55000000D01*
X120399999Y-55000000D01*
X115459999Y-56500000D01*
X115462227Y-56574253D01*
X115444561Y-56641853D01*
X115406247Y-56681687D01*
X115397570Y-56687372D01*
X115387496Y-56691789D01*
X115341873Y-56719334D01*
X115334295Y-56728835D01*
X115317692Y-56739716D01*
X115302493Y-56744325D01*
X115289494Y-56753451D01*
X115252103Y-56759608D01*
X115250830Y-56759995D01*
X115250436Y-56759883D01*
X115249728Y-56760000D01*
X114925500Y-56760000D01*
X114858461Y-56740315D01*
X114812706Y-56687511D01*
X114801500Y-56636000D01*
X114801500Y-56199858D01*
X114801500Y-56199854D01*
X114801413Y-56199415D01*
X114801081Y-56198919D01*
X114801080Y-56198918D01*
X114800587Y-56198588D01*
X114800583Y-56198586D01*
X114800148Y-56198500D01*
X114800146Y-56198500D01*
X114364000Y-56198500D01*
X114296961Y-56178815D01*
X114251206Y-56126011D01*
X114240000Y-56074500D01*
X114240000Y-55752808D01*
X114259685Y-55685769D01*
X114264022Y-55679457D01*
X114277356Y-55661281D01*
X114310011Y-55616774D01*
X114384991Y-55443583D01*
X114429383Y-55390092D01*
X114990189Y-55011368D01*
X115034547Y-54981412D01*
X115056901Y-54943098D01*
X116000000Y-54000000D01*
X115950000Y-51810000D01*
X113890000Y-49120000D01*
X111850000Y-48060000D01*
X111849997Y-48059999D01*
X111849996Y-48059999D01*
X106000000Y-47999999D01*
X104000003Y-48999998D01*
X103999999Y-49000000D01*
X98036319Y-54963681D01*
X97974996Y-54997166D01*
X97948638Y-55000000D01*
X87624500Y-55000000D01*
X87557461Y-54980315D01*
X87511706Y-54927511D01*
X87500500Y-54876000D01*
X87500500Y-46506960D01*
X87501280Y-46493077D01*
X87506854Y-46443607D01*
X87511015Y-46406676D01*
X87514455Y-46388487D01*
X87517528Y-46377020D01*
X87520252Y-46368193D01*
X87545355Y-46296452D01*
X87557393Y-46271453D01*
X87602046Y-46200389D01*
X87619350Y-46178691D01*
X87678691Y-46119350D01*
X87700389Y-46102046D01*
X87771453Y-46057393D01*
X87796452Y-46045355D01*
X87868210Y-46020246D01*
X87877020Y-46017528D01*
X87888487Y-46014455D01*
X87906670Y-46011016D01*
X87993078Y-46001279D01*
X88006960Y-46000500D01*
X124993039Y-46000500D01*
X125006922Y-46001280D01*
G37*
%TD.AperFunction*%
%TD*%
M02*
