%TF.GenerationSoftware,KiCad,Pcbnew,9.0.8*%
%TF.CreationDate,2026-06-26T13:09:39-05:00*%
%TF.ProjectId,pwm_radar,70776d5f-7261-4646-9172-2e6b69636164,rev?*%
%TF.SameCoordinates,Original*%
%TF.FileFunction,Copper,L1,Top*%
%TF.FilePolarity,Positive*%
%FSLAX46Y46*%
G04 Gerber Fmt 4.6, Leading zero omitted, Abs format (unit mm)*
G04 Created by KiCad (PCBNEW 9.0.8) date 2026-06-26 13:09:39*
%MOMM*%
%LPD*%
G01*
G04 APERTURE LIST*
G04 Aperture macros list*
%AMRoundRect*
0 Rectangle with rounded corners*
0 $1 Rounding radius*
0 $2 $3 $4 $5 $6 $7 $8 $9 X,Y pos of 4 corners*
0 Add a 4 corners polygon primitive as box body*
4,1,4,$2,$3,$4,$5,$6,$7,$8,$9,$2,$3,0*
0 Add four circle primitives for the rounded corners*
1,1,$1+$1,$2,$3*
1,1,$1+$1,$4,$5*
1,1,$1+$1,$6,$7*
1,1,$1+$1,$8,$9*
0 Add four rect primitives between the rounded corners*
20,1,$1+$1,$2,$3,$4,$5,0*
20,1,$1+$1,$4,$5,$6,$7,0*
20,1,$1+$1,$6,$7,$8,$9,0*
20,1,$1+$1,$8,$9,$2,$3,0*%
G04 Aperture macros list end*
%TA.AperFunction,Conductor*%
%ADD10C,0.000010*%
%TD*%
%TA.AperFunction,Conductor*%
%ADD11C,0.000000*%
%TD*%
%TA.AperFunction,Conductor*%
%ADD12C,0.000100*%
%TD*%
%TA.AperFunction,SMDPad,CuDef*%
%ADD13R,0.660400X0.203200*%
%TD*%
%TA.AperFunction,SMDPad,CuDef*%
%ADD14R,0.609600X1.193800*%
%TD*%
%TA.AperFunction,ConnectorPad*%
%ADD15R,5.200000X0.400000*%
%TD*%
%TA.AperFunction,ComponentPad*%
%ADD16R,5.000000X6.000000*%
%TD*%
%TA.AperFunction,SMDPad,CuDef*%
%ADD17RoundRect,0.160000X0.197500X0.160000X-0.197500X0.160000X-0.197500X-0.160000X0.197500X-0.160000X0*%
%TD*%
%TA.AperFunction,SMDPad,CuDef*%
%ADD18R,0.400000X0.250000*%
%TD*%
%TA.AperFunction,SMDPad,CuDef*%
%ADD19R,0.250000X0.400000*%
%TD*%
%TA.AperFunction,SMDPad,CuDef*%
%ADD20R,1.600000X1.600000*%
%TD*%
%TA.AperFunction,ComponentPad*%
%ADD21R,0.850000X0.850000*%
%TD*%
%TA.AperFunction,ViaPad*%
%ADD22C,0.600000*%
%TD*%
%TA.AperFunction,ViaPad*%
%ADD23C,0.700000*%
%TD*%
%TA.AperFunction,Conductor*%
%ADD24C,0.200000*%
%TD*%
%TA.AperFunction,Conductor*%
%ADD25C,1.100000*%
%TD*%
%TA.AperFunction,Conductor*%
%ADD26C,1.000000*%
%TD*%
%TA.AperFunction,Conductor*%
%ADD27C,0.500000*%
%TD*%
%TA.AperFunction,Conductor*%
%ADD28C,0.100000*%
%TD*%
%TA.AperFunction,Conductor*%
%ADD29C,0.300000*%
%TD*%
G04 APERTURE END LIST*
D10*
%TO.N,Net-(J1-In)*%
X97280000Y-56900000D02*
X97280000Y-57100000D01*
X95990000Y-57510000D01*
X95970000Y-56530000D01*
X97280000Y-56900000D01*
%TA.AperFunction,Conductor*%
G36*
X97280000Y-56900000D02*
G01*
X97280000Y-57100000D01*
X95990000Y-57510000D01*
X95970000Y-56530000D01*
X97280000Y-56900000D01*
G37*
%TD.AperFunction*%
D11*
%TA.AperFunction,Conductor*%
%TO.N,GND*%
G36*
X115480000Y-56730000D02*
G01*
X115080000Y-56730000D01*
X115040000Y-56170000D01*
X115690000Y-56150000D01*
X115480000Y-56730000D01*
G37*
%TD.AperFunction*%
D12*
%TO.N,RF1+*%
X100380000Y-56330000D02*
X100030000Y-56500000D01*
X98750000Y-56440000D01*
X98750000Y-56240000D01*
X99620000Y-55680000D01*
X100380000Y-56330000D01*
%TA.AperFunction,Conductor*%
G36*
X100380000Y-56330000D02*
G01*
X100030000Y-56500000D01*
X98750000Y-56440000D01*
X98750000Y-56240000D01*
X99620000Y-55680000D01*
X100380000Y-56330000D01*
G37*
%TD.AperFunction*%
%TO.N,RF1-*%
X100370000Y-57670000D02*
X99620000Y-58320000D01*
X98750000Y-57760000D01*
X98750000Y-57560000D01*
X100030000Y-57500000D01*
X100370000Y-57670000D01*
%TA.AperFunction,Conductor*%
G36*
X100370000Y-57670000D02*
G01*
X99620000Y-58320000D01*
X98750000Y-57760000D01*
X98750000Y-57560000D01*
X100030000Y-57500000D01*
X100370000Y-57670000D01*
G37*
%TD.AperFunction*%
D11*
%TA.AperFunction,Conductor*%
%TO.N,RF1+*%
G36*
X114470000Y-54730000D02*
G01*
X114121426Y-55535128D01*
X113881426Y-55535128D01*
X113561426Y-54805128D01*
X113511426Y-54645128D01*
X114470000Y-54730000D01*
G37*
%TD.AperFunction*%
%TA.AperFunction,Conductor*%
%TO.N,GND*%
G36*
X115090000Y-55780000D02*
G01*
X114850000Y-55960000D01*
X114280000Y-55910000D01*
X114280000Y-55520000D01*
X114720000Y-55440000D01*
X115090000Y-55780000D01*
G37*
%TD.AperFunction*%
%TA.AperFunction,Conductor*%
G36*
X114990000Y-58130000D02*
G01*
X114650000Y-58490000D01*
X114280000Y-58480000D01*
X114280000Y-58090000D01*
X114800000Y-58040000D01*
X114990000Y-58130000D01*
G37*
%TD.AperFunction*%
%TA.AperFunction,Conductor*%
%TO.N,RF1-*%
G36*
X114440000Y-59200000D02*
G01*
X114490000Y-59360000D01*
X113530000Y-59270000D01*
X113880000Y-58470000D01*
X114120000Y-58470000D01*
X114440000Y-59200000D01*
G37*
%TD.AperFunction*%
%TA.AperFunction,Conductor*%
%TO.N,GND*%
G36*
X115610000Y-57770000D02*
G01*
X115300000Y-58170000D01*
X115070000Y-57930000D01*
X115090000Y-57280000D01*
X115490000Y-57280000D01*
X115610000Y-57770000D01*
G37*
%TD.AperFunction*%
%TA.AperFunction,Conductor*%
%TO.N,Net-(J6-In)*%
G36*
X116275128Y-57468574D02*
G01*
X115470000Y-57120000D01*
X115470000Y-56880000D01*
X116200000Y-56560000D01*
X116360000Y-56510000D01*
X116275128Y-57468574D01*
G37*
%TD.AperFunction*%
%TA.AperFunction,Conductor*%
%TO.N,GND*%
G36*
X113700000Y-58090000D02*
G01*
X113710000Y-58480000D01*
X113350000Y-58480000D01*
X113120000Y-58430000D01*
X113120000Y-58050000D01*
X113240000Y-58040000D01*
X113700000Y-58090000D01*
G37*
%TD.AperFunction*%
%TA.AperFunction,Conductor*%
G36*
X113720000Y-55520000D02*
G01*
X113720000Y-55910000D01*
X113140000Y-55960000D01*
X113060000Y-55920000D01*
X112810000Y-55670000D01*
X113090000Y-55260000D01*
X113720000Y-55520000D01*
G37*
%TD.AperFunction*%
%TD*%
D13*
%TO.P,U1,1,GND*%
%TO.N,GND*%
X97044200Y-56339600D03*
%TO.P,U1,2,Primary*%
%TO.N,Net-(J1-In)*%
X97044200Y-57000000D03*
%TO.P,U1,3,GND*%
%TO.N,GND*%
X97044200Y-57660400D03*
%TO.P,U1,4,Secondary*%
%TO.N,RF1-*%
X99000000Y-57660400D03*
%TO.P,U1,5,NC*%
%TO.N,GND*%
X99000000Y-57000000D03*
%TO.P,U1,6,Secondary_Dot*%
%TO.N,RF1+*%
X99000000Y-56339600D03*
D14*
%TO.P,U1,7,GND_PAD*%
%TO.N,GND*%
X98022100Y-57000000D03*
%TD*%
D15*
%TO.P,J5,1,In*%
%TO.N,Net-(J4-In)*%
X89500000Y-76000000D03*
D16*
%TO.P,J5,2,Ext*%
%TO.N,GND*%
X89500000Y-71975000D03*
X89500000Y-80025000D03*
%TD*%
D17*
%TO.P,R2,1*%
%TO.N,EN*%
X110737500Y-57760000D03*
%TO.P,R2,2*%
%TO.N,Net-(J7-Pin_1)*%
X109542500Y-57760000D03*
%TD*%
D18*
%TO.P,U2,1,GND*%
%TO.N,GND*%
X115284999Y-57800001D03*
%TO.P,U2,2,GND*%
X115284999Y-57399999D03*
%TO.P,U2,3,RFC*%
%TO.N,Net-(J6-In)*%
X115284999Y-57000000D03*
%TO.P,U2,4,GND*%
%TO.N,GND*%
X115284999Y-56600001D03*
%TO.P,U2,5,GND*%
X115284999Y-56199999D03*
D19*
%TO.P,U2,6,GND*%
X114800001Y-55715001D03*
%TO.P,U2,7,GND*%
X114399999Y-55715001D03*
%TO.P,U2,8,RF1*%
%TO.N,RF1+*%
X114000000Y-55715001D03*
%TO.P,U2,9,GND*%
%TO.N,GND*%
X113600001Y-55715001D03*
%TO.P,U2,10,GND*%
X113199999Y-55715001D03*
D18*
%TO.P,U2,11,VDD*%
%TO.N,VDD*%
X112715001Y-56199999D03*
%TO.P,U2,12,CTRL*%
%TO.N,CTRL*%
X112715001Y-56600001D03*
%TO.P,U2,13,GND*%
%TO.N,GND*%
X112715001Y-57000000D03*
%TO.P,U2,14,EN*%
%TO.N,EN*%
X112715001Y-57399999D03*
%TO.P,U2,15,VSS*%
%TO.N,VSS*%
X112715001Y-57800001D03*
D19*
%TO.P,U2,16,GND*%
%TO.N,GND*%
X113199999Y-58284999D03*
%TO.P,U2,17,GND*%
X113600001Y-58284999D03*
%TO.P,U2,18,RF2*%
%TO.N,RF1-*%
X114000000Y-58284999D03*
%TO.P,U2,19,GND*%
%TO.N,GND*%
X114399999Y-58284999D03*
%TO.P,U2,20,GND*%
X114800001Y-58284999D03*
D20*
%TO.P,U2,21*%
X114000000Y-57000000D03*
%TD*%
D15*
%TO.P,J1,1,In*%
%TO.N,Net-(J1-In)*%
X90000000Y-57025000D03*
D16*
%TO.P,J1,2,Ext*%
%TO.N,GND*%
X90000000Y-53000000D03*
X90000000Y-61050000D03*
%TD*%
D15*
%TO.P,J6,1,In*%
%TO.N,Net-(J6-In)*%
X123000000Y-57000000D03*
D16*
%TO.P,J6,2,Ext*%
%TO.N,GND*%
X123000000Y-61025000D03*
X123000000Y-52975000D03*
%TD*%
D15*
%TO.P,J4,1,In*%
%TO.N,Net-(J4-In)*%
X123500000Y-76000000D03*
D16*
%TO.P,J4,2,Ext*%
%TO.N,GND*%
X123500000Y-80025000D03*
X123500000Y-71975000D03*
%TD*%
D17*
%TO.P,R1,1*%
%TO.N,CTRL*%
X108017500Y-56630000D03*
%TO.P,R1,2*%
%TO.N,Net-(J2-Pin_1)*%
X106822500Y-56630000D03*
%TD*%
D21*
%TO.P,J8,1,Pin_1*%
%TO.N,VSS*%
X109900000Y-59300000D03*
%TD*%
%TO.P,J2,1,Pin_1*%
%TO.N,Net-(J2-Pin_1)*%
X104920000Y-56680000D03*
%TD*%
%TO.P,J3,1,Pin_1*%
%TO.N,VDD*%
X109890000Y-55630000D03*
%TD*%
%TO.P,J7,1,Pin_1*%
%TO.N,Net-(J7-Pin_1)*%
X107400000Y-58360000D03*
%TD*%
D22*
%TO.N,GND*%
X96278272Y-55225863D03*
X96790848Y-55664332D03*
X96700000Y-58200000D03*
X96200000Y-58600000D03*
X95800000Y-59100000D03*
X97200000Y-59500000D03*
D23*
X112000000Y-69000000D03*
X102000000Y-71000000D03*
X94383333Y-59500000D03*
D22*
X106000000Y-60200000D03*
D23*
X97000000Y-71000000D03*
D22*
X110900000Y-52900000D03*
D23*
X113062470Y-66046049D03*
X116000000Y-79000000D03*
X118000000Y-83000000D03*
X120900000Y-59500000D03*
D22*
X97140000Y-56180000D03*
X114000000Y-57000000D03*
D23*
X89300000Y-78500000D03*
X112085722Y-66377824D03*
X112291458Y-47673444D03*
X110000000Y-79000000D03*
D22*
X97250000Y-57770000D03*
D23*
X104000000Y-81000000D03*
X89040000Y-54570000D03*
X108000000Y-66500000D03*
X110000000Y-81000000D03*
X124020000Y-54500000D03*
X96000000Y-79000000D03*
X98232233Y-59767767D03*
X99000000Y-73000000D03*
X115000000Y-71000000D03*
X108000000Y-47500000D03*
D22*
X116060000Y-58910000D03*
D23*
X111000000Y-83000000D03*
X106000000Y-66400000D03*
X116499247Y-61061374D03*
X109000000Y-73000000D03*
X102000000Y-73000000D03*
X88070000Y-54570000D03*
X95000000Y-81000000D03*
X110000000Y-47500000D03*
X120800000Y-54500000D03*
X104000000Y-73000000D03*
X112000000Y-79000000D03*
X119200000Y-79000000D03*
D22*
X109500000Y-52900000D03*
D23*
X93300000Y-59500000D03*
X105000000Y-69000000D03*
X118000000Y-79000000D03*
X98000000Y-71000000D03*
D22*
X115870000Y-58020000D03*
D23*
X99000000Y-81000000D03*
X108000000Y-69000000D03*
X111061353Y-66499245D03*
X93600000Y-73400000D03*
X103000000Y-73000000D03*
X105095579Y-66115910D03*
X120300000Y-73500000D03*
X103000000Y-83000000D03*
D22*
X115600000Y-55100000D03*
D23*
X96000000Y-73000000D03*
X89200000Y-59500000D03*
X94000000Y-81000000D03*
X105000000Y-71000000D03*
X111000000Y-73000000D03*
X113800000Y-65600000D03*
X103569055Y-48896472D03*
X117000000Y-83000000D03*
X106000000Y-83000000D03*
X101256743Y-51207722D03*
X109000000Y-71000000D03*
X97000000Y-79000000D03*
X92600000Y-73400000D03*
D22*
X111600000Y-60900000D03*
D23*
X101000000Y-81000000D03*
X125340000Y-78630000D03*
D22*
X112000000Y-60300000D03*
D23*
X106000000Y-81000000D03*
D22*
X112200000Y-54800000D03*
X110400000Y-61600000D03*
D23*
X111000000Y-79000000D03*
X119400000Y-73300000D03*
D22*
X111400000Y-53400000D03*
D23*
X117000000Y-73000000D03*
X107000000Y-69000000D03*
X116499245Y-52938646D03*
X102000000Y-83000000D03*
D22*
X110200000Y-52900000D03*
D23*
X102012870Y-50451595D03*
X98000000Y-73000000D03*
X106938647Y-66499246D03*
X98988360Y-53476105D03*
X110000000Y-66500000D03*
X103569046Y-65103515D03*
X113439036Y-48148788D03*
X114000000Y-71000000D03*
X105000000Y-79000000D03*
X97000000Y-73000000D03*
X100000000Y-81000000D03*
D22*
X111800000Y-59300000D03*
D23*
X88240000Y-59500000D03*
X100500615Y-51963850D03*
X118000000Y-73000000D03*
D22*
X104840000Y-54910000D03*
D23*
X124700000Y-73410000D03*
D22*
X98100000Y-56200000D03*
X98100000Y-57000000D03*
D23*
X96000000Y-81000000D03*
X107000000Y-73000000D03*
X100000000Y-79000000D03*
X91083333Y-59500000D03*
X97000000Y-81000000D03*
X95000000Y-71000000D03*
X96000000Y-83000000D03*
X99000000Y-69000000D03*
X120400000Y-78433333D03*
X114000000Y-79000000D03*
X119750000Y-59500000D03*
X100000000Y-73000000D03*
D22*
X112500000Y-59600000D03*
D23*
X89900000Y-54600000D03*
X121883333Y-54500000D03*
X123566667Y-78600000D03*
X109000000Y-83000000D03*
X113000000Y-81000000D03*
D22*
X111500000Y-54500000D03*
D23*
X102700000Y-49700000D03*
X121400000Y-78600000D03*
D22*
X111200000Y-61600000D03*
D23*
X113000000Y-71000000D03*
X98000000Y-69000000D03*
X112000000Y-83000000D03*
X106800000Y-47600000D03*
X115851209Y-63439033D03*
X109000000Y-81000000D03*
X99000000Y-71000000D03*
D22*
X96400000Y-54600000D03*
D23*
X116000000Y-83000000D03*
X113000000Y-83000000D03*
X95300000Y-59500000D03*
X108000000Y-83000000D03*
D22*
X97300000Y-54600000D03*
D23*
X102000000Y-69000000D03*
X116000000Y-69000000D03*
D22*
X104940000Y-59010000D03*
D23*
X115000000Y-83000000D03*
X92600000Y-78533333D03*
X124920000Y-59530000D03*
X93300000Y-54600000D03*
X88350000Y-78490000D03*
D22*
X106600000Y-53400000D03*
X116600000Y-58400000D03*
X112600000Y-58700000D03*
D23*
X94000000Y-71000000D03*
X99000000Y-83000000D03*
X106000000Y-73000000D03*
X105000000Y-83000000D03*
X90000000Y-59500000D03*
X97000000Y-83000000D03*
X113000000Y-69000000D03*
X88400000Y-73420000D03*
X111000000Y-71000000D03*
X102000000Y-81000000D03*
X100500615Y-62036149D03*
X109000000Y-66500000D03*
X113000000Y-73000000D03*
D22*
X114500000Y-56600000D03*
D23*
X100000000Y-71000000D03*
X110000000Y-69000000D03*
X104000000Y-79000000D03*
X111000000Y-69000000D03*
D22*
X107200000Y-61200000D03*
D23*
X115000000Y-73000000D03*
D22*
X106100000Y-54000000D03*
D23*
X95466667Y-54600000D03*
X107000000Y-81000000D03*
X100000000Y-69000000D03*
X96000000Y-71000000D03*
X112000000Y-71000000D03*
X98988360Y-60523894D03*
X116000000Y-71000000D03*
D22*
X98100000Y-58700000D03*
D23*
X93700000Y-79000000D03*
D22*
X102740000Y-57010000D03*
D23*
X87540000Y-73430000D03*
X114000000Y-73000000D03*
X108000000Y-81000000D03*
D22*
X111470000Y-57160000D03*
X99700000Y-57000000D03*
X115400000Y-58700000D03*
D23*
X103000000Y-71000000D03*
X115000000Y-81000000D03*
X94800000Y-79000000D03*
D22*
X99000000Y-57000000D03*
X111800000Y-53900000D03*
D23*
X105095580Y-66115910D03*
D22*
X98100000Y-55400000D03*
D23*
X122683333Y-73400000D03*
X101000000Y-79000000D03*
D22*
X116800000Y-55600000D03*
D23*
X91466667Y-78500000D03*
X115103515Y-49569046D03*
X116326549Y-62291466D03*
D22*
X114500000Y-57500000D03*
D23*
X122966667Y-54500000D03*
X125500000Y-73420000D03*
D22*
X108000000Y-52900000D03*
D23*
X111061353Y-47500751D03*
X117000000Y-79000000D03*
X115103514Y-64430952D03*
X98000000Y-83000000D03*
X107000000Y-79000000D03*
D22*
X109600000Y-61600000D03*
D23*
X115000000Y-79000000D03*
X116000000Y-73000000D03*
X105000000Y-81000000D03*
X102700000Y-64400000D03*
D22*
X112800000Y-55200000D03*
D23*
X91366667Y-73400000D03*
X123766667Y-73400000D03*
X117000000Y-69000000D03*
X122483333Y-78600000D03*
D22*
X113500000Y-56500000D03*
D23*
X98000000Y-79000000D03*
X114430964Y-48896494D03*
X94600000Y-73400000D03*
X104300000Y-65700000D03*
X123990000Y-59530000D03*
X92166667Y-59500000D03*
X124940000Y-54520000D03*
X90383333Y-78500000D03*
X109000000Y-69000000D03*
X116000000Y-81000000D03*
X90283333Y-73400000D03*
X108000000Y-71000000D03*
X119750000Y-54500000D03*
D22*
X96400000Y-59500000D03*
D23*
X108000000Y-73000000D03*
X109000000Y-47500000D03*
X109000000Y-79000000D03*
X111000000Y-81000000D03*
D22*
X103340000Y-56410000D03*
D23*
X99000000Y-79000000D03*
X104000000Y-83000000D03*
X107000000Y-83000000D03*
D22*
X104140000Y-58310000D03*
X116500000Y-60300000D03*
D23*
X103000000Y-69000000D03*
X104497617Y-48184929D03*
D22*
X103540000Y-57610000D03*
X100500000Y-57000000D03*
D23*
X104000000Y-71000000D03*
X101000000Y-83000000D03*
X114000000Y-83000000D03*
X102000000Y-79000000D03*
X92066667Y-54600000D03*
X112000000Y-81000000D03*
X124390000Y-78610000D03*
D22*
X106500000Y-60800000D03*
D23*
X112000000Y-73000000D03*
X117583333Y-54500000D03*
X110000000Y-71000000D03*
X116500000Y-59500000D03*
X115000000Y-69000000D03*
X118666666Y-59500000D03*
D22*
X108800000Y-52900000D03*
D23*
X100000000Y-83000000D03*
X113062469Y-66046049D03*
X114000000Y-81000000D03*
D22*
X107300000Y-52900000D03*
D23*
X107000000Y-71000000D03*
D22*
X108000000Y-61500000D03*
D23*
X110000000Y-73000000D03*
X117583333Y-59500000D03*
D22*
X105540000Y-54510000D03*
D23*
X113000000Y-79000000D03*
X118000000Y-69000000D03*
X94383333Y-54600000D03*
X99744488Y-52719977D03*
X116500000Y-54500000D03*
X99744488Y-61280022D03*
X114430953Y-65103514D03*
D22*
X105540000Y-59610000D03*
D23*
X121600000Y-73400000D03*
X89200000Y-73400000D03*
D22*
X98100000Y-58000000D03*
D23*
X105568181Y-47713215D03*
X110000000Y-83000000D03*
X98000000Y-81000000D03*
D22*
X104140000Y-55610000D03*
X108800000Y-61600000D03*
X110907500Y-54160000D03*
D23*
X106000000Y-69000000D03*
X101000000Y-69000000D03*
X98232233Y-54232233D03*
X102012870Y-63548404D03*
X103000000Y-79000000D03*
X116326553Y-51708545D03*
X115851213Y-50560971D03*
X123066667Y-59500000D03*
X118666666Y-54500000D03*
D22*
X101400000Y-57000000D03*
D23*
X101000000Y-73000000D03*
X106000000Y-71000000D03*
D22*
X113600000Y-57500000D03*
D23*
X87410000Y-78490000D03*
X114000000Y-69000000D03*
X101256743Y-62792277D03*
X104000000Y-69000000D03*
X90983333Y-54600000D03*
D22*
X116000000Y-55900000D03*
D23*
X106000000Y-79000000D03*
X103000000Y-81000000D03*
X101000000Y-71000000D03*
X121983333Y-59500000D03*
X96000000Y-69000000D03*
X108000000Y-79000000D03*
X105000000Y-73000000D03*
X97000000Y-69000000D03*
%TD*%
D24*
%TO.N,GND*%
X97046667Y-56180000D02*
X95466667Y-54600000D01*
X97140000Y-56180000D02*
X97046667Y-56180000D01*
D25*
%TO.N,Net-(J4-In)*%
X89500000Y-76000000D02*
X92800000Y-76000000D01*
%TO.N,Net-(J1-In)*%
X89760000Y-57030000D02*
X88060000Y-57030000D01*
X89760000Y-57030000D02*
X93060000Y-57030000D01*
%TO.N,Net-(J6-In)*%
X121750000Y-57000000D02*
X120050000Y-57000000D01*
X121750000Y-57000000D02*
X125050000Y-57000000D01*
%TO.N,Net-(J4-In)*%
X123850000Y-76000000D02*
X125550000Y-76000000D01*
X123850000Y-76000000D02*
X120550000Y-76000000D01*
X89500000Y-76000000D02*
X87800000Y-76000000D01*
D26*
X92800000Y-76000000D02*
X123500000Y-76000000D01*
D24*
%TO.N,GND*%
X95300000Y-59200000D02*
X95300000Y-59300000D01*
X96839600Y-57660400D02*
X95300000Y-59200000D01*
X97044200Y-57660400D02*
X96839600Y-57660400D01*
D27*
X98100000Y-57000000D02*
X98100000Y-56200000D01*
X115600000Y-55100000D02*
X115415002Y-55100000D01*
X115415002Y-55100000D02*
X114800001Y-55715001D01*
X98100000Y-58000000D02*
X98100000Y-58700000D01*
X100500000Y-57000000D02*
X101400000Y-57000000D01*
X115584998Y-55900000D02*
X115284999Y-56199999D01*
X115215002Y-58700000D02*
X114800001Y-58284999D01*
X112800000Y-55315002D02*
X113199999Y-55715001D01*
X115400000Y-58700000D02*
X115215002Y-58700000D01*
D28*
X111550000Y-57160000D02*
X111730000Y-56980000D01*
D24*
X102730000Y-57000000D02*
X102740000Y-57010000D01*
D28*
X111470000Y-57160000D02*
X111550000Y-57160000D01*
D27*
X115504998Y-58020000D02*
X115284999Y-57800001D01*
X116000000Y-55900000D02*
X115584998Y-55900000D01*
D24*
X98100000Y-54364466D02*
X98232233Y-54232233D01*
D27*
X99000000Y-57000000D02*
X99700000Y-57000000D01*
X101400000Y-57000000D02*
X102730000Y-57000000D01*
X115870000Y-58020000D02*
X115504998Y-58020000D01*
D28*
X111730000Y-56980000D02*
X112310000Y-56980000D01*
D27*
X112600000Y-58700000D02*
X112784998Y-58700000D01*
X99700000Y-57000000D02*
X100500000Y-57000000D01*
X98100000Y-55400000D02*
X98100000Y-54364466D01*
D28*
X112310000Y-56980000D02*
X112330000Y-57000000D01*
D27*
X98100000Y-58700000D02*
X98100000Y-59635534D01*
D24*
X98100000Y-59635534D02*
X98232233Y-59767767D01*
D27*
X112784998Y-58700000D02*
X113199999Y-58284999D01*
X98100000Y-57000000D02*
X98100000Y-58000000D01*
X112800000Y-55200000D02*
X112800000Y-55315002D01*
D28*
X112330000Y-57000000D02*
X112715001Y-57000000D01*
D27*
X98100000Y-56200000D02*
X98100000Y-55400000D01*
D29*
%TO.N,VDD*%
X109890000Y-55630000D02*
X112235001Y-55630000D01*
X112235001Y-55630000D02*
X112715001Y-56110000D01*
%TO.N,VSS*%
X112715001Y-57800001D02*
X112329999Y-57800001D01*
X112329999Y-57800001D02*
X110830000Y-59300000D01*
X110830000Y-59300000D02*
X109900000Y-59300000D01*
%TO.N,Net-(J2-Pin_1)*%
X106772500Y-56680000D02*
X106822500Y-56630000D01*
X104920000Y-56680000D02*
X106772500Y-56680000D01*
%TO.N,Net-(J7-Pin_1)*%
X108942500Y-58360000D02*
X109542500Y-57760000D01*
X107400000Y-58360000D02*
X108942500Y-58360000D01*
D28*
%TO.N,CTRL*%
X109640000Y-56510000D02*
X112625000Y-56510000D01*
X108017500Y-56630000D02*
X108098500Y-56549000D01*
X112625000Y-56510000D02*
X112715001Y-56600001D01*
X109520000Y-56630000D02*
X109640000Y-56510000D01*
X108017500Y-56630000D02*
X109520000Y-56630000D01*
D24*
%TO.N,EN*%
X110737500Y-57760000D02*
X111718529Y-57760000D01*
X111718529Y-57760000D02*
X112128528Y-57350001D01*
X112128528Y-57350001D02*
X112715001Y-57350001D01*
D26*
%TO.N,Net-(J1-In)*%
X91000000Y-57025000D02*
X95975000Y-57025000D01*
X90075000Y-57025000D02*
X91000000Y-57025000D01*
X90075000Y-57025000D02*
X88025000Y-57025000D01*
%TO.N,Net-(J4-In)*%
X123500000Y-76000000D02*
X125499000Y-76000000D01*
%TO.N,Net-(J6-In)*%
X123000000Y-57000000D02*
X125000000Y-57000000D01*
X123000000Y-57000000D02*
X116420000Y-57000000D01*
%TO.N,RF1-*%
X114000000Y-61000000D02*
X114000000Y-59440000D01*
X107000000Y-64000000D02*
X111000000Y-64000000D01*
X105292893Y-63292893D02*
X100000000Y-58000000D01*
X112707106Y-63292892D02*
X113292893Y-62707106D01*
X111000000Y-64000000D02*
X111000000Y-64000000D01*
X105292893Y-63292893D02*
G75*
G03*
X107000000Y-64000004I1707107J1707093D01*
G01*
X113292892Y-62707105D02*
G75*
G03*
X114000002Y-61000000I-1707092J1707105D01*
G01*
X112707106Y-63292892D02*
G75*
G02*
X111000000Y-64000003I-1707106J1707092D01*
G01*
%TO.N,RF1+*%
X111000000Y-50000000D02*
X111000000Y-50000000D01*
X107000000Y-50000000D02*
X111000000Y-50000000D01*
X113999998Y-54559998D02*
X114000000Y-54560000D01*
X113999998Y-53000000D02*
X113999998Y-54559998D01*
X113292893Y-51292893D02*
X112707106Y-50707106D01*
X105292893Y-50707106D02*
X100000000Y-56000000D01*
X112707106Y-50707106D02*
G75*
G03*
X111000000Y-49999996I-1707106J-1707094D01*
G01*
X107000000Y-50000000D02*
G75*
G03*
X105292896Y-50707109I0J-2414200D01*
G01*
X113292893Y-51292893D02*
G75*
G02*
X114000004Y-53000000I-1707093J-1707107D01*
G01*
%TD*%
%TA.AperFunction,Conductor*%
%TO.N,GND*%
G36*
X125692539Y-78019685D02*
G01*
X125738294Y-78072489D01*
X125749500Y-78124000D01*
X125749500Y-84490240D01*
X125747973Y-84509640D01*
X125740360Y-84557701D01*
X125739631Y-84559941D01*
X125739757Y-84561188D01*
X125728372Y-84594595D01*
X125710764Y-84629153D01*
X125687960Y-84660540D01*
X125660540Y-84687960D01*
X125629153Y-84710764D01*
X125594595Y-84728372D01*
X125557701Y-84740360D01*
X125524355Y-84745642D01*
X125509638Y-84747973D01*
X125490241Y-84749500D01*
X87509759Y-84749500D01*
X87490361Y-84747973D01*
X87471300Y-84744954D01*
X87442298Y-84740360D01*
X87405404Y-84728372D01*
X87370846Y-84710764D01*
X87339459Y-84687960D01*
X87312039Y-84660540D01*
X87289235Y-84629153D01*
X87271627Y-84594595D01*
X87259639Y-84557699D01*
X87252027Y-84509638D01*
X87250500Y-84490240D01*
X87250500Y-78124000D01*
X87270185Y-78056961D01*
X87322989Y-78011206D01*
X87374500Y-78000000D01*
X125625500Y-78000000D01*
X125692539Y-78019685D01*
G37*
%TD.AperFunction*%
%TA.AperFunction,Conductor*%
G36*
X125009639Y-46252027D02*
G01*
X125026026Y-46254622D01*
X125057700Y-46259639D01*
X125094595Y-46271627D01*
X125129153Y-46289235D01*
X125131061Y-46290621D01*
X125132286Y-46290888D01*
X125160540Y-46312039D01*
X125187960Y-46339459D01*
X125210764Y-46370846D01*
X125228372Y-46405404D01*
X125240360Y-46442297D01*
X125247973Y-46490356D01*
X125249500Y-46509757D01*
X125249500Y-54876000D01*
X125229815Y-54943039D01*
X125177011Y-54988794D01*
X125125500Y-55000000D01*
X120399999Y-55000000D01*
X115459999Y-56500000D01*
X115462227Y-56574253D01*
X115444561Y-56641853D01*
X115406247Y-56681687D01*
X115397570Y-56687372D01*
X115387496Y-56691789D01*
X115341873Y-56719334D01*
X115334295Y-56728835D01*
X115317692Y-56739716D01*
X115302493Y-56744325D01*
X115289494Y-56753451D01*
X115252103Y-56759608D01*
X115250830Y-56759995D01*
X115250436Y-56759883D01*
X115249728Y-56760000D01*
X114910000Y-56760000D01*
X114910000Y-57240000D01*
X115244077Y-57234138D01*
X115262075Y-57239082D01*
X115280741Y-57239013D01*
X115304624Y-57250769D01*
X115311448Y-57252644D01*
X115312900Y-57253555D01*
X115316320Y-57255735D01*
X115388354Y-57308585D01*
X115422267Y-57323267D01*
X115430589Y-57328572D01*
X115447335Y-57347754D01*
X115466904Y-57364042D01*
X115470011Y-57373727D01*
X115476540Y-57381205D01*
X115480055Y-57405028D01*
X115487882Y-57429418D01*
X115489999Y-57500000D01*
X117753668Y-58153335D01*
X120410000Y-58920000D01*
X125130134Y-59096452D01*
X125196390Y-59118627D01*
X125240140Y-59173103D01*
X125249500Y-59220365D01*
X125249500Y-68449830D01*
X125249578Y-68450224D01*
X125254397Y-68464423D01*
X125273384Y-68535282D01*
X125273386Y-68535286D01*
X125273386Y-68535287D01*
X125319530Y-68615212D01*
X125384788Y-68680470D01*
X125464713Y-68726614D01*
X125543419Y-68747703D01*
X125550172Y-68750500D01*
X125553858Y-68750500D01*
X125600003Y-68750500D01*
X125630134Y-68750500D01*
X125634747Y-68750845D01*
X125663289Y-68761596D01*
X125692539Y-68770185D01*
X125695663Y-68773790D01*
X125700132Y-68775474D01*
X125718334Y-68799954D01*
X125738294Y-68822989D01*
X125739465Y-68828373D01*
X125741822Y-68831543D01*
X125742584Y-68842709D01*
X125749500Y-68874500D01*
X125749500Y-73876000D01*
X125729815Y-73943039D01*
X125677011Y-73988794D01*
X125625500Y-74000000D01*
X87374500Y-74000000D01*
X87307461Y-73980315D01*
X87261706Y-73927511D01*
X87250500Y-73876000D01*
X87250500Y-68874500D01*
X87251728Y-68870315D01*
X87250788Y-68866057D01*
X87261486Y-68837084D01*
X87270185Y-68807461D01*
X87273479Y-68804606D01*
X87274991Y-68800513D01*
X87299661Y-68781919D01*
X87322989Y-68761706D01*
X87328287Y-68760344D01*
X87330788Y-68758460D01*
X87347368Y-68755440D01*
X87365251Y-68750845D01*
X87369863Y-68750500D01*
X87399997Y-68750500D01*
X87446142Y-68750500D01*
X87449828Y-68750500D01*
X87456580Y-68747703D01*
X87535287Y-68726614D01*
X87615212Y-68680470D01*
X87680470Y-68615212D01*
X87726614Y-68535287D01*
X87745604Y-68464411D01*
X87750420Y-68450225D01*
X87750500Y-68449828D01*
X87750500Y-59124000D01*
X87770185Y-59056961D01*
X87822989Y-59011206D01*
X87874500Y-59000000D01*
X97849236Y-59000000D01*
X97916275Y-59019685D01*
X97936190Y-59035597D01*
X100738758Y-61792221D01*
X104000000Y-65000000D01*
X106000000Y-66000000D01*
X112540000Y-65670000D01*
X113980000Y-64740000D01*
X116000000Y-62000000D01*
X116000000Y-60000000D01*
X115022379Y-59022379D01*
X114993076Y-58968716D01*
X114411793Y-58576032D01*
X114367638Y-58523064D01*
X114308215Y-58387504D01*
X114308209Y-58387492D01*
X114280665Y-58341872D01*
X114280663Y-58341870D01*
X114276686Y-58338698D01*
X114236546Y-58281509D01*
X114230000Y-58241752D01*
X114230000Y-57900000D01*
X113750000Y-57900000D01*
X113756267Y-58257297D01*
X113752581Y-58272417D01*
X113753558Y-58285339D01*
X113744570Y-58305277D01*
X113741358Y-58318458D01*
X113737188Y-58326167D01*
X113691730Y-58387632D01*
X113639973Y-58505930D01*
X113637515Y-58510477D01*
X113617506Y-58530648D01*
X113597841Y-58554253D01*
X112976965Y-58973547D01*
X112977584Y-59015708D01*
X112957307Y-59056922D01*
X110937200Y-61750400D01*
X110881229Y-61792221D01*
X110838000Y-61800000D01*
X106752128Y-61800000D01*
X106685089Y-61780315D01*
X106663529Y-61762753D01*
X102089575Y-57091480D01*
X102056737Y-57029808D01*
X102062455Y-56960173D01*
X102094298Y-56913399D01*
X102832730Y-56235247D01*
X104294500Y-56235247D01*
X104294500Y-57124752D01*
X104306131Y-57183229D01*
X104306132Y-57183230D01*
X104350447Y-57249552D01*
X104416769Y-57293867D01*
X104416770Y-57293868D01*
X104475247Y-57305499D01*
X104475250Y-57305500D01*
X104475252Y-57305500D01*
X105364750Y-57305500D01*
X105364751Y-57305499D01*
X105379589Y-57302548D01*
X105423229Y-57293868D01*
X105423229Y-57293867D01*
X105423231Y-57293867D01*
X105489552Y-57249552D01*
X105533867Y-57183231D01*
X105540378Y-57150499D01*
X105544395Y-57130308D01*
X105576780Y-57068397D01*
X105637496Y-57033823D01*
X105666012Y-57030500D01*
X106304313Y-57030500D01*
X106371352Y-57050185D01*
X106391994Y-57066819D01*
X106412624Y-57087449D01*
X106412627Y-57087451D01*
X106516201Y-57138084D01*
X106520714Y-57140291D01*
X106590785Y-57150500D01*
X107054214Y-57150499D01*
X107124286Y-57140291D01*
X107124290Y-57140289D01*
X107124291Y-57140289D01*
X107232372Y-57087451D01*
X107232375Y-57087449D01*
X107317447Y-57002377D01*
X107317448Y-57002376D01*
X107317449Y-57002375D01*
X107317450Y-57002372D01*
X107319083Y-57000087D01*
X107322120Y-56997704D01*
X107324715Y-56995110D01*
X107325028Y-56995423D01*
X107374058Y-56956966D01*
X107443620Y-56950411D01*
X107505682Y-56982505D01*
X107520917Y-57000087D01*
X107522552Y-57002377D01*
X107607624Y-57087449D01*
X107607627Y-57087451D01*
X107711201Y-57138084D01*
X107715714Y-57140291D01*
X107785785Y-57150500D01*
X108249214Y-57150499D01*
X108319286Y-57140291D01*
X108319290Y-57140289D01*
X108319291Y-57140289D01*
X108427372Y-57087451D01*
X108427375Y-57087449D01*
X108512448Y-57002376D01*
X108512449Y-57002375D01*
X108538034Y-56950039D01*
X108585162Y-56898458D01*
X108649435Y-56880500D01*
X109569826Y-56880500D01*
X109569828Y-56880500D01*
X109661897Y-56842364D01*
X109707442Y-56796819D01*
X109768765Y-56763334D01*
X109795123Y-56760500D01*
X112469877Y-56760500D01*
X112492389Y-56767110D01*
X112515751Y-56769298D01*
X112528563Y-56777732D01*
X112536916Y-56780185D01*
X112546349Y-56786888D01*
X112552254Y-56791514D01*
X112573105Y-56812365D01*
X112585334Y-56817430D01*
X112598684Y-56827889D01*
X112609537Y-56843070D01*
X112624067Y-56854780D01*
X112629433Y-56870903D01*
X112639317Y-56884729D01*
X112640239Y-56903367D01*
X112646133Y-56921074D01*
X112641930Y-56937540D01*
X112642770Y-56954513D01*
X112633468Y-56970691D01*
X112628854Y-56988773D01*
X112616417Y-57000352D01*
X112607947Y-57015086D01*
X112591375Y-57023667D01*
X112577718Y-57036384D01*
X112557675Y-57041120D01*
X112545903Y-57047217D01*
X112535857Y-57046276D01*
X112522212Y-57049501D01*
X112088966Y-57049501D01*
X112050752Y-57059740D01*
X112012537Y-57069980D01*
X112012532Y-57069983D01*
X111944023Y-57109536D01*
X111944015Y-57109542D01*
X111630377Y-57423181D01*
X111603449Y-57437884D01*
X111577631Y-57454477D01*
X111571430Y-57455368D01*
X111569054Y-57456666D01*
X111542696Y-57459500D01*
X111344992Y-57459500D01*
X111277953Y-57439815D01*
X111238747Y-57395755D01*
X111238421Y-57395988D01*
X111236256Y-57392955D01*
X111233592Y-57389962D01*
X111232448Y-57387623D01*
X111147375Y-57302550D01*
X111147372Y-57302548D01*
X111039289Y-57249710D01*
X111039287Y-57249709D01*
X111039286Y-57249709D01*
X110969215Y-57239500D01*
X110969209Y-57239500D01*
X110505786Y-57239500D01*
X110456342Y-57246703D01*
X110435714Y-57249709D01*
X110435712Y-57249709D01*
X110435710Y-57249710D01*
X110435708Y-57249710D01*
X110327627Y-57302548D01*
X110327624Y-57302550D01*
X110242549Y-57387625D01*
X110240914Y-57389916D01*
X110237877Y-57392297D01*
X110235285Y-57394890D01*
X110234971Y-57394576D01*
X110185936Y-57433035D01*
X110116375Y-57439587D01*
X110054314Y-57407490D01*
X110039086Y-57389916D01*
X110037450Y-57387625D01*
X109952375Y-57302550D01*
X109952372Y-57302548D01*
X109844289Y-57249710D01*
X109844287Y-57249709D01*
X109844286Y-57249709D01*
X109774215Y-57239500D01*
X109774209Y-57239500D01*
X109310786Y-57239500D01*
X109261342Y-57246703D01*
X109240714Y-57249709D01*
X109240712Y-57249709D01*
X109240710Y-57249710D01*
X109240708Y-57249710D01*
X109132627Y-57302548D01*
X109132624Y-57302550D01*
X109047550Y-57387624D01*
X109047548Y-57387627D01*
X108994710Y-57495710D01*
X108994709Y-57495712D01*
X108994709Y-57495714D01*
X108984500Y-57565785D01*
X108984500Y-57565790D01*
X108984500Y-57770955D01*
X108975854Y-57800398D01*
X108969332Y-57830381D01*
X108965577Y-57835396D01*
X108964815Y-57837994D01*
X108948185Y-57858631D01*
X108833635Y-57973182D01*
X108772315Y-58006666D01*
X108745956Y-58009500D01*
X108146012Y-58009500D01*
X108078973Y-57989815D01*
X108033218Y-57937011D01*
X108024395Y-57909692D01*
X108013867Y-57856770D01*
X108013867Y-57856769D01*
X107969552Y-57790447D01*
X107903230Y-57746132D01*
X107903229Y-57746131D01*
X107844752Y-57734500D01*
X107844748Y-57734500D01*
X106955252Y-57734500D01*
X106955247Y-57734500D01*
X106896770Y-57746131D01*
X106896769Y-57746132D01*
X106830447Y-57790447D01*
X106786132Y-57856769D01*
X106786131Y-57856770D01*
X106774500Y-57915247D01*
X106774500Y-58804752D01*
X106786131Y-58863229D01*
X106786132Y-58863230D01*
X106830447Y-58929552D01*
X106896769Y-58973867D01*
X106896770Y-58973868D01*
X106955247Y-58985499D01*
X106955250Y-58985500D01*
X106955252Y-58985500D01*
X107844750Y-58985500D01*
X107844751Y-58985499D01*
X107859568Y-58982552D01*
X107903229Y-58973868D01*
X107903229Y-58973867D01*
X107903231Y-58973867D01*
X107969552Y-58929552D01*
X108013867Y-58863231D01*
X108018644Y-58839217D01*
X108024395Y-58810308D01*
X108056780Y-58748397D01*
X108117496Y-58713823D01*
X108146012Y-58710500D01*
X108988642Y-58710500D01*
X108988644Y-58710500D01*
X109077788Y-58686614D01*
X109098770Y-58674500D01*
X109100871Y-58673286D01*
X109168764Y-58656789D01*
X109234799Y-58679617D01*
X109278010Y-58734523D01*
X109284677Y-58804073D01*
X109284527Y-58804841D01*
X109274500Y-58855252D01*
X109274500Y-59744752D01*
X109286131Y-59803229D01*
X109286132Y-59803230D01*
X109330447Y-59869552D01*
X109396769Y-59913867D01*
X109396770Y-59913868D01*
X109455247Y-59925499D01*
X109455250Y-59925500D01*
X109455252Y-59925500D01*
X110344750Y-59925500D01*
X110344751Y-59925499D01*
X110359568Y-59922552D01*
X110403229Y-59913868D01*
X110403229Y-59913867D01*
X110403231Y-59913867D01*
X110469552Y-59869552D01*
X110513867Y-59803231D01*
X110516966Y-59787649D01*
X110524395Y-59750308D01*
X110556780Y-59688397D01*
X110617496Y-59653823D01*
X110646012Y-59650500D01*
X110876142Y-59650500D01*
X110876144Y-59650500D01*
X110965288Y-59626614D01*
X111045212Y-59580470D01*
X112438862Y-58186820D01*
X112500185Y-58153335D01*
X112526543Y-58150501D01*
X112761143Y-58150501D01*
X112761145Y-58150501D01*
X112850289Y-58126615D01*
X112930213Y-58080470D01*
X112995470Y-58015213D01*
X113041615Y-57935289D01*
X113065501Y-57846145D01*
X113065501Y-57753857D01*
X113041615Y-57664713D01*
X112996748Y-57587002D01*
X112980274Y-57519103D01*
X112993476Y-57474148D01*
X112991911Y-57473500D01*
X112995021Y-57465991D01*
X112995022Y-57465990D01*
X113015501Y-57389563D01*
X113015501Y-57310439D01*
X112995022Y-57234012D01*
X112965704Y-57183231D01*
X112955465Y-57165496D01*
X112955459Y-57165488D01*
X112899513Y-57109542D01*
X112899505Y-57109536D01*
X112830996Y-57069983D01*
X112830993Y-57069981D01*
X112830990Y-57069980D01*
X112830986Y-57069979D01*
X112830984Y-57069978D01*
X112821917Y-57067548D01*
X112762258Y-57031181D01*
X112731732Y-56968332D01*
X112740030Y-56898957D01*
X112784518Y-56845081D01*
X112806560Y-56833215D01*
X112856898Y-56812365D01*
X112927365Y-56741898D01*
X112965502Y-56649829D01*
X112965502Y-56550174D01*
X112940096Y-56488841D01*
X112932627Y-56419374D01*
X112963901Y-56356894D01*
X112966922Y-56353761D01*
X112995471Y-56325213D01*
X113041615Y-56245288D01*
X113065501Y-56156144D01*
X113065501Y-56063857D01*
X113041615Y-55974712D01*
X112995471Y-55894788D01*
X112450213Y-55349530D01*
X112450212Y-55349529D01*
X112450209Y-55349527D01*
X112370291Y-55303387D01*
X112370290Y-55303386D01*
X112370289Y-55303386D01*
X112281145Y-55279500D01*
X112281144Y-55279500D01*
X110636012Y-55279500D01*
X110568973Y-55259815D01*
X110523218Y-55207011D01*
X110514395Y-55179692D01*
X110503867Y-55126770D01*
X110503867Y-55126769D01*
X110459552Y-55060447D01*
X110393230Y-55016132D01*
X110393229Y-55016131D01*
X110334752Y-55004500D01*
X110334748Y-55004500D01*
X109445252Y-55004500D01*
X109445247Y-55004500D01*
X109386770Y-55016131D01*
X109386769Y-55016132D01*
X109320447Y-55060447D01*
X109276132Y-55126769D01*
X109276131Y-55126770D01*
X109264500Y-55185247D01*
X109264500Y-56074752D01*
X109276131Y-56133229D01*
X109276132Y-56133230D01*
X109311799Y-56186609D01*
X109332677Y-56253286D01*
X109314193Y-56320667D01*
X109262214Y-56367357D01*
X109208697Y-56379500D01*
X108649435Y-56379500D01*
X108582396Y-56359815D01*
X108538034Y-56309960D01*
X108522160Y-56277490D01*
X108512449Y-56257625D01*
X108512448Y-56257624D01*
X108512448Y-56257623D01*
X108427375Y-56172550D01*
X108427372Y-56172548D01*
X108319289Y-56119710D01*
X108319287Y-56119709D01*
X108319286Y-56119709D01*
X108249215Y-56109500D01*
X108249209Y-56109500D01*
X107785786Y-56109500D01*
X107736342Y-56116703D01*
X107715714Y-56119709D01*
X107715712Y-56119709D01*
X107715710Y-56119710D01*
X107715708Y-56119710D01*
X107607627Y-56172548D01*
X107607624Y-56172550D01*
X107522549Y-56257625D01*
X107520914Y-56259916D01*
X107517877Y-56262297D01*
X107515285Y-56264890D01*
X107514971Y-56264576D01*
X107465936Y-56303035D01*
X107396375Y-56309587D01*
X107334314Y-56277490D01*
X107319086Y-56259916D01*
X107317450Y-56257625D01*
X107232375Y-56172550D01*
X107232372Y-56172548D01*
X107124289Y-56119710D01*
X107124287Y-56119709D01*
X107124286Y-56119709D01*
X107054215Y-56109500D01*
X107054209Y-56109500D01*
X106590786Y-56109500D01*
X106541342Y-56116703D01*
X106520714Y-56119709D01*
X106520712Y-56119709D01*
X106520710Y-56119710D01*
X106520708Y-56119710D01*
X106412627Y-56172548D01*
X106412624Y-56172550D01*
X106327551Y-56257623D01*
X106326408Y-56259962D01*
X106323999Y-56262598D01*
X106321579Y-56265988D01*
X106321169Y-56265695D01*
X106279279Y-56311544D01*
X106215008Y-56329500D01*
X105666012Y-56329500D01*
X105598973Y-56309815D01*
X105553218Y-56257011D01*
X105544395Y-56229692D01*
X105533867Y-56176770D01*
X105533867Y-56176769D01*
X105489552Y-56110447D01*
X105423230Y-56066132D01*
X105423229Y-56066131D01*
X105364752Y-56054500D01*
X105364748Y-56054500D01*
X104475252Y-56054500D01*
X104475247Y-56054500D01*
X104416770Y-56066131D01*
X104416769Y-56066132D01*
X104350447Y-56110447D01*
X104306132Y-56176769D01*
X104306131Y-56176770D01*
X104294500Y-56235247D01*
X102832730Y-56235247D01*
X106864426Y-52532670D01*
X106927117Y-52501823D01*
X106948300Y-52500000D01*
X111136483Y-52500000D01*
X111203522Y-52519685D01*
X111237113Y-52551546D01*
X112973850Y-54963681D01*
X112977889Y-54969290D01*
X112986938Y-54995002D01*
X113572850Y-55390812D01*
X113617005Y-55443780D01*
X113693210Y-55617623D01*
X113693216Y-55617635D01*
X113720760Y-55663255D01*
X113728027Y-55671534D01*
X113726227Y-55673113D01*
X113757601Y-55717813D01*
X113764129Y-55755396D01*
X113770000Y-56090000D01*
X114240000Y-56090000D01*
X114240000Y-55752808D01*
X114259685Y-55685769D01*
X114264022Y-55679457D01*
X114277356Y-55661281D01*
X114310011Y-55616774D01*
X114384991Y-55443583D01*
X114429383Y-55390092D01*
X114990189Y-55011368D01*
X115034547Y-54981412D01*
X115056901Y-54943098D01*
X116000000Y-54000000D01*
X115950000Y-51810000D01*
X113890000Y-49120000D01*
X111850000Y-48060000D01*
X111849997Y-48059999D01*
X111849996Y-48059999D01*
X106000000Y-47999999D01*
X104000003Y-48999998D01*
X103999999Y-49000000D01*
X98036319Y-54963681D01*
X97974996Y-54997166D01*
X97948638Y-55000000D01*
X87874500Y-55000000D01*
X87807461Y-54980315D01*
X87761706Y-54927511D01*
X87750500Y-54876000D01*
X87750500Y-46509757D01*
X87752027Y-46490359D01*
X87758392Y-46450172D01*
X87759640Y-46442297D01*
X87771627Y-46405404D01*
X87789235Y-46370846D01*
X87812036Y-46339462D01*
X87839462Y-46312036D01*
X87870844Y-46289236D01*
X87905404Y-46271626D01*
X87942297Y-46259639D01*
X87979573Y-46253735D01*
X87990361Y-46252027D01*
X88009759Y-46250500D01*
X88044171Y-46250500D01*
X124955829Y-46250500D01*
X124990241Y-46250500D01*
X125009639Y-46252027D01*
G37*
%TD.AperFunction*%
%TD*%
M02*
