%TF.GenerationSoftware,KiCad,Pcbnew,9.0.2*%
%TF.CreationDate,2026-06-25T15:34:41-05:00*%
%TF.ProjectId,pwm_radar,70776d5f-7261-4646-9172-2e6b69636164,rev?*%
%TF.SameCoordinates,Original*%
%TF.FileFunction,Legend,Bot*%
%TF.FilePolarity,Positive*%
%FSLAX46Y46*%
G04 Gerber Fmt 4.6, Leading zero omitted, Abs format (unit mm)*
G04 Created by KiCad (PCBNEW 9.0.2) date 2026-06-25 15:34:41*
%MOMM*%
%LPD*%
G01*
G04 APERTURE LIST*
%ADD10C,0.120000*%
G04 APERTURE END LIST*
D10*
%TO.C,J8*%
X109065000Y-60755000D02*
X109065000Y-60630000D01*
X109124435Y-60755000D02*
X109065000Y-60755000D01*
X110555000Y-59285000D02*
X109810000Y-59285000D01*
X110555000Y-60020000D02*
X110555000Y-59285000D01*
X110555000Y-60755000D02*
X109065000Y-60755000D01*
X110555000Y-60755000D02*
X110495565Y-60755000D01*
X110555000Y-60755000D02*
X110555000Y-60630000D01*
%TO.C,C3*%
X108135835Y-55330000D02*
X107904165Y-55330000D01*
X108135835Y-56050000D02*
X107904165Y-56050000D01*
%TO.C,J2*%
X104175000Y-57415000D02*
X104175000Y-57290000D01*
X104234435Y-57415000D02*
X104175000Y-57415000D01*
X105665000Y-55945000D02*
X104920000Y-55945000D01*
X105665000Y-56680000D02*
X105665000Y-55945000D01*
X105665000Y-57415000D02*
X104175000Y-57415000D01*
X105665000Y-57415000D02*
X105605565Y-57415000D01*
X105665000Y-57415000D02*
X105665000Y-57290000D01*
%TO.C,J3*%
X109145000Y-56365000D02*
X109145000Y-56240000D01*
X109204435Y-56365000D02*
X109145000Y-56365000D01*
X110635000Y-54895000D02*
X109890000Y-54895000D01*
X110635000Y-55630000D02*
X110635000Y-54895000D01*
X110635000Y-56365000D02*
X109145000Y-56365000D01*
X110635000Y-56365000D02*
X110575565Y-56365000D01*
X110635000Y-56365000D02*
X110635000Y-56240000D01*
%TO.C,C2*%
X108125835Y-54240000D02*
X107894165Y-54240000D01*
X108125835Y-54960000D02*
X107894165Y-54960000D01*
%TO.C,C5*%
X107585835Y-60820000D02*
X107354165Y-60820000D01*
X107585835Y-61540000D02*
X107354165Y-61540000D01*
%TO.C,C1*%
X110224165Y-53800000D02*
X110455835Y-53800000D01*
X110224165Y-54520000D02*
X110455835Y-54520000D01*
%TO.C,C4*%
X107545835Y-59660000D02*
X107314165Y-59660000D01*
X107545835Y-60380000D02*
X107314165Y-60380000D01*
%TO.C,J7*%
X106655000Y-59095000D02*
X106655000Y-58970000D01*
X106714435Y-59095000D02*
X106655000Y-59095000D01*
X108145000Y-57625000D02*
X107400000Y-57625000D01*
X108145000Y-58360000D02*
X108145000Y-57625000D01*
X108145000Y-59095000D02*
X106655000Y-59095000D01*
X108145000Y-59095000D02*
X108085565Y-59095000D01*
X108145000Y-59095000D02*
X108145000Y-58970000D01*
%TO.C,C6*%
X109744165Y-61160000D02*
X109975835Y-61160000D01*
X109744165Y-61880000D02*
X109975835Y-61880000D01*
%TD*%
M02*
