%TF.GenerationSoftware,KiCad,Pcbnew,9.0.2*%
%TF.CreationDate,2026-06-25T15:34:41-05:00*%
%TF.ProjectId,pwm_radar,70776d5f-7261-4646-9172-2e6b69636164,rev?*%
%TF.SameCoordinates,Original*%
%TF.FileFunction,Soldermask,Top*%
%TF.FilePolarity,Negative*%
%FSLAX46Y46*%
G04 Gerber Fmt 4.6, Leading zero omitted, Abs format (unit mm)*
G04 Created by KiCad (PCBNEW 9.0.2) date 2026-06-25 15:34:41*
%MOMM*%
%LPD*%
G01*
G04 APERTURE LIST*
G04 Aperture macros list*
%AMRoundRect*
0 Rectangle with rounded corners*
0 $1 Rounding radius*
0 $2 $3 $4 $5 $6 $7 $8 $9 X,Y pos of 4 corners*
0 Add a 4 corners polygon primitive as box body*
4,1,4,$2,$3,$4,$5,$6,$7,$8,$9,$2,$3,0*
0 Add four circle primitives for the rounded corners*
1,1,$1+$1,$2,$3*
1,1,$1+$1,$4,$5*
1,1,$1+$1,$6,$7*
1,1,$1+$1,$8,$9*
0 Add four rect primitives between the rounded corners*
20,1,$1+$1,$2,$3,$4,$5,0*
20,1,$1+$1,$4,$5,$6,$7,0*
20,1,$1+$1,$6,$7,$8,$9,0*
20,1,$1+$1,$8,$9,$2,$3,0*%
G04 Aperture macros list end*
%ADD10C,5.000000*%
%ADD11C,1.400000*%
%ADD12C,4.100000*%
%ADD13R,5.200000X0.400000*%
%ADD14R,5.000000X6.000000*%
%ADD15R,0.660400X0.203200*%
%ADD16R,0.609600X1.193800*%
%ADD17RoundRect,0.160000X0.197500X0.160000X-0.197500X0.160000X-0.197500X-0.160000X0.197500X-0.160000X0*%
%ADD18R,0.400000X0.250000*%
%ADD19R,0.250000X0.400000*%
%ADD20R,1.600000X1.600000*%
%ADD21R,0.850000X0.850000*%
G04 APERTURE END LIST*
D10*
X89500000Y-57025000D02*
X94200000Y-57025000D01*
D11*
X89500000Y-76000000D02*
X123500000Y-76000000D01*
D10*
X89500000Y-76000000D02*
X123500000Y-76000000D01*
D11*
X90075000Y-57025000D02*
X95975000Y-57025000D01*
X105292893Y-50707106D02*
X100000000Y-56000000D01*
D10*
X105292893Y-50707106D02*
X101200000Y-54600000D01*
D11*
X105292892Y-50707105D02*
G75*
G02*
X107000000Y-49999994I1707108J-1707095D01*
G01*
D10*
X105292892Y-50707105D02*
G75*
G02*
X107000000Y-49999994I1707108J-1707095D01*
G01*
D11*
X105292893Y-63292893D02*
X100000000Y-58000000D01*
D10*
X105292893Y-63292893D02*
X101400000Y-59500000D01*
D11*
X107000000Y-50000000D02*
X111000000Y-50000000D01*
D10*
X107000000Y-50000000D02*
X111000000Y-50000000D01*
D11*
X107000000Y-63999999D02*
G75*
G02*
X105292897Y-63292889I0J2414199D01*
G01*
D10*
X107000000Y-63999999D02*
G75*
G02*
X105292897Y-63292889I0J2414199D01*
G01*
D11*
X107000000Y-64000000D02*
X111000000Y-64000000D01*
D10*
X107000000Y-64000000D02*
X111000000Y-64000000D01*
D11*
X111000000Y-49999998D02*
G75*
G02*
X112707105Y-50707107I0J-2414202D01*
G01*
D10*
X111000000Y-49999998D02*
G75*
G02*
X112707105Y-50707107I0J-2414202D01*
G01*
D11*
X112707106Y-63292892D02*
G75*
G02*
X111000000Y-64000003I-1707106J1707092D01*
G01*
D10*
X112707106Y-63292892D02*
G75*
G02*
X111000000Y-64000003I-1707106J1707092D01*
G01*
D11*
X112707106Y-63292892D02*
X113292893Y-62707106D01*
D10*
X112707106Y-63292892D02*
X113292893Y-62707106D01*
D11*
X113292893Y-51292893D02*
X112707106Y-50707106D01*
D10*
X113292893Y-51292893D02*
X112707106Y-50707106D01*
D11*
X113292893Y-51292893D02*
G75*
G02*
X114000004Y-53000000I-1707093J-1707107D01*
G01*
D10*
X113292893Y-51292893D02*
G75*
G02*
X114000004Y-53000000I-1707093J-1707107D01*
G01*
D11*
X114000000Y-53000000D02*
X114000000Y-54814001D01*
X114000000Y-61000000D02*
G75*
G02*
X113292891Y-62707104I-2414200J0D01*
G01*
D10*
X114000000Y-61000000D02*
G75*
G02*
X113292891Y-62707104I-2414200J0D01*
G01*
D11*
X114000000Y-61000000D02*
X114000000Y-59185999D01*
X123000000Y-57000000D02*
X116185999Y-57000000D01*
D12*
X123000000Y-57000000D02*
X117900000Y-57000000D01*
X123000000Y-57000000D02*
X125000000Y-57000000D01*
D13*
%TO.C,J4*%
X123500000Y-76000000D03*
D14*
X123500000Y-80025000D03*
X123500000Y-71975000D03*
%TD*%
D13*
%TO.C,J6*%
X123000000Y-57000000D03*
D14*
X123000000Y-61025000D03*
X123000000Y-52975000D03*
%TD*%
D13*
%TO.C,J1*%
X90000000Y-57025000D03*
D14*
X90000000Y-53000000D03*
X90000000Y-61050000D03*
%TD*%
D13*
%TO.C,J5*%
X89500000Y-76000000D03*
D14*
X89500000Y-71975000D03*
X89500000Y-80025000D03*
%TD*%
D15*
%TO.C,U1*%
X97044200Y-56339600D03*
X97044200Y-57000000D03*
X97044200Y-57660400D03*
X99000000Y-57660400D03*
X99000000Y-57000000D03*
X99000000Y-56339600D03*
D16*
X98022100Y-57000000D03*
%TD*%
D17*
%TO.C,R2*%
X110737500Y-57760000D03*
X109542500Y-57760000D03*
%TD*%
D18*
%TO.C,U2*%
X115284999Y-57800001D03*
X115284999Y-57399999D03*
X115284999Y-57000000D03*
X115284999Y-56600001D03*
X115284999Y-56199999D03*
D19*
X114800001Y-55715001D03*
X114399999Y-55715001D03*
X114000000Y-55715001D03*
X113600001Y-55715001D03*
X113199999Y-55715001D03*
D18*
X112715001Y-56199999D03*
X112715001Y-56600001D03*
X112715001Y-57000000D03*
X112715001Y-57399999D03*
X112715001Y-57800001D03*
D19*
X113199999Y-58284999D03*
X113600001Y-58284999D03*
X114000000Y-58284999D03*
X114399999Y-58284999D03*
X114800001Y-58284999D03*
D20*
X114000000Y-57000000D03*
%TD*%
D17*
%TO.C,R1*%
X108017500Y-56630000D03*
X106822500Y-56630000D03*
%TD*%
D21*
%TO.C,J8*%
X109810000Y-60020000D03*
%TD*%
%TO.C,J2*%
X104920000Y-56680000D03*
%TD*%
%TO.C,J3*%
X109890000Y-55630000D03*
%TD*%
%TO.C,J7*%
X107400000Y-58360000D03*
%TD*%
M02*
