%TF.GenerationSoftware,KiCad,Pcbnew,9.0.8*%
%TF.CreationDate,2026-10-05T18:38:18-05:00*%
%TF.ProjectId,pwm_radar,70776d5f-7261-4646-9172-2e6b69636164,rev?*%
%TF.SameCoordinates,Original*%
%TF.FileFunction,Paste,Top*%
%TF.FilePolarity,Positive*%
%FSLAX46Y46*%
G04 Gerber Fmt 4.6, Leading zero omitted, Abs format (unit mm)*
G04 Created by KiCad (PCBNEW 9.0.8) date 2026-10-05 18:38:18*
%MOMM*%
%LPD*%
G01*
G04 APERTURE LIST*
G04 Aperture macros list*
%AMRoundRect*
0 Rectangle with rounded corners*
0 $1 Rounding radius*
0 $2 $3 $4 $5 $6 $7 $8 $9 X,Y pos of 4 corners*
0 Add a 4 corners polygon primitive as box body*
4,1,4,$2,$3,$4,$5,$6,$7,$8,$9,$2,$3,0*
0 Add four circle primitives for the rounded corners*
1,1,$1+$1,$2,$3*
1,1,$1+$1,$4,$5*
1,1,$1+$1,$6,$7*
1,1,$1+$1,$8,$9*
0 Add four rect primitives between the rounded corners*
20,1,$1+$1,$2,$3,$4,$5,0*
20,1,$1+$1,$4,$5,$6,$7,0*
20,1,$1+$1,$6,$7,$8,$9,0*
20,1,$1+$1,$8,$9,$2,$3,0*%
G04 Aperture macros list end*
%ADD10C,0.000000*%
%ADD11R,0.660400X0.203200*%
%ADD12R,0.609600X1.193800*%
%ADD13RoundRect,0.155000X0.155000X-0.212500X0.155000X0.212500X-0.155000X0.212500X-0.155000X-0.212500X0*%
%ADD14RoundRect,0.155000X-0.155000X0.212500X-0.155000X-0.212500X0.155000X-0.212500X0.155000X0.212500X0*%
%ADD15RoundRect,0.160000X-0.160000X0.197500X-0.160000X-0.197500X0.160000X-0.197500X0.160000X0.197500X0*%
%ADD16R,0.915001X0.250000*%
%ADD17R,0.911225X0.250000*%
%ADD18R,0.915001X0.225001*%
%ADD19R,0.250000X0.915001*%
%ADD20R,0.250000X0.918306*%
%ADD21R,1.600000X1.600000*%
%ADD22RoundRect,0.160000X0.160000X-0.197500X0.160000X0.197500X-0.160000X0.197500X-0.160000X-0.197500X0*%
G04 APERTURE END LIST*
D10*
%TO.C,U2*%
G36*
X114800000Y-57838000D02*
G01*
X113200000Y-57838000D01*
X113200000Y-56238000D01*
X114800000Y-56238000D01*
X114800000Y-57838000D01*
G37*
%TD*%
D11*
%TO.C,U1*%
X97100000Y-56359600D03*
X97100000Y-57020000D03*
X97100000Y-57680400D03*
X99055800Y-57680400D03*
X99055800Y-57020000D03*
X99055800Y-56359600D03*
D12*
X98077900Y-57020000D03*
%TD*%
D13*
%TO.C,C2*%
X108593765Y-55000000D03*
X108593765Y-53865000D03*
%TD*%
D14*
%TO.C,C4*%
X107500000Y-58932500D03*
X107500000Y-60067500D03*
%TD*%
D13*
%TO.C,C3*%
X109593765Y-55000000D03*
X109593765Y-53865000D03*
%TD*%
D14*
%TO.C,C6*%
X108500000Y-58932500D03*
X108500000Y-60067500D03*
%TD*%
D15*
%TO.C,R2*%
X106000000Y-65805000D03*
X106000000Y-67000000D03*
%TD*%
D16*
%TO.C,U2*%
X115542499Y-57838001D03*
X115542499Y-57437999D03*
D17*
X115544387Y-57038015D03*
D18*
X115542499Y-56650501D03*
D16*
X115542499Y-56237999D03*
D19*
X114800001Y-55495501D03*
D20*
X114401438Y-55497153D03*
D19*
X114000000Y-55495501D03*
X113600001Y-55495501D03*
X113199999Y-55495501D03*
D16*
X112457501Y-56237999D03*
X112457501Y-56638001D03*
X112457501Y-57038000D03*
X112457501Y-57437999D03*
X112457501Y-57838001D03*
D19*
X113199999Y-58580499D03*
X113600001Y-58580499D03*
X114000000Y-58580499D03*
X114399999Y-58580499D03*
X114800001Y-58580499D03*
D21*
X114000000Y-57038000D03*
%TD*%
D13*
%TO.C,C1*%
X107593765Y-55000000D03*
X107593765Y-53865000D03*
%TD*%
D14*
%TO.C,C5*%
X109500000Y-58932500D03*
X109500000Y-60067500D03*
%TD*%
D22*
%TO.C,R1*%
X106000000Y-46597500D03*
X106000000Y-45402500D03*
%TD*%
M02*
