%TF.GenerationSoftware,KiCad,Pcbnew,9.0.8*%
%TF.CreationDate,2026-06-26T13:09:39-05:00*%
%TF.ProjectId,pwm_radar,70776d5f-7261-4646-9172-2e6b69636164,rev?*%
%TF.SameCoordinates,Original*%
%TF.FileFunction,Copper,L2,Bot*%
%TF.FilePolarity,Positive*%
%FSLAX46Y46*%
G04 Gerber Fmt 4.6, Leading zero omitted, Abs format (unit mm)*
G04 Created by KiCad (PCBNEW 9.0.8) date 2026-06-26 13:09:39*
%MOMM*%
%LPD*%
G01*
G04 APERTURE LIST*
G04 Aperture macros list*
%AMRoundRect*
0 Rectangle with rounded corners*
0 $1 Rounding radius*
0 $2 $3 $4 $5 $6 $7 $8 $9 X,Y pos of 4 corners*
0 Add a 4 corners polygon primitive as box body*
4,1,4,$2,$3,$4,$5,$6,$7,$8,$9,$2,$3,0*
0 Add four circle primitives for the rounded corners*
1,1,$1+$1,$2,$3*
1,1,$1+$1,$4,$5*
1,1,$1+$1,$6,$7*
1,1,$1+$1,$8,$9*
0 Add four rect primitives between the rounded corners*
20,1,$1+$1,$2,$3,$4,$5,0*
20,1,$1+$1,$4,$5,$6,$7,0*
20,1,$1+$1,$6,$7,$8,$9,0*
20,1,$1+$1,$8,$9,$2,$3,0*%
G04 Aperture macros list end*
%TA.AperFunction,ComponentPad*%
%ADD10R,5.000000X6.000000*%
%TD*%
%TA.AperFunction,ConnectorPad*%
%ADD11R,5.000000X14.000000*%
%TD*%
%TA.AperFunction,ComponentPad*%
%ADD12R,0.850000X0.850000*%
%TD*%
%TA.AperFunction,SMDPad,CuDef*%
%ADD13RoundRect,0.155000X0.212500X0.155000X-0.212500X0.155000X-0.212500X-0.155000X0.212500X-0.155000X0*%
%TD*%
%TA.AperFunction,SMDPad,CuDef*%
%ADD14RoundRect,0.155000X-0.212500X-0.155000X0.212500X-0.155000X0.212500X0.155000X-0.212500X0.155000X0*%
%TD*%
%TA.AperFunction,ViaPad*%
%ADD15C,0.600000*%
%TD*%
%TA.AperFunction,ViaPad*%
%ADD16C,0.700000*%
%TD*%
%TA.AperFunction,Conductor*%
%ADD17C,0.477000*%
%TD*%
%TA.AperFunction,Conductor*%
%ADD18C,0.200000*%
%TD*%
G04 APERTURE END LIST*
D10*
%TO.P,J5,2,Ext*%
%TO.N,GND*%
X89500000Y-71975000D03*
D11*
X89500000Y-76025000D03*
D10*
X89500000Y-80025000D03*
%TD*%
%TO.P,J1,2,Ext*%
%TO.N,GND*%
X90000000Y-53000000D03*
D11*
X90000000Y-57050000D03*
D10*
X90000000Y-61050000D03*
%TD*%
%TO.P,J6,2,Ext*%
%TO.N,GND*%
X123000000Y-61025000D03*
D11*
X123000000Y-56975000D03*
D10*
X123000000Y-52975000D03*
%TD*%
%TO.P,J4,2,Ext*%
%TO.N,GND*%
X123500000Y-80025000D03*
D11*
X123500000Y-75975000D03*
D10*
X123500000Y-71975000D03*
%TD*%
D12*
%TO.P,J8,1,Pin_1*%
%TO.N,VSS*%
X109900000Y-59300000D03*
%TD*%
D13*
%TO.P,C3,1*%
%TO.N,VDD*%
X108587500Y-55690000D03*
%TO.P,C3,2*%
%TO.N,GND*%
X107452500Y-55690000D03*
%TD*%
D12*
%TO.P,J2,1,Pin_1*%
%TO.N,Net-(J2-Pin_1)*%
X104920000Y-56680000D03*
%TD*%
%TO.P,J3,1,Pin_1*%
%TO.N,VDD*%
X109890000Y-55630000D03*
%TD*%
D13*
%TO.P,C2,1*%
%TO.N,VDD*%
X108577500Y-54600000D03*
%TO.P,C2,2*%
%TO.N,GND*%
X107442500Y-54600000D03*
%TD*%
%TO.P,C5,1*%
%TO.N,VSS*%
X108067500Y-59900000D03*
%TO.P,C5,2*%
%TO.N,GND*%
X106932500Y-59900000D03*
%TD*%
D14*
%TO.P,C1,1*%
%TO.N,VDD*%
X109772500Y-54160000D03*
%TO.P,C1,2*%
%TO.N,GND*%
X110907500Y-54160000D03*
%TD*%
D13*
%TO.P,C4,1*%
%TO.N,VSS*%
X110467500Y-57600000D03*
%TO.P,C4,2*%
%TO.N,GND*%
X109332500Y-57600000D03*
%TD*%
D12*
%TO.P,J7,1,Pin_1*%
%TO.N,Net-(J7-Pin_1)*%
X107400000Y-58360000D03*
%TD*%
D14*
%TO.P,C6,1*%
%TO.N,VSS*%
X109932500Y-60800000D03*
%TO.P,C6,2*%
%TO.N,GND*%
X111067500Y-60800000D03*
%TD*%
D15*
%TO.N,GND*%
X96278272Y-55225863D03*
X96790848Y-55664332D03*
X96700000Y-58200000D03*
X96200000Y-58600000D03*
X95800000Y-59100000D03*
X97200000Y-59500000D03*
D16*
X112000000Y-69000000D03*
X102000000Y-71000000D03*
X94383333Y-59500000D03*
D15*
X106000000Y-60200000D03*
D16*
X97000000Y-71000000D03*
D15*
X110900000Y-52900000D03*
D16*
X113062470Y-66046049D03*
X116000000Y-79000000D03*
X118000000Y-83000000D03*
X120900000Y-59500000D03*
D15*
X97140000Y-56180000D03*
X114000000Y-57000000D03*
D16*
X89300000Y-78500000D03*
X112085722Y-66377824D03*
X112291458Y-47673444D03*
X110000000Y-79000000D03*
D15*
X97250000Y-57770000D03*
D16*
X104000000Y-81000000D03*
X89040000Y-54570000D03*
X108000000Y-66500000D03*
X110000000Y-81000000D03*
X124020000Y-54500000D03*
X96000000Y-79000000D03*
X98232233Y-59767767D03*
X99000000Y-73000000D03*
X115000000Y-71000000D03*
X108000000Y-47500000D03*
D15*
X116060000Y-58910000D03*
D16*
X111000000Y-83000000D03*
X106000000Y-66400000D03*
X116499247Y-61061374D03*
X109000000Y-73000000D03*
X102000000Y-73000000D03*
X88070000Y-54570000D03*
X95000000Y-81000000D03*
X110000000Y-47500000D03*
X120800000Y-54500000D03*
X104000000Y-73000000D03*
X112000000Y-79000000D03*
X119200000Y-79000000D03*
D15*
X109500000Y-52900000D03*
D16*
X93300000Y-59500000D03*
X105000000Y-69000000D03*
X118000000Y-79000000D03*
X98000000Y-71000000D03*
D15*
X115870000Y-58020000D03*
D16*
X99000000Y-81000000D03*
X108000000Y-69000000D03*
X111061353Y-66499245D03*
X93600000Y-73400000D03*
X103000000Y-73000000D03*
X105095579Y-66115910D03*
X120300000Y-73500000D03*
X103000000Y-83000000D03*
D15*
X115600000Y-55100000D03*
D16*
X96000000Y-73000000D03*
X89200000Y-59500000D03*
X94000000Y-81000000D03*
X105000000Y-71000000D03*
X111000000Y-73000000D03*
X113800000Y-65600000D03*
X103569055Y-48896472D03*
X117000000Y-83000000D03*
X106000000Y-83000000D03*
X101256743Y-51207722D03*
X109000000Y-71000000D03*
X97000000Y-79000000D03*
X92600000Y-73400000D03*
D15*
X111600000Y-60900000D03*
D16*
X101000000Y-81000000D03*
X125340000Y-78630000D03*
D15*
X112000000Y-60300000D03*
D16*
X106000000Y-81000000D03*
D15*
X112200000Y-54800000D03*
X110400000Y-61600000D03*
D16*
X111000000Y-79000000D03*
X119400000Y-73300000D03*
D15*
X111400000Y-53400000D03*
D16*
X117000000Y-73000000D03*
X107000000Y-69000000D03*
X116499245Y-52938646D03*
X102000000Y-83000000D03*
D15*
X110200000Y-52900000D03*
D16*
X102012870Y-50451595D03*
X98000000Y-73000000D03*
X106938647Y-66499246D03*
X98988360Y-53476105D03*
X110000000Y-66500000D03*
X103569046Y-65103515D03*
X113439036Y-48148788D03*
X114000000Y-71000000D03*
X105000000Y-79000000D03*
X97000000Y-73000000D03*
X100000000Y-81000000D03*
D15*
X111800000Y-59300000D03*
D16*
X88240000Y-59500000D03*
X100500615Y-51963850D03*
X118000000Y-73000000D03*
D15*
X104840000Y-54910000D03*
D16*
X124700000Y-73410000D03*
D15*
X98100000Y-56200000D03*
X98100000Y-57000000D03*
D16*
X96000000Y-81000000D03*
X107000000Y-73000000D03*
X100000000Y-79000000D03*
X91083333Y-59500000D03*
X97000000Y-81000000D03*
X95000000Y-71000000D03*
X96000000Y-83000000D03*
X99000000Y-69000000D03*
X120400000Y-78433333D03*
X114000000Y-79000000D03*
X119750000Y-59500000D03*
X100000000Y-73000000D03*
D15*
X112500000Y-59600000D03*
D16*
X89900000Y-54600000D03*
X121883333Y-54500000D03*
X123566667Y-78600000D03*
X109000000Y-83000000D03*
X113000000Y-81000000D03*
D15*
X111500000Y-54500000D03*
D16*
X102700000Y-49700000D03*
X121400000Y-78600000D03*
D15*
X111200000Y-61600000D03*
D16*
X113000000Y-71000000D03*
X98000000Y-69000000D03*
X112000000Y-83000000D03*
X106800000Y-47600000D03*
X115851209Y-63439033D03*
X109000000Y-81000000D03*
X99000000Y-71000000D03*
D15*
X96400000Y-54600000D03*
D16*
X116000000Y-83000000D03*
X113000000Y-83000000D03*
X95300000Y-59500000D03*
X108000000Y-83000000D03*
D15*
X97300000Y-54600000D03*
D16*
X102000000Y-69000000D03*
X116000000Y-69000000D03*
D15*
X104940000Y-59010000D03*
D16*
X115000000Y-83000000D03*
X92600000Y-78533333D03*
X124920000Y-59530000D03*
X93300000Y-54600000D03*
X88350000Y-78490000D03*
D15*
X106600000Y-53400000D03*
X116600000Y-58400000D03*
X112600000Y-58700000D03*
D16*
X94000000Y-71000000D03*
X99000000Y-83000000D03*
X106000000Y-73000000D03*
X105000000Y-83000000D03*
X90000000Y-59500000D03*
X97000000Y-83000000D03*
X113000000Y-69000000D03*
X88400000Y-73420000D03*
X111000000Y-71000000D03*
X102000000Y-81000000D03*
X100500615Y-62036149D03*
X109000000Y-66500000D03*
X113000000Y-73000000D03*
D15*
X114500000Y-56600000D03*
D16*
X100000000Y-71000000D03*
X110000000Y-69000000D03*
X104000000Y-79000000D03*
X111000000Y-69000000D03*
D15*
X107200000Y-61200000D03*
D16*
X115000000Y-73000000D03*
D15*
X106100000Y-54000000D03*
D16*
X95466667Y-54600000D03*
X107000000Y-81000000D03*
X100000000Y-69000000D03*
X96000000Y-71000000D03*
X112000000Y-71000000D03*
X98988360Y-60523894D03*
X116000000Y-71000000D03*
D15*
X98100000Y-58700000D03*
D16*
X93700000Y-79000000D03*
D15*
X102740000Y-57010000D03*
D16*
X87540000Y-73430000D03*
X114000000Y-73000000D03*
X108000000Y-81000000D03*
D15*
X111470000Y-57160000D03*
X99700000Y-57000000D03*
X115400000Y-58700000D03*
D16*
X103000000Y-71000000D03*
X115000000Y-81000000D03*
X94800000Y-79000000D03*
D15*
X99000000Y-57000000D03*
X111800000Y-53900000D03*
D16*
X105095580Y-66115910D03*
D15*
X98100000Y-55400000D03*
D16*
X122683333Y-73400000D03*
X101000000Y-79000000D03*
D15*
X116800000Y-55600000D03*
D16*
X91466667Y-78500000D03*
X115103515Y-49569046D03*
X116326549Y-62291466D03*
D15*
X114500000Y-57500000D03*
D16*
X122966667Y-54500000D03*
X125500000Y-73420000D03*
D15*
X108000000Y-52900000D03*
D16*
X111061353Y-47500751D03*
X117000000Y-79000000D03*
X115103514Y-64430952D03*
X98000000Y-83000000D03*
X107000000Y-79000000D03*
D15*
X109600000Y-61600000D03*
D16*
X115000000Y-79000000D03*
X116000000Y-73000000D03*
X105000000Y-81000000D03*
X102700000Y-64400000D03*
D15*
X112800000Y-55200000D03*
D16*
X91366667Y-73400000D03*
X123766667Y-73400000D03*
X117000000Y-69000000D03*
X122483333Y-78600000D03*
D15*
X113500000Y-56500000D03*
D16*
X98000000Y-79000000D03*
X114430964Y-48896494D03*
X94600000Y-73400000D03*
X104300000Y-65700000D03*
X123990000Y-59530000D03*
X92166667Y-59500000D03*
X124940000Y-54520000D03*
X90383333Y-78500000D03*
X109000000Y-69000000D03*
X116000000Y-81000000D03*
X90283333Y-73400000D03*
X108000000Y-71000000D03*
X119750000Y-54500000D03*
D15*
X96400000Y-59500000D03*
D16*
X108000000Y-73000000D03*
X109000000Y-47500000D03*
X109000000Y-79000000D03*
X111000000Y-81000000D03*
D15*
X103340000Y-56410000D03*
D16*
X99000000Y-79000000D03*
X104000000Y-83000000D03*
X107000000Y-83000000D03*
D15*
X104140000Y-58310000D03*
X116500000Y-60300000D03*
D16*
X103000000Y-69000000D03*
X104497617Y-48184929D03*
D15*
X103540000Y-57610000D03*
X100500000Y-57000000D03*
D16*
X104000000Y-71000000D03*
X101000000Y-83000000D03*
X114000000Y-83000000D03*
X102000000Y-79000000D03*
X92066667Y-54600000D03*
X112000000Y-81000000D03*
X124390000Y-78610000D03*
D15*
X106500000Y-60800000D03*
D16*
X112000000Y-73000000D03*
X117583333Y-54500000D03*
X110000000Y-71000000D03*
X116500000Y-59500000D03*
X115000000Y-69000000D03*
X118666666Y-59500000D03*
D15*
X108800000Y-52900000D03*
D16*
X100000000Y-83000000D03*
X113062469Y-66046049D03*
X114000000Y-81000000D03*
D15*
X107300000Y-52900000D03*
D16*
X107000000Y-71000000D03*
D15*
X108000000Y-61500000D03*
D16*
X110000000Y-73000000D03*
X117583333Y-59500000D03*
D15*
X105540000Y-54510000D03*
D16*
X113000000Y-79000000D03*
X118000000Y-69000000D03*
X94383333Y-54600000D03*
X99744488Y-52719977D03*
X116500000Y-54500000D03*
X99744488Y-61280022D03*
X114430953Y-65103514D03*
D15*
X105540000Y-59610000D03*
D16*
X121600000Y-73400000D03*
X89200000Y-73400000D03*
D15*
X98100000Y-58000000D03*
D16*
X105568181Y-47713215D03*
X110000000Y-83000000D03*
X98000000Y-81000000D03*
D15*
X104140000Y-55610000D03*
X108800000Y-61600000D03*
X110907500Y-54160000D03*
D16*
X106000000Y-69000000D03*
X101000000Y-69000000D03*
X98232233Y-54232233D03*
X102012870Y-63548404D03*
X103000000Y-79000000D03*
X116326553Y-51708545D03*
X115851213Y-50560971D03*
X123066667Y-59500000D03*
X118666666Y-54500000D03*
D15*
X101400000Y-57000000D03*
D16*
X101000000Y-73000000D03*
X106000000Y-71000000D03*
D15*
X113600000Y-57500000D03*
D16*
X87410000Y-78490000D03*
X114000000Y-69000000D03*
X101256743Y-62792277D03*
X104000000Y-69000000D03*
X90983333Y-54600000D03*
D15*
X116000000Y-55900000D03*
D16*
X106000000Y-79000000D03*
X103000000Y-81000000D03*
X101000000Y-71000000D03*
X121983333Y-59500000D03*
X96000000Y-69000000D03*
X108000000Y-79000000D03*
X105000000Y-73000000D03*
X97000000Y-69000000D03*
%TD*%
D17*
%TO.N,VDD*%
X108587500Y-55690000D02*
X109830000Y-55690000D01*
X109830000Y-55690000D02*
X109890000Y-55630000D01*
X108577500Y-54600000D02*
X108577500Y-55680000D01*
X109332500Y-54600000D02*
X109772500Y-54160000D01*
X108577500Y-54600000D02*
X109332500Y-54600000D01*
D18*
X108577500Y-55680000D02*
X108587500Y-55690000D01*
D17*
%TO.N,VSS*%
X110467500Y-58732500D02*
X110467500Y-57600000D01*
X109900000Y-59300000D02*
X110467500Y-58732500D01*
X108067500Y-59900000D02*
X109300000Y-59900000D01*
X109932500Y-60800000D02*
X109932500Y-59332500D01*
X109300000Y-59900000D02*
X109900000Y-59300000D01*
X109932500Y-59332500D02*
X109900000Y-59300000D01*
%TD*%
%TA.AperFunction,Conductor*%
%TO.N,GND*%
G36*
X125009639Y-46252027D02*
G01*
X125026026Y-46254622D01*
X125057700Y-46259639D01*
X125094595Y-46271627D01*
X125129153Y-46289235D01*
X125131061Y-46290621D01*
X125132286Y-46290888D01*
X125160540Y-46312039D01*
X125187960Y-46339459D01*
X125210764Y-46370846D01*
X125228372Y-46405404D01*
X125240360Y-46442297D01*
X125247973Y-46490356D01*
X125249500Y-46509757D01*
X125249500Y-68449830D01*
X125249578Y-68450224D01*
X125254397Y-68464423D01*
X125273384Y-68535282D01*
X125273386Y-68535286D01*
X125273386Y-68535287D01*
X125319530Y-68615212D01*
X125384788Y-68680470D01*
X125464713Y-68726614D01*
X125543419Y-68747703D01*
X125550172Y-68750500D01*
X125553858Y-68750500D01*
X125600003Y-68750500D01*
X125630134Y-68750500D01*
X125634747Y-68750845D01*
X125663289Y-68761596D01*
X125692539Y-68770185D01*
X125695663Y-68773790D01*
X125700132Y-68775474D01*
X125718334Y-68799954D01*
X125738294Y-68822989D01*
X125739465Y-68828373D01*
X125741822Y-68831543D01*
X125742584Y-68842709D01*
X125749500Y-68874500D01*
X125749500Y-84490240D01*
X125747973Y-84509640D01*
X125740360Y-84557701D01*
X125728372Y-84594595D01*
X125710764Y-84629153D01*
X125709377Y-84631061D01*
X125709111Y-84632286D01*
X125687960Y-84660540D01*
X125660540Y-84687960D01*
X125629153Y-84710764D01*
X125594595Y-84728372D01*
X125557701Y-84740360D01*
X125524355Y-84745642D01*
X125509638Y-84747973D01*
X125490241Y-84749500D01*
X87509759Y-84749500D01*
X87490361Y-84747973D01*
X87471300Y-84744954D01*
X87442298Y-84740360D01*
X87405404Y-84728372D01*
X87370846Y-84710764D01*
X87339459Y-84687960D01*
X87312039Y-84660540D01*
X87289235Y-84629153D01*
X87271627Y-84594595D01*
X87259639Y-84557699D01*
X87252027Y-84509638D01*
X87250500Y-84490240D01*
X87250500Y-68874500D01*
X87251728Y-68870315D01*
X87250788Y-68866057D01*
X87261486Y-68837084D01*
X87270185Y-68807461D01*
X87273479Y-68804606D01*
X87274991Y-68800513D01*
X87299661Y-68781919D01*
X87322989Y-68761706D01*
X87328287Y-68760344D01*
X87330788Y-68758460D01*
X87347368Y-68755440D01*
X87365251Y-68750845D01*
X87369863Y-68750500D01*
X87399997Y-68750500D01*
X87446142Y-68750500D01*
X87449828Y-68750500D01*
X87456580Y-68747703D01*
X87535287Y-68726614D01*
X87615212Y-68680470D01*
X87680470Y-68615212D01*
X87726614Y-68535287D01*
X87745604Y-68464411D01*
X87750420Y-68450225D01*
X87750500Y-68449828D01*
X87750500Y-59711258D01*
X107499500Y-59711258D01*
X107499500Y-60088742D01*
X107507050Y-60140565D01*
X107509567Y-60157842D01*
X107561676Y-60264430D01*
X107645569Y-60348323D01*
X107752157Y-60400432D01*
X107752158Y-60400432D01*
X107752160Y-60400433D01*
X107821258Y-60410500D01*
X107821264Y-60410500D01*
X108313736Y-60410500D01*
X108313742Y-60410500D01*
X108382840Y-60400433D01*
X108482728Y-60351600D01*
X108537189Y-60339000D01*
X109275242Y-60339000D01*
X109342281Y-60358685D01*
X109388036Y-60411489D01*
X109397980Y-60480647D01*
X109386643Y-60517458D01*
X109374567Y-60542160D01*
X109364500Y-60611258D01*
X109364500Y-60988742D01*
X109372050Y-61040565D01*
X109374567Y-61057842D01*
X109426676Y-61164430D01*
X109510569Y-61248323D01*
X109617157Y-61300432D01*
X109617158Y-61300432D01*
X109617160Y-61300433D01*
X109686258Y-61310500D01*
X109686264Y-61310500D01*
X110178736Y-61310500D01*
X110178742Y-61310500D01*
X110247840Y-61300433D01*
X110354429Y-61248324D01*
X110354430Y-61248323D01*
X110354432Y-61248322D01*
X110438322Y-61164432D01*
X110438323Y-61164430D01*
X110438324Y-61164429D01*
X110490433Y-61057840D01*
X110500500Y-60988742D01*
X110500500Y-60611258D01*
X110490433Y-60542160D01*
X110438324Y-60435571D01*
X110438323Y-60435570D01*
X110438323Y-60435569D01*
X110407819Y-60405065D01*
X110374334Y-60343742D01*
X110371500Y-60317384D01*
X110371500Y-60001347D01*
X110391185Y-59934308D01*
X110426608Y-59898246D01*
X110469552Y-59869552D01*
X110513867Y-59803231D01*
X110513867Y-59803229D01*
X110513868Y-59803229D01*
X110525499Y-59744752D01*
X110525500Y-59744750D01*
X110525500Y-59346702D01*
X110545185Y-59279663D01*
X110561819Y-59259021D01*
X110567542Y-59253298D01*
X110818787Y-59002053D01*
X110876583Y-58901948D01*
X110886957Y-58863231D01*
X110906500Y-58790295D01*
X110906500Y-58082615D01*
X110926185Y-58015576D01*
X110942820Y-57994933D01*
X110973323Y-57964430D01*
X110973324Y-57964429D01*
X111025433Y-57857840D01*
X111035500Y-57788742D01*
X111035500Y-57411258D01*
X111025433Y-57342160D01*
X111007510Y-57305499D01*
X110973323Y-57235569D01*
X110889430Y-57151676D01*
X110782842Y-57099567D01*
X110765565Y-57097050D01*
X110713742Y-57089500D01*
X110221258Y-57089500D01*
X110175192Y-57096211D01*
X110152157Y-57099567D01*
X110045569Y-57151676D01*
X110045568Y-57151678D01*
X109961678Y-57235568D01*
X109961676Y-57235569D01*
X109909567Y-57342157D01*
X109909567Y-57342160D01*
X109899500Y-57411258D01*
X109899500Y-57788742D01*
X109899749Y-57790448D01*
X109909567Y-57857842D01*
X109961676Y-57964430D01*
X109961677Y-57964431D01*
X109992180Y-57994933D01*
X110025666Y-58056255D01*
X110028500Y-58082615D01*
X110028500Y-58499298D01*
X110019855Y-58528738D01*
X110013332Y-58558725D01*
X110009577Y-58563740D01*
X110008815Y-58566337D01*
X109992181Y-58586979D01*
X109940979Y-58638181D01*
X109879656Y-58671666D01*
X109853298Y-58674500D01*
X109455247Y-58674500D01*
X109396770Y-58686131D01*
X109396769Y-58686132D01*
X109330447Y-58730447D01*
X109286132Y-58796769D01*
X109286131Y-58796770D01*
X109274500Y-58855247D01*
X109274500Y-59253298D01*
X109265855Y-59282738D01*
X109259332Y-59312725D01*
X109255577Y-59317740D01*
X109254815Y-59320337D01*
X109238181Y-59340979D01*
X109154479Y-59424681D01*
X109093156Y-59458166D01*
X109066798Y-59461000D01*
X108537189Y-59461000D01*
X108482728Y-59448400D01*
X108382842Y-59399567D01*
X108365565Y-59397050D01*
X108313742Y-59389500D01*
X107821258Y-59389500D01*
X107775192Y-59396211D01*
X107752157Y-59399567D01*
X107645569Y-59451676D01*
X107645568Y-59451678D01*
X107561678Y-59535568D01*
X107561676Y-59535569D01*
X107509567Y-59642157D01*
X107509567Y-59642160D01*
X107499500Y-59711258D01*
X87750500Y-59711258D01*
X87750500Y-57915247D01*
X106774500Y-57915247D01*
X106774500Y-58804752D01*
X106786131Y-58863229D01*
X106786132Y-58863230D01*
X106830447Y-58929552D01*
X106896769Y-58973867D01*
X106896770Y-58973868D01*
X106955247Y-58985499D01*
X106955250Y-58985500D01*
X106955252Y-58985500D01*
X107844750Y-58985500D01*
X107844751Y-58985499D01*
X107859568Y-58982552D01*
X107903229Y-58973868D01*
X107903229Y-58973867D01*
X107903231Y-58973867D01*
X107969552Y-58929552D01*
X108013867Y-58863231D01*
X108013867Y-58863229D01*
X108013868Y-58863229D01*
X108025499Y-58804752D01*
X108025500Y-58804750D01*
X108025500Y-57915249D01*
X108025499Y-57915247D01*
X108013868Y-57856770D01*
X108013867Y-57856769D01*
X107969552Y-57790447D01*
X107903230Y-57746132D01*
X107903229Y-57746131D01*
X107844752Y-57734500D01*
X107844748Y-57734500D01*
X106955252Y-57734500D01*
X106955247Y-57734500D01*
X106896770Y-57746131D01*
X106896769Y-57746132D01*
X106830447Y-57790447D01*
X106786132Y-57856769D01*
X106786131Y-57856770D01*
X106774500Y-57915247D01*
X87750500Y-57915247D01*
X87750500Y-56235247D01*
X104294500Y-56235247D01*
X104294500Y-57124752D01*
X104306131Y-57183229D01*
X104306132Y-57183230D01*
X104350447Y-57249552D01*
X104416769Y-57293867D01*
X104416770Y-57293868D01*
X104475247Y-57305499D01*
X104475250Y-57305500D01*
X104475252Y-57305500D01*
X105364750Y-57305500D01*
X105364751Y-57305499D01*
X105379568Y-57302552D01*
X105423229Y-57293868D01*
X105423229Y-57293867D01*
X105423231Y-57293867D01*
X105489552Y-57249552D01*
X105533867Y-57183231D01*
X105533867Y-57183229D01*
X105533868Y-57183229D01*
X105545499Y-57124752D01*
X105545500Y-57124750D01*
X105545500Y-56235249D01*
X105545499Y-56235247D01*
X105533868Y-56176770D01*
X105533867Y-56176769D01*
X105489552Y-56110447D01*
X105423230Y-56066132D01*
X105423229Y-56066131D01*
X105364752Y-56054500D01*
X105364748Y-56054500D01*
X104475252Y-56054500D01*
X104475247Y-56054500D01*
X104416770Y-56066131D01*
X104416769Y-56066132D01*
X104350447Y-56110447D01*
X104306132Y-56176769D01*
X104306131Y-56176770D01*
X104294500Y-56235247D01*
X87750500Y-56235247D01*
X87750500Y-54411258D01*
X108009500Y-54411258D01*
X108009500Y-54788742D01*
X108017050Y-54840565D01*
X108019567Y-54857842D01*
X108071676Y-54964430D01*
X108071677Y-54964431D01*
X108102180Y-54994933D01*
X108116885Y-55021863D01*
X108133477Y-55047680D01*
X108134368Y-55053878D01*
X108135666Y-55056255D01*
X108138500Y-55082615D01*
X108138500Y-55217384D01*
X108118815Y-55284423D01*
X108102181Y-55305065D01*
X108081678Y-55325568D01*
X108081676Y-55325569D01*
X108029567Y-55432157D01*
X108029567Y-55432160D01*
X108019500Y-55501258D01*
X108019500Y-55878742D01*
X108027050Y-55930565D01*
X108029567Y-55947842D01*
X108081676Y-56054430D01*
X108165569Y-56138323D01*
X108272157Y-56190432D01*
X108272158Y-56190432D01*
X108272160Y-56190433D01*
X108341258Y-56200500D01*
X108341264Y-56200500D01*
X108833736Y-56200500D01*
X108833742Y-56200500D01*
X108902840Y-56190433D01*
X109002728Y-56141600D01*
X109014815Y-56138803D01*
X109022254Y-56134023D01*
X109057189Y-56129000D01*
X109207027Y-56129000D01*
X109274066Y-56148685D01*
X109310129Y-56184109D01*
X109320447Y-56199552D01*
X109386769Y-56243867D01*
X109386770Y-56243868D01*
X109445247Y-56255499D01*
X109445250Y-56255500D01*
X109445252Y-56255500D01*
X110334750Y-56255500D01*
X110334751Y-56255499D01*
X110349568Y-56252552D01*
X110393229Y-56243868D01*
X110393229Y-56243867D01*
X110393231Y-56243867D01*
X110459552Y-56199552D01*
X110503867Y-56133231D01*
X110503867Y-56133229D01*
X110503868Y-56133229D01*
X110515499Y-56074752D01*
X110515500Y-56074750D01*
X110515500Y-55185249D01*
X110515499Y-55185247D01*
X110503868Y-55126770D01*
X110503867Y-55126769D01*
X110459552Y-55060447D01*
X110393230Y-55016132D01*
X110393229Y-55016131D01*
X110334752Y-55004500D01*
X110334748Y-55004500D01*
X109848202Y-55004500D01*
X109826956Y-54998261D01*
X109804868Y-54996682D01*
X109794084Y-54988609D01*
X109781163Y-54984815D01*
X109766663Y-54968081D01*
X109748935Y-54954810D01*
X109744227Y-54942189D01*
X109735408Y-54932011D01*
X109732256Y-54910093D01*
X109724518Y-54889346D01*
X109727380Y-54876185D01*
X109725464Y-54862853D01*
X109734663Y-54842709D01*
X109739370Y-54821073D01*
X109752638Y-54803347D01*
X109754489Y-54799297D01*
X109760521Y-54792819D01*
X109846521Y-54706819D01*
X109907844Y-54673334D01*
X109934202Y-54670500D01*
X110018736Y-54670500D01*
X110018742Y-54670500D01*
X110087840Y-54660433D01*
X110194429Y-54608324D01*
X110194430Y-54608323D01*
X110194432Y-54608322D01*
X110278322Y-54524432D01*
X110278323Y-54524430D01*
X110278324Y-54524429D01*
X110330433Y-54417840D01*
X110340500Y-54348742D01*
X110340500Y-53971258D01*
X110330433Y-53902160D01*
X110278324Y-53795571D01*
X110278323Y-53795570D01*
X110278323Y-53795569D01*
X110194430Y-53711676D01*
X110087842Y-53659567D01*
X110070565Y-53657050D01*
X110018742Y-53649500D01*
X109526258Y-53649500D01*
X109480192Y-53656211D01*
X109457157Y-53659567D01*
X109350569Y-53711676D01*
X109350568Y-53711678D01*
X109266678Y-53795568D01*
X109266676Y-53795569D01*
X109214567Y-53902157D01*
X109214567Y-53902160D01*
X109204500Y-53971258D01*
X109204500Y-53971263D01*
X109204500Y-54037000D01*
X109201949Y-54045685D01*
X109203238Y-54054647D01*
X109192259Y-54078687D01*
X109184815Y-54104039D01*
X109177974Y-54109966D01*
X109174213Y-54118203D01*
X109151978Y-54132492D01*
X109132011Y-54149794D01*
X109121496Y-54152081D01*
X109115435Y-54155977D01*
X109080500Y-54161000D01*
X109047189Y-54161000D01*
X108992728Y-54148400D01*
X108892842Y-54099567D01*
X108875565Y-54097050D01*
X108823742Y-54089500D01*
X108331258Y-54089500D01*
X108285192Y-54096211D01*
X108262157Y-54099567D01*
X108155569Y-54151676D01*
X108155568Y-54151678D01*
X108071678Y-54235568D01*
X108071676Y-54235569D01*
X108019567Y-54342157D01*
X108019567Y-54342160D01*
X108009500Y-54411258D01*
X87750500Y-54411258D01*
X87750500Y-46509757D01*
X87752027Y-46490359D01*
X87758392Y-46450172D01*
X87759640Y-46442297D01*
X87771627Y-46405404D01*
X87789235Y-46370846D01*
X87812036Y-46339462D01*
X87839462Y-46312036D01*
X87870844Y-46289236D01*
X87905404Y-46271626D01*
X87942297Y-46259639D01*
X87979573Y-46253735D01*
X87990361Y-46252027D01*
X88009759Y-46250500D01*
X88044171Y-46250500D01*
X124955829Y-46250500D01*
X124990241Y-46250500D01*
X125009639Y-46252027D01*
G37*
%TD.AperFunction*%
%TD*%
M02*
