M48
; DRILL file {KiCad 9.0.2} date 2026-06-25T16:30:10-0500
; FORMAT={-:-/ absolute / metric / decimal}
; #@! TF.CreationDate,2026-06-25T16:30:10-05:00
; #@! TF.GenerationSoftware,Kicad,Pcbnew,9.0.2
; #@! TF.FileFunction,MixedPlating,1,2
FMAT,2
METRIC
; #@! TA.AperFunction,Plated,PTH,ViaDrill
T1C0.260
; #@! TA.AperFunction,Plated,PTH,ViaDrill
T2C0.300
; #@! TA.AperFunction,Plated,PTH,ComponentDrill
T3C0.500
; #@! TA.AperFunction,Plated,PTH,ComponentDrill
T4C2.500
%
G90
G05
T1
X87.41Y-78.49
X87.54Y-73.43
X88.07Y-54.57
X88.24Y-59.5
X88.35Y-78.49
X88.4Y-73.42
X89.04Y-54.57
X89.2Y-59.5
X89.2Y-73.4
X89.3Y-78.5
X89.9Y-54.6
X90.0Y-59.5
X90.283Y-73.4
X90.383Y-78.5
X90.983Y-54.6
X91.083Y-59.5
X91.367Y-73.4
X91.467Y-78.5
X92.067Y-54.6
X92.167Y-59.5
X92.6Y-73.4
X92.6Y-78.533
X93.3Y-54.6
X93.3Y-59.5
X93.6Y-73.4
X93.7Y-79.0
X94.0Y-71.0
X94.0Y-81.0
X94.383Y-54.6
X94.383Y-59.5
X94.6Y-73.4
X94.8Y-79.0
X95.0Y-71.0
X95.0Y-81.0
X95.467Y-54.6
X95.467Y-59.5
X96.0Y-69.0
X96.0Y-71.0
X96.0Y-73.0
X96.0Y-79.0
X96.0Y-81.0
X96.0Y-83.0
X97.0Y-69.0
X97.0Y-71.0
X97.0Y-73.0
X97.0Y-79.0
X97.0Y-81.0
X97.0Y-83.0
X98.0Y-69.0
X98.0Y-71.0
X98.0Y-73.0
X98.0Y-79.0
X98.0Y-81.0
X98.0Y-83.0
X98.232Y-54.232
X98.232Y-59.768
X98.988Y-53.476
X98.988Y-60.524
X99.0Y-69.0
X99.0Y-71.0
X99.0Y-73.0
X99.0Y-79.0
X99.0Y-81.0
X99.0Y-83.0
X99.744Y-52.72
X99.744Y-61.28
X100.0Y-69.0
X100.0Y-71.0
X100.0Y-73.0
X100.0Y-79.0
X100.0Y-81.0
X100.0Y-83.0
X100.501Y-51.964
X100.501Y-62.036
X101.0Y-69.0
X101.0Y-71.0
X101.0Y-73.0
X101.0Y-79.0
X101.0Y-81.0
X101.0Y-83.0
X101.257Y-51.208
X101.257Y-62.792
X102.0Y-69.0
X102.0Y-71.0
X102.0Y-73.0
X102.0Y-79.0
X102.0Y-81.0
X102.0Y-83.0
X102.013Y-50.452
X102.013Y-63.548
X102.7Y-49.7
X102.7Y-64.4
X103.0Y-69.0
X103.0Y-71.0
X103.0Y-73.0
X103.0Y-79.0
X103.0Y-81.0
X103.0Y-83.0
X103.569Y-65.104
X103.569Y-48.896
X104.0Y-69.0
X104.0Y-71.0
X104.0Y-73.0
X104.0Y-79.0
X104.0Y-81.0
X104.0Y-83.0
X104.3Y-65.7
X104.498Y-48.185
X105.0Y-69.0
X105.0Y-71.0
X105.0Y-73.0
X105.0Y-79.0
X105.0Y-81.0
X105.0Y-83.0
X105.096Y-66.116
X105.096Y-66.116
X105.568Y-47.713
X106.0Y-66.4
X106.0Y-69.0
X106.0Y-71.0
X106.0Y-73.0
X106.0Y-79.0
X106.0Y-81.0
X106.0Y-83.0
X106.8Y-47.6
X106.939Y-66.499
X107.0Y-69.0
X107.0Y-71.0
X107.0Y-73.0
X107.0Y-79.0
X107.0Y-81.0
X107.0Y-83.0
X108.0Y-47.5
X108.0Y-66.5
X108.0Y-69.0
X108.0Y-71.0
X108.0Y-73.0
X108.0Y-79.0
X108.0Y-81.0
X108.0Y-83.0
X109.0Y-47.5
X109.0Y-66.5
X109.0Y-69.0
X109.0Y-71.0
X109.0Y-73.0
X109.0Y-79.0
X109.0Y-81.0
X109.0Y-83.0
X110.0Y-47.5
X110.0Y-66.5
X110.0Y-69.0
X110.0Y-71.0
X110.0Y-73.0
X110.0Y-79.0
X110.0Y-81.0
X110.0Y-83.0
X111.0Y-69.0
X111.0Y-71.0
X111.0Y-73.0
X111.0Y-79.0
X111.0Y-81.0
X111.0Y-83.0
X111.061Y-47.501
X111.061Y-66.499
X112.0Y-69.0
X112.0Y-71.0
X112.0Y-73.0
X112.0Y-79.0
X112.0Y-81.0
X112.0Y-83.0
X112.086Y-66.378
X112.291Y-47.673
X113.0Y-69.0
X113.0Y-71.0
X113.0Y-73.0
X113.0Y-79.0
X113.0Y-81.0
X113.0Y-83.0
X113.062Y-66.046
X113.062Y-66.046
X113.439Y-48.149
X113.8Y-65.6
X114.0Y-69.0
X114.0Y-71.0
X114.0Y-73.0
X114.0Y-79.0
X114.0Y-81.0
X114.0Y-83.0
X114.431Y-65.104
X114.431Y-48.896
X115.0Y-69.0
X115.0Y-71.0
X115.0Y-73.0
X115.0Y-79.0
X115.0Y-81.0
X115.0Y-83.0
X115.104Y-64.431
X115.104Y-49.569
X115.851Y-63.439
X115.851Y-50.561
X116.0Y-69.0
X116.0Y-71.0
X116.0Y-73.0
X116.0Y-79.0
X116.0Y-81.0
X116.0Y-83.0
X116.327Y-62.291
X116.327Y-51.709
X116.499Y-52.939
X116.499Y-61.061
X116.5Y-54.5
X116.5Y-59.5
X117.0Y-69.0
X117.0Y-73.0
X117.0Y-79.0
X117.0Y-83.0
X117.583Y-54.5
X117.583Y-59.5
X118.0Y-69.0
X118.0Y-73.0
X118.0Y-79.0
X118.0Y-83.0
X118.667Y-54.5
X118.667Y-59.5
X119.2Y-79.0
X119.4Y-73.3
X119.75Y-54.5
X119.75Y-59.5
X120.3Y-73.5
X120.4Y-78.433
X120.8Y-54.5
X120.9Y-59.5
X121.4Y-78.6
X121.6Y-73.4
X121.883Y-54.5
X121.983Y-59.5
X122.483Y-78.6
X122.683Y-73.4
X122.967Y-54.5
X123.067Y-59.5
X123.567Y-78.6
X123.767Y-73.4
X123.99Y-59.53
X124.02Y-54.5
X124.39Y-78.61
X124.7Y-73.41
X124.92Y-59.53
X124.94Y-54.52
X125.34Y-78.63
X125.5Y-73.42
T2
X97.14Y-56.18
X97.25Y-57.77
X98.1Y-57.0
X99.0Y-57.0
X102.74Y-57.01
X103.34Y-56.41
X103.54Y-57.61
X104.14Y-55.61
X104.14Y-58.31
X104.84Y-54.91
X104.94Y-59.01
X105.54Y-54.51
X105.54Y-59.61
X111.47Y-57.16
X112.1Y-59.3
X112.2Y-54.8
X112.6Y-58.7
X112.8Y-55.2
X113.5Y-56.5
X113.6Y-57.5
X114.0Y-57.0
X114.5Y-56.6
X114.5Y-57.5
X115.4Y-58.7
X115.6Y-55.1
X115.87Y-58.02
X116.0Y-55.9
X116.06Y-58.91
X116.6Y-58.4
X116.8Y-55.6
T3
X104.92Y-56.68
X107.4Y-58.36
X109.81Y-60.02
X109.89Y-55.63
T4
X89.8Y-71.3
X89.8Y-80.7
X90.3Y-52.325
X90.3Y-61.725
X122.7Y-52.3
X122.7Y-61.7
X123.2Y-71.3
X123.2Y-80.7
M30
